<svg fill="none" height="350" viewBox="0 0 400 350" width="400" xmlns="http://www.w3.org/2000/svg"><path clip-rule="evenodd" d="m378.635 191.783c2.404-87.873-12.048-139.2641-30.685-166.4195-.153-.2749-.323-.54-.509-.7937-10.521-14.99506-22.258-22.36502-33.062-24.349247l-1.216-.1700795c-.791-.0566641-1.585-.0566641-2.376 0-30.261 2.2676765-74.748 94.8457265-74.748 94.8457265-24.795-2.367-49.757-2.367-74.551 0 0 0-48.079-100.20312-78.3407-94.675647-30.2615 5.527477-67.0844 53.602247-63.3229 191.732447 0 0-20.674016 18.907-19.7972829 30.727.8201759 9.411 14.3388829 17.008 14.3388829 17.008s-13.0662 14.456-8.17345 32.513c8.43615 28.989 56.34595 49.644 83.29175 58.734 75.3147 25.058 150.1477 25.597 225.4627.539 28.663-9.526 61.124-27.535 74.86-55.503.254-.482.452-.936.622-1.333.169-.396.255-.595.368-.85l.198-.595c0-.203.083-.394.165-.581.044-.1.088-.199.117-.298.359-1.382.642-2.783.849-4.195.38-3.044.332-6.126-.142-9.156-.141-.793-.283-1.588-.452-2.353-.244-1.133-.555-2.25-.933-3.345-1.63-4.921-4.173-9.489-7.495-13.464h.141c.849-.283 13.236-4.592 16.149-15.76.335-1.251.534-2.534.594-3.827v-.425c.594-13.691-21.353-28.006-21.353-28.006zm-245.898-24.791c11.959 2.429 18.934 17.789 15.58 34.308-3.355 16.519-15.77 27.942-27.729 25.513s-18.935-17.789-15.58-34.308 15.77-27.942 27.729-25.513zm118.939 34.308c-3.355-16.519 3.62-31.879 15.579-34.308 11.96-2.429 24.374 8.994 27.729 25.513s-3.62 31.879-15.58 34.308c-11.959 2.429-24.373-8.994-27.728-25.513zm-51.678 15.367c21.649 0 39.167 11.322 39.167 25.299 0 8.667-12.281 22.128-26.554 25.816-7.974 1.97-16.331 1.753-24.193-.627-15.268-3.688-27.586-16.485-27.586-25.152 0-14.014 17.518-25.336 39.166-25.336zm62.712 41.782c-.428-.761-1.066-1.383-1.851-1.765-.786-.383-1.669-.517-2.532-.384-.864.132-1.666.524-2.301 1.124s-1.072 1.379-1.253 2.234l-.045.213v.334c-.929 5.314-2.489 10.499-4.649 15.444-1.773 3.829-4.582 7.085-8.108 9.401-4.323 2.421-9.044 4.049-13.94 4.806-1.465.154-2.928.381-4.352.603l-.091.014c-1.404.22-2.776.434-4.165.59-3.102.159-6.194.49-9.26.99h-.243l-.189.035c-.895.166-1.713.615-2.334 1.28-.622.665-1.014 1.512-1.119 2.417-.105.904.083 1.818.535 2.608.453.79 1.146 1.414 1.98 1.781l.041.018c3.121 1.295 6.32 2.395 9.577 3.293l.112.028c3.355.727 6.748 1.257 10.165 1.587l.065.005c7.681.496 15.348-1.158 22.14-4.778l.036-.019c3.718-2.074 6.957-4.908 9.506-8.318 2.48-3.354 4.263-7.184 5.228-11.242l.018-.086c.367-1.895.624-3.81.77-5.735l.006-.14c.015-1.875-.089-3.748-.309-5.609-.44-3.766-1.607-7.409-3.438-10.729z" fill="#fff" fill-rule="evenodd"/></svg>