<svg fill="none" height="28" viewBox="0 0 200 28" width="200" xmlns="http://www.w3.org/2000/svg"><path clip-rule="evenodd" d="m92.6977 0c-5.1948 0-8.472 5.02393-9.5418 9.66916-.1829-6.22517-3.2408-9.66916-8.1336-9.66916-4.2272 0-8.149 3.77394-9.1676 9.74428v-9.2974h-5.9357v26.27062h6.0118v-9.4179c0-2.3348.9724-11.91641 7.0243-11.91641 3.9204 0 4.3292 3.54027 4.3292 8.37961v12.9547h6.009v-9.4179c0-2.3348 1.0126-11.91641 7.0645-11.91641 3.9172 0 4.3219 3.54027 4.3219 8.37961v12.9547h6.0173v-15.5389c.028-7.45471-2.6016-11.1786-7.9993-11.1786zm26.1763.00058584c-4.131 0-8.171 3.74577416-8.635 9.15808416v-8.711899h-5.934v26.268629h6.006v-12.7151c0-3.5618 2.522-8.58609 8.563-8.58609zm63.003 22.50951416v-17.99712h3.48c4.639 0 8.409 2.90276 8.409 8.85342 0 5.9507-3.77 9.1437-8.409 9.1437zm-5.943 4.209h10.148c6.234 0 13.918-4.0639 13.918-13.3527 0-9.1437-7.684-12.917288-13.918-12.917288h-10.148zm-16.221-21.77075c-4.059 0-6.523 3.91873-6.523 8.70825 0 4.7896 2.464 8.7083 6.523 8.7083 3.914 0 6.089-3.9187 6.089-8.7083 0-4.78952-2.175-8.70825-6.089-8.70825zm-2.174 22.35125c-6.379 0-10.438-5.5153-10.438-13.3527 0-7.98258 4.349-13.9332455 10.872-13.9332455 4.35 0 7.105 2.7576255 8.409 7.4020455v-6.966631h5.944v26.270031h-5.944v-7.4021c-1.449 4.9348-4.204 7.9826-8.843 7.9826zm-145.7959 0c-7.39378 0-11.7431-5.9506-11.7431-13.3527 0-7.69231 4.78425-13.9332455 13.9178-13.9332455 9.4235 0 12.613 6.3860755 12.758 10.0145455h-6.8139c-.145-2.03196-1.8847-5.07985-6.089-5.07985-4.49438 0-7.39391 3.91873-7.39391 8.70825 0 4.7896 2.89953 8.7083 7.39391 8.7083 4.0593 0 5.799-3.193 6.5239-6.386h-6.5239v-2.6125h13.6895v13.3527h-6.0058v-8.4181c-.435 3.048-2.3196 8.9986-9.7135 8.9986zm18.762-11.3207c0 7.5472 3.4794 11.3208 9.1335 11.3208 6.379 0 9.5685-4.9348 10.7283-10.3049v9.7243h5.9441v-26.269988h-6.089v8.272868c0 5.37012-2.3197 13.06242-8.5537 13.06242-3.1895 0-5.0742-1.8868-5.0742-5.8055v-15.529788h-6.089zm88.2099-2.329c0-7.54061 5.275-13.6499 13.057-13.6499 8.037 0 13.15 5.34127 13.15 13.6499 0 7.5405-5.367 13.6496-13.15 13.6496-8.041 0-13.057-5.341-13.057-13.6496zm5.592 0c0 5.1597 2.934 8.9997 7.465 8.9997 4.518 0 7.348-3.84 7.348-8.9997 0-5.15974-2.828-8.99994-7.348-8.99994-4.521 0-7.465 3.8402-7.465 8.99994z" fill="#fff" fill-rule="evenodd"/></svg>