<svg fill="none" height="88" viewBox="0 0 640 88" width="640" xmlns="http://www.w3.org/2000/svg"><path d="m0 0h640v88h-640z" fill="#fff"/><circle cx="42" cy="44" fill="#fff0f3" r="18"/><path d="m43 51.9c1.1292-.2309 2.144-.8446 2.8729-1.7375.7288-.8928 1.127-2.0099 1.1271-3.1625v-3c.0013-.6882-.14-1.3692-.415-2h-9.17c-.275.6308-.4163 1.3118-.415 2v3c.0001 1.1526.3983 2.2697 1.1271 3.1625.7289.8929 1.7437 1.5066 2.8729 1.7375v-5.9h2zm-7.464-2.21c-.3548-.8524-.537-1.7667-.536-2.69h-3v-2h3v-1c0-.643.087-1.265.249-1.856l-2.213-1.278 1-1.732 2.02 1.166c.0638-.1017.1301-.2017.199-.3h11.49c.069.098.135.199.199.3l2.02-1.166 1 1.732-2.213 1.278c.162.59.249 1.213.249 1.856v1h3v2h-3c0 .953-.19 1.862-.536 2.69l2.5 1.444-1 1.732-2.526-1.458c-.6556.8104-1.4843 1.4638-2.4253 1.9123-.9409.4485-1.9703.6807-3.0127.6797-1.0424.001-2.0718-.2312-3.0127-.6797-.941-.4485-1.7697-1.1019-2.4253-1.9123l-2.526 1.458-1-1.732 2.5-1.443zm2.464-11.69c0-1.0609.4214-2.0783 1.1716-2.8284.7501-.7502 1.7675-1.1716 2.8284-1.1716s2.0783.4214 2.8284 1.1716c.7502.7501 1.1716 1.7675 1.1716 2.8284z" fill="#c23232"/><path d="m84 28h-1v5h3.5v-1h-2.5z" fill="#6e9dfa"/><path clip-rule="evenodd" d="m91 32c0 3.866-3.134 7-7 7s-7-3.134-7-7 3.134-7 7-7 7 3.134 7 7zm-1 0c0 3.3137-2.6863 6-6 6s-6-2.6863-6-6 2.6863-6 6-6 6 2.6863 6 6z" fill="#6e9dfa" fill-rule="evenodd"/><path d="m100.415 37h-3.2964v-10.1818h3.4004c.998 0 1.855.2038 2.57.6115.716.4043 1.265.986 1.646 1.745.385.7557.577 1.6622.577 2.7195 0 1.0606-.194 1.972-.582 2.7344-.384.7623-.941 1.3489-1.67 1.7599-.73.4077-1.611.6115-2.645.6115zm-1.7602-1.3423h1.6752c.776 0 1.42-.1459 1.934-.4375.514-.295.898-.7209 1.154-1.2777.255-.5602.382-1.2429.382-2.0483 0-.7988-.127-1.4766-.382-2.0334-.252-.5568-.628-.9794-1.129-1.2678-.5-.2883-1.122-.4325-1.864-.4325h-1.7702zm10.6702 1.5113c-.484 0-.921-.0895-1.312-.2684-.391-.1823-.701-.4458-.93-.7905-.225-.3447-.338-.7673-.338-1.2678 0-.4308.083-.7855.248-1.0639.166-.2784.39-.4988.672-.6612.281-.1624.596-.2851.944-.3679.348-.0829.703-.1458 1.064-.1889.458-.0531.829-.0961 1.114-.1293.285-.0365.492-.0945.621-.174s.194-.2088.194-.3878v-.0348c0-.4342-.123-.7706-.368-1.0092-.242-.2387-.603-.358-1.084-.358-.5 0-.894.1111-1.183.3331-.285.2188-.482.4624-.591.7308l-1.397-.3181c.165-.464.407-.8386.725-1.1236.322-.2884.691-.4972 1.109-.6264.418-.1326.857-.1989 1.318-.1989.304 0 .628.0365.969.1094.345.0696.666.1988.964.3878.302.1889.549.459.741.8103.192.348.289.8005.289 1.3573v5.071h-1.452v-1.044h-.06c-.096.1922-.24.3811-.432.5667-.193.1856-.439.3398-.741.4624s-.663.1839-1.084.1839zm.323-1.1931c.411 0 .763-.0813 1.054-.2437.295-.1624.519-.3745.671-.6363.156-.2652.234-.5486.234-.8502v-.9843c-.053.053-.156.1027-.308.1491-.149.0431-.32.0812-.512.1144-.192.0298-.38.058-.562.0845-.182.0232-.335.0431-.457.0596-.289.0365-.552.0978-.791.184-.235.0862-.424.2104-.567.3729-.139.159-.208.3712-.208.6363 0 .3679.135.6463.407.8352.272.1856.618.2785 1.039.2785zm5.426 1.0241v-7.6364h1.486v7.6364zm.75-8.8146c-.258 0-.48-.0862-.666-.2586-.182-.1756-.273-.3844-.273-.6264 0-.2452.091-.454.273-.6264.186-.1757.408-.2635.666-.2635.259 0 .479.0878.661.2635.186.1724.279.3812.279.6264 0 .242-.093.4508-.279.6264-.182.1724-.402.2586-.661.2586zm4.222-1.3672v10.1818h-1.486v-10.1818zm2.94 13.0454c-.222 0-.424-.0182-.607-.0547-.182-.0331-.318-.0696-.407-.1093l.358-1.2181c.271.073.513.1044.725.0945.213-.0099.4-.0895.562-.2386.166-.1492.312-.3928.438-.7309l.184-.5071-2.794-7.7358h1.591l1.933 5.9262h.08l1.934-5.9262h1.596l-3.147 8.6556c-.146.3977-.332.7341-.557 1.0092-.225.2784-.494.4872-.805.6264-.312.1392-.673.2088-1.084.2088zm7.969-2.7691c-.272 0-.505-.0962-.701-.2884-.195-.1955-.293-.4309-.293-.706 0-.2717.098-.5037.293-.696.196-.1955.429-.2933.701-.2933s.506.0978.701.2933c.196.1923.294.4243.294.696 0 .1823-.047.3497-.14.5022-.089.1491-.208.2684-.358.3579-.149.0895-.314.1343-.497.1343zm0-5.5583c-.272 0-.505-.0978-.701-.2933-.195-.1956-.293-.4292-.293-.701s.098-.5038.293-.696c.196-.1956.429-.2933.701-.2933s.506.0977.701.2933c.196.1922.294.4242.294.696 0 .1823-.047.3497-.14.5021-.089.1492-.208.2685-.358.358-.149.0895-.314.1342-.497.1342zm12.363-2.0433c-.053-.4706-.271-.8352-.656-1.0938-.384-.2618-.868-.3927-1.452-.3927-.417 0-.778.0663-1.083.1989-.305.1292-.542.3082-.711.5369-.166.2254-.249.4822-.249.7706 0 .2419.056.4507.169.6264.116.1757.267.3232.453.4425.188.116.391.2138.606.2933.215.0762.423.1392.622.1889l.994.2585c.325.0796.658.1873.999.3232.342.1359.658.3149.95.5369.291.2221.527.4972.706.8253.182.3281.273.7209.273 1.1783 0 .5767-.149 1.0888-.447 1.5362-.295.4474-.725.8004-1.288 1.0589-.56.2586-1.238.3878-2.033.3878-.763 0-1.422-.1209-1.979-.3629-.557-.2419-.993-.585-1.308-1.0291-.314-.4475-.488-.9778-.522-1.5909h1.542c.029.3679.149.6745.358.9197.212.242.482.4226.81.5419.331.116.694.174 1.089.174.434 0 .82-.0679 1.158-.2038.341-.1392.61-.3314.805-.5767.196-.2486.294-.5386.294-.87 0-.3016-.086-.5486-.259-.7408-.169-.1922-.399-.3513-.691-.4773-.288-.1259-.615-.237-.979-.3331l-1.203-.3281c-.816-.2221-1.462-.5485-1.939-.9794-.474-.4309-.711-1.0009-.711-1.7102 0-.5867.159-1.0987.477-1.5362s.749-.7773 1.293-1.0192c.543-.2453 1.156-.3679 1.839-.3679.69 0 1.298.121 1.825.3629.53.242.948.5751 1.253.9993.305.4209.464.9048.477 1.4517zm6.902-.1293v1.1932h-4.171v-1.1932zm-3.052-1.8295h1.486v7.2237c0 .2884.043.5055.129.6513.087.1425.198.2403.333.2933.14.0497.29.0746.453.0746.119 0 .224-.0083.313-.0249.09-.0165.159-.0298.209-.0397l.268 1.2279c-.086.0332-.208.0663-.368.0995-.159.0364-.357.0563-.596.0596-.391.0067-.756-.0629-1.094-.2088-.338-.1458-.611-.3712-.82-.6761s-.313-.6877-.313-1.1484zm6.919 9.6349c-.484 0-.922-.0895-1.313-.2684-.391-.1823-.701-.4458-.929-.7905-.226-.3447-.338-.7673-.338-1.2678 0-.4308.082-.7855.248-1.0639s.39-.4988.671-.6612c.282-.1624.597-.2851.945-.3679.348-.0829.703-.1458 1.064-.1889.457-.0531.828-.0961 1.113-.1293.286-.0365.493-.0945.622-.174s.194-.2088.194-.3878v-.0348c0-.4342-.123-.7706-.368-1.0092-.242-.2387-.603-.358-1.084-.358-.5 0-.895.1111-1.183.3331-.285.2188-.482.4624-.592.7308l-1.397-.3181c.166-.464.408-.8386.726-1.1236.322-.2884.691-.4972 1.109-.6264.417-.1326.857-.1989 1.317-.1989.305 0 .628.0365.97.1094.344.0696.666.1988.964.3878.302.1889.549.459.741.8103.192.348.288.8005.288 1.3573v5.071h-1.451v-1.044h-.06c-.096.1922-.24.3811-.433.5667-.192.1856-.439.3398-.74.4624-.302.1226-.663.1839-1.084.1839zm.323-1.1931c.411 0 .762-.0813 1.054-.2437.295-.1624.519-.3745.671-.6363.156-.2652.234-.5486.234-.8502v-.9843c-.053.053-.156.1027-.308.1491-.15.0431-.32.0812-.513.1144-.192.0298-.379.058-.561.0845-.183.0232-.335.0431-.458.0596-.288.0365-.552.0978-.79.184-.236.0862-.424.2104-.567.3729-.139.159-.209.3712-.209.6363 0 .3679.136.6463.408.8352.272.1856.618.2785 1.039.2785zm8.627 4.0468c-.607 0-1.129-.0795-1.566-.2386-.434-.1591-.789-.3696-1.064-.6314s-.481-.5485-.617-.8601l1.278-.527c.09.1459.209.3.358.4624.153.1657.358.3066.617.4226.261.116.598.174 1.009.174.563 0 1.029-.1376 1.397-.4127.368-.2717.552-.7059.552-1.3025v-1.5014h-.095c-.089.1624-.218.343-.388.5419-.165.1988-.394.3712-.686.517-.291.1458-.671.2188-1.138.2188-.603 0-1.147-.1409-1.631-.4226-.48-.2851-.862-.7043-1.143-1.2578-.279-.5569-.418-1.2413-.418-2.0533s.138-1.5081.413-2.0881c.278-.58.659-1.0241 1.143-1.3324.484-.3115 1.033-.4673 1.646-.4673.474 0 .857.0796 1.148.2386.292.1558.519.3381.681.5469.166.2088.294.3928.383.5519h.11v-1.238h1.456v7.8054c0 .6563-.152 1.1949-.457 1.6158s-.718.7325-1.238.9347c-.517.2021-1.1.3032-1.75.3032zm-.015-4.37c.428 0 .789-.0994 1.084-.2983.298-.2022.523-.4905.676-.8651.156-.3778.234-.8302.234-1.3572 0-.5137-.077-.9661-.229-1.3572-.153-.3911-.376-.6961-.671-.9148-.295-.2221-.66-.3331-1.094-.3331-.447 0-.82.116-1.119.348-.298.2287-.523.5402-.676.9347-.149.3944-.223.8352-.223 1.3224 0 .5005.076.9396.228 1.3175.153.3778.378.6728.676.8849.302.2121.673.3182 1.114.3182zm5.454 1.3473v-7.6364h1.486v7.6364zm.751-8.8146c-.259 0-.481-.0862-.667-.2586-.182-.1756-.273-.3844-.273-.6264 0-.2452.091-.454.273-.6264.186-.1757.408-.2635.667-.2635.258 0 .478.0878.661.2635.185.1724.278.3812.278.6264 0 .242-.093.4508-.278.6264-.183.1724-.403.2586-.661.2586zm4.222 4.2805v4.5341h-1.487v-7.6364h1.427v1.2429h.094c.176-.4043.451-.7291.826-.9744.378-.2453.853-.3679 1.427-.3679.52 0 .976.1094 1.367.3281.391.2155.694.537.91.9645.215.4276.323.9562.323 1.586v4.8572h-1.487v-4.6783c0-.5535-.144-.986-.432-1.2976-.289-.3148-.685-.4723-1.188-.4723-.345 0-.652.0746-.92.2238-.265.1491-.476.3679-.632.6562-.152.2851-.228.6298-.228 1.0341zm10.082 7.5568c-.606 0-1.128-.0795-1.566-.2386-.434-.1591-.789-.3696-1.064-.6314s-.48-.5485-.616-.8601l1.277-.527c.09.1459.209.3.358.4624.153.1657.358.3066.617.4226.262.116.598.174 1.009.174.563 0 1.029-.1376 1.397-.4127.368-.2717.552-.7059.552-1.3025v-1.5014h-.095c-.089.1624-.218.343-.387.5419-.166.1988-.395.3712-.686.517-.292.1458-.672.2188-1.139.2188-.603 0-1.147-.1409-1.631-.4226-.48-.2851-.861-.7043-1.143-1.2578-.279-.5569-.418-1.2413-.418-2.0533s.138-1.5081.413-2.0881c.278-.58.659-1.0241 1.143-1.3324.484-.3115 1.033-.4673 1.646-.4673.474 0 .857.0796 1.148.2386.292.1558.519.3381.682.5469.165.2088.293.3928.382.5519h.11v-1.238h1.456v7.8054c0 .6563-.152 1.1949-.457 1.6158s-.718.7325-1.238.9347c-.517.2021-1.1.3032-1.75.3032zm-.015-4.37c.428 0 .789-.0994 1.084-.2983.298-.2022.524-.4905.676-.8651.156-.3778.234-.8302.234-1.3572 0-.5137-.076-.9661-.229-1.3572-.152-.3911-.376-.6961-.671-.9148-.295-.2221-.66-.3331-1.094-.3331-.447 0-.82.116-1.118.348-.299.2287-.524.5402-.677.9347-.149.3944-.223.8352-.223 1.3224 0 .5005.076.9396.228 1.3175.153.3778.378.6728.677.8849.301.2121.672.3182 1.113.3182z" fill="#2a3140"/><path d="m77.233 61v-10.1818h6.1051v1.0937h-4.8722v3.4404h4.4148v1.0937h-4.4148v4.554zm10.6988.1591c-.7358 0-1.3705-.1624-1.9041-.4872-.5303-.3281-.9396-.7855-1.228-1.3722-.285-.5899-.4275-1.276-.4275-2.0582s.1425-1.4716.4275-2.0682c.2884-.5999.6894-1.0672 1.2031-1.402.5171-.3381 1.1203-.5071 1.8097-.5071.3977 0 .7905.0663 1.1783.1989.3878.1325.7407.348 1.0589.6463.3182.295.5717.6861.7607 1.1733.1889.4872.2834 1.0871.2834 1.7997v.4971h-5.8864v-1.0142h4.6932c0-.4308-.0862-.8153-.2586-1.1534-.169-.338-.4109-.6048-.7258-.8004-.3116-.1955-.6795-.2933-1.1037-.2933-.4673 0-.8717.116-1.2131.348-.338.2287-.5982.527-.7805.8949s-.2734.7623-.2734 1.1832v.6762c0 .5767.0994 1.0655.2983 1.4666.2021.3977.4822.701.8401.9098.358.2055.774.3082 1.2479.3082.3083 0 .5867-.0431.8352-.1292.2519-.0895.469-.2221.6513-.3978.1823-.179.3232-.401.4226-.6662l1.1335.3182c-.1193.3845-.3198.7226-.6015 1.0142-.2818.2884-.6298.5137-1.0441.6762-.4143.159-.8799.2386-1.397.2386zm5.1058-.1591v-10.1818h1.1733v3.7585h.0995c.0861-.1326.2055-.3016.3579-.5071.1558-.2088.3779-.3944.6662-.5568.2917-.1657.6861-.2486 1.1833-.2486.6429 0 1.2097.1608 1.7002.4822.4906.3215.8734.7773 1.1485 1.3672.2751.59.4126 1.286.4126 2.0881 0 .8087-.1375 1.5097-.4126 2.103-.2751.5899-.6563 1.0473-1.1435 1.3721-.4872.3215-1.049.4823-1.6854.4823-.4905 0-.8832-.0812-1.1782-.2436-.295-.1657-.522-.353-.6811-.5618-.1591-.2121-.2818-.3878-.3679-.527h-.1392v1.1733zm1.1535-3.8182c0 .5767.0845 1.0855.2535 1.5263.169.4375.416.7805.7408 1.0291.3248.2453.7225.3679 1.1932.3679.4905 0 .8998-.1292 1.2279-.3878.3315-.2618.5801-.6131.7458-1.0539.169-.4442.2535-.938.2535-1.4816 0-.5369-.0828-1.0208-.2486-1.4517-.1624-.4342-.4093-.7772-.7407-1.0291-.3281-.2552-.7408-.3828-1.2379-.3828-.4773 0-.8784.121-1.2032.3629-.3248.2386-.57.5734-.7358 1.0043-.1657.4275-.2485.9263-.2485 1.4964zm14.8799-6.3636v10.1818h-1.233v-8.8892h-.06l-2.485 1.6506v-1.2529l2.545-1.6903zm6.369 10.321c-.657 0-1.242-.1127-1.755-.3381-.511-.2253-.917-.5386-1.218-.9396-.299-.4044-.461-.8733-.488-1.407h1.253c.027.3282.139.6116.338.8502.199.2353.459.4176.781.5469.321.1292.678.1939 1.069.1939.437 0 .825-.0763 1.163-.2287.338-.1525.603-.3646.796-.6364.192-.2718.288-.5866.288-.9446 0-.3745-.093-.7043-.279-.9894-.185-.2883-.457-.5137-.815-.6761s-.795-.2436-1.312-.2436h-.816v-1.0937h.816c.404 0 .759-.073 1.064-.2188.308-.1458.548-.3513.72-.6165.176-.2651.264-.5767.264-.9346 0-.3447-.076-.6447-.229-.8999-.152-.2552-.368-.4541-.646-.5966-.275-.1425-.6-.2138-.974-.2138-.352 0-.683.0647-.995.1939-.308.126-.56.3099-.755.5519-.196.2386-.302.527-.319.865h-1.193c.02-.5336.181-1.0009.482-1.402.302-.4043.696-.7192 1.184-.9446.49-.2253 1.029-.338 1.615-.338.63 0 1.17.1276 1.621.3828.451.2519.797.585 1.039.9993s.363.8617.363 1.3423c0 .5734-.151 1.0623-.452 1.4666-.299.4044-.705.6845-1.218.8402v.0796c.643.106 1.145.3795 1.506.8203.361.4375.542.9794.542 1.6257 0 .5535-.151 1.0507-.452 1.4915-.299.4375-.706.7822-1.223 1.0341s-1.106.3778-1.765.3778zm6.929-1.5312-.08.5369c-.056.3778-.142.7822-.258 1.2131-.113.4308-.231.8368-.353 1.218-.123.3811-.224.6844-.304.9098h-.894c.043-.2121.099-.4922.169-.8402.069-.348.139-.7375.208-1.1683.073-.4276.133-.8651.179-1.3125l.06-.5568zm9.333-8.929c.417.0033.835.0828 1.253.2386.417.1558.798.4143 1.143.7756.345.3579.621.8468.83 1.4666s.313 1.397.313 2.3317c0 .9048-.086 1.7085-.258 2.4112-.169.6993-.414 1.2893-.736 1.7699-.318.4806-.706.8452-1.163 1.0937-.454.2486-.968.3729-1.541.3729-.57 0-1.079-.1127-1.527-.3381-.444-.2287-.808-.5452-1.093-.9495-.282-.4077-.463-.88-.542-1.4169h1.213c.109.4673.326.8534.651 1.1583.328.3016.761.4525 1.298.4525.785 0 1.405-.3431 1.859-1.0292.457-.686.686-1.6555.686-2.9083h-.079c-.186.2784-.406.5187-.662.7208-.255.2022-.538.358-.85.4674-.311.1093-.643.164-.994.164-.583 0-1.119-.1441-1.606-.4325-.484-.2917-.872-.6911-1.163-1.1982-.289-.5104-.433-1.0937-.433-1.75 0-.6231.139-1.1931.418-1.7102.281-.5203.676-.9346 1.183-1.2429.51-.3082 1.11-.4574 1.8-.4474zm0 1.0937c-.418 0-.794.1044-1.129.3132-.331.2055-.595.4839-.79.8353-.193.348-.289.7341-.289 1.1583 0 .4243.093.8104.279 1.1584.189.3447.446.6198.77.8253.328.2022.701.3033 1.119.3033.315 0 .608-.0613.88-.184.272-.1259.509-.2966.711-.512.205-.2188.366-.4657.482-.7408.116-.2784.174-.5684.174-.87 0-.3978-.096-.7706-.288-1.1186-.189-.3481-.451-.6298-.786-.8452-.331-.2155-.709-.3232-1.133-.3232zm6.37 7.9247c-.246 0-.456-.0878-.632-.2635-.175-.1756-.263-.3861-.263-.6313 0-.2453.088-.4558.263-.6314.176-.1757.386-.2635.632-.2635.245 0 .455.0878.631.2635.176.1756.263.3861.263.6314 0 .1624-.041.3115-.124.4474-.079.1359-.187.2453-.323.3281-.133.0796-.282.1193-.447.1193zm0-5.1505c-.246 0-.456-.0879-.632-.2635-.175-.1757-.263-.3861-.263-.6314s.088-.4557.263-.6314c.176-.1757.386-.2635.632-.2635.245 0 .455.0878.631.2635s.263.3861.263.6314c0 .1624-.041.3115-.124.4474-.079.1359-.187.2453-.323.3282-.133.0795-.282.1193-.447.1193zm6.42 6.5923c-.656 0-1.241-.1127-1.755-.3381-.51-.2253-.916-.5386-1.218-.9396-.298-.4044-.46-.8733-.487-1.407h1.253c.026.3282.139.6116.338.8502.199.2353.459.4176.781.5469.321.1292.677.1939 1.068.1939.438 0 .826-.0763 1.164-.2287.338-.1525.603-.3646.795-.6364.193-.2718.289-.5866.289-.9446 0-.3745-.093-.7043-.279-.9894-.185-.2883-.457-.5137-.815-.6761s-.796-.2436-1.313-.2436h-.815v-1.0937h.815c.405 0 .759-.073 1.064-.2188.309-.1458.549-.3513.721-.6165.176-.2651.264-.5767.264-.9346 0-.3447-.077-.6447-.229-.8999s-.368-.4541-.646-.5966c-.275-.1425-.6-.2138-.975-.2138-.351 0-.683.0647-.994.1939-.308.126-.56.3099-.756.5519-.195.2386-.301.527-.318.865h-1.193c.02-.5336.181-1.0009.482-1.402.302-.4043.696-.7192 1.183-.9446.491-.2253 1.029-.338 1.616-.338.63 0 1.17.1276 1.621.3828.451.2519.797.585 1.039.9993s.363.8617.363 1.3423c0 .5734-.151 1.0623-.453 1.4666-.298.4044-.704.6845-1.218.8402v.0796c.643.106 1.146.3795 1.507.8203.361.4375.542.9794.542 1.6257 0 .5535-.151 1.0507-.453 1.4915-.298.4375-.706.7822-1.223 1.0341s-1.105.3778-1.765.3778zm8.795 0c-.749 0-1.387-.2038-1.914-.6115-.527-.411-.93-1.0059-1.208-1.7848-.278-.7822-.418-1.7268-.418-2.8338 0-1.1004.14-2.04.418-2.8189.282-.7822.686-1.3788 1.213-1.7898.53-.4143 1.167-.6214 1.909-.6214.743 0 1.377.2071 1.904.6214.531.411.935 1.0076 1.213 1.7898.282.7789.423 1.7185.423 2.8189 0 1.107-.139 2.0516-.418 2.8338-.278.7789-.681 1.3738-1.208 1.7848-.527.4077-1.165.6115-1.914.6115zm0-1.0937c.743 0 1.319-.358 1.73-1.0739s.617-1.7368.617-3.0625c0-.8816-.095-1.6323-.284-2.2521-.185-.6198-.454-1.0921-.805-1.4169-.348-.3249-.767-.4873-1.258-.4873-.736 0-1.311.363-1.725 1.0888-.414.7226-.621 1.745-.621 3.0675 0 .8816.092 1.6307.278 2.2471.186.6165.452 1.0855.8 1.407.352.3215.774.4823 1.268.4823zm9.963.9545h-1.292l3.738-10.1818h1.273l3.739 10.1818h-1.293l-3.043-8.571h-.079zm.477-3.9773h5.211v1.0938h-5.211zm8.567-6.2045h1.471l3.46 8.4517h.12l3.46-8.4517h1.471v10.1818h-1.153v-7.7358h-.099l-3.182 7.7358h-1.114l-3.182-7.7358h-.099v7.7358h-1.153z" fill="#8992a3"/><rect fill="#fff0f3" height="30" rx="15" width="83" x="426" y="29"/><path d="m443.7 49.53c.79-.1616 1.501-.5912 2.011-1.2162s.789-1.407.789-2.2138v-2.1c.001-.4817-.098-.9584-.291-1.4h-6.419c-.192.4416-.291.9183-.29 1.4v2.1c0 .8068.279 1.5888.789 2.2138s1.221 1.0546 2.011 1.2162v-4.13h1.4zm-5.225-1.547c-.248-.5967-.376-1.2367-.375-1.883h-2.1v-1.4h2.1v-.7c0-.4501.061-.8855.174-1.2992l-1.549-.8946.7-1.2124 1.414.8162c.045-.0712.091-.1412.14-.21h8.043c.048.0686.094.1393.139.21l1.414-.8162.7 1.2124-1.549.8946c.113.413.174.8491.174 1.2992v.7h2.1v1.4h-2.1c0 .6671-.133 1.3034-.375 1.883l1.75 1.0108-.7 1.2124-1.768-1.0206c-.459.5673-1.039 1.0246-1.698 1.3386-.659.3139-1.379.4765-2.109.4758-.73.0007-1.45-.1619-2.109-.4758-.659-.314-1.239-.7713-1.698-1.3386l-1.768 1.0206-.7-1.2124 1.75-1.0101zm1.725-8.183c0-.7426.295-1.4548.82-1.9799s1.237-.8201 1.98-.8201 1.455.295 1.98.8201.82 1.2373.82 1.9799z" fill="#c23232"/><path d="m465.118 38.8182v10.1818h-1.541v-8.6406h-.06l-2.436 1.5909v-1.4716l2.54-1.6605zm6.598 10.1818v-10.1818h3.729c.722 0 1.321.1193 1.795.3579.474.2354.828.5552 1.064.9596.235.401.353.8534.353 1.3572 0 .4242-.078.7822-.234 1.0739-.156.2883-.365.5203-.626.696-.259.1723-.544.2983-.856.3778v.0995c.338.0165.668.1259.99.3281.325.1988.593.4822.805.8501s.318.8154.318 1.3424c0 .5203-.122.9876-.368 1.4019-.242.411-.616.7375-1.123.9794-.507.2387-1.155.358-1.944.358zm1.536-1.3175h2.218c.736 0 1.263-.1425 1.581-.4275.318-.2851.477-.6414.477-1.0689 0-.3215-.081-.6165-.244-.885-.162-.2684-.394-.4822-.696-.6413-.298-.1591-.653-.2386-1.063-.2386h-2.273zm0-4.4595h2.059c.344 0 .654-.0663.929-.1989.279-.1325.499-.3181.662-.5568.165-.2419.248-.527.248-.8551 0-.4209-.147-.7739-.442-1.0589-.295-.2851-.748-.4276-1.358-.4276h-2.098zm12.342 2.6101v-4.4695h1.492v7.6364h-1.462v-1.3224h-.079c-.176.4076-.458.7474-.845 1.0191-.385.2685-.864.4027-1.437.4027-.491 0-.925-.1077-1.303-.3231-.374-.2188-.669-.5419-.885-.9695-.212-.4275-.318-.9562-.318-1.5859v-4.8573h1.487v4.6783c0 .5204.144.9347.432 1.2429s.663.4624 1.124.4624c.278 0 .555-.0696.83-.2088.278-.1393.509-.3497.691-.6314.186-.2818.277-.6397.273-1.0739zm6.691 6.1896c-.607 0-1.129-.0795-1.566-.2386-.434-.1591-.789-.3696-1.064-.6314s-.481-.5485-.616-.8601l1.277-.527c.09.1459.209.3.358.4624.153.1657.358.3066.617.4226.261.116.598.174 1.009.174.563 0 1.029-.1376 1.397-.4127.368-.2717.552-.7059.552-1.3025v-1.5014h-.095c-.089.1624-.218.343-.387.5419-.166.1988-.395.3712-.687.517-.291.1458-.671.2188-1.138.2188-.603 0-1.147-.1409-1.631-.4226-.48-.2851-.861-.7043-1.143-1.2578-.279-.5569-.418-1.2413-.418-2.0533s.138-1.5081.413-2.0881c.278-.58.659-1.0241 1.143-1.3324.484-.3115 1.033-.4673 1.646-.4673.474 0 .857.0796 1.148.2386.292.1558.519.3381.681.5469.166.2088.294.3928.383.5519h.11v-1.238h1.456v7.8054c0 .6563-.152 1.1949-.457 1.6158s-.718.7325-1.238.9347c-.517.2021-1.1.3032-1.75.3032zm-.015-4.37c.428 0 .789-.0994 1.084-.2983.298-.2022.524-.4905.676-.8651.156-.3778.234-.8302.234-1.3572 0-.5137-.077-.9661-.229-1.3572s-.376-.6961-.671-.9148c-.295-.2221-.66-.3331-1.094-.3331-.447 0-.82.116-1.119.348-.298.2287-.523.5402-.676.9347-.149.3944-.223.8352-.223 1.3224 0 .5005.076.9396.228 1.3175.153.3778.378.6728.676.8849.302.2121.673.3182 1.114.3182z" fill="#2a3140"/><rect fill="#e6ffed" height="30" rx="15" width="98" x="518" y="29"/><path d="m535 51c-3.866 0-7-3.1339-7-7s3.134-7 7-7 7 3.1339 7 7-3.134 7-7 7zm0-1.4c1.485 0 2.91-.59 3.96-1.6402s1.64-2.4746 1.64-3.9598-.59-2.9096-1.64-3.9598-2.475-1.6402-3.96-1.6402-2.91.59-3.96 1.6402-1.64 2.4746-1.64 3.9598.59 2.9096 1.64 3.9598 2.475 1.6402 3.96 1.6402zm-.698-2.8-2.97-2.9701.99-.9898 1.98 1.9803 3.959-3.9599.991.9898z" fill="#2dad54"/><path d="m550.818 47.0114v-1.2429l4.4-6.9503h.98v1.8295h-.622l-3.147 4.9816v.0795h6.031v1.3026zm4.828 1.9886v-2.3665l.01-.5667v-7.2486h1.456v10.1818zm4.333-1.9886v-1.2429l4.399-6.9503h.98v1.8295h-.622l-3.147 4.9816v.0795h6.031v1.3026zm4.827 1.9886v-2.3665l.01-.5667v-7.2486h1.457v10.1818zm8.391 0v-10.1818h3.629c.792 0 1.448.1442 1.969.4325.52.2884.91.6828 1.168 1.1832.259.4972.388 1.0573.388 1.6804 0 .6265-.131 1.1899-.393 1.6904-.258.4971-.65.8916-1.173 1.1832-.521.2884-1.175.4326-1.964.4326h-2.496v-1.3026h2.357c.5 0 .906-.0862 1.218-.2585.311-.1757.54-.4143.686-.7159s.219-.6447.219-1.0292c0-.3844-.073-.7258-.219-1.0241s-.376-.532-.691-.701c-.312-.169-.723-.2535-1.233-.2535h-1.929v8.8643zm10.989.169c-.483 0-.921-.0895-1.312-.2684-.391-.1823-.701-.4458-.93-.7905-.225-.3447-.338-.7673-.338-1.2678 0-.4308.083-.7855.249-1.0639.165-.2784.389-.4988.671-.6612s.597-.2851.945-.3679c.348-.0829.702-.1458 1.063-.1889.458-.0531.829-.0961 1.114-.1293.285-.0365.492-.0945.622-.174.129-.0795.193-.2088.193-.3878v-.0348c0-.4342-.122-.7706-.367-1.0092-.242-.2387-.604-.358-1.084-.358-.501 0-.895.1111-1.184.3331-.285.2188-.482.4624-.591.7308l-1.397-.3181c.166-.464.408-.8386.726-1.1236.321-.2884.691-.4972 1.108-.6264.418-.1326.857-.1989 1.318-.1989.305 0 .628.0365.969.1094.345.0696.666.1988.965.3878.301.1889.548.459.741.8103.192.348.288.8005.288 1.3573v5.071h-1.452v-1.044h-.059c-.097.1922-.241.3811-.433.5667s-.439.3398-.741.4624c-.301.1226-.663.1839-1.084.1839zm.324-1.1931c.411 0 .762-.0813 1.054-.2437.295-.1624.518-.3745.671-.6363.156-.2652.233-.5486.233-.8502v-.9843c-.053.053-.155.1027-.308.1491-.149.0431-.32.0812-.512.1144-.192.0298-.379.058-.562.0845-.182.0232-.334.0431-.457.0596-.288.0365-.552.0978-.791.184-.235.0862-.424.2104-.566.3729-.14.159-.209.3712-.209.6363 0 .3679.136.6463.408.8352.271.1856.618.2785 1.039.2785zm11.147-4.7479-1.347.2386c-.057-.1723-.146-.3364-.269-.4922-.119-.1557-.281-.2833-.487-.3828-.205-.0994-.462-.1491-.77-.1491-.421 0-.773.0944-1.054.2834-.282.1856-.423.4259-.423.7208 0 .2552.094.4607.283.6165s.494.2834.915.3828l1.213.2784c.703.1624 1.227.4127 1.571.7507.345.3381.517.7773.517 1.3175 0 .4574-.132.8651-.397 1.223-.262.3547-.629.6331-1.099.8353-.467.2021-1.009.3032-1.626.3032-.855 0-1.553-.1823-2.093-.5469-.54-.3679-.872-.8899-.994-1.566l1.437-.2188c.089.3746.273.658.551.8502.279.1889.642.2834 1.089.2834.487 0 .877-.1011 1.169-.3033.291-.2055.437-.4557.437-.7507 0-.2386-.089-.4392-.268-.6016-.176-.1624-.446-.285-.811-.3679l-1.292-.2834c-.713-.1624-1.24-.4209-1.581-.7755-.338-.3547-.508-.8038-.508-1.3473 0-.4508.126-.8452.378-1.1833.252-.338.6-.6015 1.044-.7904.444-.1923.953-.2884 1.527-.2884.825 0 1.475.179 1.949.5369.473.3547.787.8303.939 1.4269zm7.506 0-1.347.2386c-.057-.1723-.146-.3364-.269-.4922-.119-.1557-.281-.2833-.487-.3828-.205-.0994-.462-.1491-.771-.1491-.421 0-.772.0944-1.054.2834-.281.1856-.422.4259-.422.7208 0 .2552.094.4607.283.6165s.494.2834.915.3828l1.213.2784c.703.1624 1.226.4127 1.571.7507.345.3381.517.7773.517 1.3175 0 .4574-.132.8651-.398 1.223-.261.3547-.628.6331-1.098.8353-.468.2021-1.01.3032-1.626.3032-.855 0-1.553-.1823-2.093-.5469-.54-.3679-.872-.8899-.994-1.566l1.436-.2188c.09.3746.274.658.552.8502.279.1889.642.2834 1.089.2834.487 0 .877-.1011 1.168-.3033.292-.2055.438-.4557.438-.7507 0-.2386-.09-.4392-.269-.6016-.175-.1624-.445-.285-.81-.3679l-1.293-.2834c-.712-.1624-1.239-.4209-1.581-.7755-.338-.3547-.507-.8038-.507-1.3473 0-.4508.126-.8452.378-1.1833.252-.338.6-.6015 1.044-.7904.444-.1923.953-.2884 1.527-.2884.825 0 1.474.179 1.948.5369.474.3547.788.8303.94 1.4269z" fill="#2a3140"/></svg>