<svg fill="none" height="88" viewBox="0 0 640 88" width="640" xmlns="http://www.w3.org/2000/svg"><path d="m0 0h640v88h-640z" fill="#fff"/><circle cx="42" cy="44" fill="#e5ffed" r="18"/><path d="m42 55c-6.0753 0-11-4.9247-11-11s4.9247-11 11-11 11 4.9247 11 11-4.9247 11-11 11zm0-2.2c2.3339 0 4.5722-.9271 6.2225-2.5775 1.6504-1.6503 2.5775-3.8886 2.5775-6.2225s-.9271-4.5722-2.5775-6.2225c-1.6503-1.6504-3.8886-2.5775-6.2225-2.5775s-4.5722.9271-6.2225 2.5775c-1.6504 1.6503-2.5775 3.8886-2.5775 6.2225s.9271 4.5722 2.5775 6.2225c1.6503 1.6504 3.8886 2.5775 6.2225 2.5775zm-1.0967-4.4-4.6673-4.6673 1.5554-1.5554 3.1119 3.1119 6.2216-6.2227 1.5565 1.5554z" fill="#2dad54"/><path d="m84 28h-1v5h3.5v-1h-2.5z" fill="#6e9dfa"/><path clip-rule="evenodd" d="m91 32c0 3.866-3.134 7-7 7s-7-3.134-7-7 3.134-7 7-7 7 3.134 7 7zm-1 0c0 3.3137-2.6863 6-6 6s-6-2.6863-6-6 2.6863-6 6-6 6 2.6863 6 6z" fill="#6e9dfa" fill-rule="evenodd"/><path d="m100.415 37h-3.2964v-10.1818h3.4004c.998 0 1.855.2038 2.57.6115.716.4043 1.265.986 1.646 1.745.385.7557.577 1.6622.577 2.7195 0 1.0606-.194 1.972-.582 2.7344-.384.7623-.941 1.3489-1.67 1.7599-.73.4077-1.611.6115-2.645.6115zm-1.7602-1.3423h1.6752c.776 0 1.42-.1459 1.934-.4375.514-.295.898-.7209 1.154-1.2777.255-.5602.382-1.2429.382-2.0483 0-.7988-.127-1.4766-.382-2.0334-.252-.5568-.628-.9794-1.129-1.2678-.5-.2883-1.122-.4325-1.864-.4325h-1.7702zm10.6702 1.5113c-.484 0-.921-.0895-1.312-.2684-.391-.1823-.701-.4458-.93-.7905-.225-.3447-.338-.7673-.338-1.2678 0-.4308.083-.7855.248-1.0639.166-.2784.39-.4988.672-.6612.281-.1624.596-.2851.944-.3679.348-.0829.703-.1458 1.064-.1889.458-.0531.829-.0961 1.114-.1293.285-.0365.492-.0945.621-.174s.194-.2088.194-.3878v-.0348c0-.4342-.123-.7706-.368-1.0092-.242-.2387-.603-.358-1.084-.358-.5 0-.894.1111-1.183.3331-.285.2188-.482.4624-.591.7308l-1.397-.3181c.165-.464.407-.8386.725-1.1236.322-.2884.691-.4972 1.109-.6264.418-.1326.857-.1989 1.318-.1989.304 0 .628.0365.969.1094.345.0696.666.1988.964.3878.302.1889.549.459.741.8103.192.348.289.8005.289 1.3573v5.071h-1.452v-1.044h-.06c-.096.1922-.24.3811-.432.5667-.193.1856-.439.3398-.741.4624s-.663.1839-1.084.1839zm.323-1.1931c.411 0 .763-.0813 1.054-.2437.295-.1624.519-.3745.671-.6363.156-.2652.234-.5486.234-.8502v-.9843c-.053.053-.156.1027-.308.1491-.149.0431-.32.0812-.512.1144-.192.0298-.38.058-.562.0845-.182.0232-.335.0431-.457.0596-.289.0365-.552.0978-.791.184-.235.0862-.424.2104-.567.3729-.139.159-.208.3712-.208.6363 0 .3679.135.6463.407.8352.272.1856.618.2785 1.039.2785zm5.426 1.0241v-7.6364h1.486v7.6364zm.75-8.8146c-.258 0-.48-.0862-.666-.2586-.182-.1756-.273-.3844-.273-.6264 0-.2452.091-.454.273-.6264.186-.1757.408-.2635.666-.2635.259 0 .479.0878.661.2635.186.1724.279.3812.279.6264 0 .242-.093.4508-.279.6264-.182.1724-.402.2586-.661.2586zm4.222-1.3672v10.1818h-1.486v-10.1818zm2.94 13.0454c-.222 0-.424-.0182-.607-.0547-.182-.0331-.318-.0696-.407-.1093l.358-1.2181c.271.073.513.1044.725.0945.213-.0099.4-.0895.562-.2386.166-.1492.312-.3928.438-.7309l.184-.5071-2.794-7.7358h1.591l1.933 5.9262h.08l1.934-5.9262h1.596l-3.147 8.6556c-.146.3977-.332.7341-.557 1.0092-.225.2784-.494.4872-.805.6264-.312.1392-.673.2088-1.084.2088zm7.969-2.7691c-.272 0-.505-.0962-.701-.2884-.195-.1955-.293-.4309-.293-.706 0-.2717.098-.5037.293-.696.196-.1955.429-.2933.701-.2933s.506.0978.701.2933c.196.1923.294.4243.294.696 0 .1823-.047.3497-.14.5022-.089.1491-.208.2684-.358.3579-.149.0895-.314.1343-.497.1343zm0-5.5583c-.272 0-.505-.0978-.701-.2933-.195-.1956-.293-.4292-.293-.701s.098-.5038.293-.696c.196-.1956.429-.2933.701-.2933s.506.0977.701.2933c.196.1922.294.4242.294.696 0 .1823-.047.3497-.14.5021-.089.1492-.208.2685-.358.358-.149.0895-.314.1342-.497.1342zm12.363-2.0433c-.053-.4706-.271-.8352-.656-1.0938-.384-.2618-.868-.3927-1.452-.3927-.417 0-.778.0663-1.083.1989-.305.1292-.542.3082-.711.5369-.166.2254-.249.4822-.249.7706 0 .2419.056.4507.169.6264.116.1757.267.3232.453.4425.188.116.391.2138.606.2933.215.0762.423.1392.622.1889l.994.2585c.325.0796.658.1873.999.3232.342.1359.658.3149.95.5369.291.2221.527.4972.706.8253.182.3281.273.7209.273 1.1783 0 .5767-.149 1.0888-.447 1.5362-.295.4474-.725.8004-1.288 1.0589-.56.2586-1.238.3878-2.033.3878-.763 0-1.422-.1209-1.979-.3629-.557-.2419-.993-.585-1.308-1.0291-.314-.4475-.488-.9778-.522-1.5909h1.542c.029.3679.149.6745.358.9197.212.242.482.4226.81.5419.331.116.694.174 1.089.174.434 0 .82-.0679 1.158-.2038.341-.1392.61-.3314.805-.5767.196-.2486.294-.5386.294-.87 0-.3016-.086-.5486-.259-.7408-.169-.1922-.399-.3513-.691-.4773-.288-.1259-.615-.237-.979-.3331l-1.203-.3281c-.816-.2221-1.462-.5485-1.939-.9794-.474-.4309-.711-1.0009-.711-1.7102 0-.5867.159-1.0987.477-1.5362s.749-.7773 1.293-1.0192c.543-.2453 1.156-.3679 1.839-.3679.69 0 1.298.121 1.825.3629.53.242.948.5751 1.253.9993.305.4209.464.9048.477 1.4517zm6.902-.1293v1.1932h-4.171v-1.1932zm-3.052-1.8295h1.486v7.2237c0 .2884.043.5055.129.6513.087.1425.198.2403.333.2933.14.0497.29.0746.453.0746.119 0 .224-.0083.313-.0249.09-.0165.159-.0298.209-.0397l.268 1.2279c-.086.0332-.208.0663-.368.0995-.159.0364-.357.0563-.596.0596-.391.0067-.756-.0629-1.094-.2088-.338-.1458-.611-.3712-.82-.6761s-.313-.6877-.313-1.1484zm6.919 9.6349c-.484 0-.922-.0895-1.313-.2684-.391-.1823-.701-.4458-.929-.7905-.226-.3447-.338-.7673-.338-1.2678 0-.4308.082-.7855.248-1.0639s.39-.4988.671-.6612c.282-.1624.597-.2851.945-.3679.348-.0829.703-.1458 1.064-.1889.457-.0531.828-.0961 1.113-.1293.286-.0365.493-.0945.622-.174s.194-.2088.194-.3878v-.0348c0-.4342-.123-.7706-.368-1.0092-.242-.2387-.603-.358-1.084-.358-.5 0-.895.1111-1.183.3331-.285.2188-.482.4624-.592.7308l-1.397-.3181c.166-.464.408-.8386.726-1.1236.322-.2884.691-.4972 1.109-.6264.417-.1326.857-.1989 1.317-.1989.305 0 .628.0365.97.1094.344.0696.666.1988.964.3878.302.1889.549.459.741.8103.192.348.288.8005.288 1.3573v5.071h-1.451v-1.044h-.06c-.096.1922-.24.3811-.433.5667-.192.1856-.439.3398-.74.4624-.302.1226-.663.1839-1.084.1839zm.323-1.1931c.411 0 .762-.0813 1.054-.2437.295-.1624.519-.3745.671-.6363.156-.2652.234-.5486.234-.8502v-.9843c-.053.053-.156.1027-.308.1491-.15.0431-.32.0812-.513.1144-.192.0298-.379.058-.561.0845-.183.0232-.335.0431-.458.0596-.288.0365-.552.0978-.79.184-.236.0862-.424.2104-.567.3729-.139.159-.209.3712-.209.6363 0 .3679.136.6463.408.8352.272.1856.618.2785 1.039.2785zm8.627 4.0468c-.607 0-1.129-.0795-1.566-.2386-.434-.1591-.789-.3696-1.064-.6314s-.481-.5485-.617-.8601l1.278-.527c.09.1459.209.3.358.4624.153.1657.358.3066.617.4226.261.116.598.174 1.009.174.563 0 1.029-.1376 1.397-.4127.368-.2717.552-.7059.552-1.3025v-1.5014h-.095c-.089.1624-.218.343-.388.5419-.165.1988-.394.3712-.686.517-.291.1458-.671.2188-1.138.2188-.603 0-1.147-.1409-1.631-.4226-.48-.2851-.862-.7043-1.143-1.2578-.279-.5569-.418-1.2413-.418-2.0533s.138-1.5081.413-2.0881c.278-.58.659-1.0241 1.143-1.3324.484-.3115 1.033-.4673 1.646-.4673.474 0 .857.0796 1.148.2386.292.1558.519.3381.681.5469.166.2088.294.3928.383.5519h.11v-1.238h1.456v7.8054c0 .6563-.152 1.1949-.457 1.6158s-.718.7325-1.238.9347c-.517.2021-1.1.3032-1.75.3032zm-.015-4.37c.428 0 .789-.0994 1.084-.2983.298-.2022.523-.4905.676-.8651.156-.3778.234-.8302.234-1.3572 0-.5137-.077-.9661-.229-1.3572-.153-.3911-.376-.6961-.671-.9148-.295-.2221-.66-.3331-1.094-.3331-.447 0-.82.116-1.119.348-.298.2287-.523.5402-.676.9347-.149.3944-.223.8352-.223 1.3224 0 .5005.076.9396.228 1.3175.153.3778.378.6728.676.8849.302.2121.673.3182 1.114.3182zm5.454 1.3473v-7.6364h1.486v7.6364zm.751-8.8146c-.259 0-.481-.0862-.667-.2586-.182-.1756-.273-.3844-.273-.6264 0-.2452.091-.454.273-.6264.186-.1757.408-.2635.667-.2635.258 0 .478.0878.661.2635.185.1724.278.3812.278.6264 0 .242-.093.4508-.278.6264-.183.1724-.403.2586-.661.2586zm4.222 4.2805v4.5341h-1.487v-7.6364h1.427v1.2429h.094c.176-.4043.451-.7291.826-.9744.378-.2453.853-.3679 1.427-.3679.52 0 .976.1094 1.367.3281.391.2155.694.537.91.9645.215.4276.323.9562.323 1.586v4.8572h-1.487v-4.6783c0-.5535-.144-.986-.432-1.2976-.289-.3148-.685-.4723-1.188-.4723-.345 0-.652.0746-.92.2238-.265.1491-.476.3679-.632.6562-.152.2851-.228.6298-.228 1.0341zm10.082 7.5568c-.606 0-1.128-.0795-1.566-.2386-.434-.1591-.789-.3696-1.064-.6314s-.48-.5485-.616-.8601l1.277-.527c.09.1459.209.3.358.4624.153.1657.358.3066.617.4226.262.116.598.174 1.009.174.563 0 1.029-.1376 1.397-.4127.368-.2717.552-.7059.552-1.3025v-1.5014h-.095c-.089.1624-.218.343-.387.5419-.166.1988-.395.3712-.686.517-.292.1458-.672.2188-1.139.2188-.603 0-1.147-.1409-1.631-.4226-.48-.2851-.861-.7043-1.143-1.2578-.279-.5569-.418-1.2413-.418-2.0533s.138-1.5081.413-2.0881c.278-.58.659-1.0241 1.143-1.3324.484-.3115 1.033-.4673 1.646-.4673.474 0 .857.0796 1.148.2386.292.1558.519.3381.682.5469.165.2088.293.3928.382.5519h.11v-1.238h1.456v7.8054c0 .6563-.152 1.1949-.457 1.6158s-.718.7325-1.238.9347c-.517.2021-1.1.3032-1.75.3032zm-.015-4.37c.428 0 .789-.0994 1.084-.2983.298-.2022.524-.4905.676-.8651.156-.3778.234-.8302.234-1.3572 0-.5137-.076-.9661-.229-1.3572-.152-.3911-.376-.6961-.671-.9148-.295-.2221-.66-.3331-1.094-.3331-.447 0-.82.116-1.118.348-.299.2287-.524.5402-.677.9347-.149.3944-.223.8352-.223 1.3224 0 .5005.076.9396.228 1.3175.153.3778.378.6728.677.8849.301.2121.672.3182 1.113.3182z" fill="#2a3140"/><path d="m77.233 61v-10.1818h6.1051v1.0937h-4.8722v3.4404h4.4148v1.0937h-4.4148v4.554zm10.6988.1591c-.7358 0-1.3705-.1624-1.9041-.4872-.5303-.3281-.9396-.7855-1.228-1.3722-.285-.5899-.4275-1.276-.4275-2.0582s.1425-1.4716.4275-2.0682c.2884-.5999.6894-1.0672 1.2031-1.402.5171-.3381 1.1203-.5071 1.8097-.5071.3977 0 .7905.0663 1.1783.1989.3878.1325.7407.348 1.0589.6463.3182.295.5717.6861.7607 1.1733.1889.4872.2834 1.0871.2834 1.7997v.4971h-5.8864v-1.0142h4.6932c0-.4308-.0862-.8153-.2586-1.1534-.169-.338-.4109-.6048-.7258-.8004-.3116-.1955-.6795-.2933-1.1037-.2933-.4673 0-.8717.116-1.2131.348-.338.2287-.5982.527-.7805.8949s-.2734.7623-.2734 1.1832v.6762c0 .5767.0994 1.0655.2983 1.4666.2021.3977.4822.701.8401.9098.358.2055.774.3082 1.2479.3082.3083 0 .5867-.0431.8352-.1292.2519-.0895.469-.2221.6513-.3978.1823-.179.3232-.401.4226-.6662l1.1335.3182c-.1193.3845-.3198.7226-.6015 1.0142-.2818.2884-.6298.5137-1.0441.6762-.4143.159-.8799.2386-1.397.2386zm5.1058-.1591v-10.1818h1.1733v3.7585h.0995c.0861-.1326.2055-.3016.3579-.5071.1558-.2088.3779-.3944.6662-.5568.2917-.1657.6861-.2486 1.1833-.2486.6429 0 1.2097.1608 1.7002.4822.4906.3215.8734.7773 1.1485 1.3672.2751.59.4126 1.286.4126 2.0881 0 .8087-.1375 1.5097-.4126 2.103-.2751.5899-.6563 1.0473-1.1435 1.3721-.4872.3215-1.049.4823-1.6854.4823-.4905 0-.8832-.0812-1.1782-.2436-.295-.1657-.522-.353-.6811-.5618-.1591-.2121-.2818-.3878-.3679-.527h-.1392v1.1733zm1.1535-3.8182c0 .5767.0845 1.0855.2535 1.5263.169.4375.416.7805.7408 1.0291.3248.2453.7225.3679 1.1932.3679.4905 0 .8998-.1292 1.2279-.3878.3315-.2618.5801-.6131.7458-1.0539.169-.4442.2535-.938.2535-1.4816 0-.5369-.0828-1.0208-.2486-1.4517-.1624-.4342-.4093-.7772-.7407-1.0291-.3281-.2552-.7408-.3828-1.2379-.3828-.4773 0-.8784.121-1.2032.3629-.3248.2386-.57.5734-.7358 1.0043-.1657.4275-.2485.9263-.2485 1.4964zm14.8799-6.3636v10.1818h-1.233v-8.8892h-.06l-2.485 1.6506v-1.2529l2.545-1.6903zm6.508 0v10.1818h-1.233v-8.8892h-.06l-2.486 1.6506v-1.2529l2.546-1.6903zm4.096 8.7898-.079.5369c-.056.3778-.143.7822-.259 1.2131-.112.4308-.23.8368-.353 1.218-.122.3811-.223.6844-.303.9098h-.895c.043-.2121.1-.4922.169-.8402.07-.348.139-.7375.209-1.1683.073-.4276.133-.8651.179-1.3125l.06-.5568zm9.333-8.929c.418.0033.836.0828 1.253.2386.418.1558.799.4143 1.144.7756.344.3579.621.8468.83 1.4666s.313 1.397.313 2.3317c0 .9048-.086 1.7085-.258 2.4112-.169.6993-.415 1.2893-.736 1.7699-.318.4806-.706.8452-1.164 1.0937-.454.2486-.967.3729-1.541.3729-.57 0-1.079-.1127-1.526-.3381-.444-.2287-.809-.5452-1.094-.9495-.281-.4077-.462-.88-.542-1.4169h1.213c.11.4673.327.8534.652 1.1583.328.3016.76.4525 1.297.4525.786 0 1.406-.3431 1.86-1.0292.457-.686.686-1.6555.686-2.9083h-.08c-.185.2784-.406.5187-.661.7208-.255.2022-.539.358-.85.4674-.312.1093-.643.164-.995.164-.583 0-1.118-.1441-1.605-.4325-.484-.2917-.872-.6911-1.164-1.1982-.288-.5104-.432-1.0937-.432-1.75 0-.6231.139-1.1931.417-1.7102.282-.5203.677-.9346 1.184-1.2429.51-.3082 1.11-.4574 1.799-.4474zm0 1.0937c-.417 0-.793.1044-1.128.3132-.332.2055-.595.4839-.791.8353-.192.348-.288.7341-.288 1.1583 0 .4243.093.8104.278 1.1584.189.3447.446.6198.771.8253.328.2022.701.3033 1.119.3033.314 0 .608-.0613.88-.184.271-.1259.508-.2966.71-.512.206-.2188.367-.4657.483-.7408.116-.2784.174-.5684.174-.87 0-.3978-.096-.7706-.289-1.1186-.189-.3481-.45-.6298-.785-.8452-.332-.2155-.709-.3232-1.134-.3232zm6.37 7.9247c-.245 0-.456-.0878-.631-.2635-.176-.1756-.264-.3861-.264-.6313 0-.2453.088-.4558.264-.6314.175-.1757.386-.2635.631-.2635s.456.0878.632.2635c.175.1756.263.3861.263.6314 0 .1624-.041.3115-.124.4474-.08.1359-.187.2453-.323.3281-.133.0796-.282.1193-.448.1193zm0-5.1505c-.245 0-.456-.0879-.631-.2635-.176-.1757-.264-.3861-.264-.6314s.088-.4557.264-.6314c.175-.1757.386-.2635.631-.2635s.456.0878.632.2635c.175.1757.263.3861.263.6314 0 .1624-.041.3115-.124.4474-.08.1359-.187.2453-.323.3282-.133.0795-.282.1193-.448.1193zm6.421 6.5923c-.656 0-1.241-.1127-1.755-.3381-.51-.2253-.916-.5386-1.218-.9396-.298-.4044-.461-.8733-.487-1.407h1.253c.026.3282.139.6116.338.8502.199.2353.459.4176.78.5469.322.1292.678.1939 1.069.1939.438 0 .825-.0763 1.163-.2287.339-.1525.604-.3646.796-.6364s.288-.5866.288-.9446c0-.3745-.093-.7043-.278-.9894-.186-.2883-.458-.5137-.815-.6761-.358-.1624-.796-.2436-1.313-.2436h-.815v-1.0937h.815c.404 0 .759-.073 1.064-.2188.308-.1458.548-.3513.721-.6165.175-.2651.263-.5767.263-.9346 0-.3447-.076-.6447-.228-.8999-.153-.2552-.368-.4541-.647-.5966-.275-.1425-.6-.2138-.974-.2138-.351 0-.683.0647-.994.1939-.309.126-.561.3099-.756.5519-.196.2386-.302.527-.318.865h-1.193c.019-.5336.18-1.0009.482-1.402.301-.4043.696-.7192 1.183-.9446.491-.2253 1.029-.338 1.616-.338.63 0 1.17.1276 1.621.3828.45.2519.797.585 1.039.9993s.363.8617.363 1.3423c0 .5734-.151 1.0623-.453 1.4666-.298.4044-.704.6845-1.218.8402v.0796c.643.106 1.145.3795 1.506.8203.362.4375.542.9794.542 1.6257 0 .5535-.15 1.0507-.452 1.4915-.298.4375-.706.7822-1.223 1.0341s-1.105.3778-1.765.3778zm8.795 0c-.749 0-1.387-.2038-1.914-.6115-.527-.411-.93-1.0059-1.208-1.7848-.279-.7822-.418-1.7268-.418-2.8338 0-1.1004.139-2.04.418-2.8189.281-.7822.686-1.3788 1.213-1.7898.53-.4143 1.166-.6214 1.909-.6214.742 0 1.377.2071 1.904.6214.53.411.935 1.0076 1.213 1.7898.282.7789.423 1.7185.423 2.8189 0 1.107-.14 2.0516-.418 2.8338-.278.7789-.681 1.3738-1.208 1.7848-.527.4077-1.165.6115-1.914.6115zm0-1.0937c.742 0 1.319-.358 1.73-1.0739s.616-1.7368.616-3.0625c0-.8816-.094-1.6323-.283-2.2521-.186-.6198-.454-1.0921-.805-1.4169-.348-.3249-.768-.4873-1.258-.4873-.736 0-1.311.363-1.725 1.0888-.415.7226-.622 1.745-.622 3.0675 0 .8816.093 1.6307.279 2.2471.185.6165.452 1.0855.8 1.407.351.3215.774.4823 1.268.4823zm9.963.9545h-1.293l3.739-10.1818h1.273l3.738 10.1818h-1.292l-3.043-8.571h-.08zm.477-3.9773h5.21v1.0938h-5.21zm8.566-6.2045h1.472l3.46 8.4517h.119l3.461-8.4517h1.471v10.1818h-1.153v-7.7358h-.1l-3.182 7.7358h-1.113l-3.182-7.7358h-.099v7.7358h-1.154z" fill="#8992a3"/><rect fill="#e6ffed" height="30" rx="15" width="98" x="518" y="29"/><path d="m535 51c-3.866 0-7-3.1339-7-7s3.134-7 7-7 7 3.1339 7 7-3.134 7-7 7zm0-1.4c1.485 0 2.91-.59 3.96-1.6402s1.64-2.4746 1.64-3.9598-.59-2.9096-1.64-3.9598-2.475-1.6402-3.96-1.6402-2.91.59-3.96 1.6402-1.64 2.4746-1.64 3.9598.59 2.9096 1.64 3.9598 2.475 1.6402 3.96 1.6402zm-.698-2.8-2.97-2.9701.99-.9898 1.98 1.9803 3.959-3.9599.991.9898z" fill="#2dad54"/><path d="m551.058 47.0114v-1.2429l4.399-6.9503h.98v1.8295h-.622l-3.147 4.9816v.0795h6.031v1.3026zm4.827 1.9886v-2.3665l.01-.5667v-7.2486h1.457v10.1818zm7.907.1392c-.623 0-1.183-.1193-1.68-.358-.494-.2419-.888-.5733-1.183-.9943-.295-.4209-.453-.9015-.473-1.4417h1.492c.036.4375.23.7971.582 1.0788.351.2817.772.4226 1.262.4226.391 0 .738-.0895 1.039-.2685.305-.1823.544-.4325.716-.7507.176-.3182.264-.6811.264-1.0888 0-.4143-.09-.7838-.269-1.1086s-.426-.58-.74-.7657c-.312-.1856-.67-.28-1.074-.2833-.309 0-.618.053-.93.1591-.312.106-.563.2452-.756.4176l-1.407-.2088.572-5.1307h5.598v1.3175h-4.32l-.323 2.8487h.059c.199-.1923.463-.353.791-.4823.331-.1292.686-.1939 1.064-.1939.62 0 1.171.1475 1.655.4425.487.295.87.6977 1.149 1.2081.281.5071.421 1.0904.417 1.75.004.6596-.146 1.2479-.447 1.7649-.298.5171-.713.9247-1.243 1.223-.527.295-1.132.4425-1.815.4425zm9.165-.1392v-10.1818h3.63c.792 0 1.448.1442 1.968.4325.521.2884.91.6828 1.169 1.1832.258.4972.388 1.0573.388 1.6804 0 .6265-.131 1.1899-.393 1.6904-.259.4971-.65.8916-1.173 1.1832-.521.2884-1.175.4326-1.964.4326h-2.496v-1.3026h2.357c.5 0 .906-.0862 1.218-.2585.311-.1757.54-.4143.686-.7159s.218-.6447.218-1.0292c0-.3844-.072-.7258-.218-1.0241s-.377-.532-.691-.701c-.312-.169-.723-.2535-1.233-.2535h-1.929v8.8643zm10.99.169c-.484 0-.921-.0895-1.312-.2684-.391-.1823-.701-.4458-.93-.7905-.225-.3447-.338-.7673-.338-1.2678 0-.4308.083-.7855.249-1.0639.165-.2784.389-.4988.671-.6612.281-.1624.596-.2851.944-.3679.348-.0829.703-.1458 1.064-.1889.458-.0531.829-.0961 1.114-.1293.285-.0365.492-.0945.621-.174.13-.0795.194-.2088.194-.3878v-.0348c0-.4342-.122-.7706-.368-1.0092-.242-.2387-.603-.358-1.084-.358-.5 0-.894.1111-1.183.3331-.285.2188-.482.4624-.591.7308l-1.397-.3181c.165-.464.407-.8386.725-1.1236.322-.2884.691-.4972 1.109-.6264.418-.1326.857-.1989 1.318-.1989.304 0 .628.0365.969.1094.345.0696.666.1988.965.3878.301.1889.548.459.74.8103.193.348.289.8005.289 1.3573v5.071h-1.452v-1.044h-.06c-.096.1922-.24.3811-.432.5667s-.439.3398-.741.4624-.663.1839-1.084.1839zm.323-1.1931c.411 0 .763-.0813 1.054-.2437.295-.1624.519-.3745.671-.6363.156-.2652.234-.5486.234-.8502v-.9843c-.053.053-.156.1027-.308.1491-.149.0431-.32.0812-.512.1144-.192.0298-.38.058-.562.0845-.182.0232-.335.0431-.457.0596-.289.0365-.552.0978-.791.184-.235.0862-.424.2104-.567.3729-.139.159-.208.3712-.208.6363 0 .3679.135.6463.407.8352.272.1856.618.2785 1.039.2785zm11.148-4.7479-1.347.2386c-.057-.1723-.146-.3364-.269-.4922-.119-.1557-.282-.2833-.487-.3828-.206-.0994-.462-.1491-.771-.1491-.421 0-.772.0944-1.054.2834-.281.1856-.422.4259-.422.7208 0 .2552.094.4607.283.6165s.494.2834.915.3828l1.213.2784c.703.1624 1.226.4127 1.571.7507.345.3381.517.7773.517 1.3175 0 .4574-.133.8651-.398 1.223-.262.3547-.628.6331-1.098.8353-.468.2021-1.01.3032-1.626.3032-.855 0-1.553-.1823-2.093-.5469-.54-.3679-.872-.8899-.994-1.566l1.436-.2188c.09.3746.274.658.552.8502.279.1889.641.2834 1.089.2834.487 0 .877-.1011 1.168-.3033.292-.2055.438-.4557.438-.7507 0-.2386-.09-.4392-.269-.6016-.175-.1624-.446-.285-.81-.3679l-1.293-.2834c-.712-.1624-1.239-.4209-1.581-.7755-.338-.3547-.507-.8038-.507-1.3473 0-.4508.126-.8452.378-1.1833.252-.338.6-.6015 1.044-.7904.444-.1923.953-.2884 1.526-.2884.826 0 1.475.179 1.949.5369.474.3547.787.8303.94 1.4269zm7.506 0-1.348.2386c-.056-.1723-.145-.3364-.268-.4922-.119-.1557-.282-.2833-.487-.3828-.206-.0994-.463-.1491-.771-.1491-.421 0-.772.0944-1.054.2834-.282.1856-.422.4259-.422.7208 0 .2552.094.4607.283.6165s.494.2834.915.3828l1.213.2784c.702.1624 1.226.4127 1.571.7507.345.3381.517.7773.517 1.3175 0 .4574-.133.8651-.398 1.223-.262.3547-.628.6331-1.099.8353-.467.2021-1.009.3032-1.625.3032-.855 0-1.553-.1823-2.093-.5469-.541-.3679-.872-.8899-.995-1.566l1.437-.2188c.09.3746.274.658.552.8502.278.1889.641.2834 1.089.2834.487 0 .876-.1011 1.168-.3033.292-.2055.438-.4557.438-.7507 0-.2386-.09-.4392-.269-.6016-.176-.1624-.446-.285-.81-.3679l-1.293-.2834c-.712-.1624-1.239-.4209-1.581-.7755-.338-.3547-.507-.8038-.507-1.3473 0-.4508.126-.8452.378-1.1833.252-.338.6-.6015 1.044-.7904.444-.1923.953-.2884 1.526-.2884.826 0 1.475.179 1.949.5369.474.3547.787.8303.94 1.4269z" fill="#2a3140"/></svg>