<svg fill="none" height="808" viewBox="0 0 891 808" width="891" xmlns="http://www.w3.org/2000/svg"><path d="m890.442 757.79c-.078 7.117-4.343 13.109-8.274 18.694-8.217 8.47-20.927 11.126-32.162 13.338-1.316.171-2.815.704-3.931.281-3.858-1.467-7.944-.375-11.814-1.422-3.699-.998-7.48-1.674-11.199-2.603-6.424-2.037-13.37-2.55-19.228-6.07-2.636-2.644-18.238-7.158-16.894-10.62.538-1.133 1.69-1.414 3.01-.77 22.137 11.284 48.193 18.218 72.595 10.53 13.728-3.817 20.776-6.925 23.738-21.998-.428-6.07 5.206-5.002 4.159.64z" fill="#f4bdec"/><path d="m814.283 725.2c3.699 1.63 27.058 12.397 18.271 16.861-4.281 1.736-8.583-1.022-12.987-.195-.293.04-.59-.008-.855-.139-7.455-2.216-14.666-5.165-22.141-7.397-4.249-.876-6.596-4.396-.945-5.211 2.542.171 4.949-.55 7.414-.904 3.878-.819 8.147.411 11.243-3.015z" fill="#f4bdec"/><path d="m226.647 807.995c7.899-27.294 25.783-50.563 42.254-73.262 15.48-20.369 35.551-36.872 56.796-50.922 17.859-11.945 38.371-19.061 58.699-25.51 5.296-2.037 11.064-1.516 16.604-2.176 1.968-.244 4.481.815 2.445 3.023-10.649 3.768-22.516 3.626-32.635 9.219-16.165 8.926-34.452 15.073-48.071 27.93-10.38 10.037-19.961 21.11-26.829 33.885-7.089 11.549-13.66 23.6-17.057 36.823-2.196 8.266-6.249 15.945-7.333 24.54-.587 5.545-2.974 10.869-3.108 16.454z" fill="#f4bdec"/><path d="m51.5535 807.996c-4.6644-30.293-6.4039-60.87-10.327-91.253-1.7435-11.907-2.6072-25.481 8.5264-33.135 8.6567-6.421 16.5232-14.206 25.8887-19.502 2.2447 6.828 2.5258 13.851 3.9068 20.834.7333 3.874 1.0306 7.626-3.0472 10.025-3.0961 1.907-5.5892 4.787-8.3675 7.215-4.5748 4.302-11.8139 8.225-11.3495 15.415 2.7294 22.658 4.8396 45.361 7.6709 68.003.5377 2.567.3585 5.296.3748 7.952-.0611 4.889 1.3565 9.602 1.8332 14.442zm24.907-123.35c-.1019-5.964-7.1128-4.611-10.1844-1.821-1.4992 1.398-1.6662 3.08-.5378 4.746 2.5706 4.461 10.9299 2.139 10.7222-2.925zm-18.9919 5.296c-8.1964-.554-7.6016 11.374.5663 9.398 6.2573-1.931 6.2084-8.848-.5663-9.381z" fill="#f4bdec"/><path d="m461.297 807.994c.285-5.361 5.756-10.543 7.809-15.644 2.99-5.772 5.183-11.924 6.518-18.287 1.992-10.184 1.442-20.975-4.025-30.015-1.523-3.581-3.507-6.795-6.518-9.37-1.389-1.258-4.619-5.169-1.059-5.646 1.748-.057 3.503 0 5.341-.525-6.657-2.111-13.676-2.037-20.536-3.048-6.274-.537-12.266 1.41-18.291 2.921-.99 3.035-3.288 4.754-5.814 6.412-11.17 6.873-14.213 13.48-11.577 26.231-.029.279-.132.544-.299.768-.167.225-.392.4-.65.507s-.541.143-.818.103-.538-.155-.755-.331c-4.754-3.23-4.074-6.75-9.814-8.921-4.44-3.149 2.579-6.294 3.402-9.724 1.373-2.278 3.752-2.628 4.942-5.606-3.365.599-4.698 2.444-7.464 3.948-.708.431-1.425.199-1.963-.444-1.829-2.522 2.346-4.005 3.805-5.439 8.375-6.481 18.185-10.302 28.109-13.781 18.849-6.404 39.674-1.255 58.124 4.306 4.408 1.295 1.332 3.874 2.77 6.86 2.168 4.367-3.34 3.524-6.11 3.112 5.544 8.844 2.037 9.749 2.998 18.418 1.462 8.774 1.397 17.627.281 26.434-.448 8.963 1.222 18.133-1.731 26.765zm16.107-75.613c-1.446-.856-2.921-1.601-5.019-1.569 1.333 1.984 3.145 1.63 4.702 1.964.501 2.012 3.193 3.104 4.395 1.181-1.238-1.259-2.619-1.527-4.078-1.576zm-61.607 1.719c-1.736.978-5.194.896-5.679 3.128 1.043 2.27 5.561-.953 6.082-2.66 1.426-.721 1.426-.721 1.821-2.273z" fill="#f4bdec"/><path d="m0 368.46c4.02487 1.149 5.13294-6.375 7.17389-8.864 4.67671-8.881 9.50001-17.689 14.66551-26.292 2.6969-4.038 6.4162-7.333 8.8767-11.562 6.3714-10.649 16.955-16.926 26.618-24.206 18.0875-13.505 40.2121-22.691 62.9889-23.009.879 1.919.505 3.606.407 5.496-8.856.407-17.281 2.065-25.9051 4.041-4.5341.904-8.5956 3.076-12.6287 5.231-3.369.814-6.2206 2.652-9.1374 4.395-15.7695 7.9-29.4045 19.481-39.7517 33.764-3.1817 3.707-5.9803 7.654-7.9968 12.135-4.9415 10.723-10.1722 21.331-13.0605 32.823-.4481 1.694-.9288 3.76-3.01866 3.857-3.07162.383-6.15545.705-9.23114 1.052z" fill="#f4bdec"/><path d="m0 412.857c5.82955-.578 11.4799-2.529 17.4194-2.619 1.4659-.105 2.9148-.378 4.3182-.815 14.6655-4.428 30.0725-8.648 42.6808-17.668 1.8087-1.482 3.1856-.998 4.1511 1.121 3.2346 7.838-12.2457 13.728-17.232 17.643-.9858.607-2.1876 1.389-3.2183 1.296-2.5868-.225-4.5503 1.079-6.6606 2.081-7.3327 3.483-14.8895 6.404-22.9474 7.854-5.8825 2.098-12.13577 3.842-18.5112 3.541z" fill="#f4bdec"/><path d="m475.693 704.559c-.534-5.911.208-11.26.75-16.963.061-8.148.036-16.267-.029-24.402-1.149-8.351-.696-16.796-.896-25.213-.018-2.213.527-4.394 1.585-6.338 2.929-5.321 10.135-4.274 15.276-4.608 9.37 1.536 18.915.306 28.358.79 9.422.734 18.882.595 28.28 1.463 6.11.407 15.72-.546 17.061 7.373-.11 16.825.737 33.788-.815 50.515-.289 5.862.183 18.373-4.616 21.978-2.505 2.444-5.149 1.845-8.302 1.222-6.041-.305-12.091-.546-18.132-.892-13.517-1.365-27.107-1.247-40.636-2.473-5.972-.9-12.27.061-17.884-2.452zm44.099-18.74c.281-7.674 7.377-13.313 12.253-18.547 7.003-5.891 1.471-19.147-7.854-16.177-2.33.888-4.754 2.778-6.811 4.106-5.919-4.074-10.934-4.864-15.647 1.267-4.649 5.887-.045 12.376 5.059 15.998 11.081 6.99 2.664 18.405 13.02 13.362z" fill="#f4bdec"/><path d="m242.193 477.376c.522 1.707 1.121 2.807 1.145 3.915.778 8.673 2.819 17.138 3.666 25.811.538 4.074 1.06 8.176 1.597 12.266.314 2.408.583 4.783-2.497 6.038-7.675-4.482-21.147-8.963-24.622 2.627.457 2.261.982 4.396 3.475 5.589 6.392-2.362 13.236-.505 17.953 4.946-1.222-.151-1.768-.106-2.228-.293-4.412-1.976-14.409.48-15.79 5.397-1.397 3.129-5.667 4.75-8.038 7.305-11.048 8.245-20.641 18.079-31.205 26.886-8.823 7.028-16.07 15.664-24.035 23.571-5.055 4.343-9.459 9.296-14.225 13.908-1.019.815-2.135 1.442-2.225 3.063-1.222 3.365-6.953-.928-6.518-4.179-.142-13.896-2.933-27.535-3.479-41.406-.37-5.418 3.928-9.036 7.362-12.523 11.615-12.009 24.101-23.144 37.356-33.315 7.541-5.031 13.195-12.25 20.821-17.191 11.146-9.5 23.628-17.265 33.812-27.844 2.058-1.968 4.424-3.365 7.675-4.571z" fill="#f4bdec"/><path d="m633.026 600.544c2.163 1.352 3.98 1.397 5.862 1.185 16.046.228 7.051 12.222 9.565 22.198 0 2.958 4.237 19.306-2.505 15.362-1.793-2.037-3.667-.647-5.512-2.179-2.07-2.008-5.125-.733-7.256-2.628-4.395-4.13-7.051-8.078-14.258-6.326.465 2.134 2.119 4.42 1.98 6.453-.815 3.882-2.811 8.876-7.854 8.053-1.072-2.444-1.956-5.295-5.74-5.589-1.418 2.106-4.705 4.176-4.823 7.154-.041 6.351 0 12.702 0 18.556 2.578 2.717 3.157 5.483 6.424 7.019 1.629.729 2.852 2.444 4.571 4.037 7.165-.766 7.935 2.387 14.726-3.781-4.224-3.332-8.938-5.1-13.134-8.363-1.772-2.061 1.487-3.169 3.154-2.705 14.258 2.159 24.662 13.647 28.695 27.078.477 2.314-2.037 3.096-3.935 2.852-1.919-.086-2.611-.611-2.892-2.624-.172-2.309-3.459-10.343-5.92-10.184-.615 1.222.383 2.228.62 3.32 3.108 8.148.745 8.706-7.036 6.832-4.326-1.308-7.683 2.627-11.993 1.817-10.042-.212-32.126 7.993-30.26-9.411.135-.871.408-1.808.208-2.635-1.051-4.889.118-9.623.754-14.397-.286-4.4-.057-8.771.146-13.187-.102-14.506-.077-28.972 1.031-43.41 1.222-5.328-.407-10.482-.815-15.724 1.495-9.798 2.326-19.648.135-29.417-.326-1.992-.131-3.516 2.077-4.2 1.475-.456 1.308-2.717 3.108-2.892 2.094-.261 4.653-.123 6.111-1.915 1.377-2.575 8.494-2.88 10.103-.892.166.129.362.215.57.25.207.034.42.017.62-.051 2.444-1.189 4.933-.37 8.172-.317 3.776-7.187 12.111-.461 14.873-6.237 7.993.089 6.758 1.548 14.03-3.369 4.888-.106 4.012 26.605 3.882 31.034-1.088 4.631-9.125.757-12.498 1.295-2.497-.232-5.092-.485-6.319-3.259-6.518-5.349-3.703.815-13.223-5.491-3.259.044-5.434 3.866-8.359 4.953-2.999 1.145-4.294 3.98-5.48 6.518-4.411 4.172-2.48 13.851-2.851 19.102 3.418 5.023 6.567 9.651 9.777 14.376 4.408 1.63 5.609.815 9.777.754 2.077.232 4.008-.126 5.422-2.094 3.561-2.713 3.414-2.917 4.889-7.198-8.034-3.451-18.874 0-23.779-9.097.856-1.678 1.699-3.328 2.444-4.815 1.328-.517 2.383-.31 3.109.501 6.444 6.31 16.152 5.984 24.389 8.148 7.647 1.393 14.82 3.967 21.416 8.119 1.923 1.605 7.936 2.876 5.956 6.196-1.52 1.222-3.337-.078-4.779-.848-8.693-4.383-17.077-11.044-27.375-7.927z" fill="#f4bdec"/><path d="m193.014 128.802c1.251 4.301 4.408 8.383 9.289 6.689 1.109-.366 2.307-.354 3.409.032 4.974 1.499 5.471-.635 9.26-2.623 2.852-.571 4.701-2.33 5.891-4.889 2.208-.159 4.228-.538 6.452.383-2.403 7.524 1.52 9.635 8.339 7.691 5.056.99 6.013.106 10.82-.366 3.483-.22 4.481-4.029 5.606-6.795 13.443.44 6.363 42.44 8.502 52.515.982 12.412.986 24.646.912 37.071.473 9.369 3.422 19.46-1.943 28.056-4.624 6.485-17.916 6.705-25.31 8.929-22.365 4.685-45.007 7.789-67.568 11.33-13.357 1.975-15.997-1.919-18.885-14.259-2.917-15.138-1.125-30.606-3.508-45.801-.354-11.358-.273-22.723-1.894-34.008.79-14.164-7.37-35.926 10.135-42.456 5.883-1.345 12.095-.359 18.096-.664 7.406-.265 14.938-1.499 22.397-.835zm14.316 14.115c-14.56.664-30.578.941-45.15 3.455-13.223.452-8.213 29.693-7.654 38.395 1.002 16.336 2.22 32.7 2.631 49.003.782 5.296-2.118 17.155 3.21 19.733 4.343 2.184 9.301.583 13.941.481 13.133-.297 26.137-1.959 39.177-3.577 10.938-1.401 21.921-2.925 32.59-5.703 6.237-2.106 7.451-3.699 7.28-10.355-.151-10.898-1.035-21.771-1.092-32.668.721-6.367-.566-12.665-.639-18.996.122-11.072-.473-22.133-.946-33.193-.468-5.068-6.232-6.603-10.494-6.579-5.886.126-11.813-.521-17.667.603-5.292-.432-9.46-.79-15.187-.587zm-48.209-4.412c-.469-4.408-5.349-4.012-5.887 0 .473 3.878 5.41 4.522 5.887 0zm15.574 1.793c4.481.346 3.295-5.704 0-6.07-2.978.277-4.233 5.895 0 6.07zm-6.706-2.037c-.089-3.259-5.703-3.178-5.296.407.196 3.43 5.581 3.039 5.296-.415z" fill="#f4bdec"/><path d="m157.618 425.163c.342 1.36 1.987 1.951.953 3.039-.444.464-1.536.313-2.51.468-2.22-9.834-1.804-19.35-2.912-29.196-1.882-12.539 2.216-17.518 12.991-23.262 20.674-10.538 41.907-19.688 63.18-28.948 8.18-3.369 4.44 13.195 5.357 17.432.114 5.296.721 10.592.696 15.888.151 3.389-3.76 4.118-6.061 5.54-3.288-3.447-1.031-13.444-1.903-18.393-.151-4.237-4.701-6.84-8.27-4.636-4.619 3.259-9.732 5.54-14.971 7.602-10.909 4.179-21.155 9.862-31.828 14.559-5.418 2.363-8.429 6.742-10.999 11.623-1.951 7.642 1.018 15.529 2.037 23.122.758 3.605-3.21 3.895-5.76 5.162z" fill="#f4bdec"/><path d="m741.347 651.942 2.473 1.662c1.189 13.851-6.034 26.317-8.775 39.516-.322 1.808-1.011 3.259-2.583 4.424-1.124.843-1.89 2.261-2.591 3.544-1.446 3.194-3.789 6.159-4.396 9.626 3.084 1.059 40.009 4.665 33.169 10.755-.815.167-1.821.31-2.558 0-5.81-2.359-12.038-2.766-18.096-3.927-1.899-.361-3.849-.361-5.748 0-3.377.668-6.758.705-10.152.68-6.286-.774-12.168 15.68-18.332 9.138-5.463 5.703-9.284 12.046-15.655 16.551-7.989-1.397-5.321-5.051-4.4-11.288 1.833-3.426 5.907-5.333 8.702-7.985 3.564-2.851 7.255-5.577 10.697-8.583 9.944-9.264 19.428-19.11 26.533-30.769 3.185-4.644 5.919-9.7 6.184-15.407 2.501-14.022 1.36-25.942-5.594-38.542-1.063-1.438-.028-4.224 1.895-3.067 5.687 6.526 7.862 15.195 9.227 23.672z" fill="#f4bdec"/><path d="m112.978 393.717c-1.894-6.925-3.561-13.948-3.666-21.183.105-7.516 26.173-15.366 32.887-18.084 3.617-.586 11.349-4.346 12.291 1.316.7 6.641 1.629 13.118 2.036 19.811-2.183 1.499-4.591 2.359-6.432 4.074-2.216 2.68-5.414 3.45-8.351 4.709-3.797 1.63-7.671 3.059-11.46 4.693-6.758 3.438-9.292 4.681-17.305 4.664z" fill="#f4bdec"/><path d="m477.302 527.345c-.489-13.513 14.821-24.626 26.911-19.208 2.526 1.927 5.818 2.037 7.468 5.1 2.098 3.231 4.326 6.351 4.676 10.36.815 7.202-3.067 14.295-7.939 19.432-11.827 9.329-31.788-.721-31.116-15.684z" fill="#f4bdec"/><path d="m680.884 777.434c-.265-7.487 21.815-19.639 28.365-22.976 7.74-3.414 15.639-7.471 24.272-7.772 6.595.028 13.443.101 19.493 3.03 2.68 1.072.937 5.019-1.581 3.72-3.821-1.829-7.883-2.33-12.046-2.444-2.408.052-4.709-1.064-6.926.199-9.121 3.357-18.498 6.294-26.919 11.211-5.361 4.832-11.578 8.689-16.262 14.291-1.923 1.629-3.667 5.247-6.6 4.457-1.605-.449-1.89-2.404-1.796-3.716z" fill="#f4bdec"/><path d="m17.7578 99.728c.0652-5.4141 0-11.4066.3259-17.5172 3.1368-1.2221 5.9477-.0693 8.783.3218 2.9006.4074 5.8174.7048 8.9012 1.0714.163.8148.5214 1.5358.4074 2.1713-1.4381 5.5607-.0815 11.2192-.3381 16.6697-2.8191 1.723-5.6463-.815-8.5549-.171.9695 1.381 2.7498 1.059 3.7723 2.102-3.1205 1.487-8.9908 2.2-10.384-1.853-.3626-1.471-2.0288-1.161-2.9128-2.795z" fill="#f4bdec"/><path d="m101.318 214.859c.085.986-.725 1.833-1.4993 2.75-2.3709 2.807-4.6034 5.74-7.0598 8.469-2.3995 2.416-2.6969 5.805-4.1756 8.649-1.7681 2.815-5.4263 2.444-8.3227 2.851-4.5871-1.116.8718-10.323 2.6072-12.482 3.1286-2.933 17.8922-23.469 18.4502-10.237z" fill="#f4bdec"/><path d="m23.6891 503.941c-1.8291-4.86-1.9065-8.555-.2852-15.774 1.8943-1.25 8.8727-6.277 10.1844-2.668 1.9066 6.722 4.6808 15.387-4.3793 17.717-1.7435.607-3.5441 1.593-5.5199.725z" fill="#f4bdec"/><path d="m70.5003 259.162c-2.7172-.061-16.4132-6.848-13.9934-10.253.9044-1.34 2.709-1.336 3.9393-.505 6.3958 3.8 14.2826 3.666 21.4565 3.743 1.9636.143 4.3711-.37 5.7318 1.41.7781.965.1792 2.664-.9981 2.795-2.0654.224-4.0737.448-5.7847 1.808-.2933.233-.8555.184-1.2955.18-3.4138-.351-5.4873 1.018-9.0559.822z" fill="#f4bdec"/><path d="m224.578 300.307c3.455-2.037 7.333-3.846 11.492-3.503 1.34 8.636 2.99 13.533-7.051 16.107-6.042 1.528-3.651-8.999-4.441-12.604z" fill="#f4bdec"/><path d="m217.502 671.658c2.53-3.153 2.53-3.153 4.889-4.257 1.568 5.94.762 12.882 1.487 19.147.098 4.102-.485 5.259-5.259 6.579-.815-.407-.746-1.198-.754-1.906-.049-6.604.029-12.894-.363-19.563z" fill="#f4bdec"/><path d="m36.6638 229.981c1.8006-.192 3.699.183 4.5463 1.931.9085 2.037.7577 9.162-1.9757 10.062-2.6724-.053-5.9722.754-7.1088-2.444-1.328-2.709-.5906-5.455.2771-8.111.7088-1.548 2.7823-1.41 4.2611-1.308z" fill="#f4bdec"/><path d="m114.449 72.3399c1.568-.2811 2.851.3829 4.403 1.2221-.44 2.6276 1.63 7.7402-2.53 7.9724-1.694.1181-3.092-.5052-3.185-1.6703-.204-2.5909-.774-5.2877 1.312-7.5242z" fill="#f4bdec"/><path d="m78.3462 655.132c1.271-1.666 2.098-2.774 3.9393-3.304l.387 3.711z" fill="#f4bdec"/><path d="m868.693 624.843c-1.609 20.369-1.116 40.815-.847 61.22.545 8.376 1.189 17-2.037 24.96-3.137 6.135-23.522 6.494-30.48 8.555-14.666 2.852-29.307 5.826-44.09 7.997-29.087 3.813-27.934 8.84-28.969-22.605.407-21.241-.122-42.588 1.483-63.763.908-8.31 9.809-10.93 16.617-13.215 10.262-2.815 20.34-6.376 30.777-8.502 15.244-3.666 30.553-6.925 46.009-9.692 2.88-.55 5.573.204 8.245 1.153 4.339 1.361 2.55 10.185 2.99 13.88z" fill="#f4bdec"/><g fill="#2b1c4a"><path d="m.0975172 301.284c3.0186528-.737 4.4322528-4.782 6.7013328-6.791 12.86495-14.6 29.78735-25.664 47.99295-32.374.3259-8.864-1.5195-18.095-2.2935-27.041-.7007-5.414-.8922-10.918-2.4443-16.23-.3096-1.063-.0692-2.355.1508-3.495 1.1121-7.333 7.1494-12.14 12.4086-16.744 10.2496-9.064 22.7357-13.533 35.291-18.409-.163-2.082-.6762-3.768-1.2221-5.703-.2974-1.072-.2933-2.098.7047-2.787 1.9677-1.108 3.19.636 5.051 1.589.432-4.538-.48-8.021-1.405-12.156-1.4054-5.365-1.1773-10.873-1.4665-16.332-.2444-1.556 1.4505-3.096 2.7985-1.951.97.872 1.797 1.898 2.697 2.852 1.1-.118.794-1.084 1.051-1.667 2.786-7.915 4.335-16.388 8.315-23.831.88-1.976 4.155-1.52 4.285.668.974 8.962.045 18.051.289 27.062.079 7.588 2.028 15.039 5.675 21.693 1.031 1.731 1.43 1.772 4.025.513v-15.928c-.147-5.219-.407-11.187 3.984-14.865 4.001-3.52 8.058-6.983 12.221-10.295 4.172-3.63 9.737-2.851 14.947-3.695 1.283-2.587 2.094-7.988-1.544-8.762-4.99-.567-10.042.334-15.048.407-11.37 1.344-2.037-9.133-.208-13.944-1.304-.844-2.167.077-3.125.256-12.294 3.785.864-11.8911 2.652-15.9078-19.819 6.3265.599-10.6937 6.551-13.4434-2.342-15.073-5.17-30.5166-5.052-45.9928-.017-1.035.026-2.0702.131-3.1001.265-1.5399 2.876-3.0309 4.143-1.6703 8.587 13.7001 15.651 28.9726 26.76 40.7743 1.691-2.9942 8.433-37.5845 12.89-32.4882 9.618 12.6734 11.308 28.8422 15.887 43.7114 4.51.7781 9.586.1181 13.643 2.2487-.236 6.2532-3.458 10.3922-8.371 13.3782-.363 2.1347.448 3.8783 1.006 5.7563 9.614.8351 19.289.5051 28.903-.3545 5.296.0204 11.224-2.5135 16.157-.057 14.083 11.0642-28.679 21.8392-35.401 24.6712-.13 1.397.697 2.24 1.487 3.397h7.63c3.573-4.823 8.75-8.127 14.56-4.697 3.096 1.251 5.128 4.738 8.367 5.536 15.114 1.687 11.46 26.944 12.221 37.947-.317 21.591.917 43.207 1.593 64.802 1.536 10.09-.745 23.652-12.307 26.288-25.294 6.163-51.072 10.335-76.81 14.193-8.963 1.099-18.511 4.448-26.855-.583-12.677-3.854-13.712-17.354-16.661-28.309-9.924-3.259-20.023-6.167-28.431-12.628-2.953 2.819-3.878 4.346-5.3896 8.742.5867.929 1.5606.583 2.3796.68 5.027.245 10.07.632 14.808 2.51 9.162 2.619 7.446 11.443 8.147 19.032.073 9.916.322 19.868-.929 29.739-.313 2.75-1.242 3.727-3.968 3.85-42.8962 3.226-88.8075 33.918-93.3253 79.242 11.4066-3.906 22.4057-9.215 32.3253-16.095 5.1126-4.339 5.4303-4.709 4.4812-11.378-.8765-7.354-1.0661-14.773-.5663-22.161 2.6479-13.354 23.6523-14.006 34.3336-17.99 23.3915-4.481 46.3105-11.215 69.8285-15.036 5.007-.664 13.219-1.039 13.851 5.63 1.935 23.281.293 46.587 1.222 69.938 5.585-1.32 10.249-4.669 15.521-6.84 9.557-4.713 19.839-7.74 29.453-12.315 11.574-5.137 11.814 7.781 11.468 15.427.293 6.298-.269 12.759.489 18.984.814.632 1.429.147 2.036-.216 11.924-5.565 34.033-26.117 43.223-7.74 3.74 38.293 4.416 77.153 6.2 115.646 1.467.843 2.974.64 4.416.627 8.197-.313 15.786 2.371 24.035 1.499.461-2.603.815-4.599 1.223-7.145-3.83-3.896-7.309-8.122-10.397-12.629-1.181-1.654-1.153-1.674-.35-4.415l11.732-2.661c5.704-21.591 11.036-43.528 14.491-65.648.366-1.805.171-4.612 2.297-5.243 1.528-.118 2.518 1.34 2.799 2.75 3.837 12.738 8.486 25.257 11.671 38.191 1.222 6.139 3.602 11.879 5.83 17.672.09.24.407.407.872.815 5.621-16.369 9.602-33.12 15.643-49.358.297-1.336 1.173-2.986 2.652-2.966.328.105.626.287.869.53.244.243.426.54.532.868 5.26 24.112 10.482 47.695 16.939 71.625 5.096 1.629 24.821 4.888 24.732 11.3-1.3 3.565-6.278 1.459-9.052 2.77-.204 1.548.969 1.585 1.629 1.948 3.035 1.955 18.972 10.498 16.964 14.193-1.5 2.159-4.18.321-6.172.052-5.296-1.254-9.944-2.537-15.554-2.647.599 1.662 1.78 2.081 2.709 2.664 2.685 1.715 25.298 16.971 18.206 19.366-5.398.053-10.755-1.654-16.153-1.576-.163 1.222.656 1.479 1.198 1.886 2.693 2.379 18.132 14.421 10.563 16.939-9.895 2.627-20.796 3.666-28.683 10.93-4.546 4.851-2.375 12.803-1.491 18.69 2.098 10.685 6.542 20.544 11.659 30.101 1.495 3.426-.599 3.377-3.218 4.95 3.76 6.848 8.103 13.374 12.091 20.095 2.244 3.871 8.2 12.487-.55 12.051 3.084 7.548 8.783 13.484 11.467 21.151l8.616.884c-.179-26.529-2.004-53.008-1.629-79.545.88-47.174-5.08-28.406 21.725-50.922.408-6.025 1.414-12.453 1.459-18.975.517-6.893-1.059-14.258 2.379-20.609 10.388-3.768 21.289-1.809 31.995-.754 8.824 1.108 17.639 2.118 26.537 2.298 5.434.452 10.999.183 16.331 1.503 10.971 2.391 5.94 25.212 7.553 33.812 27.294 2.966 54.971 3.451 82.424 5.076 8.698-.118 17.241.965 24.952 5.1 10.734 5.133 4.632 29.132 5.369 39.202 34.22 10.054 66.354 31.649 85.17 62.08 10.372 22.577 8.555 42.587-.729 65.18.868.074 1.548.273 2.167.155 5.435-1.348 11.077-1.629 16.295-3.748.322-11.911-3.8-61.192 5.761-67.074 19.59-9.37 41.691-12.173 62.833-16.475 10.332-1.857 20.524-4.481 30.867-6.318 5.895-.904 15.574.599 15.843 7.993 0 26.797-1.446 53.578.135 80.379.505 4.18-.779 8.258-1.104 12.323.501 3.667-1.736 6.144-3.699 8.69-2.107 1.857-4.677 2.261-7.484 3.495 3.117 2.994 6.925 4.518 10.441 6.925 12.853 9.284 26.036 26.85 17.578 42.946-4.961 10.592-16.348 21.183-28.129 23.021-6.247 1.28-12.64 1.692-19 1.222-5.475-.359-10.368-3.324-15.818-4.074-12.315-2.513-22.769-9.777-33.719-15.55-9.125-4.925-19.041-8.224-27.355-14.608-5.031-3.585-11.313-4.074-17.037-6.017-3.165-.917-6.359-1.377-9.646-.815-14.519-.114-26.549 9.753-37.283 18.556-5.056 5.296-14.812 10.951-15.216 18.788.122 4.294.037 8.592.045 12.886 0 1.479.135 2.978-.864 4.245h-6.22c-.55-35.035 3.467-70.24.472-105.173-1.462-12.274-12.628-10.041-21.411-11.264-19.673-.476-39.361-1.474-59.033-1.222-9.264 1.08-18.332-.309-27.612.163-1.874 7.15 1.927 22.63-7.655 24.471-2.348.258-4.71.369-7.072.334-20.214-.933-40.407-3.047-60.646-3.287-3.666 31.775.265 64.129-2.807 95.994h-3.556c1.446-15.407 1.112-31.058.925-46.494-4.579-4.265-7.541-9.101-13.639-10.913-20.308-6.881-46.294-7.586-61.783 9.43-3.556 4.221 3.495 4.196-.904 15.815 7.467 2.423 14.889 3.666 20.919 8.791 6.065 4.778 11.064 15.48 10.929 23.371h-3.556c-1.662-17.969-13.272-26.145-30.288-28.349-1.32-.24-2.683.02-3.822.729-2.444 1.731-5.532 1.76-8.261 2.66.269 10.791-.505 18.169-10.07 24.96h-6.193c1.003-1.768 2.824-2.518 4.42-3.552 7.333-4.302 10.01-13.757 7.529-21.661l-10.938-4.196c-3.19 9.631-6.111 19.147-4.567 29.409h-8.885c-.191-11.337 4.889-22.349 3.394-33.784-5.093-24.923-29.796-44.811-55.33-43.846-8.905 1.3-19.057 3.667-24.932 10.894-7.842 14.571-13.284 30.186-17.953 46.033 15.697-.864 29.706 5.899 41.145 16.173 1.467 1.222 2.995 2.444 3.027 4.546h-4.461c-.269-1.809-1.792-2.668-3.039-3.544-10.848-8.29-23.375-15.545-37.556-13.126-1.421 3.056-3.479 12.002-3.845 16.67h-8.889c-.379-9.149 2.57-18.124 5.528-26.707 6.567-18.43-5.251-38.571-23.294-44.641-4.709-1.747-9.537-3.173-14.331-4.676-17.004-4.404-39.569.216-48.543 16.649-9.517 18.593-19.856 37.841-20.671 59.269h-8.013c.746-18.006 7.195-34.7 15.664-50.38 10.612-22.988 29.213-41.552 46.482-59.505.167-6.437-.322-11.932-.717-18.19-.094-.57-.2-.407-.954-.635-30.39 31.873-61.082 63.791-89.985 97.073-7.162 10.657-27.5548 10.384-30.5531-3.613-5.907-24.699-7.0395-50.246-11.8139-75.096-5.2307 2.42-16.902 14.784-18.8737 16.943-.4685 9.871.8147 19.253 2.2039 28.956 1.7476 21.542 4.9822 42.913 6.7502 64.447h-4.42c-2.7539-29.518-5.6055-59.204-9.4715-88.673-.4359-5.003 2.8516-9.036 6.4854-11.94 5.7033-5.019 11.5206-9.777 17.1098-14.971-1.271-8.25-2.5298-16.434-3.8049-24.618-.2159-.762-.2241-1.67-1.2221-1.801-8.2168 5.911-16.0792 12.421-24.1004 18.613-3.5981 2.518-6.4486 5.962-8.25 9.967s-2.4867 8.423-1.9833 12.785c3.9475 33.515 7.1821 67.111 10.9992 100.622h-8.8564c-4.3019-18.295-3.1734-37.454-6.7502-55.916-1.3973-12.307-8.0986-53.183-.9899-61.738 11.8709-12.547 26.9764-21.326 39.8454-32.725-5.9436-38.171-9.8544-76.619-14.6981-114.941-.4441-15.443-12.5105-45.793-1.0999-56.817 3.5681-3.759 7.6414-7.004 12.1031-9.642 13.3171-8.282 26.9113-16.177 40.3304-24.239.611-.485 1.328-1.682 1.12-2.22-1.014-2.66-.028-5.272-.065-7.789-.249-.334-.375-.701-.599-.778-2.35-.791-2.611-2.591-2.269-4.657 1.247-6.061 2.294-11.891.094-18.108-10.8161 3.952-20.9028 9.407-32.0526 12.222-4.4445.851-8.2453-1.866-9.0275-6.343-.5948-1.683.4685-4.673-1.4299-5.52-8.7178 4.559-16.4783 11.476-26.015 14.592-13.3538 3.797-27.1149 10.747-41.1938516 9.345v-3.556c21.7538516-.77 51.3497516-12.629 67.6529516-27.168-.1997-2.888.554-4.758-.6192-7.43-17.2035 11.96-37.389 18.03-57.49708 23.077-1.83727.546-2.9657-2.037-.89216-2.933 19.98184-6.558 41.58904-11.28 58.17734-25.029-.0937-2.281.33-4.457-.5214-6.518-7.4591 3.459-14.4904 8.274-22.4953 10.999-11.8139 4.155-24.2348 9.028-36.79829 9.207-1.0551-.407-.89215-1.955-.22405-2.444 20.62134-4.734 42.18784-10.046 59.41574-23.021-.1426-2.505 0-4.832-.717-7.394-18.8501 9.767-38.824 17.191-59.47683 22.108-1.22213-.256-1.7232-1.686-.75365-2.525 12.49828-4.718 25.57918-8.303 38.04078-13.338 6.852-3.287 17.456-6.302 22.2468-12.022-.0733-3.458-.0734-3.458-1.271-5.128-13.529 12.221-42.7541 20.649-60.80903 21.92-1.75579-.855-.79031-3.165 1.01844-3.1 10.30249-1.263 68.17839-15.236 59.30579-30.516-6.1106 4.192-11.9035 8.962-19.1956 11.284-14.0218 6.734-28.8381 11.814-44.5668828 12.185v-3.557c3.6378628-.839 7.8745728-.179 11.1335828-2.11 7.8868-34.154 29.2985-65.62 61.1349-81.341 13.1175-8.33 28.516-12.755 43.964-13.692 1.446-.114 2.97.241 4.371-.839v-3.976c-23.1551-.171-45.6259 9.696-63.8479 23.538-9.5285 6.836-19.44 13.199-25.6361 23.486-5.8663 8.212-12.5554 15.72-16.7676 24.98-3.6664 6.754-7.15762 13.602-10.72624 20.41-.66402 1.376-2.09391 2.322-3.6256428 1.548v-5.333c.5906948-.371 1.4421128-.595 1.7354228-1.124 3.07976-5.561 6.04546-11.183 9.09266-16.76 4.6929-9.622 11.2395-18.022 17.6801-26.5 6.1554-9.394 15.0729-16.238 24.3651-22.267 19.1509-15.934 43.0746-25.015 67.9752-25.803-.086-1.89-.159-3.467-.245-5.251-27.8521.79-68.1498 22.52-89.0033 40.856-7.6628 7.98-16.5476 14.954-22.61754 24.32-1.73543 2.106-6.46913 11.325-8.962274 10.307v-6.221c2.269084.815 4.953694-5.638 6.640224-7.109 6.81949-9.72 16.05469-17.301 24.31219-25.766 13.1745-11.545 28.7445-19.762 44.404-27.38 9.4674-4.102 19.1466-8.082 29.1107-10.742 5.48-.917 10.881-1.251 16.357-2.355-.11-1.312-.204-2.444-.314-3.785-11.386 1.284-21.4363 5.622-32.2766 8.608-16.5761 3.618-31.7427 11.175-46.5753 19.228-14.6899 9.394-27.8522 21.184-39.41357 34.22-.58662.705-1.22213 1.336-2.256865.851v-5.324c13.036035-10.539 24.035135-23.713 38.761835-32.207 14.2581-8.433 29.3596-15.44 45.4387-19.587 12.2213-3.385 24.0558-7.333 36.5128-9.683-.407-1.463.135-2.966-1.087-3.756-11.778 4.432-24.4307 5.654-36.6276 8.424-29.331 6.034-49.7854 13.908-71.2908 35.687-2.76908 2.882-5.39051 5.904-7.85416 9.051-1.10399 1.385-2.29353 1.707-3.8619228 1.406zm280.3074828 265.296c-5.838-3.528-11.562-8.302-18.271-8.995-6.29-.024-13.549-3.434-18.295 2.607-5.484 8.347-19.868 5.488-19.061-5.601.101-1.63.517-3.402-.726-4.713-26.263 19.395-49.451 43.137-72.708 66.145l-4.127 4.037c-4.636 4.107-11.895.982-11.679-5.353-1.153-14.013-3.064-27.938-3.459-42.021-.285-10.363 10.083-15.386 16.051-22.238 6.925-7.516 14.771-14.12 22.707-20.52 14.099-10.82 26.948-23.131 41.369-33.559 10.319-6.848 18.063-17.587 29.486-22.545 5.605-2.472 5.296 13.534 6.412 16.845.639 4.392 1.283 8.783 1.833 13.187.607 4.844.815 9.777 1.764 14.535.607 3.056.521 5.769-.782 8.523-.102.212.069.546.151 1.087 10.416 5.968 17.79 17.668 28.952 22.194.24-10.999-2.897-21.375-3.011-32.305.097-3.435-.27-6.867-1.091-10.204-7.26-2.636-15.302-4.767-20.732-10.572-4.037-4.481.66-10.184 5.63-11.019 4.933-1.402 9.708.521 14.706-.897-1.731-25.962-5.128-51.818-4.208-77.918-.607-3.638.876-15.587-5.137-12.861-16.527 9.109-32.863 18.992-47.989 30.292-10.16 8.188-21.782 14.258-32.59 21.522-21.31 13.94-42.322 28.386-62.801 43.467-11.186 7.003-21.664 15.073-31.7222 23.526-5.4589 4.974-3.3446 13.231-3.7397 19.839 2.2976 29.657 5.414 59.265 7.3327 88.955.9248 21.326 5.5082 42.245 7.4912 63.473 1.369 14.421 4.482 28.704 6.168 43.051 1.084 9.183 2.347 18.715 6.376 26.961 9.825-3.756 16.669-14.955 24.344-21.974 29.942-29.739 57.237-61.987 86.608-92.275 12.083-14.011 24.419-27.798 37.007-41.361 4.126-5.047 8.294-10.038 12.97-14.592 2.787-2.892 3.349-6.86 4.983-10.307-.07-2.786-.139-5.581-.212-8.416zm-52.503-17.774c2.118.684 7.264 1.85 3.895 4.074-1.186.212-2.885-.102-3.316 1.393-1.369 7.773 9.153 9.309 12.657 3.398 4.888-6.074 12.567-4.97 19.387-3.964 14.91 2.338 27.147 13.036 38.293 22.577 5.259-3.618 8.119 0 11.737 3.487 4.379-1.41 5.243-1.222 8.412 1.739 2.444 2.392 4.766 4.889 7.137 7.333 2.807 4.167 7.011.855 4.925 5.911-4.558 12.001-10.771 23.864-12.176 36.749 2.823.815 5.051 1.373 4.452 4.481-.586 4.074-2.505 7.977-1.763 12.177 21.998-3.573 44.241-1.87 66.019 2.298 6.823 1.328 14.951.782 20.434 5.556 4.395-.15 8.555-.273 12.677-.456.351 0 .685-.407 1.108-.705-1.222-4.774-18.629-24.809-10.828-27.037.77-.171 1.703 1.01 2.355-.379-5.414-10.099-12.221-19.554-17.692-29.629-.615-1.588.452-2.941 2.171-2.961.815 0 1.597.969 2.554-.057-6.518-13.717-12.832-29.144-10.054-44.608 1.508-4.717 8.221-7.813 12.413-10.07 5.96-2.921 12.678-3.626 18.947-5.37-.024-3.393-9.61-10.848-12.698-12.754-1.601-1.223-4.672-1.984-4.375-4.482.31-1.597 1.674-1.975 3.035-2.094 4.432-.497 8.86.057 13.288.379.538.037 1.198.322 1.573-.721-4.269-4.619-9.683-8.062-14.922-11.471-1.968-1.805-7.708-3.488-6.926-6.657.884-3.825 15.106-.77 19.009-.99-4.531-3.996-9.317-6.192-14.707-8.555-2.191-.489-5.613-2.953-2.35-4.644 1.698-.493 3.471-.733 5.214-1.063 1.283-.444 4.388-.192 4.856-1.556-3.353-1.728-6.872-2.803-10.4-3.809-2.665-.758-5.272-1.984-8.213-1.133-.46.135-1.348-.521-1.748-1.034-5.418-21.97-10.999-43.74-15.586-66.036-4.461 8.05-6.599 17.427-9.137 26.251-1.829 8.115-5.675 15.574-6.95 23.807-.069.432-.815 1.084-1.222 1.063-1.56-.097-2.359-1.495-2.738-2.888-4.566-10.339-7.39-21.183-10.392-32.04-2.196-6.925-4.481-13.794-6.644-20.707-.192-.607-.505-1.035-1.32-.741-3.785 19.851-9.024 39.108-13.395 58.902 9.297 1.927 17.982 4.783 23.649 12.877 3.633 4.343 6.518 9.227 7.711 14.813.477 1.833-1.267 3.002-2.909 3.043-11.17 2.517-20.747-3.227-30.231-8.282-.872 3.202-.138 7.956-4.383 7.813-3.394.114-6.803.065-10.185-.126-12.628-.216-25.31-3.638-37.886-2.037-1.792 3.817-.692 7.651-.994 11.521 8.665 3.454 17.473 6.954 26.724 8.326 9.541.815 17.55 6.017 25.355 11.073 14.169 9.622 21.921 28.614 19.554 45.426-.558 2.306-.985 8.148-4.603 6.111-1.084-.705-2.163-.815-3.34-.884-20.492-2.18-40.881-8.583-58.5-19.359-7.923-6.11-16.319-11.793-23.163-19.093-7.088-3.728-13.9-10.792-22.552-8.555-1.455.35-2.925.859-3.182 2.623-.187 1.296 1.177 2.102 3.666 2.176 7.386.521 15.782 3.784 18.552 11.264-.57 1.083-1.222 2.334-1.804 3.409-3.667 0-5.83-3.967-9.802-3.104-5.104 1.182-9.728 1.267-8.673 8.001zm57.876-62.911c.917-33.535-2.758-67.535-3.952-101.2-.281-7.146-.203-19.318-10.432-17.599-8.494 2.037-15.688 7.581-23.298 11.663-15.073 9.085-29.881 18.634-45.533 26.724-15.977 8.148-30.447 18.805-46.033 27.604-29.767 17.028-60.0922 33.307-87.9933 53.325-8.2657 5.736-4.6604 16.039-3.5361 24.247.88 6.001 1.6947 12.014 2.5747 18.015 2.269 14.009 3.6338 28.19 5.3651 42.273 1.047 14.629 3.422 29.087 6.3184 43.434 3.6664 35.935 9.28 71.605 14.3763 107.356 1.7436 13.199 3.0431 26.48 4.2245 39.723.2522 3.7 1.1541 7.327 2.6644 10.714 3.801 9.044 15.887 8.246 20.776-.733 4.339-6.367 10.152-11.541 15.044-17.472 19.518-20.227 37.911-41.553 57.701-61.514 22.055-23.098 42.367-47.85 63.816-71.494 5.438-6.441 10.624-13.11 16.16-19.461 5.907-6.518 18.039-18.389 16.605-27.567-1.279-.713-2.204-2.342-4.001-2.648-2.069 2.306-.66 5.296-1.8 7.773-6.649 11.675-17.232 20.67-25.62 31.107-14.474 15.863-27.865 32.672-42.595 48.266-16.153 18.124-34.028 34.627-49.342 53.545-14.258 15.668-27.041 32.591-42.367 47.256-2.305 2.317-5.031 4.171-8.033 5.463-6.579 3.365-9.154-3.85-9.749-9.195-1.086-7.919-2.1-15.848-3.043-23.786-2.917-25.431-6.0589-50.837-9.4265-76.216-2.1714-12.547-3.809-25.176-3.8457-37.959-.4073-11.407-2.5787-22.655-2.8231-34.073-.8147-17.75-3.5442-35.352-4.4811-53.102-.6396-5.988-.7618-12.445 3.1368-17.448 9.3044-9.879 21.1346-17.179 32.2026-24.947 20.271-14.919 41.003-29.164 62.06-42.979 10.796-7.198 22.524-13.317 32.704-21.35 12.56-10.286 26.887-17.778 40.33-26.708 3.923-2.721 8.148-4.807 12.519-6.664 4.371-1.858 7.634-.123 8.579 4.424 2.143 14.51 2.139 29.233 2.204 43.874 0 6.803.542 13.602 1.186 20.369.872 8.795-.033 17.843 2.114 26.479 1.845.249 3.442.762 5.243.477zm187.393 182.883c-.192-12.775-.526-23.953-1.071-36.562-12.596 2.97-18.561-12.319-6.84-14.702 5.744-.652 10.392.293 10.816 7.011.607-.081 1.108 0 1.45-.212 4.778-2.79 10.033-3.397 15.419-3.348 2.09.02 4.017-.143 5.874-1.422 1.695-1.169 3.667-1.222 5.227.542.868.977 1.935 1.254 3.157 1.34 10.185.619 20.059 1.919 30.346 1.629.284-.202.545-.436.778-.696 1.906-2.603 6.338-1.789 8.086.574 2.013 2.571 5.968 1.141 8.816 1.536 6.697.204 17.305 1.304 16.584 10.184-.094 2.367-.151 4.734-.228 7.105 0 14.45-1.996 28.993-1.402 43.369 4.319.281 8.388.526 12.588 0-.057-16.164.815-32.089 1.043-48.225-.55-11.268.632-22.475 1.027-33.71-1.157-13.892 5.361-31.368-2.343-43.557-5.295-5.055-12.221-6.216-19.305-6.42-7.333-.245-14.918-1.748-22.214-1.092-1.63 5.435-.363 12.629-6.388 14.987-1.615.777-3.428 1.043-5.198.762-12.629-1.222-25.31-2.334-38.033-3.084-10.042-.545-19.961-2.167-29.942-3.499-4.738-.684-5.976-2.493-6.636-5.96-.612-3.198-.873-6.453-.778-9.708.037-1.283.436-2.676-.872-3.98-9.08-.106-15.993-1.222-15.105 10.625-1.605 12.05 0 24.226-.542 36.342-.241 11.838 1.043 23.656.815 35.498 1.556 11.464-1.63 22.565.814 33.988 11.985 1.067 22.936 5.393 34.073 10.681zm395.395-43.455h-.285c-.408-3.764 1.312-12.494-2.99-13.879-2.673-.949-5.365-1.707-8.246-1.157-15.439 2.75-30.765 6.021-46.009 9.692-10.437 2.13-20.515 5.703-30.777 8.502-6.807 2.281-15.708 4.888-16.617 13.215-1.605 21.184-1.059 42.526-1.483 63.762 1.092 31.222-.362 26.525 28.973 22.61 14.779-2.176 29.425-5.141 44.082-7.997 7.007-2.037 27.323-2.444 30.484-8.555 3.206-7.964 2.567-16.584 2.037-24.96-.269-20.426-.762-40.88.847-61.237zm-691.875-331.942c-4.758-3.625-8.555-1.283-13.549-.814-8.466.431-16.507 3.287-24.728 5.08-20.369 4.481-40.8803 8.339-60.8214 14.551-11.2517 2.852-9.5 16.425-8.8074 25.404.4766 6.494 1.104 12.975 1.5073 19.473.9654 16.702 1.6295 33.404 2.7579 50.107.5174 4.962.6885 10.131 2.5216 14.82 1.324 3.178 3.0554 3.972 6.3225 2.713 9.1212-3.878 18.7715-6.648 27.4695-11.386-.433-1.752-1.119-3.432-2.037-4.986-3.178-.139-6.204-.884-7.06-4.318-.7453-2.489-.4439-4.746 1.589-6.461 3.381-3.324 1.862-4.38 7.422-5.915-6.224-29.059-5.067-23.726 20.756-36.375 6.457-2 25.526-11.997 27.514-1.067 1.455 6.379.408 13.178 2.762 19.35l18.002-8.298c-.366-20.467-.623-40.88-.578-61.347-.025-3.569-.151-7.117-1.043-10.531zm332.529 334.794c-4.783-.155-9.659-.367-14.54-.452-6.216.305-14.665-1.927-17.777 5.296-1.968 6.135-.204 12.563-.436 18.869.342 14.796 1.947 29.547-.31 44.286-.045 3.312-1.849 9.415 3.145 9.456 17.806 1.788 35.682 2.444 53.525 3.756 7.524.46 15.073.843 22.585 1.254 1.632.106 3.254-.329 4.615-1.236 1.36-.908 2.384-2.239 2.913-3.787 3.874-20.776 2.445-42.212 3.047-63.269-.052-3.805.286-8.783-3.788-10.592-7.072-2.729-15.203-2.444-22.736-2.444-10.062-.575-20.059-1.41-30.243-1.137zm-236.727 138.577c6.38-14.258 13.811-27.359 21.648-40.737 3.333-7.292 9.704-12.262 14.149-18.63 14.539-34.794-29.384-39.373-53.098-31.404-15.036 6.326-27.758 17.631-39.988 28.296-6.518 5.451-11.406 12.384-16.869 18.817-1.895 2.652-4.481 4.42-5.496 7.675 11.851-3.919 24.516-7.3 36.876-3.504 21.636 5.125 39.634 15.481 42.778 39.487zm22.3-188.737c-4.623 13.374-15.419 21.998-23.681 32.932-7.67 9.187-15.545 18.271-23.444 27.233-6.946 7.333-12.783 15.558-19.611 22.956-.513.53-.913 1.159-1.176 1.848-.263.688-.384 1.424-.356 2.16.571 7.443-.815 15.012.953 22.276 7.333-4.51 13.444-9.447 20.695-13.602 21.673-11.456 45.427-18.08 68.912-24.561.591-3.972 1.136-7.594 1.682-11.244-2.851.689-5.161.856-4.632-2.627 1.927-12.939 6.144-25.319 11.721-37.124.986-2.037.729-3.667-.815-5.219-3.345-3.231-6.323-7.003-9.977-9.858-2.371 1.36-3.34 2.892-5.467.741-1.959-1.723-4-3.874-6.11-5.32-.897.179-.856.346-1.251.933-2.481 5.055-4.652.822-7.443-1.524zm3.312 153.173c33.271-16.474 68.814 6.958 79.19 40.045 6.257-10.319 12.022-21.428 20.931-29.689 1.471-.913 2.037-2.005 2.037-3.61 1.01-14.848-2.391-29.388-12.079-41.079-10.665-13.179-29.563-19.677-45.333-13.542-8.168 4.592-14.755 11.366-21.892 17.342-5.899 4.791-10.408 10.91-14.629 17.175-2.811 4.518-6.094 8.392-8.225 13.358zm-56.275-253.111c-5.524 1.467-8.925 6.266-13.097 9.777-3.207 3.054-6.609 5.897-10.184 8.511-14.474 10.335-27.588 22.316-41.5 33.351-12.168 9.456-23.391 19.962-34.313 30.831-8.257 7.271-7.19 12.017-6.408 22.075.456 5.158 1.173 10.291 1.662 15.444.958 6.294.131 13.162 2.078 19.183 2.077 1.108 3.801 1.039 5.406-.574 3.821-3.491 7.389-7.235 10.97-10.975 15.073-15.724 31.197-30.329 47.574-44.636 6.22-4.97 12.221-10.343 18.556-15.134.474-.187.898-.484 1.236-.866.338-.383.58-.84.707-1.334 1.923-6.037 10.958-7.08 16.755-6.2-4.481-3.935-10.16-6.575-15.537-3.614-.306.196-.843.025-1.454.025-5.264-4.102-2.343-11.777 3.666-13.146 5.98-1.809 11.757.489 16.898 3.418 6.897 3.202 1.022-15.925 1.552-19.208-1.112-8.958-2.22-18.422-4.567-26.928zm-20.478-350.204c-2.058 3.523-2.07 3.487-5.643 4.807-3.189 1.56-5.874 4.685-9.663 2.925-1.519-.534-2.77-.322-4.253.049-4.611 1.177-8.302-2.767-8.579-7.333-9.056-.098-17.786.888-26.793 1.177-5.027.66-10.677-1.153-15.293 1.271-6.261 3.418-10.258 10.453-9.569 17.676 1.381 16.808 2.037 33.682 3.002 50.515.379 8.147 1.177 16.25 1.438 24.377.428 9.219-.024 40.644 10.861 42.612 7.512 1.776 14.898-1.353 22.361-1.984 24.605-3.369 49.154-7.61 73.295-13.468 15.997-3.895 6.97-31.91 8.852-44.522-.061-10.649-1.222-21.282-1.279-31.922-.513-7.565 3.52-46.535-8.017-44.983-.44 2.978-1.96 6.579-5.414 6.579-3.296-.187-6.111 1.952-9.411.717-2.037-.79-3.858.856-5.951.489-5.529-.207-5.215-4.575-4.636-9.007zm425.606 509.835c-.233-11.655 1.059-22.813-.049-33.812-4.836-1.463-9.655-1.373-14.356-1.223-15.79 22.463-36.289-1.014-31.556-21.419 1.992-6.983 2.416-12.988 9.264-16.727 9.468-6.217 17.786-2.514 23.001 5.813 5.357.171 10.029 1.654 15.48 1.658-.147-10.021.472-19.754-.815-29.514-5.296 1.087-10.372 1.988-15.199 3.788-14.837 5.752-30.496 7.142-45.268 13.232 1.691 6.884 3.296 13.565 2.237 20.67-1.491 8.799-.815 17.721-1.393 26.577-1.577 13.717-.51 27.498-1.023 41.255-.79 10.792.106 21.591-1.063 32.37-.224 1.711-.456 3.544.762 5.215 7.292.908 14.738-.522 22.083-.147 8.645-.13 17.387.982 25.987.269.566-6.339-2.216-10.592-7.365-13.932-3.895 5.214-11 4.261-16.507 2.713-11.778-4.412-11.782-20.544-10.539-31.177 1.519-7.642 6.44-14.604 13.512-17.403 17.734-1.711 15.399 8.547 32.807 11.794zm-506.629-539.0768c2.607-.1263 4.346-.7496 6.762-1.0021 3.968.224 1.511 4.2489.13 6.0499-1.743 2.88-3.515 5.748-4.97 9.243 7.406.216 14.519-1.312 21.212 1.194 2.534 3.617 2.037 7.369.815 11.353 4.155.737 8.013-.183 12.156 0 2.689.037 4.889-.758 6.783-2.652 10.03-10.372 20.825-9.752 33.405-4.432 7.842-2.864 16.026-5.879 24.21-8.881 3.703-.847 5.826-4.074 4.176-8.147-.619-1.5199-1.373-1.8051-4.123-1.5566-10.922 1.2996-21.876.8876-32.826.4076-3.911-.086-.302-5.2554-2.852-7.1334-5.675 1.0551-11.182 1.5969-16.881.2607-3.492-.334-7.015-2.3179-4.547-6.1106 3.5-7.512 9.317-8.9867 16.422-11.4595-1.039-6.7136-3.5-13.2112-5.182-19.8188-2.086-6.2247-3.259-13.199-7.85-18.169-3.695 9.5937-6.995 19.11-8.58 29.2577-.073.8148-.627 1.6295-1.124 2.318-1.911 3.5075-9.907-9.4878-11.647-11.1051-5.793-7.8827-10.779-16.295-15.782-24.691-.407-.66-.521-1.8169-2.016-1.5603.357 13.8405 2.018 27.6165 4.962 41.145.928 4.6685-7.333 5.1777-9.232 9.3696 4.425-.3829 8.405.3015 4.201 4.8152-2.644 3.8783-5.834 6.848-7.622 11.3047zm389.883 465.4268c7.068-4.131 5.365-38.448 5.613-47.255-.081-5.325-.48-10.649-.7-15.974-.147-3.503-1.862-6.041-5.125-7.035-2.778-.847-5.606-1.597-8.624-1.715-10.637-.346-21.282-1.597-31.857-2.481-8.437.106-16.817-3.019-25.139-.611-3.17.815-3.96 1.63-4.257 4.831-.273 2.95-.615 5.924-.477 8.869.163 15.713-2.306 31.286-1.951 47.011-.065 2.497.195 5.015 1.629 7.492 23.416 3.577 47.317 4.896 70.888 6.868zm-126.287 172.634c8.926-4.722 17.517-9.37 27.58-10.934 5.336-.452 5.964-6.71 8.681-10.307 6.746-12.359 2.517-27.608-5.85-38.077-8.148-11.187-22.732-13.484-35.511-15.66-13.171 1.817-32.313 7.504-43.296 15.037 9.777 1.694 19.815 3.633 27.754 10.05 15.041 12.18 22.125 30.659 20.642 49.891zm69.661-63.111c-16.893-10.461-41.356-14.885-60.988-14.071-.407.025-1.267-.281-1.222.958 7.129 2.012 14.934 3.621 20.471 8.885 7.532 7.214 13.146 15.614 14.698 26.235 1.092 7.487.815 14.751-3.096 21.538-.705 1.723-3.667 5.992-3.043 7.471 10.942-.513 21.713.301 32.064 4.074 5.822 1.678 10.722 5.124 16.703 6.343.908-5.565.484-10.894.814-16.438-.028-2.611.978-5.214.257-8.009-28.406-1.923-14.727-7.272-16.637-36.986zm-159.198 26.769c1.601-.322 2.175-1.43 2.982-2.216 8.441-9.211 18.862-16.193 29.946-21.856 3.495-2.444 9.977-3.516 11.272-7.879 2.078-6.224-2.334-11.247-5.613-16.046-1.544-2.62-4.433-2.542-7.129-2.505-9.028.191-17.982.623-26.773 3.21-17.236 4.412-34.652 8.245-50.816 15.887 20.788-1.922 50.995 4.335 46.131 31.405zm-22.837-187.393c.04 15.24 1.592 29.453 2.929 44.489 10.999 5.032 31.09 11.24 42.937 10.132 2.367-9.28-.526-18.218-3.952-26.748-4.098-11.342-14.131-17.974-24.336-23.416-5.589-3.162-11.056-3.915-17.578-4.457zm-187.85-360.491c.518 7.74 2.771 15.374 3.076 23.22.147 4.71-4.249 1.365-5.084 2.929 1.01 5.744 2.852 11.35 4.66 16.968 1.011 2.517 2.575 7.516-1.776 7.226-1.605-.13-3.177-.627-4.7783-.871-.9696-.151-1.7802-1.178-3.0227-.453 5.324 7.63 11.458 14.662 18.295 20.972 3.52 3.06 1.459 3.365-1.299 5.545 4.762 2.851 14.299 6.583 18.539 7.169.208-16.592-1.825-32.997-2.55-49.532-.151-2.257-.505-4.408-2.676-5.777-12.503-13.822-12.315-32.81-11.843-50.348-1.006.131-1.116.925-1.336 1.63-1.841 5.768-3.846 11.484-4.77 17.517-.571 3.683-1.422 4.176-5.435 3.805zm589.502 515.388c.737.692.782.619 1.548.769 8.147 1.5 14.979 5.321 20.397 11.615 5.703 6.245 11.26 13.097 10.372 22.169-.057.648-.314 1.507.843 1.825 8.388-10.384 12.666-23.937 14.283-37.071.815-9.541-7.626-17.354-15.35-21.469-8.808-3.801-19.843-2.851-26.887 4.074-.568.477-1.031 1.068-1.356 1.734-.326.667-.508 1.395-.534 2.136-.177 4.909-1.303 9.737-3.316 14.218zm-8.327 38.37c8.583 4.225 14.625 12.588 14.132 22.32.073.66-.338 1.504.587 1.895 5.263-3.349 9.777-8.148 14.73-12.022 3.716-3.149 6.604-6.779 6.885-11.924 1.829-6.518 0-13.529-4.383-18.658-5.675-7.059-12.262-13.663-21.518-15.378-2.746-.676-4.701.028-6.42 2.505-3.337 4.999-7.52 9.439-10.812 14.458 5.728 7.039 5.178 8.021 6.799 16.804zm-8.07-28.174c.774-.407 1.222-.525 1.491-.815 4.343-4.843 8.555-9.813 11.692-15.537 2.399-3.54 1.193-7.687.774-11.639-2.115-18.474-19.579-38.387-37.353-43.287.118 7.642.595 14.885-.334 22.438-.3 3.821-.136 7.665.489 11.447 3.862 2.783 8.73 4.318 11.048 8.694 5.602 9.039 10.755 17.855 12.193 28.699zm63.485-25.07c-1.055-15.724-16.014-32.891-27.469-42.978-.55-.472-1.181-1.141-1.809-1.177-2.774-.159-4.945-1.89-7.471-2.685-8.42-3.259-14.168 3.597-16.943 10.743-1.817 3.951-.994 7.793.945 11.5 3.153 6.001 6.184 11.716 8.844 18.022 8.629-7.398 20.369-8.31 30.664-4.074 5.263 2.477 8.958 6.832 13.239 10.649zm-577.659-230.689c1.112-8.779-4.888-17.822-1.295-26.389 3.52-8.857 10.962-11.085 18.971-14.809 7.635-3.564 15.183-7.332 22.932-10.628 5.455-2.27 10.762-4.882 15.887-7.822 3.333-2.155 8.596-.142 8.592 4.604.358 5.886-.204 12.38 1.422 17.949 2.99-.896 2.99-.896 5.532-3.259.045-9.7-.041-19.493-.306-29.205-.171-2.615-.815-7.296-4.53-5.361-12.221 4.888-24.104 10.49-36.195 15.627-11.863 6.204-24.993 10.543-35.442 19.094-4.11 3.116-5.169 7.658-4.595 12.661 1.026 10.025.195 20.246 2.477 30.084 2.318-.79 4.583-1.246 6.55-2.546zm-9.369-69.095c-13.594-.044-29.23 8.331-40.982 14.882-4.131 2.334-2.172 7.125-1.943 10.86.644 4.765 1.649 9.475 3.006 14.088 3.516-.555 6.624.444 9.704-1.161 5.772-2.628 11.561-5.215 17.395-7.696 3.352-1.426 6.925-2.314 9.577-5.129 1.776-1.544 4.334-2.542 6.278-3.874-1.153-7.557-.787-14.779-3.019-21.97zm666.809 391.896c-2.721 12.568-5.092 25.962 1.703 37.637 1.014 1.817 2.277 2.852 4.399 3.219 3.63.623 7.207 1.576 10.804 2.387 3.218.953 7.227 1.361 8.869-2.359 3.54-7.353 7.626-16.747 2.684-24.373-4.237-7.235-10.152-12.058-17.965-14.918-3.288-1.789-6.734-1.601-10.478-1.605zm-420.335 5.483c3.751 1.833 7.239 4.162 10.368 6.926 16.108-18.825 43.679-19.049 65.588-11.688 4.383 1.548 8.436 3.561 11.296 7.439.408.537.872 1.246 1.923.733-.159-6.237 2.721-12.103-4.017-15.753-7.903-4.889-17.11-6.319-26.072-7.867-8.437-.928-17.268-1.78-25.542.408-12.543 3.682-25.156 9.418-33.544 19.802zm448.705 38.294c7.601-.668 13.997-2.094 20.91-4.966 4.738-1.695 5.296-4.738 6.632-9.166 6.038-19.147-14.376-34.403-31.979-34.053-3.259.139-6.567.505-9.141 2.889 8.339 4.998 16.136 9.638 18.564 19.843 3.283 8.958-1.198 17.293-4.986 25.461zm-61.73-22.606c8.176 5.94 22.092 13.085 30.121 15.318-5.385-12.865-2.619-24.223-.407-37.222-3.903-2.408-8.612-3.565-12.837-5.479-.677-.299-1.416-.432-2.154-.387-8.853.366-13.037 7.019-15.073 14.95-1.491 4.347.065 8.319.35 12.828zm-640.147-365.917-27.098 12.262c-.265 4.55 1.222 11.932 5.027 24.989.476 1.629.574 3.507 2.167 4.888l22.52-13.663c-.241-9.561-1.736-18.842-2.616-28.476zm535.089 219.983c2.444-8.665 7.455-18.845 17.855-18.69.619 0 1.491.407 1.923-.815-5.394-4.742-11.879-8.225-18.084-11.814-7.442-5.235-19.635-2.257-21.847 7.272-1.296 4.526.232 9.007 4.245 11.573 5.927 3.475 10.726 8.078 15.908 12.462zm154.134 118.314c20.41-6.159 47.065 9.073 44.706 32.733-.122.566-.648 1.361.591 1.935 14.6-18.593-3.646-37.393-19.897-46.677-9.402-4.021-20.45 2.835-25.4 12.009zm-813.6759-366.691c4.9904-48.425 51.5819-80.734 97.6559-84.543.815-1.381 1.051-2.733.351-4.228-17.795-.09-35.1284 6.379-50.0262 15.818-28.0804 15.159-48.0581 44.103-54.4865 75.018 2.6032-.163 4.5789-1.087 6.5058-2.065zm740.7149 381.332c6.282 3.597 11.908 6.869 17.925 10.34.574.309 1.222.916 1.907.175-1.927-11.052 1.763-22.544 12.302-27.628-9.239-5.704-19.375-1.585-29.205-1.117-3.438 5.097-3.381 10.417-2.929 18.23zm-38.725-2.933c4.343-9.748 1.658-17.924-8.274-24.85-6.11 4.677-10.999 10.547-16.629 15.888 6.865 7.74 6.046 10.836 5.113 20.45 7.178-3.845 12.6-7.601 19.79-11.488zm-54.401-167.867c-8.453-2.941-22.108-9.806-29.094-1.157-3.484 5.145-4.253 15.439 3.287 17.599 4.481.924 8.922 1.894 12.942 4.191.11.066.286 0 .73 0-1.813-9.092 3.886-16.955 12.135-20.633zm-28.923-7.512c-9.06-.839-24.064-4.481-27.164 6.856-2.208 7.158 2.517 14.824 10.033 15.419 3.614-.358 7.512.966 10.886-.586-2.082-8.144.423-15.025 6.241-21.689zm28.239 100.064c.493-5.243-4.176-16.463-8.205-19.962-11.814-6.184-23.167 5.406-25.061 16.666l3.45 4.583c9.215-7.504 20.104-7.846 29.812-1.287zm73.071 73.327c-1.793-6.827-2.322-13.077.077-19.7.815-3.455 3.325-4.913 5.704-7.333-9.912-2.147-19.241-1.858-29.046 1.177 9.426 7.989 12.172 14.417 10.037 26.659 4.441.497 8.596-.689 13.224-.815zm-116.391-84.111c2.419 1.186 4.756 2.533 6.994 4.033 3.406-8.962 10.36-18.89 21.013-18.543.66.028 1.519.207 1.735-.958-5.642-7.104-16.833-11.455-24.312-4.558-5.255 5.3-8.009 12.816-5.434 20.014zm136.503 68.607c-2.371-2.343-2.75-5.875-4.074-9.052l-4.888-1.512c-2.937 2.294-6.4 3.316-7.549 6.962-1.923 5.814-2.069 11.598 0 17.424.648 1.837 1.658 2.974 3.667 3.381 3.259.611 6.155 1.935 9.495 2.253-.211-7.239.848-12.45 3.349-19.456zm-76.656 21.639c-.375 7.891-.741 15.269-1.051 22.65-.032.774-.452 1.797.815 2.302 4.216-4.037 8.591-8.082 12.812-12.075 3.381-7.381 5.809-17.456-1.89-23.065-3.952 3.108-6.771 7.153-10.67 10.188zm-289.799-.334c-3.78 4.314-6.172 9.052-8.555 13.774-1.157 2.269-.839 3.442 1.426 4.729 4.237 2.086 9.207 5.785 13.993 3.076 5.174-.676 8.062-5.597 5.968-10.388-2.208-5.936-6.22-9.964-12.816-11.191zm-38.864-103.514c3.508 5.993 6.518 10.629 5.659 17.831 9.231-4.889 18.869-5.805 28.325-9.83-5.532-7.211-25.135-8.123-33.984-8.001zm314.087 33.323c-4.672-11.663-23.599-13.036-30.484-3.259.444 1.707.31 3.667 1.43 5.321 5.9.522 11.823.744 17.745.664 4.156-1.015 8.327 1.694 11.317-2.73zm-614.2412-460.334c2.5135-5.455 4.4201-10.372 8.9419-14.413 9.5489-9.077 19.7252-17.628 32.089-22.593 2.4853-.607 1.2222-3.418-.9491-2.135-12.0339 4.037-52.9467 22.422-40.0736 39.116zm62.2392 185.331c17.134-7.333 23.778-10.64 27.489-13.72-.44-2.852 0-5.83-1.046-8.616-4.302.937-8.042 2.701-11.794 4.395-3.752 1.695-7.891 2.489-11.207 5.398 1.841 7.003-7.422 10.205-3.434 12.519zm-44.335-174.601c4.7908-10.999 11.9932-19.819 21.4809-26.887-1.0347-1.841-2.0002-3.426-3.5686-4.453-12.2457 7.899-22.6134 18.332-25.6198 28.378 2.3866 1.409 4.9916 2.41 7.7075 2.962zm48.164 210.243c-1.255-6.294-11.793-36.884-7.357-40.612 1.54-1.723 4.481-4.188 3.023-6.721-2.172-2.274-3.769.26-4.286 2.444-1.964 2.061-2.896-1.357-3.422-2.815-.497-1.153-.79-1.222-3.023-.762v3.862l-3.511.546c-1.402 4.615 1.959 3.666 4.917 4.179 5.491 9.672 6.636 19.868 4.611 30.554 5.17 4.289.045 9.268 4.257 12.029zm-3.54-199.301c-6.005-7.74-27.7138-4.994-37.3727-6.111-9.2271.066-17.012-4.253-24.2796-9.54-.55-.351-1.047-1.096-2.0776-.379.2566 1.324.5296 2.729.8147 4.122 11.1581 9.195 26.2799 9.916 40.1225 9.777 6.2737-.11 12.4087.497 18.0507 3.536 1.935 1.039 3.296.387 4.742-1.405zm704.051 496.127c14.955.892 3.292-9.508 26.671-19.265-9.035.815-17.924 1.939-26.528 4.355-2.428 4.815-1.968 9.545-.143 14.91zm-532.599-185.511c-1.89-15.11-2.265-29.384-2.851-43.516-1.601-1.308-3.113-2.09-5.17-2.069 0 9.174-.733 18.27.929 27.375.921 5.202 1.246 10.515 1.857 15.937zm394.748 154.803c-.958 10.184.207 20.304.077 30.525 0 .358.334.708.513 1.067 13.668-7.752 11.574-23.64-.574-31.58zm-484.057-578.93c-.497-2.249.99-5.076 3.3-3.088 1.185 1.87 2.444 4.787 5.194 3.198 2.958-1.63-1.735-4.103-.334-6.091 3.446-2.611 4.701 5.321 7.268 2.551 1.951-4.278-3.068-7.162-6.445-8.299-7.883-2.725-17.692-3.222-22.899 4.624 3.043.171 5.809.408 8.612 0 1.222-.171 2.404.094 2.717 1.858-.643 1.364-2.656 3.621-.672 4.888.852.619 1.748 1.141 3.259.359zm-90.845 117.418c-4.424-2.901-8.844-2.127-13.72-2.343-13.7815.277-27.5345-1.193-39.8454-7.471.114 1.581.2322 3.149.3299 4.481 7.5324 5.875 16.5884 4.966 25.3796 6.111 3.2345.334 6.4935.607 9.4714 2.102 4.2938 1.385 12.4655-2.118 18.3805-2.88zm-50.225-22.239 3.1939 1.63c5.911-12.544 15.8387-20.846 26.6872-28.924-.6722-1.414-1.1285-2.347-2.0939-3.442-11.0196 6.391-25.8725 17.256-27.7872 30.736zm38.2078-16.519c-7.1576 4.049-18.2097 16.743-19.4074 24.85 2.9413.363 5.5404.644 7.7198.053 4.1471-8.359 8.5345-14.747 14.8688-21.387-1.01-1.288-1.849-2.628-3.1812-3.5zm651.6912 506.759c2.852-5.369-.142-9.891-3.071-14.478-4.298.636-8.555 1.369-12.49 3.324 2.146 3.589 2.489 6.058 2.134 10.283 4.624-.404 8.869 1.307 13.427.871zm-129.036-55.162c-.9-8.441 2.143-16.65 9.076-21.807.579-.408 1.341-.734.88-1.797-17.407-3.348-21.97 23.628-9.956 23.604zm174.141 69.783c7.52 2.852 13.944 5.752 21.184 8.078.668.212 1.364.599 2.057-.077v-12.221c-2.497.024-19.644 3.079-23.241 4.204zm-463.125-246.935c1.136-.815 1.992-1.34 2.794-1.955 4.074-2.445 5.903-14.283-1.426-14.821-5.185-.207-7.076 10.368-5.454 14.426zm-91.631-351.374c-.713-2.497.101-5.365 2.607-3.923 1.002.794 1.992 2.628 3.471 2.098.859-.599 1.69-1.772 1.222-2.9-1.369-3.777-7.472-8.433-11.566-6.339-3.853 1.735-5.556 5.051-6.363 8.962-.094.448.269 1.312.632 1.463 3.853 1.132 3.047-4.539 7.125-.607.611.472 1.47.651 2.872 1.246zm95.598 353.073c5.476 2.754 10.527 2.851 15.823 2.22-.114-5.43-5.341-11.504-9.545-14.869-.399 5.104-2.004 9.284-6.278 12.649zm-12.718-7.842c.478-2.859 1.309-5.648 2.473-8.302.485-1.304 1.67-2.339 1.752-4.139-5.076-1.092-9.745-.966-14.238 1.421 1.56 3.475 5.577 7.952 10.013 11.02zm-100.304 211.542c.538-6.978-.525-14.014-.615-21.041 0-.318-.407-.615-.815-1.222l-3.784 4.045c.79 7.088-.053 13.851.77 20.707 1.971-.297 3.083-1.503 4.444-2.489zm-164.9871-441.266c-1.9391 5.492 9.2311 6.84 12.6286 8.344 3.9597-1.223 9.8341-1.104 13.0075-3.528-8.9622-1.023-17.6353-.685-25.6565-4.816zm36.5416-13.072c2.7527-6.169 6.6055-11.784 11.3695-16.572-.256-1.1-.782-1.886-2.081-2.172-4.9133 4.457-11.3376 11.814-11.9527 18.389zm662.8985 483.392c-.444-6.436-.057-12.576-1.373-18.796-1.874.595-3.609.207-4.86 1.499 3.381 5.609 3.903 9.981 2.966 16.531zm-551.147-631.2941c3.479-2.0776 6.779-4.363 6.607-8.6649-2.695-.333-5.416-.4135-8.127-.2404.497 2.9291.954 5.6055 1.52 8.9053zm-6.192-7.7809c-7.969-1.2221-1.683 14.0463 1.723 8.3268 1.226-3.1776.615-5.9599-1.723-8.3146zm-108.3378 112.916c4.3548 4.343 5.5647 1.532 9.4678-.26.04-1.524-.139-2.73-1.7643-3.573zm640.3458 515.706c-3.084 2.265-4.66 5.19-7.027 8.188 6.066-.562 10.36-1.198 7.027-8.188zm-539.862-625.9944c-2.718 1.6499-4.408 3.6664-5.252 6.6769 2.494.2892 4.71 1.1732 7.182.6681-.627-2.3913-1.213-4.636-1.93-7.345zm208.702 573.4424c-2.908-.407-5.076-1.507-7.866-1.1l1.629 3.117c2.608-.77 4.241-.008 6.237-2.017zm-342.8595-399.709c-.0774 2.094-.1059 2.355.7862 4.05l4.0738-1.581c-2.2691-1.312-2.4931-1.552-4.86-2.469zm44.6075-60.344-2.9329 1.381c1.5559.574 1.7969 1.332 3.2099.745-.073-.582-.155-1.185-.277-2.126zm25.869-21.371-.184-.355c-.256.232-.232.428-.041.689z"/><path d="m.0981445 565.265c1.4624755-.061 2.3994455-1.051 3.3730755-1.948 5.26329-4.823 11.45138-8.347 17.37048-12.221 3.4709-2.281 6.3877-1.682 7.9887 3.341 2.4442 17.814 2.6683 35.963 4.0289 53.908 1.2792 11.166 2.705 22.3 2.8516 33.551.6233 4.783.5663 9.325-3.7804 12.336-9.2434 7.357-18.7108 14.413-28.51632 21.004-1.02658.713-2.14279.986-3.311962.257z"/><path d="m.0981445 95.966c4.5055755 1.1732 9.0274455 2.7457 13.7611555 2.3953.7088-3.7804 1.1692-13.8507.7618-17.5742-1.7151-.6599-4.81926-.1629-5.56069-2.3179-.0611-2.6398 3.47489-1.3484 5.32029-1.6295 1.6295-6.4732.3748-13.1949.7537-19.8515-2.8516-1.8006-6.29804-1.3769-9.23522-2.8271-2.47277-4.5219 6.76652-1.7151 8.84822-1.4584.2729-.7089.6436-1.2222.6396-1.7273-.0774-6.2084-.2078-12.4128-.3178-18.3319-2.815-2.6235-5.98434-1.7192-9.09669-2.6887-1.04289-.5907-1.45841-2.3628.02444-2.9698 2.06132-.6803 4.44035.1304 6.55065.3626 14.3355 2.9616 28.6548 5.9925 43.1818 7.9764 2.9127.4563 3.536 1.0347 3.8456 3.8945.8759 31.205.9329 62.4465 1.267 93.6635 0 1.577.3381 3.259-.9859 4.889-8.2371-3.821-51.32935-2.375-53.17069-8.225.88401-3.499 5.01479-.546 7.54869-.778.2281-8.608.5988-17.004.0326-25.591-4.0493-1.805-8.55492-1.948-12.85273-2.909-.438883-.015-.877728.031-1.303604.138zm39.7598555-11.5695c-1.104 5.8784-.9614 14.7877.2852 18.7185 3.3486.575 6.8398 1.161 10.3229 1.789 1.3362.24 2.1917 1.189 1.8576 2-1.1936 2.819-9.0437-.143-11.8139 0-1.1895 7.333.0408 15.142-.2159 22.65 0 .538.3504 1.072.5541 1.63 5.4792.749 10.7791 1.959 16.4091 1.89 0-13.806-.2322-27.294-.387-41.0799-.0245-1.5644.444-3.259-.713-4.86-5.4058-.3585-10.604-2.2406-16.2991-2.7376zm-.3422-47.5897c-.3462 6.5751.0326 13.1461.1304 19.9615 3.9638.998 7.5161 1.5317 11.431 2.3016 2.0368.2974 1.9554 3.5931-.4074 3.365-2.1958-.2282-4.3793-.6233-6.5791-.8677-1.4136-.1548-2.8517-.9003-4.2571-.0937-.7088 4.31-.2648 15.8876.774 18.9755 5.0841.9125 10.1396 2.5298 15.9243 2.7946-.2607-14.7511.4074-29.4451-.8718-44.0536-5.4466-1.4421-12.6775-2.5176-16.1443-2.3832zm-21.2609 91.9932c5.2103 1.386 10.8362 1.157 16.1973 1.85.6803.057 1.3769-.155 2.2813-.265-.603-8.05.8147-16.332-1.2222-23.88-4.9374-1.336-13.8508-2.392-16.9916-2.037-.3544 2.57-.5948 22.129-.2648 24.332zm1.2221-71.4003c-.8147 3.5645-1.0103 16.3195-.2933 19.7862 5.8458 1.597 13.036 2.318 16.6535 1.6295-.2037-6.3835.603-12.6286-.6355-19.0244-5.2959-.6518-10.5184-2.4809-15.7288-2.3832zm-.2281-24.6055c-.6111 3.6664-.22 17.3705.5703 20.4666 5.3407.8147 10.2577 2.2813 15.8225 2.4768.4359-3.4097.11-6.6443.0652-9.8666-.0489-3.3487.4074-6.7503-.7537-10.1396-5.2755-1.1407-10.4532-2.2569-15.7084-2.9291zm-.3789 48.3107c-.1874 6.6117-1.271 12.2579-.5744 18.8371 2.9005.631 5.634 1.198 8.4205 1.198 2.8883 0 5.6666 1.397 8.726.892-.167-6.453.717-12.4822-.11-18.6051-5.6299-.7699-10.6529-1.4543-16.4661-2.3139z"/><path d="m.0981445 144.852c13.9689555 1.308 28.1089555 1.373 42.0411555 2.889 6.0251.912 12.0991.554 18.0875 1.54 4.7215.778 9.4552-.094 14.1767-.326 2.4932-.31 5.1655-1.679 4.9415-4.608-.4929-35.959-6.7584-71.6531-5.2267-107.6855-.7414-4.5585 1.5766-12.0013-4.1389-13.7652-5.1411-1.3851-10.2536-2.8516-15.3988-4.2286-9.8096-2.2568-19.3952-5.2959-29.2659-7.3327-8.3797-2.44429-16.54352-5.56479-25.2165555-6.92543v-3.548242c9.9399555 1.091772 19.0488555 5.234782 28.6874555 7.446832 11.1417 2.94124 22.3405 5.70324 33.5066 8.55494 15.1544 4.644 15.1178 3.3975 15.6147 19.6762-.0448 14.4333-.7129 28.993 1.104 43.3367 1.7884 8.6852.7089 17.7127 2.1347 26.479 1.0184 13.566 2.0817 27.148 1.4828 40.758-.5458 11-16.8898 6.901-24.247 7.333-13.7408-.664-27.4816-1.271-41.1938-2.338-5.63-.815-11.76913.155-17.0894555-1.931z"/><path d="m41.2749 171.025c-10.0582-.334-20.6255.631-30.2844-2.579-5.79692-1.939-2.95751-10.457 2.5787-10.355 17.5172-.514 35.1566.814 52.5882 2.68 5.5973.281 8.4734 5.602 3.2834 9.048-9.0315 2.876-18.8248 1.255-28.1659 1.674z"/><path d="m95.4361 57.6824c-.664 6.3347-.1548 13.7408-1.9228 20.2629-.9532 4.0738-6.7502 4.4812-8.6771.9492-1.3117-2.265-1.6784-5.1289-1.7354-7.6953.6233-5.6259-3.3731-43.4711 6.9254-38.7415 6.5221 4.1512 4.2611 17.8512 5.4099 25.2247z"/><path d="m218.724 284.758c1.022 9.94-4.449 11.683-12.767 13.443-10.026 1.536-7.398-11.679-7.74-17.896.313-5.944 9.125-4.73 13.353-5.642 6.396-.901 6.991 5.842 7.154 10.095z"/><path d="m575.386 475.723c1.259 17.297-3.732 13.953-17.574 12.278-7.435-1.316-3.194-10.624-4.099-15.724-.407-12.959 5.129-13.305 16.145-10.947 7.585 1.475 5.027 8.963 5.646 14.393zm-17.974 8.27c19.685 3.43 13.358 3.002 14.079-16.491-.317-3.727-6.399-2.766-9.109-3.617-7.809-.171-3.849 12.437-5.397 17.354-.135.806.252 1.703.427 2.754z"/><path d="m240.055 302.172c.688 9.434-1.398 11.035-10.209 13.443-9.586 2.444-7.333-8.584-8.506-14.531-.167-5.703 8.661-6.73 12.873-7.968 6.436-1.255 5.89 4.57 5.768 9.064zm-3.94-5.451c-4.334.513-7.878 1.548-11.15 3.821.314 3.565.579 6.925.929 10.282.023.26.105.511.241.734.135.223.32.411.541.551.22.14.47.226.729.254.26.027.522-.006.766-.097 2.901-1.348 8.038-1.299 8.233-5.349.302-3.23.082-6.44-.289-10.196z"/><path d="m255.306 275.008c.734 5.072 0 6.876-5.031 8.726-2.191.872-4.53 1.316-6.888 1.307-6.722-1.165-2.917-10.485-5.643-14.848-1.629-5.724 8.629-5.125 12.152-5.968 5.63-.526 4.816 6.962 5.643 10.75zm-13.443-5.414c1.047 8.172-1.157 15.749 9.777 9.129-.11-3.548.595-7.211-1.365-10.628-2.802.232-5.442.048-8.42 1.499z"/><path d="m38.3912 200.124c-.2607 2.66 1.2955 7.504-2.6194 7.842-3.259-.057-9.2475 1.903-10.0948-2.526-.5581-4.281-1.6662-11.911 4.0738-12.881 7.789-1.145 8.73-.252 8.7789 7.561z"/><path d="m44.2571 235.697c-.5377 2.037.2159 6.307-2.542 7.17-2.4076.587-4.7826 1.43-7.3613 1.006-5.9029-1.03-4.0738-9.015-3.7764-13.325 1.0796-4.228 7.0313-3.564 10.4329-3.092 3.7764.868 2.5787 5.1 3.2468 8.241zm-4.2652 3.471c.5377-2.595.6884-5.267-.2933-7.964-2.0084-.407-3.8334-.68-5.5485.603-.2607 2.774-1.0144 5.483.0448 8.099 2.5665.537 2.5665.549 5.797-.738z"/><path d="m28.4065 218.97c-.1019 4.693-.1711 8.221-5.9722 8.021-6.8031.815-6.4772-5.231-6.6483-10.274-.1548-4.049.4073-4.779 4.5463-5.536 1.4312-.296 2.9045-.327 4.3467-.09 4.1348.477 3.5808 4.705 3.5523 7.883zm-8.7953-3.919c-.0407 3.035 0 5.019.2241 7.74 2.6113.868 2.6113.839 4.75-.375.0286-2.636-.1868-5.27-.6437-7.866z"/><path d="m122.091 77.496c-.086 1.5969.167 5.85-2.734 6.2125-2.851.7333-8.461 1.0307-9.031-2.7457.436-4.1512-2.09-12.425 4.367-12.315 6.799-.0896 7.74 2.4076 7.398 8.8482zm-8.433 2.0695c1.784 1.3484 3.182 1.2547 4.559.0489v-6.1392c-5.219-3.2182-4.677 2.8231-4.559 6.0903z"/><path d="m122.893 104.668c.041 3.585.444 7.105-4.285 7.003-2.885.338-7.244.367-7.378-3.475.269-3.397-1.389-9.8829 3.41-10.0621 5.43-1.0999 9.141.44 8.241 6.5181zm-4.021-2.794c-1.328-.249-2.558-.62-3.935.513-.338 1.674-.79 4.053.354 5.667 1.386.175 2.677.268 3.822-.913.13-1.638.317-3.353-.241-5.267z"/><path d="m562.008 754.613c-6.151 6.383-9.695 14.258-15.647 20.649-.709.628-1.858.925-2.444.265-2.274-2.517-5.96-2.562-8.168-5.027-4.461 4.074-14.515 17.314-16.361 21.502.408.879 1.271.655 1.911.562 3.617-.518 7.418.093 10.828-1.752 6.188 1.222 12.951.094 19.273.09 2.363-4.074 2.412-2.445 5.341-.057 9.284.305 18.882-.053 28.72-.176.753-5.039 3.503-5.295 4.603-.179 9.533.338 19.831.815 29.127-.57 7.667.11 15.436 1.393 23.042.847 1.059-5.296 4.159-5.414 4.265.359 5.072.114 10.066.46 15.036-.758.407-.122 1.141.297 1.467.684 1.303 2.339-2.445 3.597-4.253 3.52-2.962.122-5.92.24-8.881.31-3.369.077-3.369.053-6.18 1.955-1.291-.623-1.898-2.228-3.516-2.179-6.469-.123-12.791-.864-19.277-.628-.977 3.1-3.585 5.378-4.412.734-3.193-.546-21.252-.648-26.479-.139-1.181 4.579-3.076 4.261-4.392-.073h-28.785c-.489 4.689-3.446 4.64-4.359.053-5.703-.074-11.435.269-17.313.582-1.251 4.261-3.312 5.211-4.538.302-5.027.236-9.904.46-14.776.696-1.772.277-4.554.452-4.387-2.065.354-7.06.619-14.169 1.161-21.216-.815-.872-1.593-1.687-2.481-2.632l2.578-2.852c.22-4.481 1.223-8.791-1.71-12.461 2.982-3.21 1.67-6.787 2.11-10.824-.041-1.487 1.674-3.145 2.851-1.63 1.223 2.958.493 6.449.66 9.46 1.365 1.063 2.424.032 3.528-.037 2.591-.273 2.709 2.444.815 3.206-1.361.591-2.791.892-4.139 1.593-.452 3.259-.13 6.111-.22 9.736 2.481 1.601 3.927 2.901-.065 4.587-.579 6.111-1.255 12.384-1.471 18.524 1.084.692 1.393.065 1.687-.408 4.917-7.593 10.551-14.665 16.164-21.729 3.875-5.703 4.84 1.572 8.881 2.244 1.084.249 2.037.978 3.227 1.561 18.849-23.172 11.031-27.665 36.696-6.262 1.703-.814 2.53-2.265 3.434-3.589 4.005-5.87 7.92-11.814 11.94-17.659 2.595-3.785 5.296-7.484 7.985-11.211.713-1.288 2.962-1.801 3.617-.282 1.459 6.999 4.254 13.387 11.04 17.11 2.416-1.629 4.302-3.947 6.176-6.163 7.822-9.517 18.108-16.646 25.156-26.887 1.389-2.852 2.102-6.665 6.188-6.241 3.426.171 3.059 6.11.199 6.624-2.953.664-4.448 2.778-6.025 4.864-6.611 9.239-16.226 15.558-23.22 24.442-2.958 2.819-6.473 9.68-11.065 6.062-5.585-3.234-8.387-8.555-11.186-14.258-6.82 7.871-11.488 16.91-17.603 25.257-2.102 2.485-4.611 7.549-8.477 5.088-6.412-4.053-10.694-10.571-17.876-13.524z"/><path d="m35.4908 574.336c-.3503-4.888 4.8885-8.331 9.1252-9.215 2.8517-.517 4.6441.668 5.1615 3.451 1.1854 6.375 2.2813 12.763 3.4097 19.146.8148 4.123-5.5036 6.005-8.0171 8.437-2.1673 1.564-6.0659 2.648-6.8684-.815-1.1651-6.962-1.8047-14.022-2.8109-21.004z"/><path d="m58.9434 626.684c1.3729 8.914-3.8334 12.845-11.9646 14.258-4.1023.62-4.7867-3.576-5.2429-6.689-.7537-6.31-1.3892-12.628-2.1795-18.934-.9858-4.918 2.9331-7.944 6.0047-11.077 2.8883-3.418 8.4449-5.834 10.5918-.334 1.8088 7.398 1.8454 16.042 2.7905 22.776zm-7.1209-22.23c-4.1145 1.096-5.854 5.931-8.7341 8.783 1.2873 7.777.8432 16.246 3.2875 23.787 2.4768.354 4.1267-1.043 5.9599-1.907 3.0064-1.251 3.259-4.326 2.9535-7.174-.6355-6.616-1.271-13.227-1.9432-19.839-.1304-1.291-.2404-2.64-1.5236-3.65z"/><path d="m59.8187 459.559c-.2892 3.035.4807 7.169-2.648 8.933-17.733 10.592-16.8694 1.846-18.4011-13.716-.3056-2.444.7414-4.119 2.7864-5.019 4.0738-1.483 8.1475-3.907 12.5105-4.286 6.2533-.301 4.6889 9.778 5.9803 14.039zm-14.9751 9.658c3.2956.546 5.5729-1.772 8.4571-2.745 1.8535-.766 2.7009-2.037 2.7946-4.074-.1263-4.192.4074-9.704-2.1428-13.142-4.8234 1.185-8.3023 2.611-11.0847 4.514-.1711 6.228-.5011 11.003 1.9758 15.447z"/><path d="m19.5543 497.07c-.7414-4.889-1.0795-10.796 4.3141-13.191 3.866-1.862 10.8118-5.773 13.0361.163 1.3565 6.4 4.7663 16.405-2.5054 20.311-2.7213 1.51-5.6786 2.547-8.7464 3.068-6.8765 1.629-5.9925-5.797-5.9151-10.347zm4.1145 6.701c4.5667-.522 11.0399-1.63 11.3495-6.869-.334-4.073.0733-8.937-2.4442-12.335-3.1083.408-8.8849 2.265-9.2841 5.679-.3219 4.424-.6193 8.832.3666 13.541z"/><path d="m12.3884 48.4049c-.1915 2.4443-4.02488 2.204-3.96785-.1873.20369-3.0228 4.16745-2.9983 3.96785.1873z"/><path d="m57.7579 689.787c6.8031.916 6.7828 7.683.554 9.777-8.7504 2.741-9.7648-10.111-.554-9.777z"/><path d="m71.7962 680.503c10.2415 1.169 3.365 11.924-3.7723 9.48-1.8739-.726-2.7498-2.164-2.9983-4.042-.9125-3.605 4.4893-5.096 6.7706-5.438z"/><path d="m226.774 595.043c-.408 7.386-12.739 16.25-17.949 21.652-8.596 7.903-17.11 15.888-25.799 23.726-2.632 2.314-6.16 2.884-7.712-.787-1.446-4.2-6.392-12.355-3.829-16.266 1.242-2.416 3.018-4.363 4.998-6.172 14.087-12.629 27.563-25.982 42.331-37.833 6.762-6.282 7.434 10.918 7.96 15.68z"/><path d="m387.781 519.239c.974 2.676 3.895 5.882.815 7.52-3.259 1.324-6.628 2.473-9.989 3.585-1.222.13-2.493-1.858-1.157-2.721 2.318-1.687 5.349-2.445 7.924-3.463.122-1.683-1.129-2.2-1.854-3.08-2.688-3.442 2.155-4.962 4.689-5.964-.045-2.444-4.66-3.234-3.067-5.65 2.888-2.444 7.149 4.481 8.554 6.587 1.145 3.336-3.454 2.709-5.915 3.186z"/><path d="m87.2478 497.843c-7.8135-.09-4.6156-12.189 1.381-10.184 4.363 2.037 3.3772 9.569-1.381 10.184z"/><path d="m112.607 472.738c7.28-.469 2.171 10.868-1.951 9.414-6.001-1.666-4.253-10.176 1.951-9.414z"/><path d="m104.647 484.441c-.562 2.876-1.222 6.746-4.689 6.184-2.0369-.314-3.6867-1.874-3.9026-3.667-.3219-5.862 6.8926-10.184 8.5916-2.517z"/><path d="m504.433 599.908c-12.356-1.174-15.073-15.546-.815-16.621 2.371-.558 8.587 5.565 8.587 7.891-.008 3.76-3.8 8.66-7.772 8.73z"/><path d="m550.915 593.211c-.901 13.289-19.249 10.461-17.029-2.216.941-4.388 6.958-4.192 10.478-5.17 4.302-.676 7.166 3.386 6.551 7.386z"/><path d="m467.048 596.673c-10.526.041-10.591-14.523-.704-15.566 12.449-3.458 12.453 16.177.704 15.566z"/><path d="m802.624 665.374c3.764 1.32 7.129 3.507 10.95 1.047-1.051-3.08-6.009-3.406-4.632-7.333 1.015-2.852 1.222-6.29 2.925-8.759 5.373-2.444 1.01 7.5.53 9.464l6.811 5.479-.75.786h6.176c2.656-3.854 6.209-5.593 10.694-4.668 5.271.994 5.145 5.597 2.949 9.141 4.567 4.253 2.762 11.529-.476 8.172-.53-2.473.102-4.334-2.783-5.821-2.364.561-4.796.78-7.222.652-1.414 1.344-1.874 3.1-2.445 4.721-7.785 17.762-28.373 14.849-37.601-.085.766-3.227 3.871-3.769 6.205-5.268-1.972-2.517-5.606-1.882-5.838-5.703-.183-2.078-1.055-13.806 2.131-12.991.446.055.854.276 1.146.619.291.342.443.781.426 1.23-.065 3.667-.236 7.333-.159 11.04l6.816 4.009c1.424-.285 2.798-.784 4.073-1.479-1.666-1.222-3.548-1.544-3.666-3.805-.289-2.497-.248-16.702 3.434-15.753 3.28 2.212-1.58 11.056.306 15.305zm21.448 5.039c-7.333-2.073-25.062 3.809-31.694 7.545 9.92 15.105 29.099 9.764 31.694-7.545zm9.692-5.504c-4.294-.708-7.602 4.71-3.667 5.142 1.434-.217 2.835-.611 4.172-1.174 1.943-1.157 2.379-3.968-.505-3.968z"/><path d="m83.5123 336.588c0-2.811-.0326-5.622 0-8.432.0856-6.641 11.2232-8.262 16.2666-10.022 15.5741-3.369 30.8951-8.555 46.4901-11.406 9.463.142 7.707 11.875 10.119 18.364 2.289 7.186-6.763 8.555-11.773 10.021-6.596 1.858-38.017 8.898-39.512 14.079-.639 1.581-1.647 2.986-2.94 4.098-1.292 1.112-2.8319 1.898-4.4903 2.294-1.9798.098-3.7112-.835-2.5379-3.014 1.605-5.81-10.1437 2.957-11.3658-8.009-.0489-2.665-.2485-5.325-.3667-7.989z"/><path d="m514.736 688.243c-1.711-6.33-2.123-11.814-8.184-15.48-2.009-1.344-3.512-3.137-4.921-5.06-6.995-8.713 6.554-22.503 15.794-12.278 11.101-11.981 23.22.676 15.586 11.476-3.223 3.018-5.944 6.567-8.938 9.838-2.729 2.721-3.418 6.111-4.355 9.691z"/><path d="m152.326 569.082c-1.161-4.29.978-7.667 2.709-11.044 2.734-5.161 9.26-6.054 13.892-2.734 1.601-.908 4.953-4.436 6.07-1.344.941 7.162 2.872 14.238 2.008 21.339-2.546 2.269-5.117 4.277-7.333 6.619-5.231 5.675-15.606-1.723-21.591-3.193-1.874-4.624 1.597-6.506 4.245-9.643zm13.268-10.702c-5.055-4.652-9.369 3.3-9.997 8.25zm1.463 8.506c2.163-1.422 4.163-2.363 5.662-4.281-.354-1.096.037-2.889-.814-3.634-3.439 1.813-6.673 4.481-6.547 5.662zm-10.405 4.119c-2.036 1.222-5.108 3.324-4.966 5.32l3.63 1.173 3.43-3.69zm9.142 1.743-2.273 2.192c1.817 1.552 3.943 5.748 5.756 2.037-1.071-1.251-1.715-3.023-3.475-4.229zm6.493 1.365c1.528-2.183 1.557-2.562.514-6.135-1.435.39-2.684 1.278-3.524 2.505.705 1.544 1.475 2.872 3.01 3.63zm-10.73-2.693 2.477-2.342-1.499-2.725c-1.414.545-2.444 1.222-3.023 2.554zm1.063 8.074c-.814-.973-1.108-1.588-1.548-1.735-.55-.134-1.996.249-1.629 1.124 1.063.925 1.234.571 3.177.611z"/><path d="m224.574 512.919c-4.441 2.481-1.455 11.99-5.337 14.071-3.161 1.104-5.141-8.555-8.213-4.298-2.248 4.482.717 9.256.51 13.908-2.714 5.414-6.233-6.334-8.865-7.406-2.721 4.098-1.369 9.17-.546 13.668.86 2.586-2.037 4.937-3.756 1.535-1.426-2.648-2.851-5.173-5.67-6.762-3.227 3.226-.277 11.093-.966 15.48-2.917 4.253-4.994-4.599-6.204-6.355-2.925-.089.322 8.995.814 10.673 1.654 2.807-1.466 5.357-3.096 1.223-2.228-4.331-5.817-22.936 3.866-18.157 2.233-6.078 3.443-10.005 10.034-4.807.709-4.123 1.096-13.281 7.333-10.185.453.394 1.029.617 1.629.632 1.263-6.799 4.482-11.346 11.289-6.209 1.589-3.128 1.14-6.729 3.809-9.267 4.167-4.624 8.322 1.829 11.561 4.35.9.893 1.756 2.306.856 3.52-2.408 2.102-6.559-4.693-9.048-5.614z"/><path d="m252.573 202.638c.066 11.667 1.52 23.355 1.223 35.034-1.316 9.288-17.277 8.474-24.443 10.543-21.913 3.129-44.021 6.249-66.166 6.143-6.758-.175-6.322-8.041-6.518-12.999.301-22.218-1.821-44.347-3.381-66.48-.448-8.53-1.463-17.827 2.709-25.644 4.697-6.987 26.479-4.889 34.843-6.319 11.537-.892 23.069-.558 34.606-.602 7.068-.155 14.258-.726 21.184.835 4.228.814 4.888 5.703 4.819 9.39.407 16.702 1.324 33.405 1.308 50.107zm-3.605-19.656h-.468c-2.445-40.114 8.078-37.414-28.443-36.982-19.004-.032-38.359-.061-57.057 3.28-8.51 2.106-6.091 15.378-6.303 22.096 2.294 24.903 3.337 49.879 3.993 74.863.407 4.249.717 4.481 4.888 4.453 22.092-.098 43.887-3.667 65.743-6.441 4.77-.912 20.368-2.151 19.211-8.934-1.104-17.443-1.91-34.867-1.564-52.335z"/><path d="m159.691 137.983c.033 4.481-6.375 4.612-6.518.212.44-4.697 5.948-4.681 6.518-.212z"/><path d="m174.471 133.339c2.595 1.279 4.958 3.52 2.75 6.229-4.339 2.937-7.969-2.864-2.75-6.229z"/><path d="m168.507 137.621c.122 4.013-5.54 4.759-5.956.522-.415-4.237 5.655-3.687 5.956-.522z"/><path d="m520.093 526.929c-.701 5.597-3.695 11.618-7.125 16.222-4.689 6.159-13.737 7.74-21.001 6.147-21.077-5.072-24.41-33.714-4.888-43.182 3.858-2.208 8.388-2.912 12.783-3.397 11.334.623 20.059 13.089 20.231 24.21zm-42.457.587c-.269 15.957 23.371 25.925 33.164 12.339 3.561-5.911 7.463-12.543 4.53-19.481-1.487-3.666-3.699-8.375-7.516-9.992-1.446-.18-2.375-.954-3.491-1.691-3.666-2.88-8.103-2.037-12.221-.513-8.73 2.513-14.193 10.359-14.466 19.338z"/><path d="m46.8481 77.577c-.4073 2.8516-4.0737 2.4891-3.8945-.3666.2974-2.485 4.0942-2.0654 3.8945.3666z"/><path d="m44.4485 69.2687c2.2813-.3299 2.815 3.809.3422 3.8131-2.4891.2037-2.7376-3.6501-.3422-3.8131z"/><path d="m23.4938 121.428c-2.3913-.371-2.538-4.127-.2608-4.726 2.8395.073 3.0431 4.542.2608 4.726z"/><path d="m181.942 196.58c.506-3.951.815-7.935 1.548-11.85 1.328-6.926 6.592-11.843 12.006-15.888 5.08-4.509 10.999-4.86 17.085-3.08 6.701 2.078 13.627 5.748 15.81 12.935 2.754 7.565 5.911 15.606 3.007 23.627-3.923 10.82-12.727 23.29-25.596 21.999-13.85-1.153-24.772-13.961-23.627-27.747zm20.072-9.414c.134 2.852-.571 18.951 1.752 18.825 3.173-4.184 7.581-7.557 9.878-12.458-3.707-2.216-7.377-4.012-11.63-6.367z"/><path d="m494.477 532.162c3.984-5.968 6.542-11.187 10.918-16.54 1.193-1.124 3.426.379 2.619 1.874-2.294 4.119-4.97 8.022-7.471 12.014-1.911 2.012-5.374 11.867-8.396 6.571-1.671-3.886-3.927-7.699-5.194-11.696 1.544-7.276 5.911 5.65 7.524 7.777z"/></g></svg>