<svg fill="none" height="48" viewBox="0 0 220 48" width="220" xmlns="http://www.w3.org/2000/svg"><path clip-rule="evenodd" d="m42.6111 28.1644c.3667.1978.7065.4756.9865.82l-.0022-.0022c.4202.5178.9224 1.4333.9224 2.8733 0 1.9912-.7646 4.1112-.9978 4.7134l-.0134.0355c-1.3555 3.2489-3.669 5.9289-6.689 7.7511-2.9331 1.769-6.4954 2.7045-10.2976 2.7045-.1277 0-.2568-.0013-.3862-.0037-.107-.0019-.2139-.0044-.3206-.0074-3.6843-.1089-7.1711-1.14-10.0845-2.98-2.6999-1.7067-4.8466-4.0711-6.25093-6.8755-1.56665-.2245-3.12232-.9556-4.39112-2.0801-1.57788-1.3977-2.55346-3.2288-2.74682-5.1555-.10205-1.0156-.04663-1.9911.16675-2.9134l-.67115-.5688c-1.077634-.9111-1.708737-2.2134-1.8176239-3.7645-.0913086-1.2778.1643069-2.7467.7553709-4.3644 1.377933-3.7689 4.549073-8.2556 8.484623-12.00448 1.9287-1.83776 3.9355-3.38 5.8022-4.45776 2.1643-1.251098 4.1311-1.88446 5.8399-1.88446 1.4377 0 2.6689.440002 3.6601 1.30444.0577.05109.9266.90223 1.5867 1.54889l.186-.07953c.0623-.02661.1004-.04266.1028-.04266 2.169-.89783 4.3023-1.37115 6.1734-1.37115 3.9399 0 6.4909 2.1156 6.4956 5.39111.0022 2.02002-.989 4.2867-2.8157 6.48.4734.72.8555 1.5689 1.1155 2.4956.3491 1.1266.3979 2.2422.4223 2.78.0179.4066.0357 1.0555.0511 1.6289 1.2068.3622 2.7221.9755 3.6311 1.9311.7444.7844 1.1645 1.6066 1.3156 2.5866.0977.58.1421 1.6289-.4289 2.8378.0378.1089.0779.2289.1177.3556.0205.0625.0395.1251.0578.186l.0066.0216zm-16.7535 17.3378c7.4024.22 13.6158-3.2533 16.22-9.4933l.0025.0022c.1709-.4377.8933-2.4022.8933-4.1533s-.989-2.4756-1.6201-2.4756l-.0271-.0952c-.0489-.1738-.1546-.548-.2884-.9781-.0818-.2619-.1648-.4869-.2295-.6505-.0293-.074-.0547-.1355-.0744-.1821-.0281-.0665-.045-.1029-.045-.1029.6888-1.029.7-1.949.6089-2.4712-.0979-.6466-.3667-1.1977-.9089-1.7666-.5422-.5711-1.6533-1.1534-3.2112-1.5912-.1777-.0489-.7666-.2111-.8179-.2267l-.0068-.2717c-.0132-.5598-.0434-1.8398-.0708-2.4704-.0244-.5867-.0757-1.5045-.3601-2.4089-.3398-1.2245-.9311-2.2956-1.6687-2.9801 2.0354-2.111 3.3066-4.4377 3.3044-6.43324-.0068-3.83783-4.7202-4.99781-10.5268-2.59339-.0066.00226-1.2222.51783-1.231.52228l-.1159-.11371-.0445-.04352-.1816-.17804-.668-.65478c-.5928-.5813-1.2302-1.20569-1.2478-1.22107-6.6223-5.77557-27.32444 17.23557-20.70896 22.82667l1.44677 1.2244c-.37573.9711-.52221 2.0845-.40234 3.2822.15332 1.5378.94678 3.0112 2.2334 4.1512 1.22217 1.0822 2.82666 1.7644 4.38453 1.7644 2.5754 5.9356 8.4621 9.5778 15.362 9.7822zm46.3692-40.51105c.811 0 1.4687-.65778 1.4687-1.46893 0-.8111-.6577-1.46888-1.4687-1.46888-.8113 0-1.469.65778-1.469 1.46888 0 .81115.6577 1.46893 1.469 1.46893zm-11.7847 2.83331c.4246-.97113 1.5801-1.84442 3.0178-1.84442 2.5335 0 3.5867 1.9444 3.5867 3.93109v6.07777h-2.4311v-5.3889c0-1.15334-.2644-2.59335-1.8243-2.59335-1.56 0-2.269 1.33783-2.269 2.63335v5.3489h-2.4312v-9.72443h2.3091v1.55999h.0398zm-4.8398 8.16444h-2.4312v-9.72443h2.4312zm43.2444-12.46668c0 .81115-.6578 1.46893-1.4688 1.46893-.8113 0-1.469-.65778-1.469-1.46893 0-.8111.6577-1.46888 1.469-1.46888.811 0 1.4688.65778 1.4688 1.46888zm-30.5623 4.89111h2.7268v7.57557h2.4309v-7.57557h2.7246v-2.15332h-7.8823zm13.8311 5.83337c1.5388-.001 2.2668-1.3383 2.2668-2.6334v-5.34883h2.4312v9.72443h-2.3091v-1.56h-.0401c-.4243.9733-1.5798 1.8445-3.0175 1.8445-2.5335 0-3.5867-1.9445-3.5867-3.9312v-6.07773h2.4311v5.38883c0 1.1556.2644 2.5934 1.8243 2.5934zm11.32-7.98669v2.15332h2.7268v7.57557h2.4309v-7.57557h2.7248v-2.15332zm-1.7021 9.72889h-2.4312v-9.72443h2.4312zm-82.35939 8.4421c-.14771.0135-.28662.0344-.41407.0601-2.38671.4822-3.73559 2.5111-3.46899 5.1511.23999 2.3867 2.65576 4.4 4.89115 4.46.1308.0025.261-.0006.3901-.0111.0994-.008.1982-.0204.2966-.0378 2.42-.4133 3.0533-3.04 2.6534-5.62-.4512-2.9133-2.42-3.94-3.75786-4.0133h-.0022c-.20605-.0111-.40381-.0058-.58813.011zm2.95919 6.8912c-.0888.2067-.4399.4889-.9443.4689-.5178-.04-1.0935-.4156-1.1711-1.3533-.0379-.4623.1355-1.0267.2443-1.32.209-.5689.0201-1.1667-.46651-1.4844-.28687-.1867-.62891-.2512-.9624-.1801-.32886.0711-.60889.2645-.78662.5445-.06348.0996-.11646.2094-.16016.3145-.05591.1341-.09619.2606-.12427.3493l-.00366.0114-.00073.0025-.03125.0956c-.10889.2956-.28443.38-.4021.3645-.05567-.0067-.1333-.0445-.18213-.18-.13355-.3689-.02686-1.4134.6687-2.18.44019-.4867 1.1311-.7356 1.80225-.6511.69998.0888 1.27998.5111 1.63798 1.1911.4731.9022.051 1.8488-.2002 2.4133-.0267.0622-.0533.1178-.0733.1689-.1577.3755-.1667.7022-.0222.9222.0168.0264.0361.0511.0574.0739.0129.0141.0266.0274.041.04.019.0167.0393.0321.0608.0463.0515.0341.1091.0609.1716.0796.0645.0192.134.0299.207.0313.1089 0 .2066-.02.2933-.0422.1245-.0289.2534-.0578.331.04.0291.0311.0735.1067.02.2288zm28.7068-.5155c-.3335-.2045-.7334-.1334-.7334-.1334s-.1823-1.2466-.6977-2.3778c-1.5291 1.2067-3.4956 2.0534-4.9956 2.4845-1.729.4956-4.0689.8778-6.68.7222-.2837-.0231-.5486-.0578-.7939-.09-1.0071-.132-1.6834-.2207-1.9729.7212 3.3091 1.2111 6.8113.6933 6.8113.6933.0666-.0067.1289.0422.1355.1111.0017.0154.0002.0308-.0037.0454-.0037.0136-.0095.0265-.0171.0382-.0056.0088-.0122.0169-.0198.0239-.0078.0075-.0163.0139-.0254.0189l-.0095.0047s-2.6911 1.2489-6.9624-.0734c.1179 1.0023 1.0957 1.4512 1.5623 1.6334.1452.0566.2939.1057.4358.1474.1386.0408.2705.0747.3855.1018.1142.0268.2119.0471.2832.061l.0901.0168.0366.0063c5.2932.9112 10.2444-2.1155 11.3576-2.8777.0435-.0298.0789-.0289.0938-.0075.0139.0203.0098.0589-.0227.1074-.0579.0878-.0674.1005-.0977.1407l-.0112.0149c-1.3643 1.76-5.031 3.7956-9.7998 3.7956-2.0801 0-4.1602-.7334-4.9224-1.86-1.1843-1.7467-.0576-4.2978 1.9156-4.0334.0022 0 .6755.0756.8645.0978 2.4668.2755 6.0378-.0711 8.9821-1.4378 2.6934-1.2489 3.7112-2.6244 3.5579-3.74-.0422-.3-.1755-.6155-.4644-.9111-.4846-.4733-1.2512-.8422-2.5468-1.2067l-.4217-.118c-.2209-.0621-.4106-.1171-.6093-.182-.5557-.1822-.8311-.3311-.8933-1.3755-.0267-.4578-.1067-2.0489-.1355-2.7067-.0513-1.1533-.189-2.7289-1.1668-3.38-.0183-.0121-.0369-.0237-.0554-.0349l-.0454-.0265-.032-.0174-.0256-.0132c-.042-.0213-.0845-.0404-.1275-.0576-.1748-.0698-.3591-.1071-.5495-.117-.2459-.0113-.3887.0233-.462.0412l-.0336.0077c-.5328.0912-.8587.3649-1.2449.6892l-.0552.0463c-1.22 1.0156-2.2488 1.1822-3.3955 1.1333-.4973-.0209-1.0159-.083-1.5808-.1341-.2127-.0192-.4319-.0369-.6592-.0503l-.2434-.0145-.2434-.0144c-1.9177-.0977-3.9753 1.5578-4.3176 3.9111-.3811 2.6253 1.0664 4.2328 2.0083 5.279l.1687.1881c.0725.0815.1406.1594.2028.2338.0762.0914.1438.1776.2.2591.0867.1178.189.2867.189.4445 0 .1888-.1221.3399-.2444.4689-1.9578 2.0133-2.5823 5.2111-1.8467 7.8755.0911.3333.209.6511.3467.9556 1.7312 4.0444 7.0976 5.9266 12.3423 4.2133.7021-.2289 1.3689-.5133 1.9931-.8422 1.1756-.5756 2.2046-1.3689 3.0513-2.28 1.3911-1.4534 2.22-3.0356 2.5398-4.9822.158-1.0423-.0732-1.4445-.3887-1.6401zm-7.0622-6.6934c-.0069.4311-.2691.7756-.5823.7712-.3132-.0045-.5623-.36-.5557-.7889.0069-.4312.2691-.7756.5823-.7711.3135.0044.5623.3599.5557.791zm-1.44-5.0955c.6111-.0978.9065.5355 1.1265 1.58.1467.7044.1201 1.3511-.0444 1.7244-.076-.0107-.1534-.0184-.2325-.0232l-.0796-.0038c-.0456-.0017-.092-.0024-.1386-.0021-.1492.0007-.303.0106-.4605.0291-.2444-.3111-.4621-.8155-.5866-1.4022-.2178-1.0466-.1956-1.8045.4157-1.9022zm-2.0512 5.6244c.1377-.2822.5644-.3578.9511-.1666.3867.1911.5889.5733.449.8555-.1379.2822-.5645.3578-.9512.1667-.3867-.1912-.5888-.5734-.4489-.8556zm-2.3977-.3177c-.0215.0339-.0521.0539-.0945.0643-.0357.0087-.0799.0106-.1346.0082-.0422-.0018-.0908-.0062-.1467-.0119l-.084-.0091-.0246-.0026c-.5178-.06-1.0423-.0934-1.8335.1911 0 0-.2888.1155-.4177.1155-.0093 0-.0179-.0008-.0262-.0023l-.0141-.0034c-.0091-.0028-.0176-.0065-.0257-.0109-.0061-.0034-.0122-.0073-.018-.0117l-.0093-.0072c-.0054-.0042-.011-.0097-.0164-.0165-.0048-.0065-.0097-.0142-.0139-.0233-.0075-.0168-.0132-.0382-.0141-.0647 0-.1178.1042-.2822.2775-.4333.2024-.1756.5157-.3623 1.0867-.4534.7847-.0933 1.3601.2734 1.4934.4889.0579.0933.0357.1533.0157.1823zm-4.3755-1.0801c-.1023-.0133-.1468-.0578-.1602-.1155-.04-.18.2378-.4778.5313-.6911.8864-.6378 2.0354-.7756 3-.36.4709.2.9155.5578 1.1311.9111.1042.1711.1242.3022.0576.3733-.1043.1111-.3733-.0155-.8111-.2089-.4377-.1933-1.0044-.4067-1.6911-.3644-.0789.0049-.157.0122-.2339.0215-.0781.0094-.155.0208-.2305.0338-.1365.0235-.2685.0522-.3943.0833-.2468.061-.4699.1313-.6574.1905l-.0022.0006-.1582.0494-.0725.0218c-.1382.0405-.2432.0645-.3064.0568zm6.7243-12.0399c.0755.0421.0222.1888-.0622.1689v-.0045c-1.6778-.3845-4.4221-.6755-7.2735.02-2.5466.6222-4.4887 1.58-5.9065 2.6111-.0712.0533-.1577-.0422-.1001-.1089 1.6424-1.8956 3.6624-3.5444 5.4712-4.47112.0623-.03106.1289.03559.0955.09778-.1443.26001-.4221.81784-.5088 1.24004-.0134.0667.0576.1156.1133.0778 1.1267-.7667 3.0845-1.58896 4.8022-1.69559.0733-.00445.1089.09113.0511.13556-.2623.19995-.5467.47779-.7554.75773-.023.0316-.0173.0716.0058.0959.0076.0081.0171.0144.0281.0181l.0105.0027.0132.0011c1.2068.0089 2.9067.4311 4.0156 1.0534zm-6.1889-5.70896s-1.8023-2.08886-2.3467-2.24444c-3.3467-.90442-10.5777 4.08221-15.19338 10.6689-1.86889 2.6645-4.54223 7.3844-3.2622 9.8133.15796.3 1.04907 1.0733 1.52905 1.4734.7998-1.1623 2.11108-2.0045 3.59546-2.2934 1.89107-5.0755 5.04887-9.7555 9.22897-12.9733 3.1021-2.58667 6.4488-4.44446 6.4488-4.44446zm45.9199 19.70896c.6889-1.54 2.1889-3.9267 5.2224-3.9267v.0022c4.5754 0 6.322 3.3045 6.322 8.26v11.1689h-6.7976v-10.2956c0-1.7155-.2778-3.3822-1.8423-3.3822-1.4489 0-2.1267 2.5689-2.1267 4.2289v9.4534h-6.9221v-10.3001c0-2.1955-.3091-3.3822-1.8535-3.3822-1.3355 0-2.1155 2.3645-2.1155 4.2289v9.4489h-6.8933v-18.9911h5.051s.3335 1.42-.1042 3.28c-.0562.238-.1241.4669-.1866.6762l-.0029.011c-.1831.6158-.3152 1.0594.0515 1.0594.2554 0 .3189-.159.522-.666.0674-.1684.1502-.3752.2603-.6273.6467-1.48 2.0112-4.1711 5.1977-4.1711 3.0291 0 4.4556 1.84 4.929 3.5645.1599.5813.1865 1.021.2053 1.3302.0234.3871.0344.5697.279.5697.2146 0 .3323-.3186.5083-.7954l.003-.0071c.0803-.2181.1731-.469.2932-.7374zm122.2333-3.9267c-3.033 0-4.533 2.3867-5.222 3.9267-.121.2716-.215.5252-.296.7451-.176.4765-.294.7948-.509.7948-.247 0-.262-.2371-.288-.6488-.02-.3209-.047-.7478-.196-1.2511-.505-1.7156-1.762-3.5645-4.929-3.5645s-4.551 2.6911-5.198 4.1711c-.11.2523-.193.4592-.26.6277-.203.5067-.267.6656-.522.6656-.367 0-.235-.4433-.052-1.0588.063-.2125.133-.4454.19-.6878.438-1.86.104-3.28.104-3.28h-5.051v18.9911h6.893v-9.4489c0-1.8644.78-4.2289 2.116-4.2289 1.545 0 1.853 1.1867 1.853 3.3822v10.3001h6.923v-9.4534c0-1.66.677-4.2289 2.126-4.2289 1.565 0 1.842 1.6667 1.842 3.3822v10.2956h6.798v-11.1689c0-4.9555-1.746-8.26-6.322-8.26zm-107.9887 1.9467s3.7886-1.9413 9.0667-1.9423c6.2575 0 8.322 4.2467 8.322 10.0822v9.3467h-5.1956c-.2378-.9622-.3088-2.1044-.2776-3.6155.0039-.1878.013-.3546.0208-.5005.0283-.5258.042-.7817-.252-.7817-.2324 0-.3344.288-.5017.7597l-.0029.0078c-.0364.1032-.0762.2152-.1211.3347-.0413.1101-.0869.2267-.1387.3489-.5288 1.2489-2.2512 3.8822-6.1711 3.8822-2.6868 0-5.8733-1.6222-5.8733-5.5067 0-4.0955 2.8376-6.6489 8.4556-6.6489 2.3867 0 3.1665.2067 3.1665.2067.1245-1.2111-.2088-2.6733-2.9178-2.6733-3.3955 0-7.5798 2.4067-7.5798 2.4067zm4.8911 11.8244c0 1.0934.8533 1.6 2.5022 1.22h.0022c1.7532-.4045 3.1443-2.5911 3.1443-3.2311 0 0-.9177-.0844-1.8911-.0844-2.2087 0-3.7576.5977-3.7576 2.0955zm30.7506-19.0822h-6.893v24.7444h6.893zm12.087 11.9867c-2.911 0-4.498 1.5555-4.498 3.2622l-.002.0022c0 1.7777 1.198 3.3111 4.531 3.3111 2.8 0 4.933-1.2666 5.951-1.8716l.159-.0939.12-.0697.048-.027v6.2733s-2.613 2.4089-6.998 2.4089c-5.613 0-9.562-3.6489-9.562-10.2289s4.351-9.6378 9.576-9.6378c4.957 0 6.973 1.9423 6.973 1.9423v6.6044c-.571-.3489-3.125-1.8755-6.298-1.8755zm20.264-6.6712c-3.804 0-5.361 3.4367-5.764 4.326l-.051.1118-.078.1671c-.256.5521-.402.8656-.631.8596-.402-.0123-.174-.6874-.004-1.1933l.042-.1245c.32-.9689 1.002-3.5111 1.002-6.6333 0-2.12-.287-2.8289-.287-2.8289h-5.951v24.7444h6.894v-9.4488c0-1.5401.613-4.229 2.351-4.229 1.437 0 1.889 1.0667 1.889 3.2111v10.4645h6.893v-10.0533c0-4.8756-.809-9.3756-6.305-9.3756zm8.545 19.4289v-18.9689s1.173.6778 3.453.6778 3.44-.6778 3.44-.6778v18.9689zm3.427-19.4289c2.33 0 4.22-1.2326 4.22-2.7533 0-1.5206-1.89-2.7533-4.22-2.7533-2.331 0-4.22 1.2327-4.22 2.7533 0 1.5207 1.889 2.7533 4.22 2.7533zm-60.34 19.4289v-18.9689s1.173.6778 3.453.6778 3.44-.6778 3.44-.6778v18.9689zm3.426-19.4289c2.331 0 4.22-1.2326 4.22-2.7533 0-1.5206-1.889-2.7533-4.22-2.7533-2.33 0-4.22 1.2327-4.22 2.7533 0 1.5207 1.89 2.7533 4.22 2.7533zm99.085 4.1667c.706-1.5134 2.329-4.1711 5.873-4.1711 4.573 0 7.578 3.4756 7.578 9.9356 0 5.6977-2.509 9.9155-7.493 9.9155-2.329 0-3.841-1.4778-4.656-2.8622v7.6844h-6.893v-24.2355h5.051s.333 1.42-.105 3.28c-.057.2423-.126.4753-.189.6877-.183.6155-.315 1.0589.052 1.0589.239 0 .297-.1448.473-.5783.075-.1831.17-.4179.309-.715zm1.238 6.3822c0 2.7934 1.162 4.7978 2.742 4.7978 1.929 0 2.682-1.76 2.682-4.7978s-.818-4.7978-2.736-4.7978c-1.493 0-2.688 2.0045-2.688 4.7978z" fill="#fff" fill-rule="evenodd"/></svg>