<svg fill="none" height="28" viewBox="0 0 185 28" width="185" xmlns="http://www.w3.org/2000/svg"><path clip-rule="evenodd" d="m59.4647 27.582h-5.0523v-19.21h5.0523zm9.0255 0h.001l-.001.001zm-5.0524 0h5.0524v-9.149c0-5.694 2.3738-8.01 4.6705-8.01 2.0287 0 3.2542 1.329 3.2542 4.707v12.452h5.0524v-11.958c0-5.734-2.8714-7.67-6.814-7.67-2.9851 0-5.2057 1.443-6.3155 3.797v-3.379h-4.9zm25.1359-8.086h-5.1285v.001c.4975 5.656 4.9376 8.466 11.253 8.466 5.3588 0 10.7568-2.847 10.7568-8.352 0-4.48-3.177-6.34-8.2306-7.67l-3.3303-.873c-3.1384-.835-4.5163-2.05-4.5163-4.1 0-2.544 2.2582-4.366 5.3976-4.366 3.2532 0 5.091 1.86 5.2816 5.163h5.091c-.459-4.746-4.593-7.327-10.3726-7.327-5.3214 0-10.1057 3.341-10.1057 8.162 0 3.987 2.4114 5.96 7.7704 7.402l2.8328.76c3.369.911 5.3591 2.164 5.3591 4.67 0 2.734-2.6796 4.366-5.9338 4.366-3.6359 0-5.894-2.164-6.1245-6.302zm20.8623-9.076v12.606c0 3.683 1.799 4.593 5.512 4.593 2.029 0 3.253-.038 4.172-.076v-2.012h-2.45c-1.454 0-2.219-.455-2.219-2.354l.038-12.757h4.631v-2.05h-4.631v-7.067h-.115l-4.938 2.164v4.903h-3.253v2.05zm11.785 17.162h5.052v-10.706c0-3.759 1.838-4.594 3.676-4.594.995 0 1.875.076 2.87.19v-4.101c-.344-.037-.88-.075-1.339-.075-1.952 0-3.215.797-4.287 2.278-.537.721-.881 1.442-1.11 2.164v-4.366h-4.862zm54.095-17.162v12.606c0 3.683 1.799 4.593 5.511 4.593 2.03 0 3.254-.038 4.173-.076v-2.012h-2.45c-1.454 0-2.22-.455-2.22-2.354l.038-12.757h4.632v-2.05h-4.632v-7.067h-.115l-4.937 2.164v4.903h-3.255v2.05zm-35.307.403c-1.568 1.509-1.748 4.066-1.76 6.079 0 .3621.038.8407.07 1.248.015.1966.029.3767.037.519l8.004-3.672c-.16-3.173-1.368-5.107-3.886-5.107-.916 0-1.801.295-2.465.933zm3.805 14.861c2.794 0 4.669-1.632 5.359-4.062h2.794c-.881 3.91-4.249 6.377-8.919 6.377-5.359 0-10.297-3.34-10.297-10.06 0-6.302 4.862-9.985 9.723-9.985 4.357 0 8.161 2.467 9.207 6.864l-3.699 1.697-.003-.001-9.354 4.29c.682 3.058 2.547 4.88 5.189 4.88zm14.77-9.757v2.05.038c0 .222.006.44.016.654l8.004-3.672c-.16-3.173-1.368-5.107-3.886-5.107-2.642 0-3.981 2.202-4.134 6.037zm5.474 9.757c2.795 0 4.67-1.632 5.36-4.062h2.793c-.881 3.91-4.248 6.377-8.919 6.377-5.359 0-10.297-3.34-10.297-10.06 0-6.302 4.862-9.985 9.723-9.985 4.358 0 8.161 2.467 9.207 6.864l-3.698 1.697-.005-.001-9.352 4.29c.681 3.058 2.546 4.88 5.188 4.88zm-111.0651-22.639 3.9457 3.045v-.001l3.9456-3.044-3.9456-3.045zm-38.0978 18.814 7.3887-20.895987h7.2018v27.036987h-5.2026v-24.79699l-8.8619 24.79699h-3.8076l-8.89847-24.87499v24.87499h-2.71503v-27.036987h7.46584zm30.8117-4.186v1.633c0 3.872-2.182 6.15-4.5548 6.15-1.7992 0-3.2156-1.177-3.2156-3.303 0-2.62 2.4886-4.062 7.7704-4.48zm-6.2393 10.289c3.0623 0 5.1681-1.481 6.4698-3.531v.001l.1137 3.15h4.7467c-.0378-.7393-.0715-1.3505-.0996-1.8608-.0571-1.0352-.0912-1.6552-.0912-2.0872l.0385-8.163c.0376-5.087-3.2541-7.55499-8.6131-7.55499-4.5549 0-8.1533 2.46799-8.5746 6.18799h4.8229c.1919-2.733 1.4164-4.28999 3.7506-4.28999 2.3739 0 3.6756 1.36699 3.6756 4.59499v1.1l-3.5212.57c-6.6221 1.101-9.3788 2.809-9.3788 6.453 0 3.912 3.4075 5.43 6.6607 5.43z" fill="#fff" fill-rule="evenodd"/></svg>