<svg fill="none" height="36" viewBox="0 0 145 36" width="145" xmlns="http://www.w3.org/2000/svg"><path clip-rule="evenodd" d="m27.0278 26.5441c7.2619 0 13.1488-5.8575 13.1488-13.0831 0-7.22567-5.8869-13.083192-13.1488-13.083192-.1223 0-.2442.00166-.3656.004958v-.004958h-6.2089-2.1918-4.3827v13.083192 21.8052h6.5745v-8.7221h6.2089v-.005c.1214.0033.2433.005.3656.005zm-.0003-6.5416h.0003c3.5797-.0001 6.4816-2.9288 6.4816-6.5415 0-3.61273-2.9019-6.54144-6.4816-6.54162h-.0003-6.5741v13.08312zm32.8725-10.90292h6.5745v12.97332c.0003.0366.0005.0734.0005.1102l-.0002.0661-.0003.044v12.9727h-6.5745v-1.7498c-1.9339 1.1131-4.1791 1.7501-6.5739 1.7501-7.262 0-13.1489-5.8575-13.1489-13.0831 0-7.2257 5.8869-13.08319 13.1489-13.08319 2.3948 0 4.64.63696 6.5739 1.74999zm-6.5739 19.62472c3.6053 0 6.5328-2.8876 6.5739-6.4652v-.1528c-.0411-3.5776-2.9686-6.4651-6.5739-6.4651-3.631 0-6.5745 2.9287-6.5745 6.5415s2.9435 6.5416 6.5745 6.5416zm40.9063-28.346492h-6.574v10.472392c-1.9338-1.11316-4.18-1.75029-6.5746-1.75029-7.262 0-13.149 5.85749-13.149 13.08319 0 7.2256 5.887 13.0831 13.149 13.0831 2.3946 0 4.6408-.6371 6.5746-1.7503v1.7503h6.574zm-13.1489 28.346792c3.631 0 6.5741-2.9288 6.5741-6.5415 0-3.6128-2.9431-6.5416-6.5741-6.5416-3.6309 0-6.5744 2.9288-6.5744 6.5416 0 3.6127 2.9435 6.5415 6.5744 6.5415zm22.2805-28.346792h-6.574v34.888392h6.574zm28.001 23.980392c-.662 3.8866-3.069 7.4608-6.77 9.3369-6.756 3.4252-14.674.8654-17.825-5.2884-3.443-6.7224-.87-14.6008 5.886-18.026 6.185-3.13548 14.103-.57563 17.546 6.1468.344.6738.621 1.3684.832 2.0751l-6.652 3.372-10.276 5.2098c1.974 1.6358 4.861 2.0224 7.497.6858 2.087-1.0578 3.341-3.3313 3.32-5.7092l6.093 2.1027c.118.0402.234.0716.349.0945zm-19.58-1.7071 10.797-5.4738c-1.948-1.6491-4.73-2.0887-6.948-.9642-2.637 1.3366-4.02 3.8877-3.849 6.438zm-103.01908 3.5296c0 2.4085-1.96231 4.361-4.38295 4.361-2.42065 0-4.38297-1.9525-4.38297-4.361 0-2.4086 1.96232-4.3611 4.38297-4.3611 2.42064 0 4.38295 1.9525 4.38295 4.3611zm-4.38295-11.9929c2.42064 0 4.38295-1.9525 4.38295-4.36105s-1.96231-4.36105-4.38295-4.36105c-2.42065 0-4.38297 1.9525-4.38297 4.36105s1.96232 4.36105 4.38297 4.36105zm128.93203-13.809992h6.572v10.902992h5.113v6.5415h-5.113v17.4439h-6.572z" fill="#fff" fill-rule="evenodd"/></svg>