<svg fill="none" height="52" viewBox="0 0 150 52" width="150" xmlns="http://www.w3.org/2000/svg"><path d="m126.477.842632v42.129368c0 1.0632.177 1.772.576 2.1707.398.3987 1.107.6202 2.126.7531v5.2274c-1.373 0-2.747-.0886-4.076-.3101-.974-.1772-1.86-.5759-2.613-1.1518s-1.329-1.4176-1.684-2.3036c-.443-1.2847-.62-2.6137-.576-3.9427l.045-42.572368zm-119.12319 0c8.37269 0 15.19489 6.955108 15.19489 15.549368v1.1961c0 8.5499-6.8222 15.5493-15.19489 15.5493h-1.0632v16.5682h-6.29061v-48.862968zm27.37739 9.480168c3.4555 0 6.1578 1.1518 8.0184 3.3668 1.8606 2.2151 2.7909 6.1578 2.7909 11.7839v9.0815c0 5.5818-.9303 9.5688-2.7909 11.7838s-4.5629 3.3668-8.0184 3.3668c-3.4554 0-6.1577-1.1518-8.0183-3.3668s-2.7909-6.1577-2.7909-11.7838v-9.0815c0-5.5818.9303-9.5688 2.7909-11.7839 1.8606-2.215 4.5629-3.3668 8.0183-3.3668zm68.2218-9.790268v13.865968c1.861-2.2594 4.386-3.4555 7-3.3226 3.632.2215 6.6 2.9682 8.107 7.5311 1.506 4.3857 1.55 9.3473 1.373 13.6444-.133 3.544-.443 7.2652-1.639 10.5434-1.551 4.2971-4.696 6.9108-8.329 6.9108-2.436 0-4.74-1.2404-6.467-3.4554v3.3225h-6.1138v-49.040168zm36.238 9.790268c3.455 0 6.158 1.1518 8.018 3.3668 1.861 2.2151 2.791 6.2021 2.791 11.7839v6.5564h-13.423v-6.0691h6.955v-1.4619c0-5.7147-1.462-8.5942-4.297-8.5942-1.285-.0443-2.481.5759-3.145 1.6834l-.09.1431c-.738 1.2351-1.106 3.5304-1.106 6.7677v11.075c0 3.3668.398 5.7147 1.196 6.9108.664 1.0632 1.86 1.7277 3.145 1.6834l.1-.0002c1.061-.0072 3.81-.2285 4.153-7.0878l.044-.886h6.424l-.045.9746c-.265 4.2528-1.151 7.3538-2.702 9.1701-1.86 2.215-4.563 3.3668-8.018 3.3668-3.456 0-6.158-1.1518-8.019-3.3668-1.86-2.215-2.79-6.202-2.79-11.7838v-9.0815c0-5.6261.93-9.5688 2.79-11.7839 1.861-2.215 4.563-3.3668 8.019-3.3668zm-79.3416 1.2847c3.1453 1.0632 5.316 3.4555 5.9805 6.4679.2215 1.0189.3101 2.0821.2658 3.101v1.1075h-5.9362l-.0002-1.4564c-.001-.4953-.0072-.9137-.0441-1.0244-.0443-.7974-.3544-1.5505-.8417-2.1707-.443-.4873-1.0632-.7974-1.6834-.9303-1.1075-.3101-2.2593-.0886-3.1453.6202-1.1518 1.0189-1.3733 2.8795-1.4619 4.7401-.0443 1.4176-.0443 2.8795.6202 3.9427.4873.7531 1.4176 1.3733 2.8352 1.9049l.7088.3101c2.9681 1.0632 6.645 2.3922 8.1512 5.9805.7974 1.9492.7974 4.1199.7088 5.9362-.0443 1.4176-.2658 2.8352-.7531 4.2085-1.3733 3.4997-5.4489 5.316-8.7271 5.316-5.2274 0-9.4802-3.8541-9.4802-8.5942v-3.0567h5.9805v3.0567c0 1.2404.7974 2.215 2.1707 2.7023 1.2847.4873 3.0567.3987 4.0313-.7974.7088-.8417.8417-2.1264.886-3.4111.0886-1.0189-.0443-2.0378-.3987-2.9681-.443-1.0632-1.2847-1.7277-3.1453-2.4365-.4873-.2215-1.0189-.3987-1.5505-.5759-1.5505-.4873-3.0124-1.1518-4.3857-1.9935-1.6391-1.1961-2.7909-2.9238-3.2782-4.873-.3987-1.5505-.5316-3.1453-.443-4.7844 0-.3101 0-.6202.0443-.9746-.0443-1.2404.0886-2.4808.3544-3.7212.3987-1.5505 1.2847-2.9681 2.5694-3.9871 2.658-2.1707 6.5564-2.8352 9.9675-1.6391zm20.5995-.0443c3.101 1.0632 5.316 3.4555 5.9805 6.4679.2215 1.0189.3101 2.0821.2658 3.101v1.1075h-5.9805l-.0002-1.4564c-.001-.4953-.0072-.9137-.0441-1.0244-.0443-.7974-.3544-1.5505-.8417-2.1707-.443-.4873-1.0632-.7974-1.6834-.9303-1.1075-.3101-2.2593-.0886-3.1453.6202-1.1518 1.0189-1.3733 2.8795-1.4619 4.7401-.0443 1.4176-.0443 2.8795.6202 3.9427.4873.7531 1.4176 1.3733 2.8352 1.9049l.7531.3544c2.9681 1.0632 6.645 2.3922 8.1512 5.9805.7974 1.9492.7974 4.1199.7088 5.9362-.0443 1.4176-.3101 2.8352-.7531 4.2085-1.3733 3.4997-5.4489 5.316-8.7271 5.316-5.2274 0-9.4802-3.8541-9.4802-8.5942v-3.0567h5.9805v3.0567c0 1.2404.7974 2.215 2.1707 2.7023 1.2847.4873 3.0567.3987 4.0313-.7974.7088-.8417.8417-2.1264.886-3.4111.0886-1.0189-.0443-2.0378-.3544-3.0124-.443-1.0632-1.2847-1.7277-3.1453-2.4365-.4873-.2215-1.0189-.3987-1.5505-.5759-1.5505-.4873-3.0124-1.1518-4.3857-1.9935-1.6391-1.1961-2.7909-2.9238-3.2782-4.873-.3987-1.5505-.5316-3.1453-.443-4.7844v-.9746c-.0443-1.2404.0886-2.4808.3544-3.7212.3987-1.5505 1.2847-2.9681 2.5694-3.9871 2.658-2.1707 6.5564-2.8352 9.9675-1.6391zm14.4418.1772v37.9209h-6.0691v-37.9209zm-63.2605 5.8477c-.7974 1.1961-1.1961 3.544-1.1961 6.9108v11.0307c0 3.3668.3987 5.7147 1.1961 6.9108.6645 1.1075 1.8606 1.7277 3.1453 1.6834 2.8353 0 4.2972-2.8795 4.2972-8.5942v-11.0307c0-5.7147-1.4619-8.5942-4.2972-8.5942-1.2847-.0443-2.4808.6202-3.1453 1.6834zm76.5508.3544h-.089c-1.595 0-3.057 1.2847-3.898 3.4997-.975 2.5251-1.152 5.5375-1.196 7.8854v2.215c.044 2.215.177 5.0945.974 7.5753.798 2.4808 2.437 4.1642 4.209 4.2085s3.322-1.4176 4.164-3.987c.753-2.2593.93-4.873 1.019-7.3538.133-3.101.133-6.645-.798-9.6131-.797-2.6137-2.525-4.3857-4.385-4.43zm-100.82719-10.32196h-1.0632v18.73896h1.0632c4.69579 0 8.54989-3.9427 8.54989-8.7714v-1.1961c0-4.8288-3.8098-8.77146-8.54989-8.77146zm84.48019-5.93621c2.0821 0 3.7655 1.68341 3.7655 3.76551 0 2.01704-1.5798 3.6599-3.5715 3.76061l-.194.00489c-2.0821 0-3.7655-1.6834-3.7655-3.7655s1.6834-3.76551 3.7655-3.76551z" fill="#fff"/></svg>