<svg fill="none" height="363" viewBox="0 0 633 363" width="633" xmlns="http://www.w3.org/2000/svg" xmlns:xlink="http://www.w3.org/1999/xlink"><clipPath id="a"><path d="m0 0h633v362.119h-633z"/></clipPath><g clip-path="url(#a)"><g fill="#f4bdec"><path d="m347.857 142.108c-5.422-.133-10.846-.236-16.27-.38-3.228-.705-10.985 1.183-12.104-2.481-1.635-7.633-.802-15.594-.978-23.353 0-2.422 1.355-5.607 4.04-5.958 12.826.305 25.315 4.645 38.122 5.849 4.008 1.21 14.1.242 14.37 5.523.89 5.012.334 10.202.406 15.28-.107 4.071-1.069 4.996-5.224 5.353-7.377.555-15.115.385-22.362.167zm-17.077-17.373c-.705-1.75-.051-3.632-1.79-3.887-.123.005-.243.036-.353.09s-.208.13-.288.222c-.079.093-.139.202-.175.318-.036.117-.047.24-.034.361.283 3.167.593 6.334.978 9.49.051.223.168.426.336.581.169.156.38.257.608.291.227.034.459-.001.666-.101.207-.099.379-.259.493-.457 1.267-2.603.716-5.698 3.276-7.756 1.745 1.422 1.149 9.638 4.256 6.764 1.189-1.72.839-6.953 3.552-6.684 1.285 1.941.299 7.445 2.573 8.093 1.558-.111 1.445-2.148 1.974-3.233.575-1.742 2.429-6.365 2.998-2.529.366 1.862.393 3.874.866 5.712 2.167 3.063 3.017-2.566 3.538-4.055 1.993-5.531 2.284 2.199 2.8 4.236 2.373 3.701 3.688-4.709 4.81-6.092 2.477-3.645 1.771 7.557 4.173 7.445 2.624-.654-.59-7.352-.881-9.266-1.147-3.515-4.211-1.734-5.363.757-1.833 4.305-1.82-6.969-6.309-.797-.344.369-.384 1.119-1.258.97-1.336-5.916-4.038-3.634-6.803-.032-.874-2.778-2.325-6.227-5.344-3.19-.978.648-1.227 2.175-2.488 2.313-2.554-4.882-4.187-4.071-6.811.436z"/><path d="m228.774 112.23c3.324.266 5.726 3.138 6.218 6.345.39 8.378.059 16.804-.088 25.19-.11 20.739.574 41.479.267 62.245-.735 17.573.975 35.097-.655 52.601-.454 6.288-1.095 13.332-5.528 18.214-2.632 2.826-8.078 2.879-10.154-.657-.802-1.534-2.731-3.071.302-2.816 4.39-.08 8.689-3.387 9.013-7.83 1.916-11.397 1.224-22.867 1.395-34.375-.607-39.599-.701-79.232-.77-118.917z"/><path d="m63.3511 321.344c1.4856-2.351 3.316-12.034 6.7362-10.045.4782.473.5344 1.098.1442 1.576-3.3266 4.204-3.9358 12.003 1.491 14.715 24.1124 11.42 56.1125 22.05 80.8505 7.224 3.148-2.745 5.69-6.111 7.465-9.883 1.577-3.209 2.917-6.528 4.008-9.931.676-1.822 2.982-1.178 2.614.659-1.323 2.832 1.336 5.206-.634 8.014-1.213 2.462-3.035 4.805-4.168 7.251-.195 1.375-1.007 2.252-1.9 3.151-19.888 19.447-52.428 19.162-76.6416 8.532-3.0354-1.063-5.988-2.231-8.326-4.563-3.9492-2.329-7.7489-4.817-10.2338-8.774-1.8865-2.475.5451-4.757-1.4055-7.926z"/><path d="m407.211 359.5c-1.87.357-3.15-.026-4.275-.888-1.689-1.622-5.344-2.893-4.206-5.788 3.234-6.437 7.8-12.146 11.469-18.347 1.67-2.597 3.364-5.177 5.02-7.78 1.852-2.924 2.181-3.028 5.323-1.545 2.875 1.109 5.483 2.792 3.207 6.015-5.214 9.569-10.269 19.407-16.538 28.333z"/><path d="m386.132 309.415c-17.419-9.253-21.561-3.456-3.548-19.599 5.076 1.806 10.041 4.151 14.939 6.422-2.173 3.547-6.571 8.474-11.391 13.177z"/><path d="m255.077 93.5043c-1.991.662-9.008-1.6539-10.782-2.3186-3.663-1.9144-1.445-13.2945-1.106-17.0648.5-2.8211 8.727.5158 10.688 1.0635.999.4175 1.662 1.037 1.657 2.1138-.265 5.379.371 10.9148-.457 16.2061z"/><path d="m137.494 310.084c.535-4.568.15-8.243-1.41-12.42-.516-4.571-3.856-7.256-6.825-10.349-2.351-2.924-4.732-5.849-6.519-9.175-.433-.758-.634-1.532-.22-2.471.169-2.863-1.763-5.698-1.827-8.649-.179-1.896-.66-15.999 3.113-11.699-.102 4.903-.679 9.761.563 14.624 1.828 9.984 11.597 15.493 14.929 24.791 1.328 3.699 2.293 13.375-1.804 15.348z"/><path d="m148.027 262.863c4.855-3.331 11.375-.962 16.088 1.572 2.138.901-.817 3.472.027 6.147 1.371 3.294-2.442 2.284-3.759.737-4.96-5.935-14.493-1.957-12.356-8.456z"/><path d="m110.405 148.427c-1.507 1.665-3.529 2.231-3.409-.755-.147-4.042-.326-8.083-.414-12.127.304-4.829-.866-10.165 2.236-14.223.476-.747 1.323-1.736 2.317-1.212 1.432.89.184 3.049-.292 4.18-1.76 3.217-.392 7.022-.63 10.505.083 4.523.131 9.045.192 13.632z"/><path d="m406.717 262.389c-7.989-2.555-11.524-1.789-.419-9.266 2.545.609 5.013 1.501 7.358 2.659-1.857 2.837-4.32 4.767-6.939 6.607z"/><path d="m419.008 122.9c1.563.152 3.206 0 4.569.997.398 2.867.39 6.214-.032 8.129-6.824.683-6.156-2.843-4.537-9.126z"/></g><g fill="#2b1c4a"><path d="m168.03 313.192c-.735 9.896-3.947 20.585-11.869 26.908-16.834 12.364-40.305 14.456-60.0621 8.665-9.2666-3.122-18.3648-7.006-26.429-12.55-8.3875-6.014-7.6713-14.395-3.4068-22.72 2.1243-3.635 6.974-5.092 10.8404-6.116 11.1103-1.199 19.8665 8.267 29.9455 11.524 12.676 6.746 36.2-3.324 29.034-19.559-1.614-3.197-3.586-6.203-5.878-8.961-4.39-5.671-9.205-11.699-9.665-19.09-.593-4.914-.724-9.838.425-14.694.652-2.095.147-3.722-1.523-5.155-1.959-1.362-3.34-4.818-5.406-5.424-7.385 11.21-13.456 23.504-18.4367 36.012-1.8705 3.531 4.6787-.202 7.9467 2.042 5.021 2.199 3.775 8.508-.497 11.226 1.224 2.68 1.045 5.95-2.434 6.594-6.7312 1.42-19.3431.311-19.3779-8.551 1.2612-6.397 5.7021-11.617 7.0328-18.022 5.3868-20.543 9.6727-41.367 13.4161-62.264.665-3.988-2.0707-.279-3.225.721-4.9807 3.358-2.1082-10.793-6.2499-3.723-1.2665 1.707-1.3761 1.747-3.6099 1.364-2.4315 2.845-15.4977 21.968-9.5845 22.979 3.487 1.204 2.1376 4.155 2.3914 6.884.3554 6.059-8.481 6.703-12.5451 4.155-7.0809-4.046-.0374-14.459.6493-20.572 1.5604-6.748 3.8504-13.273 4.8363-20.13-9.9933 5.498.2673-9.774.2886-13.425-.9592-.237-1.5123.415-2.175.667-1.2318.468-2.2231-.093-2.2071-1.385.1817-6.783 4.0454-12.366 6.6427-18.439-21.59-9.966-39.9949-24.845-57.4272-40.748-.7027-.614-1.7101-1.26-1.352-2.335.3046-.84.9993-1.103 1.8437-1.13 7.674.367 1.6887-3.347 0-6.759-1.9431-2.771-3.6179-5.72-5.0021-8.806-7.86107-15.4215-14.140323-32.0848-14.9499461-49.4926 1.9051561-3.5816 4.1763761 2.2494 5.1142561 3.8527.09886.4042 6.97929 11.8561 6.66139 7.5274-.2966-12.5341-.3688-25.1479 1.4669-37.573.3981-3.9884 6.2739-44.44357 10.6881-35.3448-.0454 16.9106-.5104 34.1669 4.334 50.5644.5184 1.2177 1.002-.2659 1.4857-.7153 1.7261-2.7971 3.4148-5.6182 5.1463-8.4127 13.4323-18.4794 32.8071-33.15126 54.0844-41.56935 17.7077-5.72462-4.8096 11.43325-7.7168 15.30995-11.6634 12.2735-21.6434 26.4242-26.0388 42.92-7.5966 24.0551-8.4249 51.9873 6.2044 73.6333 6.7656 9.559 15.1263 18.426 24.9888 24.85 4.0668-4.079 8.342-7.831 13.8381-10.014-.123-9.662-.267-19.303-.221-28.963-.3879-12.077 21.296-16.794 30.009-22.0689 15.118-6.7802 30.148-13.6694 45.395-20.1279 13.921-7.1285 20.246-8.5271 35.645-4.108 5.737 1.8187 11.695 2.7413 17.52 4.2037 3.781.577 7.543 2.6589 11.34 2.2521 1.189-3.2146-.342-10.0161 4.602-9.8007 5.475.6621 14.068 1.8001 13.894 8.8993-.061 1.9198.03 3.8422.048 5.6795 1.676.2446 14.325 5.355 13.724 2.026.155-7.6257.267-15.2541.438-22.8798.534-6.1501-.7-12.8585 2.322-18.49 10.041-16.6341 35.003 2.5392 47.69 7.3837 23.319 9.5455 45.777 20.9522 69.077 30.5376 6.507 3.7011 16.743 5.0758 18.25 13.579 1.417 11.5744.535 23.3584.594 35.0044-1.262 11.795 3.834 38.317-5.107 45.848-5.779 3.289-12.409 4.929-18.878 6.477-17.389 3.882-34.292 9.702-51.623 13.866-8.647 2.207-17.4 3.927-25.887 6.724.016 7.099-.04 14.092 0 21.17-1.004 16.135 5.521 49.706-9.023 59.802-7.896 6.272-16.834 11-25.227 16.586-16.232 8.641-31.548 18.846-46.891 28.894-5.128 3.654-10.656 6.669-16.032 9.91-9.887 5.61-14.205 8.243-22.178-1.805-7.289-8.434-14.691-16.712-21.718-25.318zm71.701-230.9129c-12.748-2.9674-25.117-5.9188-37.788-8.7957-12.729-1.5422-8.296 18.6522-9.675 26.5416-1.005 13.206-.487 26.424.032 39.617-.604 28.28-.636 56.545-.535 84.819-1.028 29.535.444 59.044-.026 88.574-.126 8.838-.414 18.641 4.344 26.442 5.227 7.421 13.895-2.055 19.341-4.655 5.124-3.478 10.306-6.85 15.497-10.245 21.694-14.757 45.561-26.079 66.916-41.333 12.272-9.399 8.489-30.019 8.7-43.693-.214-10.716-.187-21.431-.217-32.147.169-2.31-.507-2.924-2.851-2.026-4.86 1.33-9.699 2.731-14.586 3.951-11.14 2.853-16.909-3.786-16.235-14.57-.345-15.156.048-30.312.221-45.468-.577-18.721-.093-37.442-.318-56.1716.946-4.1027-4.31-3.2465-6.984-4.2675-2.237-.5318-4.35-1.614-6.894-1.4651-.441 11.0052-1.603 9.4976-11.175 7.421-8.793-1.9649-6.672-5.589-7.767-12.5287zm-151.2741 77.3609c1.654 1.258 2.9045 1.885 4.2138 3.124.8791 1.649-1.3761 1.997-2.3674 1.159-9.3788-5.878-17.9159-12.98-25.085-21.414-9.2665-10.963-16.5238-24.821-17.7529-39.254-.2672-9.8537-.9432-19.7236 1.4963-29.3807 3.7409-25.2357 16.9674-47.2009 35.4979-64.52365 14.0628-12.55534-13.2052 3.56295-16.3448 5.86825-11.7836 7.849-22.7737 17.4477-30.9527 29.0352-2.1697 3.4335-4.3438 6.8635-6.5224 10.2899-.6921.9785-1.9159 3.6587-3.2492 1.8294-6.314-13.72-6.0922-29.7798-6.2846-44.6297.0133-.3058 0-.6142 0-1.3667-2.7442 6.8281-3.0034 14.4299-4.2753 21.6594-2.7254 14.1587-2.493 28.647-2.4048 43.0051.9726 13.1031-7.74884-1.5741-10.81098-4.8631.61991 6.969 2.93922 13.938 4.87911 20.7129.81608 2.9788 1.93517 5.8671 3.34007 8.6201 4.5077 8.8626 8 18.3096 14.4663 26.0176 3.7408 4.174.5077 4.11-3.3106 5.068 17.7422 17.447 38.3088 31.454 60.8046 42.095 1.01.726 0 2.338-1.1517 1.899-1.0875-.343-2.0468-1.082-3.2064-1.098-2.4396 3.626-5.2185 10.178-5.9827 14.111.7589 1.244 5.7048-1.984 4.7081 1.725-1.2665 3.821-2.7762 7.546-3.9145 11.41 4.9379.35 2.7816 4.764 2.314 7.894-2.4191 9.145-4.8604 18.284-7.324 27.418-.8017 2.287-2.0869 5.204.5985 6.773 2.7014 1.768 6.6801 1.874 8.8364-.591-1.2719-1.571-1.4055-2.241.1149-3.586.9806-1.495-1.4643-2.441-2.672-2.186-1.157.149-1.296 1.329-1.817 2.071-.9165.761-2.322.479-2.0548-.891 3.8691-10.715 8.3875-22.204 16.3661-30.516.7669-2.51-.8791-12.63 1.7182-12.965 2.6105.266-.2245 9.838 1.6032 10.801 5.3894-5.584 4.3393 8.734 7.5698 3.635 3.1286-4.917 5.7746-1.128 5.2056 3.068-.484 2.853-.906 5.722-1.465 8.562-3.786 19.513-7.9918 38.969-13.0686 58.19-.5344 5.642-10.3461 14.914-3.9065 18.971 2.3139 2.037 13.4803 3.528 14.7631.872-.024-2.497-3.8185-2.824-5.6114-3.815-2.2285-2.712 3.2064-1.981 4.4008-1.178 1.2316-.508 2.3536-.761 3.2066-1.622 3.882-6.246-4.2327-6.062-8.1071-5.103-9.7262 2.476 13.3471-36.296 15.3131-39.713 2.159-3.656 4.118-7.445 6.413-11.027.615-.779 1.518-.709 2.255.035.444.449.251 1.412 1.35 1.457 1.154-3.089 2.169-6.363 3.762-9.306.713-1.532 2.247-1.034 3.599-.585 1.411-1.622 3.118-7.711 5.406-7.022 2.57 1.345-3.495 8.123-4.078 10.21.607 2.983 1.387 5.741 2.902 8.373 4.347-2.111 8.745-3.967 13.697-3.481 14.854 1.12 20.238 16.337 18.437 1.016-.666-10.612-.032-21.237.192-31.851.422-2.167-1.379-3.012-2.196-4.358-14.988-22.284-43.498-69.062-73.5131-40.649zm102.5011 176.072c-3.89-16.562-1.269-33.48-1.91-50.309-.748-40.524-.043-81.07.16-121.599 1.034-23.364-1.269-46.664.601-70.0013.773-6.8227-1.028-14.7143 3.805-20.3618.07-.0718-.04-.3085-.101-.694-3.305.8296-6.667 1.4411-9.646 3.0684-4.099 2.2361-8.478 3.8075-12.706 5.7326-11.505 5.0147-23.04 10.1224-34.415 15.4508-9.887 4.4433-20.091 8.2933-29.294 14.0923-6.092 3.114-4.513 10.542-4.809 16.233.016 5.503.101 11.005.176 16.509.214 2.127-.534 4.589 2.546 3.27.217-5.895-.066-11.611-.077-17.482 0-3.241-.334-7.397 3.019-9.102 8.698-4.735 18.648-6.461 28.123-9.04 5.612-.994 28.174-9.527 29.951-1.962 3.017 13.643-.23 27.756.802 41.588.021 26.057-.196 52.119-.652 78.185.622 16.86.109 33.824-.564 50.601-.342 2.324.724 15.103-2.846 11.242-5.229-7.373-5.435-5.974-1.624 1.064 2.984 4.717 4.064 10.191 6.145 15.243 6.723 10.288 15.164 19.075 23.316 28.27zm86.686-180.273c-.139 14.844-.133 29.952.588 44.866-.347 7.325 5.521 7.873 11.281 6.092 7.95-2.127 15.843-4.499 23.781-6.648 12.701-3.11 25.422-6.134 37.981-9.787 11.334-2.925 22.549-6.528 33.958-9.091 6.413-1.436 12.888-3.073 18.632-6.243 2.405-1.967 3.26-5.584 3.741-8.538.986-14.262-.534-28.551.436-42.808.016-7.626-.08-15.249-.182-22.867-.139-4.3655-1.686-8.4469-6.068-10.2576-28.992-13.2015-58.25-25.7914-87.135-39.1657-12.206-5.3576-35.455-20.5932-36.815 2.8477-.363 33.8532-.016 67.7166-.198 101.5966zm-128.896 185.987c17.695-8.035 21.826-33.813-1.432-36.799-2.939-.532-5.101 1.064-7.425 2.625-.374 3.084-1.991 5.583-3.682 8.048 8.39 4.087 14.124 14.385 12.539 26.126zm-43.019-19.782c-3.239-2.22-7.439-2.954-10.6588-5.437-.3974-.273-.872-.413-1.3547-.399-8.799.417-15.0462 10.343-12.8925 18.732.8871 2.542 1.0688 5.849 4.008 6.897 30.45 12.989 6.4022.851 20.903-19.793zm15.821 1.731c-3.172.149-6.306.745-9.475-.09-1.657-.165-4.067-.668-5.018 1.103-3.492 5.69-4.465 12.978-3.169 19.471 1.069 5.414 6.846 5.252 11.383 5.052 3.059-.135 6.145-.066 9.085-.513 4.128-8.673 3.388-17.977-2.801-25.023zm43.167-11.38c.221-9.069-5.037-16.642-8.596-24.597-1.091-2.479-3.044-3.922-5.195-5.188-5.643-3.51-14.26 2.954-14.894 8.883-.39 4.42 4.161 7.445 4.219 11.984.057 1.298 4.318-1.917 6.373-1.186 8.11-.034 12.93 4.254 18.093 10.104zm-36.805 36.047c5.753.021 11.057-2.242 16.259-4.422 2.547-2.393 2.055-7.977 1.604-11.298-1.513-6.043-5.187-12.85-11.471-14.786-2.856 2.214-6.048 3.96-9.457 5.172 5.299 7.673 6.004 16.605 3.065 25.334zm23.463-68.969c-1.138-2.548-2.121-4.733-3.094-6.914-3.573-9.024-16.492-10.821-21.55-2.09-1.889 2.816-1.718 6.15-.855 9.139 2.477 3.366 4.12 7.684 7.69 10.045.746-4.278 4.369-6.259 7.375-8.774 3.158-2.393 6.632-2.308 10.434-1.406zm-61.7851 34.068c-4.2753-1.861-8.1283-4.214-12.7456-2.925-2.9045 1.298-7.0274 1.939-8.3607 5.185-2.0575 4.837-4.2566 10.346-.5344 15.02.505 1.473 12.2405 11.356 10.1269 5.406-2.4983-9.447 3.4068-18.089 11.5138-22.686zm56.8421-48.31c1.801-10.369-9.71-21.3-19.925-16.054-3.568 6.185-4.059 13.826-3.095 20.803 6.21-8.607 13.914-10.42 23.031-4.749zm108.153-171.5361c2.06-2.8051.467-11.4998.959-15.4509 0-1.3294-.534-2.1271-1.804-2.619-1.985-.4892-9.523-3.6932-10.108-.9014-.697 3.9884-.759 8.0406-.711 12.0821-.791 6.1474 7.338 5.8177 11.674 6.8892zm-92.567 152.3361c-1.772-.912-2.902-2.456-4.786-2.305-7.249 1.098-8.989 8.775-8.601 14.996.652 7.467.617 7.868 8.246 9.245-1.753-8.107-.703-15.397 5.141-21.936zm-15.463 6.948c.173-5.786 3.26-8.942 7.604-11.385-6.223-4.063-13.867-3.909-20.018-.178-1.622.858-3.29 1.832-4.276 3.565 1.587.085 3.041.024 4.439.266 5.253.856 8.569 3.901 12.251 7.732zm16.35 19.144c.86-8.29 1.069-16.025 1.069-23.824-6.288 4.824-7.028 18.009-1.069 23.83zm-47.517-28.514c6.977 6.461 5.497 10.902 10.897.458l-3.786-4.334c-.554 1.063-.944 1.922-1.441 2.722-1.603 2.016-3.043-.266-3.703-2.015zm-5.702-119.592c-3.025.245-1.005 19.442-1.603 23.053 3.177 7.652.537-21.559 1.603-23.053z"/><path d="m435.15 295.586c2.768-4.834 4.5-5.549 8.681-3.502 6.523-8.365 10.448-18.365 15.568-27.586-.123-.099-.31-.325-.385-.293-2.595 1.29-3.701-1.441-5.651-2.47-3.87-2.172.39-6.004 1.336-8.716 1.17-2.393 3.895-2.063 6.03-1.063 2.568-1.742 4.377-4.542 6.376-6.913 1.662-1.995 2.354-3.457 3.161-6.914-3.407 2.694-6.191 4.885-5.857-1.539.155-3.808.636-7.642.641-11.433-.903-.298-1.109.406-1.528.723-.535.404-1.008.915-1.604 1.215-5.611 1.688 3.292-22.664 4.607-24.954-15.69 10.394 8.516-23.664 7.957-27.958.695-8.011-10.039-10.724-15.962-13.178-3.503-2.127-23.065-5.224-16.257-10.901 3.757-1.572 8.12-.508 12.107-.747 7.214-.016 13.969-.835 21.178-1.782-1.747-2.103-3.356-3.541-4.04-6.176-1.202-3.513 10.237-5.23 12.765-4.651 2.404-3.52 15.091-33.768 18.925-27.793.503 7.195-.096 14.477 0 21.702-.155 1.063.334 2.105 1.069.933 2.234-2.779 18.224-24.082 20.292-18.987.427 17.862-3.904 35.328-10.085 52.013 1.753 1.696 11.295 18.49 4.204 16.366-.853-.774-4.49-3.159-2.988-.45.997 2.215 5.994 11.907 3.658 13.38-2.763.494-4.374-3.252-7.407-3.018 2.672 4.254 6.745 7.211 10.451 10.503 4.107 3.823 8.163 7.711 12.099 11.699 12.291 14.624 27.684 34.792 17.798 54.42 3.96 3.27 8.818 1.215 13.093-.04 8.842-2.787 15.685-9.04 22.88-14.598 7.306-6.006 9.486-16.089 10.232-25.054.061-11.867-3.279-23.84-10.603-33.327-10.247-10.731-23.634-19.562-38.712-21.128-4.578-1.933 2.474-4.328 4.336-4.882 13.513-3.594 27.578 1.043 39.266 7.884.681-4.738.061-9.527-.658-14.249-.737-1.672.3-4.555 2.419-3.116 10.867 8.141 16.692 21.486 19.789 34.324.761.029.708-.466.775-.777 1.047-2.199.756-12.675 4.644-9.694 7.529 15.297 7.286 33.826-.476 49.078 3.898-.237 6.618-3.146 10.06-4.653 8.844-4.52-.908 12.595-3.094 14.443-6.434 7.711-14.854 13.826-24.356 17.283-.908.287-.908 1.111.04 1.016 2.325-.035 4.668.071 6.974-.197 5.232 1.09-1.448 6.86-3.473 8.194-2.608 1.862-5.376 3.457-8.433 4.521-.318.109-.802.114-.866.797 9.887-.63 2.827 5.366-1.902 7.078-4.969 1.94-10.122 3.375-15.381 4.281-11.38 2.042-23.118-.59-32.903-6.597-2.292-1.558-4.9-1.614-7.425-.67l-4.797 8.913c.77 1.298 1.761 2.393 2.111 3.837 1.678 11.034-13.213 3.783-18.985 3.664-7.131-.928-14.314-1.133-21.459.114-5.413.146-18.252 8.921-20.099.378-.593-2.375-3.823-4.52-1.173-6.879 1.759-.625 2.29-2.55 3.771-3.475 2.405-1.502 5.146-1.465 7.575.25.602.483 1.366.721 2.138.665 6.947-.668 13.964.029 20.905-.894 1.414-.532-1.103-3.254-1.213-4.488-.534-1.431-.879-2.925-1.336-4.459-1.582.619-4.352 1.965-4.606-.577-.946-4.499 6.359-13.914-.463-8.753-4.109 1.739-2.404-4.074-2.295-6.241-5.419-5.153-11.404-8.684-19.476-7.389-8.987 13.224-17.607 26.703-25.86 40.437-2.565 5.469-4.925 11.268-9.483 15.446-2.958 3.129-8.834 1.861-10.688-1.862-.575-1.183-1.366-1.712-2.405-2.276-4.724-2.893.08-8.737 4.473-8.258zm64.663-38.897c1.71-1.646 5.285-9.697 7.912-7.828.847 1.818-5.879 7.421-6.311 11.643-.399.947.245 1.635 1.336.901 9.595-4.536 2.923 5.366 1.771 9.511-.534 3.646 4.07-2.603 4.16 3.518-.227 6.685 10.01 12.191.067 12.204-6.474.798-12.975.455-19.46.923-2.138.266-4.23.231-5.983-1.481-.911-.888-2.111-.654-3.308.149 1.101.612 2.774 2.265.802 2.824-1.448.029-2.883-.487-4.305.029-1.707 1.595 1.871 1.425 2.787 1.702 4.31 2.172-4.216 3.26.062 4.427 4.609.532 8.307-3.029 12.657-3.68 4.494-.375 9.085-1.239 13.571-1.159 5.51.231 11.065.265 16.479 1.595 6.172 1.5 15.671 4.43 8.694-5.318 3.824-8.019 10.154-17.256 6.59-26.421-1.043-1.247 0-3.704 1.579-2.457 3.757 4.927 1.87 11.058.89 16.541 1.402.556 2.092-.75 3.206-.798 4.509 2.813 9.327 5.102 14.359 6.823 6.563 2.478 13.745 2.688 20.639 1.728 6.055-1.135 12.313-2.393 17.635-5.584-1.819-.951-6.455-.531-5.83-3.222.334-1.361 1.913-1.476 3.014-1.944 3.966-1.31 7.72-3.184 11.145-5.565 1.237-.606 3.359-2.871 1.705-2.858-1.796-.466-16.032.306-10.092-3.765 1.646-.827 3.265-1.731 4.978-2.393 11.655-5.052 24.644-13.234 28.414-25.898-4.339 1.843-8.259 4.499-13.037 4.297-.222-.005-.439-.074-.622-.199-.184-.126-.327-.301-.412-.506s-.108-.429-.067-.647.145-.419.3-.578c8.526-12.343 9.01-29.131 4.625-43.141-.927-2.579-1.491 1.148-1.817 2.143-.847 1.893-2.084 9.718-5.277 6.793-.559-.531-.535-1.188-.62-1.861-.591-5.009-1.652-9.923-3.864-14.483-3.714-6.647-6.274-14.682-12.807-19.144-.192 5.182.703 10.152-.096 15.249-.281 1.329-1.304 1.731-2.378.949-8.307-5.613-17.942-8.972-27.952-9.745-3.45-.287-6.849.192-10.574 1.175 6.435 2.128 12.658 4.047 18.437 7.711 12.674 7.288 23.33 18.732 26.534 33.221 1.779 8.888 2.893 18.096 0 26.897-1.972 5.318-3.682 11.316-8.252 14.996-10.506 8.243-25.531 22.481-39.837 16.116-2.346-1.375-2.335-1.915-1.282-3.821 9.851-20.575-9.505-43.321-23.699-56.85-1.255-2.965-26.987-22.534-17.253-22.784 1.438-.048 6.811 3.536 6.902 1.715-.954-3.268-2.258-6.366-4.406-9.062-.828-1.005-1.857-2.177-1.221-3.533 1.264-1.527 3.786.46 5.437.547 4.195 1.303-1.603-7.346-4.179-10.861 5.312-15.77 10.191-32.032 10.154-48.823-4.617 2.369-7.415 7.753-11.223 11.338-2.411 2.652-4.534 5.55-6.332 8.646-.433.754-.909 1.482-1.427 2.181-.991 1.329-3.129-.152-2.768-1.633.211-7.889.943-15.749.31-23.624-5.836 7.213-9.067 15.48-13.16 23.587 3.741 2.64 7.575 5.169 10.327 8.992 1.871 2.22 1.633 3.162-1.053 4.292-6.212 2.733-12.261 2.728-18.263-.761-8.991 1.941-17.926 2.167-27.038 2.75.04 1.095-.679 1.946-.134 2.951 4.524 1.699 9.085 3.329 13.564 5.126 5.437 2.3 13.092 6.084 12.825 12.936 1.376 3.877-19.73 33.659-7.831 23.579 3.275-1.106 2.001 2.755.852 4.196-3.474 6.115-6.212 12.659-6.712 19.755 5.801-4.786 4.275 2.287 4.051 5.869.157 1.943-1.222 8.367-.158 9.362l4.492-1.713c1.189-3.688 2.49-7.833 3.674-11.611.192-.617.553-1.008 1.231-.997 2.998.877-.037 5.113-.344 7.115-7.795 23.398-18.109 46.148-31.744 66.754-2.819 3.106-2.544-4.873-6.103-.478-.892 1.999 1.336 3.494-2.771 3.129-1.336.104-3.813-.231-3.823 1.577.125.798 1.111 1.595 1.891 1.47 6.413-2.659 7.797 2.883 4.89 2.776-.865-.694-1.843-.965-2.883-.481-2.202 1.47 3.864 6.1 7.482.63 4.107-4.882 5.862-11.056 9.277-16.347 7.984-13.589 16.863-26.602 25.625-39.703 1.99-2.898 4.489-5.317 6.664-8.024 1.095-1.329 3.011.231 2.031 1.617-1.604 2.624-4.356 4.19-5.473 7.128 7.445-.391 12.489 3.728 18.165 7.7zm-15.69-117.229c-2.405 2.284-4.85 7.956-1.015 9.453 2.137.468 3.035-2.393 4.291-3.654 1.069-1.42.307-2.925 0-4.581zm-19.824 113.349c-2.258 1.553-5.427 6.225-6.33 1.282-1.09.151-1.307.771-1.24 1.486.575 2.095-2.57 1.994-1.63 3.404 1.796-.652 2.672-.468 3.658 1.217 2.801-2.034 5.04-3.475 5.542-7.389zm26.424-109.597c-.145 2.523-1.603 4.129-2.886 6.036 2.854.531 5.114-.309 7.372-1.399-1.074-1.954-2.028-2.949-4.486-4.637zm-16.142-1.712c.23 2.127 1.988 3.355 3.637 4.222 2.068-5.788 3.308-8.001-3.637-4.222z"/><path d="m407.711 234.68c13.793-.508 26.926 5.626 40.225 8.575 3.171.83 8.406 2.311 5.71 6.533-12.583 19.854-27.859 37.756-41.47 56.901-6.576 10.154-14.544 19.258-21.846 28.891-3.343 3.988-6.338 8.336-10.154 11.92-3.102 3.076-7.776.707-11.06-.904-15.644-9.782-31.364-19.564-47.027-29.37-6.827-4.254-8.121-10.054-1.355-14.797 11.07-8.639 21.496-18.046 33.04-26.087 8.382-6.248 16.566-12.762 24.692-19.338 9.966-7.288 19.837-14.246 29.245-22.324zm-88.532 73.668c10.611 10.369 24.967 16.44 37.168 24.887 6.012 3.722 12.024 7.461 17.964 11.29 3.54 2.496 7.118-3.826 9.168-6.116 8.868-11.59 18.057-22.93 26.517-34.85 11.489-15.571 23.765-30.524 35.123-46.167 2.157-3.19 4.626-6.269 6.298-9.731-11.658-4.738-24.606-7.123-36.908-10.205-5.077-1.454-8.588 2.212-12.19 5.185-7.308 5.756-14.696 11.377-22.346 16.684-14.728 12.449-30.771 23.226-45.625 35.505-4.7 4.884-11.49 7.777-15.169 13.518z"/><path d="m328.274 245.258c.166-12.763 5.643-11.258 14.945-16.571 3.054-1.467 11.757-6.647 13.269-1.595 1.173 3.706 1.021 7.846.345 11.678-2.894 6.219-12.305 6.426-17.596 10.237-5.491 3.485-11.075 4.251-10.963-3.749z"/><path d="m256.88 48.5659c-.24 3.7225 1.336 12.6883-4.558 11.9651-4.636-1.4252-11.647-2.1271-11.634-8.333.588-4.225-2.704-21.9413 5.344-18.2188 3.554.7551 6.931 1.8612 9.646 4.326 2.669 2.5287 1.181 7.2323 1.202 10.2607z"/><path d="m406.198 362.036c-3.53.213-5.83-2.904-8.454-4.752-3.626-3.092-.091-7.766 1.87-10.816 4.663-7.091 9.219-14.254 13.833-21.375 1.358-2.223 3.34-4.738 6.173-3.39 3.922 1.579 10.022 3.924 7.284 9.163-3.349 7.179-7.632 13.858-11.399 20.803-2.24 2.627-5.515 11.377-9.307 10.367zm1.261-3.159c6.162-9.37 11.936-18.992 16.786-29.102 1.421-2.491-1.518-3.475-3.319-4.352-3.281-1.561-3.326-1.537-5.264 1.499-1.603 2.526-3.249 5.034-4.876 7.552-3.856 6.115-8.078 12.018-11.49 18.394-1.111 2.624 2.835 3.879 4.275 5.469 1.069.827 2.272 1.024 3.888.54z"/><path d="m338.837 359.54c-4.615-2.028-8.591-5.262-12.631-8.21-2.346-2.859 5.956-9.49 8.321-10.886 3.556-1.742 9.352 4.454 12.366 6.32 2.434 1.731 1.724 3.973-.096 5.927-2.525 2.47-4.289 5.988-7.96 6.849z"/><path d="m367.914 226.55c-1.195-6.669 5.854-7.73 10.217-10.423 1.759-1.037 3.832-1.165 5.7-2.005 3.321-1.861 4.97 1.364 5.013 4.302.689 10.527-4.126 9.229-11.546 13.595-7.201 3.917-9.016 2.449-9.384-5.469zm3.511 4.764c4.008-.507 6.461-3.392 10.193-4.427 1.951-.832 4.476-1.911 4.35-4.398.033-2.05.409-3.988-.446-5.958-4.767 1.539-8.988 3.074-13.2 5.584-2.543 1.34-1.421 6.535-.897 9.199z"/><path d="m312.184 339.047c-3.672-1.691-6.897-4.52-10.004-7.094-2.517-1.811 6.025-7.754 7.585-8.961 4.008-2.619 8.113 2.715 11.621 4.419 4.588 2.564-6.295 11.402-9.202 11.636zm7.366-9.551c-7.732-5.759-7.885-5.719-14.348 1.157 7.77 7.849 8.27 6.16 14.348-1.157z"/><path d="m426.8 127.615c.47 7.464-1.456 8.046-8.257 6.198-4.753-1.037-2.124-8.083-2.105-11.518.588-3.6 6.215-1.994 8.529-.984 2.474 1.12 1.168 4.47 1.833 6.304zm-7.575-4.445c-.433 4.892-2.827 9.112 4.427 8.45.516-1.415.169-2.851.163-4.255-.013-3.693.433-4.06-4.593-4.195z"/><path d="m238.179 121.862c-1.104 36.581.366 73.077-.446 109.682.801 11.143 1.258 39.256-6.648 46.916-4.131 4.52-12.107 3.529-14.766-2.084-3.663-4.183-3.038-9.804-3.367-14.922-1.371-21.776-.155-43.606-.053-65.409-.396-25.502-.997-51.203 1.584-76.606 2.907-15.235 24.326-13.472 23.696 2.423zm-8.818-9.612c-.027 39.484.217 78.809.735 118.273-.425 8.163 2.327 38.166-5.486 41.197-3.837 3.361-8.283-.098-5.143 4.209 2.613 3.722 7.046 2.925 9.397.654 5.235-5.342 5.28-13.938 5.748-21.021 1.373-14.93-.201-29.83.507-44.789.214-21.522-.189-43.027-.328-64.54.093-8.397.267-16.791.35-25.185.107-4.004-1.513-7.315-5.783-8.798z"/><path d="m246.812 255.678c.534-4.829-2.031-12.042 3.874-14.233 5.745-2.577 11.877-4.151 17.791-6.304 6.706-2.518 13.587-4.598 20.163-7.376 4.008-.907 3.74 4.921 3.666 7.527.021 4.254 0 8.49.069 12.736.123 7.203-15.025 10.149-20.505 13.09-4.542 1.72-8.791 4.055-13.427 5.512-2.103.675-4.04 1.914-6.065 2.784-7.64 1.946-4.145-10.274-5.566-13.736zm3.837 11.042c2.781.335 4.668-1.882 7.169-2.637 9.833-4.255 19.941-7.977 29.571-12.686 3.535-1.925 1.729-6.586 2.138-9.859-.364-2.42.769-9.548-.69-10.867-12.475 4.786-25.445 8.45-37.753 13.656-2.431 1.09-1.72 4.1-1.763 6.249.526 5.381-.102 10.901 1.328 16.144z"/><path d="m254.455 186.672c-.139 4.209-5.419 6.913-7.522 2.358-3.319-7.929 7.129-12.255 7.522-2.358zm-4.356-2.986c-1.657 1.175-1.638 6.184.975 4.581.893-1.481 1.141-3.863-.967-4.581z"/><path d="m247.358 208.506c1.755-9.099 10.391-1.981 6.947 4.379-2.621 4.956-7.134-.585-6.947-4.379zm3.369-1.375c-.863 1.832-.842 3.941 1.04 4.767.817-2.991.745-3.334-1.04-4.767z"/><path d="m246.954 164.174c-.468-5.052 5.426-7.711 7.016-2.127 1.411 7.009-6.463 10.59-7.016 2.127zm3.698-2.303c-1.294 1.239-1.136 4.401-.235 4.201 1.098-.694 1.365-3.406.235-4.201z"/><path d="m246.288 126.724c-.355-4.063 5.098-6.648 7.084-2.813 2.867 6.748-5.927 10.944-7.084 2.813zm4.898-.341c-.684-4.102-4.062 1.702-1.01 2.034.97-.167.818-1.372 1.01-2.034z"/><path d="m246.807 145.462c1.643-8.841 10.562-.872 5.763 4.437-2.859 2.417-6.209-.8-5.763-4.437zm3.762 2.619c.748-1.168.86-2.906-.326-3.444-1.539.561-1.194 2.101.326 3.444z"/><path d="m132.107 192.758c.46 2.43 3.474 6.262-.133 7.134-1.662.111-6.948.415-6.819-1.907.336-1.672 2.303-.904 3.489-.898 3.821.856-.085-4.255 0-6.116-.352-2.217 2.33-1.667 3.68-1.483.598-1.5-.455-2.957-.129-4.534 2.472-3.401 2.94 4.448 3.53 5.85.82 2.962-1.427 2.113-3.618 1.954z"/><path d="m401.357 132.484c.337 5.301.307 10.606.134 15.91-.385 7.326.78 17.047-7.583 20.261-23.29 6.459-47.699 8.527-71.343 13.561-6.523 1.502-13.227 1.909-19.773 3.411-11.442 2.659-16.634-2.393-16.164-13.826-.398-22.375.169-44.739-.267-67.138 0-9.5397-1.817-32.5578 4.954-39.1705 5.611-5.1131 19.172 1.7363 25.785 3.4167 22.87 8.4899 45.644 17.2589 68.869 24.7278 7.169 2.6775 16.078 4.9987 15.607 14.797-.31 7.939.19 16.376-.219 24.05zm-2.485-3.88c.019-4.326 0-8.694 0-13.028.128-6.626.858-14.358-6.781-16.592-11.266-4.1638-22.627-8.0432-33.997-11.8826-13.953-5.4906-28.227-10.1969-42.183-15.7354-5.098-1.8293-10.354-3.2598-15.58-4.6717-5.059-1.3029-8.62.4042-9.678 5.7246-3.536 20.346-.978 41.2851-1.336 61.8381.999 14.624-1.604 29.368.724 43.93.986 4.919 6.033 6.156 10.092 5.215 12.681-2.306 25.365-4.558 38.05-6.892 9.434-1.215 18.736-3.047 28.056-4.845 8.916-2.047 18.461-2.239 26.955-5.69 4.257-1.909 5.312-6.2 5.224-10.463.756-8.944.339-17.939.454-26.908z"/><path d="m490.736 198.954c2.29 1.845 2.317 2.036 1.037 4.613-1.355 1.67-2.875 8.732-5.299 7.881-1.972-1.72 1.085-4.768 1.585-6.754 1.336-1.861-.802-1.438-2.026-1.935-.204-.079-.389-.202-.539-.36-.15-.159-.263-.349-.33-.557-.066-.208-.085-.428-.054-.644s.11-.422.231-.604c1.887-2.183 4.096-4.113 6.146-6.137.499-.377 1.028-.561 1.579-.13 1.464 1.622-1.63 3.247-2.33 4.627z"/><path d="m417.509 243.016c3.043.771 5.798 2.292 9.085 1.383 1.982 2.89 6.316 2.957 9.352 4.422 1.069.343 2.156.64 3.388.236 1.723-.619 2.063 1.628 1.152 2.659-11.041 12.29-21.219 25.324-32.81 37.132-1.192 2.084-6.322 5.44-4.446 7.253.705 2.026-1.732 1.665-3.012 1.537-.713.832-1.4 1.638-2.092 2.438-5.878 7.073-12.385 13.582-17.903 20.934-1.68 1.646-6.017 9.221-8.016 8.583-.935-.622-.505-1.641-.427-2.686-5.732-2.659-11.052-6.014-16.767-8.713-.946.872-1.619 1.962-2.939 1.428-.778-.739-.185-1.774.088-2.803-3.541-2.464-7.362-4.493-11.105-6.668-.802.659-1.43 1.25-2.138 1.742-8.604.973 21.27-22.474 22.712-24.699 2.093-2.095 5.628-3.191 5.927-6.504 5.061-1.047 10.84-8.367 15.324-11.619 6.747-5.945 14.015-11.29 20.81-17.177 2.789-2.507 5.611-5.099 8.27-7.71.363-1.646 1.894-2.069 3.027-2.875 1.307-1.13 2.023.391 2.52 1.707zm-43.899 82.091c3.629-4.834 7.143-9.165 10.814-13.826-2.691-1.694-13.895-6.73-16.088-7.208-16.011 16.884-13.868 8.939 5.274 21.034zm12.938-16.392c2.595-3.191 10.13-9.213 10.295-12.763-4.689-1.842-9.17-4.405-13.985-5.807-1.766 2.021-13.218 10.33-11.003 12.059 4.93 2.02 9.635 5.078 14.693 6.511zm12.951-14.674c12.407-14.412 12.423-9.474-4.248-17.081-13.908 14.103-12.361 9.093 4.248 17.081zm-56.216 13.869c1.731 1.473 9.389 6.017 11.171 6.604l11.447-11.896c-3.321-2.265-6.873-4.175-10.597-5.698-2.079 1.455-10.359 9.046-12.021 10.99zm68.152-27.329c12.142-12.047 10.197-9.253-3.765-15.155-5.715 4.631-8.574 7.46-9.728 9.662 4.518 1.667 8.588 4.382 13.493 5.493zm-43.522 19.565c3.797-3.555 7.519-7.036 11.223-10.527 2.311-1.907-8.072-5.297-9.227-5.584-4.197 3.319-8.451 6.602-12.414 10.71 3.573 1.893 6.846 3.885 10.418 5.401zm4.644-18.421c11.976 5.533 7.621 7.211 19.407-5.805-12.278-5.669-8.339-2.547-19.407 5.805zm56.009-20.865c-12.46-3.81-9.042-6.95-18.456 2.454 4.152 1.949 8.054 3.805 12.128 5.071 1.507-1.181 4.954-5.262 6.328-7.525zm-34.154 12.848c3.425-2.491 6.234-5.807 9.424-8.618 1.649-1.579-5.274-2.472-6.437-3.278-1.624-.601-2.76 1.064-3.976 1.861-7.989 7.11-11.196 6.095.989 10.035zm42.119-22.018c-4.08-1.064-7.482-2.699-11.34-3.436-1.937 2.088-4.43 3.723-5.718 6.307 11.995 4.933 10.143 5.972 17.058-2.882zm-29.865 1.494c-5.611 5.036-11.624 5.759-.655 8.49.225.072.463.1.699.079.236-.02.465-.086.675-.196 7.281-6.254 8.406-5.265-.719-8.384zm1.958-2.393 7.399 2.741c2.98-2.624 4.81-4.754 5.571-6.498-8.224-2.747-6.642-1.526-12.964 3.752z"/><path d="m345.303 144.516c-7.268-.202-14.533-.444-21.798-.596-4.385-.09-6.413-2.861-6.785-6.155-.74-7.11-.384-14.276-.534-21.409-.036-1.839.338-3.662 1.096-5.339 1.72-4.255 6.412-4.802 10.42-3.853 10.715 1.699 21.246 4.4 32.033 5.714 5.878 1.513 15.073 0 17.782 6.721.748 2.151.82 4.372.855 6.571-.232 4.828.588 9.976-.989 14.608-2.073 4.623-8.141 3.382-12.291 3.874-6.506-.085-13.627.327-19.789-.136zm8.414-2.882c23.514-.149 22.036 4.188 21.718-18.19-.411-3.847-1.103-5.498-5.245-5.977-5.258-.853-10.544-1.545-15.791-2.459-10.421-1.404-20.693-4.723-31.207-4.97-2.886.231-4.131 3.632-4.064 6.147.08 6.366.12 12.734.222 19.099.168 2.696.71 5.951 4.144 5.789 10.065.22 20.115.752 30.21.561z"/><path d="m363.283 125.873c-2.694 1.641-2.563 7.855-5.077 7.4-2.485-.075-1.069-9.625-3.268-5.661-.887 1.736-.508 5.177-2.859 5.584-2.811.532-1.128-10.567-3.65-6.929-.761 1.757-1.232 3.666-2.06 5.384-3.53 2.965-3.1-5.626-3.925-7.783-1.849 1.16-1.702 2.55-2.288 4.318-.216 1.753-1.902 5.052-3.545 2.441-.748-2.018-.473-4.254-1.954-6.046-1.913 1.494-1.833 3.932-2.463 6.025-.12 2.127-2.974 2.693-3.177.303.219-2.013-2.362-10.513.267-10.556 2.619.415.673 5.393 3.607 1.027 4.994-3.811 3.281 5.738 7.233.265 5.612-4.924 4.11 5.523 7.185 1.032 2.475-2.925 4.69-1.444 5.446 1.883 1.336-1.63 3.581-3.928 5.275-1.444 1.386 3.542 1.603 1.037 3.569-.604 4.695-3.055 5.724 7.012 5.997 9.878-.086 1.699-2.304 1.827-2.707.205-.481-2.268-1.058-4.499-1.606-6.722z"/></g></g></svg>