<svg fill="none" height="50" viewBox="0 0 188 50" width="188" xmlns="http://www.w3.org/2000/svg"><path clip-rule="evenodd" d="m19.8675 9.78553-8.1829-4.73623-8.1829-4.735926c-.35489-.205329-.75748-.3134041-1.16723-.31337399-.40977.0000317-.8123.10816699-1.16716.31355099-.354866.205384-.649557.500782-.854463.856499-.204905.35573-.31278745.75923-.31284699 1.17v18.94495c-.00003282.4108.10781499.8144.31269799 1.1702.204884.3557.499567.6511.854462.8565.35489.2054.75748.3135 1.16726.3135.4098 0 .81241-.1081 1.16728-.3136l8.1829-4.7359 8.1829-4.7362c.3549-.2053.6499-.5008.8549-.8566.2049-.3558.3129-.7595.3129-1.1704s-.108-.8146-.3129-1.1704c-.205-.3558-.5-.65126-.8549-.85657zm0 26.37487-8.183-4.736-8.18314-4.7358c-.35482-.2054-.75736-.3136-1.16711-.3136-.40977 0-.81233.108-1.1672.3134-.354872.2054-.64952.5008-.854388.8564-.204868.3558-.31270307.7594-.31266199 1.1702v18.9448c-.00000202.4108.10783099.8142.31269799 1.17.204868.3558.49954.6512.854392.8566.35484.2054.75736.3134 1.16711.3136.40977 0 .81229-.1081 1.16716-.3135l8.18314-4.736 8.183-4.7358c.3549-.2054.6499-.5008.8548-.8567.205-.3558.313-.7596.313-1.1705s-.108-.8146-.313-1.1704c-.2049-.3559-.4999-.6513-.8548-.8567zm15.1548-17.9233 8.1829 4.7362c.355.2054.65.5008.8549.8565.205.356.3129.7596.3129 1.1705s-.1079.8146-.3129 1.1704c-.2049.3557-.4999.6513-.8549.8565l-8.1829 4.736-8.1829 4.7362c-.3548.2054-.7575.3134-1.1671.3134-.4098-.0001-.8124-.1082-1.1672-.3136s-.6496-.5008-.8545-.8565-.3128-.7593-.3128-1.1701v-18.9448c-.0002-.4108.1078-.8144.3127-1.1701.2049-.3558.4995-.6512.8545-.8566.3548-.2054.7575-.3136 1.1673-.3136.4096.0001.8123.1082 1.1671.3136zm34.3289 18.4353v-27.45642h11.7732c6.0502 0 9.8519 2.99172 9.8519 8.19612 0 4.5486-2.7797 7.2942-7.6036 7.54v.3279c2.0032.6559 3.1886 1.8852 4.2106 3.7701l4.0879 7.6223h-5.1099l-3.8848-7.0897c-1.2672-2.3765-2.4117-3.4831-5.6823-3.4831h-3.2276v10.5731zm4.4151-14.2202h7.8895c3.5577 0 4.9055-1.3114 4.9055-4.6308 0-3.2372-1.3491-4.6306-4.9055-4.6306h-7.8892zm28.8207-6.5573c-6.0501 0-9.8112 4.2626-9.8112 10.5731 0 6.351 3.1478 10.6143 9.8502 10.6139 5.478 0 9.117-2.705 9.117-6.8847v-.3686h-4.375v.3275c0 1.8442-1.308 2.9917-4.701 2.9917-4.2525 0-5.6-1.885-5.7637-5.6144h14.7577c.163-.9198.245-1.8523.245-2.7865 0-5.5733-3.841-8.852-9.319-8.852zm5.11 8.6885h-10.7516c.2463-3.1556 1.7169-4.9571 5.5596-4.9585 3.475 0 5.355 1.4747 5.192 4.9585zm7.562 19.1785v-27.4566h4.006v3.3603h.205c.94-2.377 3.27-3.7703 6.786-3.7703 5.723 0 8.87 4.1395 8.87 10.6137 0 6.434-3.066 10.5731-8.584 10.5731-3.639 0-5.888-1.6808-6.786-3.5665h-.123v10.2451zm9.934-10.4499c3.883 0 5.518-1.8035 5.518-6.803 0-5.04-1.594-6.8434-5.518-6.8434-3.598 0-5.56 1.5979-5.56 4.9999v3.6469c0 3.402 1.962 4.9996 5.56 4.9996zm13.447-24.09602v27.45642h4.415v-27.45642zm7.642 22.41572c0-3.3603 2.453-5.1227 6.786-5.7369l7.113-1.0655v-1.1069c0-3.0321-1.39-3.9338-4.578-3.9338-3.229 0-4.497 1.0245-4.497 3.7294v.6144h-4.25v-.4103c0-4.5485 3.557-7.8272 8.993-7.8272 5.682 0 8.544 3.4427 8.544 8.401v12.3761h-4.088v-3.1961h-.205c-1.185 1.9251-3.515 3.6064-7.358 3.6064-3.639 0-6.46-1.8851-6.46-5.4506zm7.89 1.9251c2.862 0 6.009-1.1468 6.009-5.245v-.3688l-6.459.9832c-2.329.3282-3.148.861-3.148 2.3773.001 1.5985 1.023 2.254 3.598 2.254zm13.695 6.1074v3.6057c1.003.2488 2.033.3728 3.066.369 3.189 0 5.152-.9426 6.664-4.5486l9.607-22.7851h-4.867l-3.719 9.8763-1.677 4.426h-.326l-1.84-4.426-4.089-9.8763h-4.863l8.625 19.8342-.776 1.7213c-.655 1.5161-1.268 1.8035-3.025 1.8035z" fill="#fff" fill-rule="evenodd"/></svg>