<svg fill="none" height="821" viewBox="0 0 529 821" width="529" xmlns="http://www.w3.org/2000/svg"><path d="m532.435 747.371c-8.188 3.715-16.315 7.74-24.585 11.227-3.638.244-6.738 2.065-10.037 3.3-.685.256-1.434.59-2.123.537-3.593-.272-6.563 1.536-9.671 2.82-18.617 8.469-36.542 19.215-55.973 25.322-10.287 5.858-20.418 12.111-31.177 17.049l-2.367-2.062-5.019 3.504c-.183.437-.307.898-.366 1.369.525 3.89-1.886 6.518-3.557 9.744h-12.445c.595-2.179-1.352-2.632-2.583-3.556 0-.815-.216-1.63.041-2.253.982-2.408.815-4.889.888-7.406.135-5.915 1.389-11.668 2.941-17.35 1.748-4.192 5.919-7.028 9.606-9.505 1.784-1.038 4.135-.606 5.671-2.24 7.61-2.078 13.586-7.915 21.407-9.276 19.962-8.119 39.797-17.224 60.027-24.952.677-.277 1.467-.542 1.923-1.059 2.571-2.917 6.298-3.74 9.569-5.369 4.229-1.63 8.148-4.424 12.71-4.889.974 0 2.005-.448 2.93-.876 8.554-3.971 17.545-7.023 25.88-11.52 2.982-1.377 2.171.529 6.31-.978z" fill="#f4bdec"/><path d="m532.436 55.6543c-3.463.6437-6.795 1.9106-10.425 1.8047-1.406-.0448-2.852.6844-4.257 1.1162-7.154 1.8006-15.11 6.6321-22.092 2.1346-8.233-4.0737-17 1.1203-25.457 1.7843-3.988.6274-7.671 2.1306-11.48 3.2794-1.862.4522-4.033 2.1143-5.634.273-.269-.2974-.228-1.1651 0-1.5929 1.992-3.6338 1.373-7.3572.489-11.0887-1.87-3.2998-1.157-4.9252 2.004-6.8603 3.752-2.2283 4.828-7.3327 9.5-8.2167 3.259-.8555 6.482-1.8536 9.871-2.375 4.554-.88 8.872-3.2305 13.394-4.4445 14.609-4.7663 29.401-8.6853 44.087-13.1012z" fill="#f4bdec"/><path d="m532.435 173.753c-7.532 1.52-15.219 1.817-22.878 1.756-3.797.085-6.168-1.463-7.74-5.133-2.97-6.824 3.768-14.666 1.564-18.149-1.377-2.367-2.098-4.888.192-7.235.925-2.831 1.149-3.76 4.342-4.012 4.518-.485 9.122-.815 13.599-1.422 3.703 1.165 7.3-.139 10.938-.436z" fill="#f4bdec"/><path d="m532.436 114.259c-4.204.725-8.4 1.503-12.629 2.159-4.929.135-11.785 3.471-15.668-.68-2.79-1.63-3.434-2.595-1.605-5.601 2.22-5.679-2.88-2.241 2.037-13.122-1.821-.6844-3.666-1.658-3.063-3.8171.407-1.7803 1.067-3.8619 2.916-4.5341 1.386-.5189 2.845-.8158 4.323-.88 8.045.0367 15.671-2.876 23.676-2.8271z" fill="#f4bdec"/><path d="m514.771 468.545c3.259.815 3.357.933 3.426 3.667.106 4.073-.268 4.949-3.564 8.225-1.279 18.763 3.259 37.885-1.312 56.38-.639 3.141-4.233 9.37-7.968 7.826-3.76-2.037-8.082-1.552-12.034-2.473-5.479-2.876 2.558-5.296 5.068-6.583.098-1.022.191-2.037.305-3.206-1.446-1.222-4.155-1.829-4.22-4.009.069-.814.786-1.222 1.589-1.222.737 0 1.584-.159 2.195.143 2.881 1.409 5.435.098 8.433-.705-.448-2.306-1.703-3.116-3.666-3.984-7.333-3.398-12.291-10.29-20.007-12.963-2.13-.643-5.483-2.102-2.517-4.257 3.259-.648 6.775.094 9.777-1.743-.159-.44-.212-.893-.35-.921-6.486-2.167-8.796-6.595-17.045-6.767-2.241-.57-6.176 0-6.982-2.709-.408-2.11 2.342-2.208 3.703-3.018.228-3.406-9.37-3.047-11.892-3.023-1.658.029-5.271.517-4.888-2.086 1.568-6.453-1.133-12.816-.338-19.37.766-11.513-6.816-21.335-6.298-32.815-1.838-16.906-6.926-33.539-11.981-49.781-.51-1.499-.717-3.259-2.917-3.899-1.768 3.875-2.497 8.026-4.921 11.651-2.889 8.417-2.522 18.21-6.355 26.529-2.746 5.854-2.363 12.482-5.231 18.189-.468.644-.481 1.666-.574 2.526.57 4.314-2.351 9.17-7.085 6.656-2.375-1.853-5.654-1.707-7.74-4.008-1.927-2.599-4.424-2.151-6.958-3.667-3.721-11.964-8.402-23.608-13.997-34.818-1.255-2.061-1.569-4.363-1.662-6.791.106-10.669 2.529-21.106 1.943-31.775.57-6.29.652-12.739 3.312-18.597 1.927-5.52 7.826-5.589 12.681-6.147 3.369-.664 5.537 2.301 8.653 2.851 6.746 2.139 13.529 4.266 20.275 6.437 5.557 1.915 10.853 4.668 16.703 5.703 5.361 1.092 10.648 2.314 15.374 5.296 1.222.774 2.738 1.088 4.147 1.524 2.538.786 5.113 1.466 7.646 2.269 2.917.904 6.07 0 9.012 1.279 5.85 1.308 11.361 4.888 17.411 4.827.738-.113 1.491-.072 2.212.122.721.193 1.394.535 1.976 1.003 5.605 4.163 11.105 8.261 15.81 13.386 1.161 1.54 1.222 4.004 1.536 5.882.362 14.177 1.984 28.28 1.568 42.461-.896 12.12-.884 24.378-2.253 36.505z" fill="#f4bdec"/><path d="m394.453 164.905c-8.148.929-17.762-2.905-15.419-12.609.635-1.788.22-3.389 0-5.161-.612-5.425-.378-10.913.692-16.267.379-2.391 1.459-4.033 4.115-4.517 5.646-1.039 11.207-2.498 17.048-2.29 3.822.135 7.671.237 11.464-.713 12.189-.334 24.402-1.747 36.643-1.963 18.332.725 12.694 7.104 14.69 20.776.351 4.224 1.483 12.295-2.741 14.849-3.699 1.519-7.504 2.774-11.456 3.283-18.332 2.037-36.663 3.398-55.032 4.681zm12.608-20.308h.094c-.245-3.996 1.291-11.341-4.77-10.722-6.303.758-13.489-1.161-13.538 7.614.074 2.941.355 5.874.485 8.815-.342 4.204 3.035 5.052 6.445 5.618 11.37.522 11.537-.053 11.284-11.325z" fill="#f4bdec"/><path d="m283.081 667.369c-2.469-1.548-4.355.615-6.588 1.609-8.905 3.948-17.953 7.578-26.785 11.7-4.236 2.115-9.157 1.768-13.516 3.846-4.481 1.149-8.702 4.196-13.387 3.964-2.941-.933-5.34-1.654-5.951-5.06-1.259-3.736-2.013-7.74-4.653-10.844-3.853-4.518 3.773-8.555 7.264-10.185 6.294-2.106 12.796-3.597 18.829-6.448 3.703-2.066 4.77.586 7.646-.738 3.866-1.417 7.814-2.705 11.663-4.127 3.565-2.851 8.115-3.47 12.095-5.389 2.876-1.381 6.009-1.377 9.126-1.316.595-.009 1.182.15 1.691.46.51.309.921.755 1.189 1.288 1.723 3.116 3.919 5.858 6.273 8.526 1.174 1.662 2.555 3.829 2.64 5.96-.236 3.194-4.029 6.742-7.536 6.754z" fill="#f4bdec"/><path d="m315.752 475.307c-13.549-2.07-7.577-4.983-18.658-10.348-6.518-3.442-6.139-8.555-4.135-14.808 1.94-5.891 3.911-11.777 6.111-17.574 1.63-4.282 3.593-4.632 7.439-1.96 2.249 1.569 2.778 3.259 2.106 6.021-1.263 5.211-2.29 4.803 3.292 7.162 6.55 3.581 15.887 5.117 13.003 14.641-1.797 6.103-3.935 12.857-9.158 16.866z" fill="#f4bdec"/><path d="m261.172 433.694c1.169-4.709-1.3-26.825 7.113-23.159 3.185 1.63 5.507 3.789 5.507 7.822 0 2.851 1.141 3.813 4.135 4.073 4.392.502 9.737 2.852 9.187 8.111.484 6.751-1.288 13.081-3.471 19.416-1.068 4.954-5.606 3.332-8.832 1.454-11.582-7.035-14.258-1.25-13.403-17.684z" fill="#f4bdec"/><path d="m170.995 570.463c4.567-1.841 9.129-3.002 13.362-5.1 4.652-2.078 11.553-4.107 14.592 1.548 1.344 3.328 3.813 5.947 5.622 8.962 1.36 2.277 2.574 4.632 4.656 6.379.179.151.163.542.314 1.117l-4.314 3.866c-4.844-.986-10.686 1.173-15.171 3.454-2.644 1.556-5.703 1.169-8.555 1.842-1.181.277-2.122-1.072-2.485-2.196-2.106-6.909-9.626-12.075-8.021-19.872z" fill="#f4bdec"/><path d="m381.128 289.105c-2.343-2.07-2.538-4.889-1.797-7.443 1.948-10.127 1.316-20.516 2.677-30.741.863-7.475 2.676-14.759 3.805-22.169-.245-2.469 2.313-4.889 4.986-3.609 1.829 1.108 2.876 2.717 2.88 4.684-.13 5.129-.049 10.356-.688 15.432-.387 5.414-.815 10.893-1.092 16.295-2.119 6.049-1.471 12.539-3.06 18.682-1.169 5.834-2.513 6.184-7.711 8.869z" fill="#f4bdec"/><path d="m279.059 517.275c-1.258 2.445-3.043 3.284-4.941 3.504-5.577.647-10.926 2.301-16.397 3.397-2.065.408-4.041.713-5.263 2.363-4.864-.965-5.756-1.947-8.429-5.895-.982-2.163-7.475-7.842-3.442-9.369 8.033.383 24.308-7.936 30.007-4.139 3.324 2.927 6.179 6.347 8.465 10.139z" fill="#f4bdec"/><path d="m261.355 499.364-2.171-1.222c-8.437 5.524-1.161-15.802-2.115-19.44-.761-12.588 17.954-6.111 13.126 3.76-.322 6.013 8.396 6.335 12.295 8.893 3.295 3.145-3.903 3.54-5.809 3.666-2.64.098-5.089 1.63-7.806.986-2.473 1.133-5.027 2.338-7.52 3.357z" fill="#f4bdec"/><path d="m405.501 7.13184c1.687.81475 2.318 1.89022 2.334 3.33636.037 3.6664.294 7.3817 0 11.0359-.342 4.4811-2.143 4.7622-6.078 5.5973-.912.1915-1.699-.3666-2.204-1.1773-1.593-4.2856-1.662-8.9623-.611-13.419.591-3.37305 3.887-3.96782 6.559-5.37326z" fill="#f4bdec"/><g fill="#2b1c4a"><path d="m250.824 820.022c-.607-29.274-1.006-58.552.118-87.818-.407-17.11 9.472-23.429 23.681-29.93 10.739-4.97 22.373-7.659 33.332-12.034 5.296-2.383 10.877-3.752 16.462-5.63.945-2.004 1.018-4.074.558-6.286-1.687 0-2.09 1.361-3.023 1.976-6.033 3.764-2.037-16.14-4.721-19.008-4.152-1.532-10.543 10.078-13.444 5.19-1.434-9.896-.212-20.202-2.574-29.971-1.407-4.984-2.885-9.943-4.433-14.877-.88-2.815-1.222-3.215-3.699-5.671-33.918 7.854-66.435 20.947-99.766 30.741-18.393 4.725-41.332 17.289-57.285.932-13.765-19.647-20.776-43.446-31.531-64.85-2.705-6.074-5.3245-12.188-7.9358-18.307-2.151-6.327-6.5181-12.372-6.1962-19.241 2.4931-9.512 31.914-14.816 41.092-17.716 15.977-4.27 31.953-8.592 47.928-12.967 16.368-5.015 33.433-6.204 49.569-12.067 4.306-27.559 3.109-55.509 4.824-83.284.383-18.531-.697-37.478 3.707-55.631.354-1.087.766-2.037 1.813-2.285 3.666-.945 5.988-4.559 10.058-4.074 19.444 1.161 36.329 19.876 54.344 27.364 1.295-3.259 2.444-6.07 3.259-9.264-.721-1.08-1.443-.281-2.094-.334-2.367-.184-3.789-2.005-3.182-4.257 2.163-4.848 5.003-9.37 6.351-14.588 5.591-16.897 9.649-34.263 12.124-51.888-8.123-4.184-18.12-4.758-25.03-11.048-3.699-3.235-3.511-8.437-2.546-12.849 1.373-6.51 2.368-13.095 2.978-19.721 3.145-19.859 2.897-40.163 7.089-59.839 1.576-5.296 5.585-10.449 11.406-11.117 12.14-1.915 24.227-.159 36.403.537.852-3.112.571-5.903.408-9.007-.599-7.117.11-14.185.598-21.269.526-17.44.123-34.892.738-52.344.065-7.536 1.32-16.1113 8.054-20.5965 22.756-9.1497 47.459-12.5431 71.246-18.3523.118-.8148.407-1.548.301-2.2243-.851-5.5933-.147-11.2273-.57-16.8287.114-6.8928-3.475-16.1076 3.597-20.6336 8.237-5.8132 18.666-7.1942 28.158-10.164 23.285-5.5444 45.886-13.86708 69.384-18.348217v2.664237c-2.982 2.15502-6.587 2.50536-9.993 3.38937-14.845 3.39344-29.376 7.88271-43.96 12.22131-13.411 3.976-27.632 5.8621-39.858 13.036-2.884 1.3403-4.558 4.8437-4.24 7.9927.756 7.0593.934 14.1686.533 21.2569-.159 2.2871.156 4.5824.925 6.7421l12.115-2.7783c2.644-10.8973-2.851-22.1369 10.633-28.0112 22.898-8.6771 47.443-12.3924 70.663-20.1977.815-.5011 1.715.1996 2.111.8147.879 1.9799-1.589 2.9535-3.084 3.4383-20.108 5.9721-40.453 11.0928-60.699 16.5232-11.496 2.8516-16.206 17.3583-11.985 27.4123 2.232-1.9921 4.196-2.6031 6.994-2.872 7.834-1.491 15.615-3.1857 23.319-5.2959 5.817-1.768 11.765 0 16.181 4.2815 10.184-1.6824 20.046-6.2736 30.357-6.461v2.6643c-9.431 3.3242-19.611 4.2408-29.131 7.4794 1.393 6.3225.33 12.5553 1.197 18.5804 9.272-.11 18.585-2.4931 27.934-2.9738v4.4404c-.794.7781-1.792.8718-2.851.9899-8.295 1.3362-17.074 1.1773-25.095 3.6053-.709 6.3347-.729 23.3752 0 26.8502 9.317-.249 18.56-3.194 27.946-2.143v2.664c-9.186 2.037-18.914 1.381-28.068 3.63-.367 4.889-.106 12.91.505 15.757 9.223 1.251 18.299-2.191 27.563-1.629v4.436c-8.995 2.444-18.788 1.312-27.921 3.088-.208.627-.453 1.035-.461 1.442.147 9.643-1.14 19.481-.061 29.038 9.411 1.002 18.98.191 28.443 1.063v2.664c-1.344.815-2.852.616-4.314.664-7.903.636-15.928-.786-23.746-.325-.717 3.833-.745 12.917-.032 16.181 9.312.855 18.849-.408 28.108 1.222v2.664c-9.585 1.287-19.252-.815-28.923.122-.974 19.265.851 38.53-1.222 57.742-.408 17.623-9.659 20.544-25.372 17.887v16.764c5.349 2.391 10.942 4.261 15.419 8.029 2.037 3.149-2.277 3.333-4.391 3.015-.66.02-1.507-.2-1.907.97 1.944 2.102 9.859 5.947 9.081 8.787-.733 2.171-3.463 1.067-5.162 1.254-.953.025-2.008-.493-3.059.563 1.581 2.138 5.903 2.762 4.481 6.204-8.147 2.595-18.23 9.459-19.961 18.332 5.931 5.809 8.212 13.745 12.775 20.532 7.434-9.14 13.015-19.641 16.429-30.916 1.202-3.825 1.724-7.785 2.131-11.765.175-1.719.933-2.624 1.898-2.542 1.553.093 2.058 1.495 2.477 2.762 2.616 8.184 3.259 16.136 2.502 24.74 2.696-3.406 2.831-6.38 4.554-9.753 2.22-2.668 4.017 1.071 3.776 3.259.216 8.298.127 16.572-2.244 24.642-.171.583-.607 1.389.509 1.956 9.622-10.478 5.251 15.667 1.898 18.841 3.907 8.986.872 18.539 1.332 27.913 1.084 37.568 1.06 75.137-1.295 112.599-.236 7.105-1.532 14.099-1.964 21.183-.309 6.254-4.717 10.331-10.999 8.181-5.756-1.891-11.443-4.013-17.11-6.188-1.67-.664-3.067-.705-4.635.089-4.816 2.705-9.688 3.948-13.937 7.769 6.176.456 5.374 3.915.754 6.151-13.651 8.612-20.56 15.786-27.111 30.643 14.291 8.865 27.905 19.46 36.419 34.326 2.791 5.185 6.026 10.257 7.541 16.005.244.945.277 2.037 1.744 2.791.468-10.792.472-26.94-9.256-33.751-.913-.489-.733-1.939.126-2.673 3.813-3.259 9.899 4.824 13.199 6.783 10.698 8.787 11.745 16.792 13.827 29.527 3.389-5.471 3.857-11.317 5.238-17.375 3.826-5.548 6.298 5.703 6.225 8.486-.102 7.817.261 15.716-.493 23.489-1.255 8.062-3.043 15.977-6.326 23.494-.281.635-.693 1.344.252 2.069 2.493-.367 7.94-4.237 8.372.31-.872 8.387-4.53 15.842-7.74 23.578 1.955.326 3.169-1.095 4.953 0 2.233 1.443 2.392 4.457 2.037 6.8-.077 1.878-3.532 9.577-2.35 10.029 5.153-1.658 10.058-4.314 15.443-5.088v2.664c-4.253 2.982-8.942 5.105-13.732 7.056-2.701 1.1-5.757 1.414-8.018 3.544-.329.299-.753.472-1.197.489-3.862-.061-7.036 1.976-10.405 3.385-8.273 3.932-17.048 6.649-25.065 11.13-1.874 1.128-4.038 1.809-6.111 2.57-17.994 5.911-35.157 13.717-52.209 21.889-6.457 2.9-12.719 6.237-19.432 8.575-10.323 3.41-22.3 8.636-21.465 21.591-.281 7.206.868 14.963-1.348 21.864h-8.881c-.892-2.298 1.316-11.961-.921-11.814-3.589 5.561-10.037 7.83-15.073 11.814h-43.479c-.635-2.497-7.1-3.988-9.369-7.74-12.348-14.792-11.407-36.465-5.211-53.713 8.726 1.947 16.413 5.948 24.805 8.742 5.182 1.222 18.678 9.586 22.76 6.486 14.259-8.058 26.851-18.479 40.257-27.702 2.485 7.276 2.75 14.959 1.719 22.544-.407 2.445-.847 4.922-.407 7.598 10.999-4.363 20.988-9.92 31.91-14.466-1.854-22.446 2.037-44.632 1.731-67.087.082-6.807.204-13.61.192-20.417.407-5.475-3.015-11.631-9.207-10.796-24.968 5.459-48.311 16.703-72.252 25.465-18.259 7.272-37.198 12.653-55.762 19.086-17.741 5.899-17.489 26.479-17.786 42.102.265 9.606-.379 19.228-.53 28.834-.623 13.639 1.121 27.649-.814 41.092zm246.145-296.065c-5.162-3.666-1.63-3.491-4.481-5.198-5.997-3.821-12.01-7.602-19.09-9.17-1.959-.041-4.074-2.273-2.037-3.756 3.227-1.63 6.086-2.53 9.741-4.074-7.26-3.373-14.751-3.845-22.435-5.239-3.336-2.705 2.4-4.281 3.565-6.607-3.336-1.426-10.93 1.222-12.877-1.027.428-34.843-7.973-69.563-18.666-102.516-2.163 3.259-2.787 6.62-3.964 10.184-5.231 19.848-10.592 39.646-16.421 59.335-.489 1.845-1.031 3.943-3.842 2.929-.216-.078-.582.11-.815.264-1.576 1.072-3.259 2.037-4.68 3.288-2.828 2.444-4.416 2.118-5.162-1.458-6.167-24.83-15.716-48.775-27.351-71.532-8.844 33.442-10.628 68.207-12.861 102.517-.578.513-.864.928-1.251 1.079-3.022 1.182-5.165 3.381-7.023 5.923-3.805 5.394-8.424 10.482-10.123 17.021 2.668 1.328 14.022-4.767 12.69 1.511-1.446 3.259-13.073 20.511-10.592 22.813 18.739-5.96 9.41 3.98 7.431 14.82 6.448-.224 12.722.066 19.146-.26 3.667-.237 6.926 1.454 9.622 3.931 2.612 2.159.616 4.456-1.482 6.229 12.046 2.505 24.145 7.544 32.3 17.016 2.852 3.666.506 5.385-2.199 6.978-3.439 2.799-7.072 5.406-10.246 8.482-16.409 16.608-26.422 38.24-35.914 59.195-7.977 1.418-14.975-3.589-20.573-8.554-12.359-11.293-17.843-27.364-24.1-42.449-2.004-4.942-3.996-9.85-8.343-14.038 5.52-4.151-.407-15.696-5.003-18.74-3.919-3.222-10.661 1.349-10.078 6.164 3.014 2.444 6.054 4.371 8.323 7.447.623 1.014-.542 1.919-1.467 1.935-1.471-.143-2.444-1.63-3.544-2.444-5.019-3.63-11.891-9.191-18.357-6.372-4.505 2.18-4.436 6.518.355 9.5 1.141 1.662-.949 2.958-2.477 2.225-9.117-1.679-17.851 15.036-4.481 14.258 3.039-.432 6.384-2.269 9.398-2.009 5.646 1.752 11.252 3.667 15.961 7.48 7.027 5.165 7.858 14.258 10.494 21.97 3.198 9.443 1.41 19.501 3.813 29.078 4.196-3.903 12.657-8.555 13.643.232.815 3.809-.481 8.148 1.222 11.708 6.979-1.222 5.846 4.51 6.461 9.284 13.99-4.143 27.681-8.868 41.508-13.492 9.121-3.006 18.258-5.96 27.384-8.962 5.145-1.691 10.143-1.776 14.922 1.161 1.829.48 3.194 1.796 3.454 3.666 1.996 11.407.078 23.017.322 34.517-.069 10.808-.493 21.591-1.532 32.346-.741 7.683-.814 15.358-.692 23.053.024 1.446-.183 2.966.851 4.481 6.926-2.403 13.529-5.731 20.255-8.64 1.193-.575 2.252-1.393 3.108-2.404 18.475-22.161 36.819-46.143 44.51-74.386 1.964-8.482 5.182-17.29 4.278-26.04-7.956-26.915-23.343-46.848-48.511-59.774 1.084-6.962 5.842-12.283 9.003-18.369 3.777-6.216 9.879-10.082 15.342-14.506-1.54-2.335-3.32-3.557-1.079-5.704 8.579-8.885 21.566-10.881 31.738-17.297-1.886-2.151-8.677-5.495-7.683-8.29 1.275-2.526 8.054-.542 10.592-.713zm-63.783-142.211c10.148-2.069 19.554-4.33 29.857-3.772 7.65.2 15.557 1.968 21.293 7.373 7.194 7.313-2.204 17.636-8.017 22.704-8.738 8.053-21.017 10.852-30.203 17.961.293 4.383 4.151 25.057 5.215 27.823 10.966-2.647 24.85-3.096 33.743-10.498.545-.774 1.629-1.719 2.444-1.658 3.764.078 7.231-5.528 10.115-7.377 0-1.304-.02-1.882 0-2.444-.224-4.209 5.259-5.826 7.027-1.768 1.084 2.106 1.316 4.395-1.47 4.762-5.068 1.222-7.464 6.449-11.167 9.683-.362 3.707-4.318 4.111-6.049 6.559-2.326 3.784-7.203 5.703-7.948 10.364-.033.619-.725 1.266-1.243 1.768-2.403 2.33-6.11-.318-5.32-3.304.31-1.202.892-2.273 2.143-2.632 3.373-.97 5.055-3.784 7.834-6.714-4.726.958-8.099 2.477-12.629 3.524-5.703 1.479-11.606 1.972-17.203 3.911.492 8.897 2.293 17.432 1.629 26.37-.037.505.326 1.034.485 1.507 3.084.02 20.442-.542 16.165 5.345-1.63.896-2.893 1.002-4.323 2.505 2.779.216 31.6 6.652 22.98 11.081-3.222.875-6.721-.07-9.41 2.387 2.876.762 40.11 21.183 24.781 21.082-1.675.203-8.816-1.565-8.897.35 2.342 2.037 8.779 6.518 2.77 8.241-2.159.493-3.414.815-5.431 2.22 9.333 2.717 16.939 8.25 17.9-5.882.905-24.386 1.443-48.783 2.037-73.181.628-23.013 2.852-46.176.628-69.14-.921-13.179-15.338-18.251-26.129-21.864-15.028-3.846-29.845-8.465-44.559-13.382-14.731-4.445-28.977-10.217-43.846-14.189-6.644-2.888-16.918-.126-17.656 8.115-.843 8.253-1.397 16.503-1.12 24.793-.379 7.817-1.063 15.627-1.629 23.436-.08 1.469.2 2.936.814 4.273 4.074 10.152 8.763 20.055 12.169 30.472.195.705.536 1.362 1.001 1.927.464.565 1.042 1.028 1.695 1.357 4.441 2.358 8.824 4.819 13.248 7.206.852.46 1.671 1.222 2.889.766 5.296-18.279 11.74-37.792 14.865-55.945-6.135 1.825-12.124 4.55-18.047 7.023-2.294.978-4.461 1.935-5.536 4.644-2.343 4.274-8.213-1.853-4.074-4.624 8.579-6.175 14.902-14.722 22.923-21.472 1.744-.86 1.405-3.125 2.322-4.608 1.422-2.297 5.149-1.764 6.225.644 1.364 3.813-4.049 3.418-6.233 6.966-3.381 3.531-6.749 7.068-10.103 10.612-.342.367-.99.689-.546 1.389 4.889-1.018 9.753-3.377 14.629-4.843 2.261-.664 2.037-3.39 3.015-5.109 2.428-3.735 3.328.77 3.947 3.263zm-101.624-77.768c18.271 4.669 36.257 9.541 54.588 13.717 5.911 1.743 8.889-2.616 9.464-7.989 3.972-30.056 5.43-60.328 9.035-90.409 3.907-25.001-4.607-19.244-23.949-22.19-15.623-2.913-31.49-2.481-47.301-3.141-6.203.057-12.408.123-18.617.196-3.874.045-6.428 2.086-7.777 5.548-4.191 13.374-4.073 27.763-5.377 41.626-2.163 13.729-2.693 27.661-5.646 41.279-.298 1.414-.179 2.946-.061 4.408-.338 5.223 20.332 12.629 24.85 12.498 1.381-5.295 2.639-10.787 2.851-16.466-3.495-3.104-7.108-6.591-7.332-11.581-.681-5.581 2.407-7.382 7.593-8.266 3.438-6.828 12.042-10.592 15.859-1.837 4.799-.33 10.734-.489 10.624 5.67.22 8.189-6.518 14.666-14.437 15.338-2.485 6.893-3.096 14.071-4.367 21.607zm125.321-53.773c2.827-7.06 5.349-13.366 7.887-19.669 2.803-8.343 5.846-.928 6.925 3.418 1.137 5.182 1.63 10.527 2.55 15.741 1.426 2.742 3.756-.558 3.871-2.407 3.022-27.07-2.229-54.422.814-81.541 1.222-21.004 3.434-42.367 1.284-63.314-1.41-7.2513-22.308-1.19-28.012-1.422-19.122.66-37.706 5.508-56.666 7.659-8.335 1.503-17.435.375-25.367 3.308-4.208 10.184-3.312 21.623-3.825 32.435-.163 15.651-1.222 31.107-.607 46.751 4.937.431 9.569 1.405 14.555 1.336-.069-4.388.514-8.339.717-12.661.212-3.259 1.996-5.121 5.125-5.802 11.814-1.568 23.942-1.34 35.878-1.348 12.575 0 25.159 0 37.694 1.116 4.685.542 6.926 3.292 7.166 7.085.407 5.902.041 11.813.138 17.737.086 5.059 1.43 10.905-3.185 14.482-5.785 5.609-14.197 2.061-21.306 2.314-10.368-.139-20.735-1.222-31.079-.611-.558 8.84-1.841 17.448-2.073 26.312 10.506 1.74 20.646 4.094 30.96 6.689.982.237 1.976.648 3.084-.248 1.055-5.907 1.899-12.221 3.259-18.141.786-2.591 3.923-1.067 4.4.954 2.236 6.88 3.817 12.486 5.813 19.823zm-97.016-59.852c.435-13.093-.33-26.093.737-39.157.855-12.837-.676-26.422 3.988-38.599 1.279-4.693 6.543-5.108 10.624-5.65 7.773-.982 15.615-1.292 23.363-2.612 9.912-1.69 19.901-2.904 29.82-4.5662 10.356-1.8739 20.878-2.0369 31.303-3.3486 6.873-.5622 13.818-2.7661 20.658-1.0226 5.17 1.1285 4.889 8.2784 5.19 12.5024-.428 33.865-5.255 67.592-3.365 101.457-.269 13.211 1.87 26.801-.977 39.784-.673 3.573-3.296 4.6-6.136 6.355l1.357 11.814c22.243 7.398 18.128-5.296 18.446-21.762.346-21.277 1.703-42.562.705-63.864-.277-3.539-.302-7.094-.074-10.637 1.292-15.35-.256-30.761.897-46.119.867-8.147-.355-16.242.146-24.357.501-8.1146 5.231-41.9961-7.719-40.2729-26.732 5.6625-53.477 11.2884-80.168 17.1424-14.087 2.815-27.852 6.7665-41.666 10.5918-6.152 1.711-9.521 5.7644-10.368 11.8954-1.903 22.6953-.359 45.5403-1.931 68.2723-.583 7.051-.212 14.181-.236 21.277 0 .228.321.46.603.839zm-79.337 301.185c23.917-5.87 48.294-8.82 72.02-15.448.888-9.642 1.756-19.036 2.615-28.373-17.338-14.258-36.855-25.461-55.81-37.401-13.989-8.433-26.129-20.369-41.882-25.555-4.759-1.817-5.374 4.481-5.667 7.781-.326 13.309-.97 26.601-2.09 39.87-.937 21.965-4.835 43.923-4.029 65.897 1.846.171 5.789-.347 6.437-2.139 1.263-6.518 1.662-13.203 2.631-19.77 1.337-8.592.086-8.759 8.653-6.111 6.595 2.098 10.038 6.457 6.213 13.036 2.823 2.343 6.277 3.137 9.565 4.547 1.637.607 1.788 1.768 1.344 3.666zm-157.247 51.57c-6.204 1.267-17.24 4.371-13.126 12.751 4.6 10.078 8.718 20.369 13.48 30.394 6.005 12.527 12.319 24.911 17.676 37.747 2.037 4.388 3.85 10.112 9.219 11.122 7.488 1.707 14.666-2.852 21.84-4.514 17.602-5.634 35.164-11.178 52.812-16.702-5.426-10.731-13.586-24.141-16.702-27.445-7.174 2.037-14.405 4.074-21.636 6.159-1.426.538-2.713.493-3.805 1.772 3.088 6.751 7.056 13.236 10.592 19.783.782 1.723 2.615 3.796.741 5.458-2.444 3.109-12.759-21.839-15.513-24.442l-19.619 6.999c1.63 5.613 5.1 10.045 7.447 15.313 1.438 2.664-1.63 4.603-3.133 1.715-3.076-5.251-5.394-10.747-8.64-15.953-4.612.876-8.747 2.852-13.203 4.225-2.656 1.091-3.642-2.037-1.438-2.921 4.253-2.131 8.587-3.092 12.946-5.15-4.013-6.261-6.078-13.3-10.347-19.073-2.351.232-15.64 6.559-13.9 1.577 3.377-2.852 8.249-2.742 11.842-5.186-1.572-4.294-7.67-15.684-9.94-18.609-3.324 1.002-6.709 2.037-10.094 3.039-1.63.99-4.074-.147-2.766-2.07 3.356-2.444 7.842-2.366 11.243-4.815-2.147-3.801-3.479-7.744-5.976-11.174zm325.396-191.1c10.828 3.744 21.953 6.827 33.127 9.565-1.442-4.481-3.935-8.339-6.139-12.441-2.037-3.406-3.695-7.089-6.652-9.904-1.292-1.222-1.459-2.758-.986-4.481 2.481-8.722 10.062-14.372 17.578-18.829-1.515-2.534-11.268-4.656-7.166-7.801 2.538-1.959 4.966-.305 7.908-1.629-2.542-2.583-5.891-3.475-8.832-5.357-2.037-2.225.313-3.435 2.534-3.524.583-.103 1.158-.25 1.719-.44.574-.22 1.507.142 1.674-.905-2.978-2.786-7.488-2.676-10.506-5.613 1.397-14.148-1.011-28.374-2.693-42.404-1.222-10.816-1.198-10.82-2.782-13.496-4.021 6.554-6.241 14.665-7.948 22.316-.538 1.992-.64 9.728-4.16 6.611-2.562-8.579-2.224-17.924-6.049-26.247-1.112 3.475-4.318 20.467-4.709 35.589 6.762.945 12.033 3.939 14.747 10.49-2.241 6.558-10.555 7.842-16.633 7.255-1.451.159-4.742-2.355-5.117-.061 1.12.925 3.845 2.925 2.395 4.363-.733.766-1.576.652-2.444.244-6.302-3.414-12.47-7.235-18.874-10.433-3.719 2.665-3.719 2.665-3.507 7.639 24.463 17.008 40.086 26.418 33.515 59.493zm-2.852 395.383c12.38-3.667 22.939-9.122 34.941-13.358 9.019-3.3 17.7-7.496 26.939-10.213 4.738-1.63 8.938-11.879 7.573-16.564-4.754.66-7.373 5.218-12.221 5.328-4.261-1.034-.346-4.786 1.507-6.237 5.268-4.016 10.674-17.285 10.804-23.843-3.12.538-5.231 2.069-7.74 3.54-4.375 1.031-2.725-3.426-1.544-5.667 1.666-4.265 3.528-8.465 4.946-12.812 3.625-11.137 4.004-22.662 3.666-34.244 0-.476.122-1.25-.888-1.104-1.096 3.08-6.987 19.375-10.999 17.338-1.418-1.063-.913-2.929-.758-4.448 1.202-12.482-1.328-25.123-12.119-32.782-.726 1.027-.106 1.817.154 2.587 5.573 19.069 1.695 39.682-2.68 58.707-6.799 28.145-24.805 50.885-41.593 73.772zm-88.315-321.359c-25.579-16.348-50.804-32.794-76.737-48.518-11.22-5.52-24.036-19.73-36.97-13.305-7.85-1.275-5.785 48.07-6.355 55.203-.917 23.628-.709 47.382-3.3 70.884-.436 3.796-1.352 7.284-.814 11.182l6.75-1.576c1.515-24.386 2.489-48.478 4.481-72.77.9-12.832 1.764-25.665 2.754-38.489.611-3.063.57-8.241 4.856-8.147 12.127.285 22.405 8.457 32.06 14.95 23.245 16.613 48.364 30.456 71.397 47.256.611-5.687 1.214-10.959 1.866-16.67zm44.2-120.991c-2.591 6.16-2.077 14.792-9.777 16.075-6.021.978-12.062-.961-17.847-2.374-14.307-3.459-28.423-8.107-42.836-10.926-3.751 24.683-5.764 49.952-7.063 74.92l6.595 1.528c-.167-5.703-.615-10.999.786-16.605 2.64-11.814 4.127-23.905 7.252-35.613 1.063-2.212 1.006-6.579 4.204-6.554 1.022.081 1.588.729 1.902 1.629 1.548 4.306 3.357 8.514 4.31 13.036 1.401 7.712 4.75 14.967 5.487 22.813.384 3.898 1.121 7.753 2.204 11.517.884.102 1.035-.538 1.41-1.104 2.851-6.669 5.524-13.395 7.088-20.512.762-3.462 1.654-6.9 2.444-10.355.33-2.554 3.223-3.361 4.482-.44 1.486 2.949 2.423 5.504 4.208 8.437 4.778-26.634 35.58-6.425 51.944-4.714-1.006-3.226-2.407-5.703-4.595-7.813-2.575 1.511-4.265 1.312-5.019-1.695-4.42-10.917-9.092-22.577-17.191-31.233zm2.167 279.354c-2.538-2.749-2.538-2.757-5.133-2.098-27.33 6.478-54.14 15.102-80.534 24.586 4.791 15.48 18.943 46.286 37.837 46.269 10.36-26.051 24.455-52.148 47.818-68.74zm-33.115-236.559c-2.673 8.36-4.265 16.886-8.213 24.826-1.629 4.554-4.888 8.632-4.954 13.618.033.945-1.356 1.76-2.036 1.834-.534-.045-1.153-.77-1.451-1.341-.33-4.192-.643-8.555-1.222-12.759-1.128-12.628-5.658-24.373-8.029-36.733-.269-1.536-.599-3.181-2.139-4.599-3.752 12.364-5.113 25.196-7.911 37.784-1.053 4.928-.984 10.029.204 14.926 1.58 7.109-4.97 2.4-8.767 1.43.648 3.581 2.778 5.98 3.56 9.37.941 4.131 3.544 6.42 7.052 8.371 7.516 3.785 14.132 9.289 21.998 12.303 1.723-10.954 4.127-21.228 6.384-31.991.627-1.727 0-4.673 2.187-5.272 2.551-.163 1.516 3.508 2.445 4.983 1.352 2.293 2.485 4.709 4.196 6.766 3.181-10.473 2.415-34.223-3.304-43.516zm-128.499 230.09c-8.379 1.336-25.664 5.777-29.286 7.508 5.52 8.962 10.36 18.214 16.267 26.912 9.821-1.83 19.761-3.72 29.29-6.629-3.259-9.43 2.684-13.443 9.671-18.458-2.477-7.296 4.815-12.836 11.582-12.404.949-.033 1.984.672 3.1-.452-1.059-2.09-2.505-3.959-4.261-5.508-10.771 2.473-21.477 4.953-32.228 8.253 1.1 2.787 8.526 10.779 5.215 12.446-.332.174-.717.217-1.08.122-.362-.094-.676-.321-.88-.636-2.619-3.646-4.844-7.357-7.39-11.154zm68.244 9.578c21.648-6.469 43.589-10.865 64.976-17.843-2.346-1.19-3.723-.868-6.049-1.194-1.039-.134-2.082-.387-2.424-1.593-.542-2.913 3.19-3.931 4.888-5.732-3.707-3.976-10.062-1.711-14.91-2.285-3.984-.167-7.976-.636-11.813.945-4.282.672-2.746-4.118-2.266-6.726-5.544-.814-13.093 3.532-18.739 4.836-.652.216-1.519.208-1.751 1.422 3.214 3.666 6.843 7.169 10.184 10.746 1.475 1.222-.371 3.605-2.013 2.66-5.145-3.532-8.318-9.096-13.443-12.905-11.325 2.444-22.674 4.623-33.865 8.591 1.332 1.952 2.179 3.785 3.817 5.166 10.873-13.55 23.775.709 23.408 13.912zm134.397-166.128c8.535-3.259 16.466-8.25 24.443-12.735 5.52-3.377 19.146-15.26 11.476-21.591-13.391-9.072-31.332-5.202-46.014-1.531 3.496 12.07 6.315 24.092 10.095 35.857zm-160.677 97.803c3.068 4.289 11.777 13.317 15.126 15.728 7.87-1.853 15.961-4.02 23.84-6.017 1.466-.33 4.183-1.116 4.64.88.79 3.113-11.277 4.168-13.77 5.207-3.833.855-7.557 2.036-11.406 3.181 1.421 2.037 14.193 15.586 16.295 17.285 8.587-1.491 16.441-6.766 25.371-6.322.709-2.502 2.208-4.274 2.061-6.681-3.458-.342-6.518 2.415-9.658 3.524-6.726.998-.681-9.109 0-12.222-31.535-24.813-13.338-24.369-52.499-14.563zm34.533-126.491c4.844-36.835 4.746-74.289 13.13-110.631.244-1.381.517-3.748 2.444-3.666 11.684 3.133 17.631-19.79 6.184-11.904-2.086 1.585-3.906 6.926-7.007 5.296-.33-.191-.525-1.112-.362-1.548 1.185-2.159 2.444-4.391 2.851-6.856-.252-6.583-7.768-2.33-8.583 1.846-.786 1.906.79 7.882-2.412 7.442-.259-.116-.491-.285-.683-.495-.191-.21-.337-.458-.429-.727-.171-2.228-.407-5.846-3.414-3.332-1.69 4.074.836 9.023 4.653 10.738 6.852 3.019.489 16.43.232 22.223-3.487 23.35-9.94 46.673-18.259 68.402 11.386-5.964.208 12.845-.102 16.804 3.553 2.758 8.592 5.504 11.757 6.408zm-75.275 180.79c10.384-1.74 20.178-4.958 30.399-7.333.688-.175 1.503-.155 1.735-1.487-4.619-5.748-8.738-12.221-13.635-18.197-10.591 1.715-20.466 4.574-30.781 7.165-.407.192-.371.33-.407.909zm36.623-8.926c7.097-.44 12.157-3.149 18.634-4.587 5.141-1.405 10.27-1.678 15.256-3.707-5.21-6.367-10.926-11.639-16.271-16.796-9.777 1.088-19.378 3.862-29.119 5.597-.631.131-1.197.583-2.126 1.055zm165.253-235.964c-15.823-6.726-28.158-18.593-40.31-30.362-.558-.517-.97-1.515-2.172-1.055 1.703 4.314 4.848 8.086 7.333 12.018 5.5 7.41 8.445 15.806 12.107 24.214 4.917-1.271 9.46 10.184 11.052 13.92 3.83.945 7.447 3.08 11.407 3.019 2.012-5.818 2.318-15.982.583-21.754zm-246.899 233.76c3.486 6.684 7.551 13.05 12.148 19.025 4.168-.644 25.983-6.237 28.284-7.231-1.943-4.371-10.286-16.617-13.158-19.245zm319.644-198.799c-5.952 3.467-9.981 4.025-6.881-3.96.693-2.595 4.889-17.574 2.037-18.332-1.87 2.469-4.917 7.088-8.502 5.5-1.393-.949-.855-2.339-.546-3.626 2.11-5.357 2.29-10.95 1.687-16.576-.061-.595.212-1.442-.864-1.78-3.389 11.814-9.256 22.251-16.336 32.182-2.159 2.685-4.562 6.111.322 7.386 9.235 2.811 17.925 5.83 26.37 10.694 2.228-3.324 2.546-7.076 2.713-11.496zm-112.811-84.543c10.254-4.791 19.962 7.981 29.519 9.74-1.104-2.366-2.485-2.851-3.964-4.644-3.691-5.186 6.204-9.133 9.866-11.084.188-2.196.929-4.482.098-6.641-11.276-2.419-21.904-5.907-33.209-7.503-1.304 4.444-2.595 15.732-2.31 20.132zm-74.04 213.547c-9.325 1.955-17.852 4.554-26.977 7.569 2.974 3.03 5.703 5.833 8.962 8.343 2.51-.253 16.532-7.643 13.737-1.064-1.853 1.899-8.359 1.984-9.296 4.27 6.803 6.391 12.901 12.93 20.658 18.307l6.298-10.999c-3.475-.338-14.319 5.532-12.356-1.475 2.355-6.408 5.614-11.924 9.394-17.651zm-160.539 78.216c2.713 7.084 7.948 16.906 10.453 19.554 8.274-2.477 16.931-4.172 25.441-7.598-4.184-6.624-8.176-12.934-12.222-19.297zm57.179-20.446c10.185-2.852 21.102-4.013 30.59-7.7l-11.883-14.947c-9.985 2.542-20.585 3.19-30.04 6.767 3.516 5.333 7.219 10.421 11.333 15.896zm66.313-14.666-14.226-14.886c-6.978.599-25.07 4.502-28.63 6.111 2 3.838 7.74 10.999 12.307 15.289 10.05-2.314 20.564-3.247 30.549-6.49zm-97.644 22.813c5.63-.77 22.519-5.365 26.679-7.259-1.141-2.64-8.148-12.629-11.215-15.998l-25.392 6.449c1.01 2.762 7.899 14.343 9.928 16.849zm-38.098-8.086c1.699 4.391 7.406 13.875 10.091 16.792 7.552-1.63 14.93-4.522 22.405-6.649.489-.15.864-.668 1.255-.982-2.97-6.037-8.042-14.213-10.408-16.755-8.087 1.499-15.733 4.498-23.343 7.634zm-1.511 48.029c7.125-1.474 13.443-3.585 19.643-6.99-7.141-15.098-7.891-16.45-10.534-19.049-6.209 1.527-16.234 5.182-19.033 6.974 3.357 6.465 6.159 12.828 9.924 19.122zm-21.917-41.902c1.271 3.703 3.141 6.546 4.795 9.471 1.715 3.039 2.896 6.4 5.08 9.089 4.073-.713 16.702-5.182 19.236-6.791-3.259-5.557-6.539-11.118-9.956-16.927-6.351 1.434-12.543 3.121-19.155 5.158zm307.52-304.31c-25.873-6.6-28.789-7.207-33.592-6.926-.86 3.202-1.324 6.457-.86 9.716 11.614 2.2 21.831 5.756 33.584 7.284.412-3.43 1.076-6.563.868-10.054zm-206.092 261.775c-9.63 3.259-19.688 3.83-28.968 7.867 1.961 3.079 4.127 6.025 6.481 8.815 9.94-2.529 20.401-3.434 29.861-6.835-1.988-3.528-4.738-6.388-7.374-9.826zm11.741 9.122c9.426-2.42 19.428-2.946 28.202-6.364l-8.318-9.451c-4.75 1.483-25.824 2.444-26.333 7.211zm23.823-16.996c2.591 4.025 5.972 6.803 8.861 9.968 9.178-2.012 17.879-4.595 27.013-7.039-2.656-3.532-5.789-5.915-8.47-8.478-9.41.888-18.193 3.247-27.404 5.569zm-122.445 30.146 6.453 10.156c.648.057.965.171 1.222.093 7.598-2.513 15.045-5.247 22.715-7.516-1.264-3.157-3.033-6.088-5.238-8.677-8.592 2.909-15.961 4.575-25.152 5.972zm34.358 1.76c9.028-1.109 17.187-4.111 25.873-6.083-1.467-3.532-3.891-5.919-5.968-9.149-8.453 2.538-16.365 4.558-24.956 6.339.892 3.413 3.243 5.601 5.051 8.921zm-51.211 15.121 19.09-5.202c-1.772-4.595-4.481-11.789-9.606-10.714-4.685 1.328-9.37 2.611-14.055 3.952-.362.101-.639.497-1.104.876 1.634 3.91 3.557 6.978 5.675 11.117zm145.568-61.265c-6.323-4.074-16.393-3.984-10.592-13.891-2.852-3.854-2.852-3.854-8.465-4.746-1.854 7.279-2.489 14.967-2.881 22.487 3.663.236 16.129-1.972 21.938-3.821zm164.258-168.984c-1.389-5.854-7.366-11.06-11.814-14.73-6.111-4.367-12.27-8.73-18.471-13-2.851-1.959-5.397-4.106-6.998-7.239-.196-.407-.729-.603-1.194-.965-1.002 2.974-.407 5.108 1.63 7.113 11.484 10.779 22.308 22.1 36.847 28.85zm-49.505-128.934c5.471.741 9.753 2.342 14.466 5.145.07-3.613 2.208-7.157.334-10.372-4.045-.383-7.846-1.144-11.842-1.69s-2.807 4.302-2.958 6.917zm-39.922 292.573-16.222 5.219c2.31 2.277 4.624 3.715 7.035 5.357 1.353-1.373 2.489-2.705 3.809-3.821 2.77-2.164 4.921-2.473 5.365-6.743zm54.034-32.565c-3.455-3.341-7.272-5.431-10.738-5.875.746 3.645 1.811 7.218 3.181 10.678zm36.631-166.54c1.776-2.737 2.644-9.325-.248-10.445-2.766.408-3.667 4.269-3.479 6.689.069 2.375 1.564 3.035 3.715 3.768zm11.814-3.764c-1.98-2.395-3.239-4.888-6.766-5.227.107 2.724-.043 5.452-.449 8.148 2.73.065 4.734-1.006 7.187-2.909zm-129.232 113.841c-1.409-2.851-1.519-4.66-3.259-6.518-.998 4.217-.843 4.624 3.259 6.518zm107.348-116.102c.758 1.589.758 1.589 2.403 2.571.495-1.615.684-3.307.559-4.991z"/><path d="m387.601 820.022c-4.163-11.313 11-16.581 19.196-19.648 8.147-4.119 16.454-7.989 24.891-11.517 33.502-14.421 66.316-30.19 100.687-42.534v3.553c-13.896 6.518-28.431 11.406-42.689 17.028-20.28 9.174-40.331 18.817-60.964 27.257-10.233 3.842-19.648 9.37-29.739 13.444-3.719 1.682-7.805 3.98-7.919 8.579-.102 1.3.147 2.693-.79 3.825z"/><path d="m213.314 732.318c-8.225-.224-9.863-10.971-13.097-16.841-1.703-4.074-.787-6.734 3.173-8.857 5.777-2.851 11.814-5.499 18.047-7.206 3.206-.595 5.915.407 7.683 3.198 3.169 4.982 6.184 10.103 8.082 15.737.868 3.047.367 4.974-2.318 6.436-2.684 1.463-5.21 3.259-8.383 3.911-4.461.917-8.584 3.28-13.187 3.622z"/><path d="m207.732 669.145c.644-2.11.721-5.845 3.667-6.518 5.732-1.943 11.406-4.073 17.15-5.964 14.833-4.534 29.625-9.21 44.046-14.922 2.851-1.303 7.83-1.01 10.066.986 3.283 6.029 16.588 19.424 6.673 24.85-20.104 8.579-41.243 14.478-61.921 21.461-7.109 2.269-8.054 1.988-12.943-3.805-3.735-4.701-6.249-10.01-6.738-16.088zm80.987-9.935c-1.984-4.922-5.394-9.097-8.824-13.081-2.404-2.905-6.176-.689-9.056.195-18.56 7.712-38.293 12.067-57.033 19.237-2.037.814-2.542 1.772-1.69 3.821 1.878 4.481 3.943 8.905 5.96 13.337 2.851 5.667 6.705.738 10.848.88 10.388-3.475 20.984-6.925 31.629-9.879 7.557-2.558 15.073-5.108 22.405-8.261 2.734-1.178 4.905-2.701 5.761-6.249z"/><path d="m134.112 517.548c-4.042-3.116-7.333-6.721-8.095-11.875-.383-2.815.676-5.01 3.227-6.171 4.297-1.952 8.717-3.642 13.414-4.388 4.372-.692 8.714-1.418 12.979-2.684 4.934-1.072 11.696-3.614 14.951 1.878 6.188 11.329.407 15.215-10.404 17.566-8.726 2.187-17.346 2.957-26.072 5.674zm29.473-22.845c-6.196.737-13.557 3.324-20.026 4-2.681.603-15.293 3.064-13.709 6.746 1.109 3.561 2.828 8.172 7.427 6.926 5.255-1.76 34.863-3.638 31.877-11.097-1.165-3.003-1.031-6.824-5.569-6.575z"/><path d="m379.971 58.3958c.436-4.1064-2.016-11.3006 3.834-11.9932 3.316-.5336 9.614-3.9963 10.665 1.1488.98 4.9091 1.686 9.8692 2.114 14.857.468 5.9273-7.52 4.7908-11.407 6.3755-6.831 1.7598-5.381-6.1718-5.418-10.3881z"/><path d="m353.548 52.1997c-1.772-13.0116 2.486-7.9276 10.951-12.9831 2.2-1.2221 4.713-.4074 5.129 2.1428.761 4.7907 1.731 9.6018 1.996 14.4496.293 4.5545.305 4.5748-3.98 6.5913-3.418 1.2792-6.881 2.6195-10.348 3.7398-2.037.4073-3.132-.4359-3.283-2.4647-.285-3.813-.505-7.6342-.75-11.4513zm12.364-9.2882c-3.259 1.3565-5.744 2.3057-8.823 3.3812-.176 11.8139-.176 11.8139 1.271 15.5699 3.108-1.4543 6.811-1.4014 9.544-4.0737.261-4.8926-.9-9.5897-1.992-14.8774z"/><path d="m395.263 17.8252c-.554-5.2673-1.197-11.60202 5.814-11.81386 2.627-.09369 7.699-3.28752 8.147 1.12436.363 5.7033.611 11.4595.705 17.1913-.065 3.9637-6.111 4.3467-8.877 6.078-6.648 1.4055-5.862-8.3716-5.789-12.5798zm3.968-7.3042c-1.145 5.2551-1.193 10.8117.456 16.1036l6.355-2.5909c.408-4.9619-.122-9.7404-.855-14.66558-2.224.44404-4.074.10184-5.956 1.15288z"/><path d="m342.093 720.072c-2.424 16.702-7.248 32.834-10.384 49.459-13.444-5.296-26.199-10.535-39.74-15.452 7.985-20.181 27.91-34.969 50.124-34.007z"/><path d="m347.853 719.75c11.565 3.609 25.371 7.842 28.895 20.943-12.152 11.708-26.553 20.121-40.514 29.653 1.74-16.466 7.989-32.289 9.965-48.856.265-.848.733-1.243 1.654-1.74z"/><path d="m402.54 789.3c-.265 4.258-3.182 8.189-7.586 6.661-6.999-2.615 5.394-18.039 7.586-6.661z"/><path d="m425.532 783.985c-3.043.081-4.555-2.355-3.153-5.084 1.515-4.127 10.368-4.608 8.962 1.087-.819 2.388-3.047 3.923-5.809 3.997z"/><path d="m417.083 784.416c.045 4.029-5.442 7.471-8.286 3.703-.949-.933-.965-2.082-.554-3.259 1.291-4.481 8.192-5.956 8.84-.444z"/><path d="m375.726 290.188c3.585-25.664 4.298-51.936 10.555-77.104 2.2-4.672 9.899-1.173 10.091 3.198-1.548 25.408-3.524 51.073-8.718 76.057-.697 2.412-.868 5.732-3.723 6.58-7.264 1.572-8.555-2.343-7.952-8.706zm11.904-63.143c-2.591 9.899-3.402 20.369-4.563 30.578-.363 8.889-2.941 17.843-2.534 26.691 2.811.363 2.811.363 4.807-.367 3.17-10.591 5.703-47.5 5.618-56.018-1.067-.513-1.984-1.088-3.328-.863z"/><path d="m332.406 217.097c-2.412 1.157-1.878 3.87-3.064 5.821-3.536 4.51-4.53-4.135-5.17-6.746-2.953 2.18-2.419 5.822-4.383 8.612-4.542 2.945-2.33-8.005-2.505-10.119-.029-2.33 2.851-.88 4.208-1.842 3.475-2.216 3.858-1.222 6.408 1.781 1.076.273 1.357-.835 1.988-1.349 3.19-2.582 5.296-1.821 6.2 2.273.648 6.14 2.567.815 4.75-.989 3.85-3.402 5.704 1.466 6.111 5.067 3.552-5.361 6.656-7.161 8.881.273 4.371-6.11 7.785-9.121 8.599.77 5.162-5.508 8.869-.957 8.775 4.946-.224 2.134-2.525 2.008-3.304.407-.505-1.018-.725-2.183-1.116-3.471-1.898 1.34-2.403 3.259-3.381 4.868-.623 1.011-1.145 2.204-2.607 2.001-3.003-.721-1.968-5.019-2.709-7.333-3.051.126-2.819 7.561-6.188 7.263-3.145-.953-1.222-5.479-2.444-7.74-1.479-.024-1.475 1.133-1.822 1.821-1.474 1.988-1.389 6.494-4.481 6.486-3.096-.815-1.89-7.802-2.534-10.425-1.279-.338-1.552.513-1.869 1.059-1.707 2.037-2.058 6.559-5.211 6.555-3.136-.77-2.248-7.288-3.132-9.989z"/><path d="m343.576 244.286c3.259-3.145 4.844-7.275 9.007-2.705 3.944-4.232 6.237-2.346 6.775 2.852 4.163-1.385 3.666-2.481 6.351 1.817 2.163-.065 4.998-.408 3.841 3.173-4.929 1.251-4.929 1.251-8.07-.358-1.181 1.177-2.037 3.723-4.11 3.259-1.341-.408-1.707-1.499-1.785-2.754-.069-1.157-.057-2.33-.46-3.426-2.082-.701-3.687 6.208-7.109-1.222-3.503 5.194-7.406 6.245-8.962-.79-2.9-.188-4.127 10.412-8.893.484-6.322 9.961-7.606 1.512-9.186-5.23-2.595 2.187-2.473 5.194-3.54 7.573-6.091 1.246-.554-8.914.986-10.922 5.295-6.587 6.432 2.88 7.332 6.925 1.756-.643 2.155-2.236 3.129-3.259 2.57-2.88 3.951-.203 5.251 2.196.945.249 1.222-.582 1.674-1.088 1.418-2.338 4.779-3.976 6.188-.77.554 1.524.648 2.718 1.581 4.245z"/><path d="m379.751 164.57c-3.052-3.646-3.398-7.512-3.308-11.615.146-6.925.049-13.887-.033-20.833-.045-3.719 2.445-7.5 6.111-8.2 12.8-2.599 25.925-2.037 38.9-2.746 5.61-.253 11.207-.75 16.813-1.092 7.007.049 14.331-2.037 21.122.2 7.186 2.908 4.445 14.303 5.65 20.572.514 6.298 2.905 16.58-4.705 19.367-12.58 4.314-26.092 2.823-39.157 3.813-7.675.448-15.333 1.141-23.008 1.585-6.131.44-12.503 1.181-18.385-1.051zm33.69-39.491c-.408 3.491-.408 3.487-2.102 5.886-1.597 2.595-4.278 4.795-3.879 8.119.123 4.579.135 9.166-.028 13.745.032 5.797-9.565 4.591-13.525 4.481-4.888-.46-6.567-2.187-6.64-7.003.134-3.776-1.711-17.688 3.666-17.667 5.985-1.015 8.836-2.147 15.024-.77 1.312-1.944 3.292-3.667 3.72-6.111-8.783-.139-16.935-.216-25.457 1.373-3.801.346-4.343 3.218-4.209 6.542.071 7.393.142 14.787.212 22.182-.501 6.697 6.327 6.485 11.138 6.371 9.04 0 17.994-1.079 26.98-1.853 12.495-.929 25.258.081 37.524-2.693 8.901-1.177 5.825-9.94 5.467-16.34-.896-4.709.676-14.393-2.852-17.407-2.122-.24-5.019.028-7.214-.167-3.056-1.222-6.111-.546-9.203-.35-9.508.558-19.077 1.376-28.622 1.682zm-22.048 11.524c-.256 5.781-1.499 11.325.253 16.536 4.053.533 7.944 1.487 12.01-.473-.029-3.532 1.108-7.455-.616-10.722-2.399 2.147-3.397 9.447-7.459 6.469-1.113-1.165-2.124-2.423-3.022-3.76-.664-.933-.473-1.796.273-2.318 1.69-1.039 2.888 1.251 4.163 2.074l6.013-8.763c-4.127-1.646-7.671.114-11.615.957z"/><path d="m389.96 92.5657c4.762.3625 3.076 7.6543-1.434 7.0842-3.3-.7129-3.878-7.6994 1.434-7.0842z"/><path d="m367.017 99.745c-.135-1.6784.794-2.8231 2.469-3.5401 4.024-1.7273 5.222 4.0741 2.374 6.0011-.424.43-.975.714-1.572.811-.597.096-1.209.001-1.748-.273s-.977-.712-1.251-1.251-.369-1.151-.272-1.748z"/><path d="m382.586 98.0878c-.607 5.8542-6.583 4.6362-5.674-.994.541-3.7478 5.996-2.8557 5.674.994z"/><path d="m309.23 440.244c4.074 2.037 7.981 3.927 11.908 5.96 4.888 2.147 5.703 4.217 4.909 9.517-.909 5.915-3.435 11.292-5.997 16.608-1.707 3.536-4.481 4.481-8.147 3.076-7.203-2.501-13.224-7.117-19.094-11.859-2.229-1.723-5.638-2.094-4.278-5.397 2.852-9.439 5.133-19.147 9.117-28.199 1.659-4.286 6.518-2.334 9.729-1.137 5.161 1.911 2.538 7.386 1.853 11.431zm-17.11 18.479c6.738 5.296 12.601 10.082 20.528 12.979 2.302.872 3.451.574 4.371-1.503 2.143-4.856 4.514-9.631 5.357-14.963 1.414-4.665-2.139-5.206-5.491-6.926-16.401-8.51-10.999-3.536-10.303-15.94-1.914-.367-3.369-1.63-5.577-.925-3.866 8.653-5.809 18.075-8.889 27.294z"/><path d="m260.598 415.649c-.514-3.259-.542-7.777 3.878-7.7 3.259.033 9.471 2.163 10.013 5.736.155 2.351-1.079 5.166 2.037 5.891 2.465.957 4.889 2.057 7.333 3.006 8.111 3.324 3.206 18.943 1.479 25.319-3.862 13.011-13.012 3.312-21.107.545-5.206-2.362-6.432-6.925-5.906-11.223.749-7.174 1.784-14.364 2.085-21.566zm3.666-3.94c-.57 9.297-1.222 18.332-2.24 27.563-.086 2.416.871 4.343 3.1 5.414 4.114 1.98 8.249 3.927 12.416 5.793 4.103 1.952 4.53-6.302 5.765-8.783 1.093-3.993 1.486-8.146 1.161-12.274-.408-4.412-6.221-5.064-9.602-6.518-4.424-.994-4.481-5.223-4.322-9.076-1.968-.742-3.548-2.184-6.258-2.119z"/></g><path d="m58.5357 587.319c-3.752-1.023-8.4246 0-9.6019-4.481-1.2588-4.074-2.3832-8.201-3.5727-12.299-3.2223-12.453 1.3566-9.533 10.4696-13.517 2.5991-.721 6.4773-1.25 8.0498 1.3 3.1449 6.11 7.7686 11.863 8.0782 18.959.1344 1.951-.4074 3.389-2.3587 4.29-3.5483 2.326-7.3898 3.52-11.0643 5.748z" fill="#f4bdec"/><path d="m36.2925 488.18c4.9659 2.167 9.7771 7.002 7.8054 12.535-2.978 8.555-5.243 13.325-15.3785 12.009-1.038-.087-2.0039-.566-2.7009-1.34-5.0189-5.703-4.7215-12.063-.3137-18.124 2.1347-3.793 6.8317-3.471 10.5877-5.08z" fill="#f4bdec"/><path d="m60.7799 497.913c0 3.691-.0733 7.386 0 11.076.167 11.097-16.8776 12.262-24.8906 15.138-7.3043 1.793-14.6656 3.308-22.0228 4.95-7.56494 1.78-12.47788-1.911-12.66935-9.708-.969552-7.047-.814753-14.144-.92067-21.232.525515-7.74-3.47087-21.697 7.76864-22.683 12.63948-1.255 25.26818-2.551 37.88598-3.89 16.5557-3.952 14.9384 15.537 14.8488 26.349zm-3.6664-.367h-.0529c-.3341-7.703 2.5705-23.746-9.4959-22.406-10.8729 1.223-21.7254 2.591-32.6635 3.121-4.1145.24-8.8237 1.801-9.14146 6.575-1.39322 11.333-.43588 22.756.77403 34.053.28109 3.589 1.57245 7.74 6.03733 6.518 9.777-1.671 19.3951-3.907 28.9236-6.518 17.4561-5.455 15.6799-3.378 15.6188-21.343z" fill="#2b1c4a"/><path d="m64.7642 623.321c-3.976-.176-7.9479-1.035-8.4286-5.488-.3585-4.774-3.4057-8.762-3.8579-13.533-.4073-3.027.6681-4.815 3.5157-5.874 5.9843-2.823 16.1484-5.769 19.2974 2.403 1.5562 5.072 7.2106 10.592 4.1104 16.002-3.2467 5.891-9.0763 5.166-14.637 6.49z" fill="#2b1c4a"/><path d="m73.3031 577.195c.0611 4.925-1.5073 6.628-5.4344 7.764-3.2236 1.001-6.3885 2.181-9.4797 3.536-6.518 2.518-11.6224.86-12.6286-6.518-.6193-6.399-3.6664-12.066-4.8886-18.303-.5132-8.396 13.2846-7.976 19.0368-9.7 3.2916-.554 5.8825 2.18 6.9254 5.027 2.1102 5.74 5.1492 12.401 6.4691 18.194zm-4.4282 3.259c1.0143-2.518 1.0836-2.673 0-5.593-1.7721-4.84-3.6216-9.651-5.4792-14.458-.884-2.29-1.6295-2.852-4.0045-2.473-3.4998.49-6.9703 1.17-10.3962 2.037-4.8886 1.324-5.0026 2.77-3.5809 6.636 7.3165 20.422-.9125 23.542 23.4608 13.867z" fill="#2b1c4a"/><path d="m33.0011 485.627c30.6306 3.422 4.7622 42.306-13.7245 24.088-3.4872-5.638-1.8047-12.543.9329-18.079.8921-2.445 3.5482-2.852 5.5647-4.009 2.1836-1.552 4.6278-1.809 7.2269-2zm-2.5868 25.257c7.2635-.142 12.6001-7.284 13.2682-13.952-.497-3.944-5.8663-7.899-9.8423-7.101-6.3184 1.002-12.7834 7.19-10.5917 14.038 1.1284 4.543 2.0084 6.889 7.1535 7.015z" fill="#2b1c4a"/><path d="m31.7098 501.29c1.3239-1.927 2.3994-7.578 4.9129-7.333.5188.252.9177.698 1.1106 1.241.1928.544.1642 1.141-.0799 1.664-2.7253 4.859-3.8742 12.262-10.3677 6.11-1.6703-1.096-.1467-2.794 1.3484-2.664.9533.077 1.8739.566 3.0757.982z" fill="#2b1c4a"/></svg>