<svg fill="none" height="449" viewBox="0 0 640 449" width="640" xmlns="http://www.w3.org/2000/svg" xmlns:xlink="http://www.w3.org/1999/xlink"><filter id="a" color-interpolation-filters="sRGB" filterUnits="userSpaceOnUse" height="58.8839" width="640" x="0" y="77.329"><feFlood flood-opacity="0" result="BackgroundImageFix"/><feColorMatrix in="SourceAlpha" result="hardAlpha" type="matrix" values="0 0 0 0 0 0 0 0 0 0 0 0 0 0 0 0 0 0 127 0"/><feOffset dy="-.895579"/><feComposite in2="hardAlpha" operator="out"/><feColorMatrix type="matrix" values="0 0 0 0 0.912 0 0 0 0 0.92625 0 0 0 0 0.95 0 0 0 1 0"/><feBlend in2="BackgroundImageFix" mode="normal" result="effect1_dropShadow_114_3602"/><feBlend in="SourceGraphic" in2="effect1_dropShadow_114_3602" mode="normal" result="shape"/></filter><filter id="b" color-interpolation-filters="sRGB" filterUnits="userSpaceOnUse" height="84.2161" width="701.238" x="0" y="135.411"><feFlood flood-opacity="0" result="BackgroundImageFix"/><feColorMatrix in="SourceAlpha" result="hardAlpha" type="matrix" values="0 0 0 0 0 0 0 0 0 0 0 0 0 0 0 0 0 0 127 0"/><feOffset dy="-.802061"/><feComposite in2="hardAlpha" operator="out"/><feColorMatrix type="matrix" values="0 0 0 0 0.912 0 0 0 0 0.92625 0 0 0 0 0.95 0 0 0 1 0"/><feBlend in2="BackgroundImageFix" mode="normal" result="effect1_dropShadow_114_3602"/><feBlend in="SourceGraphic" in2="effect1_dropShadow_114_3602" mode="normal" result="shape"/></filter><filter id="c" color-interpolation-filters="sRGB" filterUnits="userSpaceOnUse" height="84.2161" width="701.238" x="0" y="218.825"><feFlood flood-opacity="0" result="BackgroundImageFix"/><feColorMatrix in="SourceAlpha" result="hardAlpha" type="matrix" values="0 0 0 0 0 0 0 0 0 0 0 0 0 0 0 0 0 0 127 0"/><feOffset dy="-.802061"/><feComposite in2="hardAlpha" operator="out"/><feColorMatrix type="matrix" values="0 0 0 0 0.912 0 0 0 0 0.92625 0 0 0 0 0.95 0 0 0 1 0"/><feBlend in2="BackgroundImageFix" mode="normal" result="effect1_dropShadow_114_3602"/><feBlend in="SourceGraphic" in2="effect1_dropShadow_114_3602" mode="normal" result="shape"/></filter><filter id="d" color-interpolation-filters="sRGB" filterUnits="userSpaceOnUse" height="58.8839" width="640" x="0" y="302.145"><feFlood flood-opacity="0" result="BackgroundImageFix"/><feColorMatrix in="SourceAlpha" result="hardAlpha" type="matrix" values="0 0 0 0 0 0 0 0 0 0 0 0 0 0 0 0 0 0 127 0"/><feOffset dy="-.895579"/><feComposite in2="hardAlpha" operator="out"/><feColorMatrix type="matrix" values="0 0 0 0 0.912 0 0 0 0 0.92625 0 0 0 0 0.95 0 0 0 1 0"/><feBlend in2="BackgroundImageFix" mode="normal" result="effect1_dropShadow_114_3602"/><feBlend in="SourceGraphic" in2="effect1_dropShadow_114_3602" mode="normal" result="shape"/></filter><filter id="e" color-interpolation-filters="sRGB" filterUnits="userSpaceOnUse" height="84.2161" width="701.238" x="0" y="360.227"><feFlood flood-opacity="0" result="BackgroundImageFix"/><feColorMatrix in="SourceAlpha" result="hardAlpha" type="matrix" values="0 0 0 0 0 0 0 0 0 0 0 0 0 0 0 0 0 0 127 0"/><feOffset dy="-.802061"/><feComposite in2="hardAlpha" operator="out"/><feColorMatrix type="matrix" values="0 0 0 0 0.912 0 0 0 0 0.92625 0 0 0 0 0.95 0 0 0 1 0"/><feBlend in2="BackgroundImageFix" mode="normal" result="effect1_dropShadow_114_3602"/><feBlend in="SourceGraphic" in2="effect1_dropShadow_114_3602" mode="normal" result="shape"/></filter><clipPath id="f"><path d="m0 0h640v449h-640z"/></clipPath><clipPath id="g"><path d="m21.4937 100.055h14.3293v14.3293h-14.3293z"/></clipPath><path d="m0 0h640v449h-640z" fill="#fff"/><g clip-path="url(#f)"><path d="m0 0h640v449h-640z" fill="#fff"/><path d="m21.6412 34.7224v-1.7803h9.3539v1.7803h-3.6236v9.9436h-2.1067v-9.9436zm13.6831 10.1154c-.8816 0-1.6429-.1832-2.2841-.5496-.6373-.3702-1.1277-.893-1.4712-1.5685-.3435-.6794-.5152-1.4789-.5152-2.3986 0-.9045.1717-1.6983.5152-2.3815.3473-.6869.832-1.2212 1.454-1.6028.6221-.3855 1.353-.5782 2.1926-.5782.5419 0 1.0533.0877 1.5341.2633.4847.1717.9122.4389 1.2824.8014.374.3626.6678.8244.8815 1.3854.2138.5572.3206 1.2212.3206 1.9921v.6355h-7.2072v-1.3968h5.2208c-.0038-.3969-.0897-.7499-.2576-1.0591-.1679-.3129-.4026-.5591-.7041-.7384-.2977-.1794-.645-.2691-1.0419-.2691-.4236 0-.7957.103-1.1163.3091-.3206.2023-.5706.4694-.7499.8015-.1756.3282-.2653.6888-.2691 1.0819v1.2194c0 .5113.0935.9502.2805 1.3166.187.3626.4484.6412.7843.8358.3358.1908.7289.2862 1.1793.2862.3014 0 .5743-.042.8186-.1259.2442-.0878.456-.2156.6354-.3836.1794-.1679.3148-.3759.4064-.6239l1.9349.2175c-.1221.5114-.3549.9579-.6984 1.3395-.3396.3779-.7747.6717-1.3052.8816-.5304.2061-1.1372.3092-1.8204.3092zm12.6127-6.6406-1.8891.2061c-.0534-.1908-.1469-.3702-.2805-.5381-.1298-.1679-.3053-.3034-.5267-.4064-.2213-.1031-.4923-.1546-.8129-.1546-.4312 0-.7938.0935-1.0876.2805-.2901.187-.4332.4294-.4294.727-.0038.2557.0897.4637.2805.624.1947.1603.5152.292.9618.395l1.4998.3206c.832.1794 1.4502.4637 1.8548.8529.4083.3893.6144.8988.6182 1.5285-.0038.5534-.166 1.0419-.4866 1.4655-.3167.4198-.7575.748-1.3223.9846-.5649.2366-1.2137.355-1.9464.355-1.0762 0-1.9425-.2252-2.599-.6755-.6564-.4542-1.0476-1.0858-1.1735-1.8949l2.0208-.1946c.0916.3969.2862.6965.5839.8987.2977.2023.685.3034 1.1621.3034.4923 0 .8873-.1011 1.185-.3034.3015-.2022.4522-.4522.4522-.7499 0-.2519-.0973-.4599-.292-.624-.1908-.1641-.4885-.29-.893-.3778l-1.4998-.3148c-.8434-.1756-1.4674-.4714-1.872-.8873-.4045-.4198-.6049-.9503-.601-1.5915-.0039-.5419.1431-1.0113.4407-1.4082.3015-.4007.7194-.7099 1.2537-.9274.5381-.2214 1.1583-.332 1.8605-.332 1.0304 0 1.8414.2194 2.433.6583.5953.4389.9636 1.0323 1.1048 1.7803zm6.2885-2.3241v1.6028h-5.0548v-1.6028zm-3.8069-2.1067h2.0723v8.2549c0 .2786.042.4923.1259.6411.0878.145.2023.2443.3435.2977s.2977.0801.4694.0801c.1298 0 .2481-.0095.355-.0286.1106-.0191.1946-.0362.2518-.0515l.3492 1.62c-.1106.0382-.269.0802-.4751.126-.2023.0458-.4503.0725-.7442.0801-.519.0153-.9865-.0629-1.4025-.2347-.416-.1755-.7461-.4465-.9904-.8129-.2404-.3663-.3587-.8243-.3549-1.3739zm12.3637 4.4308-1.8891.2061c-.0535-.1908-.147-.3702-.2805-.5381-.1298-.1679-.3054-.3034-.5267-.4064-.2214-.1031-.4923-.1546-.8129-.1546-.4312 0-.7938.0935-1.0877.2805-.29.187-.4331.4294-.4293.727-.0038.2557.0897.4637.2805.624.1946.1603.5152.292.9617.395l1.4999.3206c.8319.1794 1.4502.4637 1.8547.8529.4084.3893.6145.8988.6183 1.5285-.0038.5534-.166 1.0419-.4866 1.4655-.3168.4198-.7576.748-1.3224.9846s-1.2136.355-1.9463.355c-1.0763 0-1.9426-.2252-2.599-.6755-.6564-.4542-1.0476-1.0858-1.1735-1.8949l2.0207-.1946c.0916.3969.2863.6965.5839.8987.2977.2023.6851.3034 1.1621.3034.4923 0 .8873-.1011 1.185-.3034.3015-.2022.4523-.4522.4523-.7499 0-.2519-.0974-.4599-.292-.624-.1908-.1641-.4885-.29-.893-.3778l-1.4999-.3148c-.8434-.1756-1.4674-.4714-1.8719-.8873-.4045-.4198-.6049-.9503-.6011-1.5915-.0038-.5419.1431-1.0113.4408-1.4082.3015-.4007.7194-.7099 1.2537-.9274.5381-.2214 1.1583-.332 1.8605-.332 1.0304 0 1.8414.2194 2.4329.6583.5954.4389.9637 1.0323 1.1049 1.7803z" fill="#2a3140"/><rect fill="#fff" height="28.1044" rx="1.34337" width="176.104" x="78.7769" y="24.6138"/><path clip-rule="evenodd" d="m95.2325 41.875c-.9362.7925-2.1472 1.2704-3.4699 1.2704-2.9677 0-5.3734-2.4058-5.3734-5.3735s2.4057-5.3735 5.3734-5.3735 5.3735 2.4058 5.3735 5.3735c0 1.3226-.4778 2.5336-1.2703 3.4698l3.0615 3.0615-.6333.6333zm1.008-4.1031c0 2.4731-2.0048 4.4779-4.4779 4.4779-2.473 0-4.4779-2.0048-4.4779-4.4779s2.0049-4.4779 4.4779-4.4779c2.4731 0 4.4779 2.0048 4.4779 4.4779z" fill="#abb3c2" fill-rule="evenodd"/><path d="m113.079 36.3271c-.054-.4512-.27-.8015-.65-1.0508-.38-.2494-.846-.374-1.398-.374-.404 0-.757.0653-1.06.1959-.3.1306-.534.3102-.704.5387-.166.2286-.249.4883-.249.7792 0 .2434.058.4527.174.6278.118.1722.27.3161.454.4319.184.1128.377.2063.579.2805.202.0712.387.1291.556.1736l.926.2494c.238.0623.502.1484.793.2582.294.1098.574.2597.841.4497.271.187.493.4274.668.7213s.263.6545.263 1.082c0 .4927-.129.9379-.387 1.3357-.256.3977-.63.7139-1.122.9484-.49.2345-1.085.3517-1.786.3517-.653 0-1.218-.1054-1.696-.3161-.475-.2108-.849-.5046-1.122-.8816-.27-.377-.423-.8148-.459-1.3135h1.14c.03.3443.145.6293.347.8549.205.2226.463.3888.775.4987.315.1068.653.1603 1.015.1603.422 0 .8-.0683 1.136-.2049.335-.1395.601-.3324.797-.5788.195-.2493.293-.5402.293-.8727 0-.3027-.084-.5491-.253-.7391-.17-.1899-.392-.3443-.668-.463-.276-.1188-.575-.2226-.895-.3117l-1.122-.3206c-.713-.2048-1.277-.4972-1.692-.8771-.416-.3799-.623-.8771-.623-1.4916 0-.5105.138-.9558.414-1.3357.279-.3829.653-.6797 1.122-.8905.472-.2137.998-.3206 1.58-.3206.588 0 1.11.1054 1.568.3162.457.2077.819.4927 1.086.8548.27.3622.412.7733.427 1.2334zm5.733 6.9814c-.659 0-1.227-.1455-1.705-.4363-.475-.2939-.841-.7035-1.1-1.2289-.255-.5284-.383-1.1428-.383-1.8433 0-.7006.128-1.318.383-1.8523.259-.5372.618-.9557 1.078-1.2555.463-.3028 1.003-.4542 1.621-.4542.356 0 .707.0594 1.055.1781.347.1187.663.3117.948.5788.285.2642.512.6145.681 1.0508.17.4363.254.9736.254 1.6118v.4452h-5.272v-.9083h4.204c0-.3858-.078-.7302-.232-1.0329-.151-.3028-.368-.5418-.65-.7169-.279-.1751-.609-.2627-.988-.2627-.419 0-.781.1039-1.087.3117-.303.2048-.536.472-.699.8014-.163.3295-.245.6827-.245 1.0597v.6056c0 .5164.089.9543.267 1.3134.181.3562.432.6278.753.8148.32.1841.693.2761 1.117.2761.276 0 .526-.0386.748-.1158.226-.0801.42-.1989.584-.3562.163-.1603.289-.3591.378-.5966l1.015.2849c-.107.3444-.286.6471-.538.9083-.253.2583-.564.4601-.935.6056-.372.1425-.789.2137-1.252.2137zm6.443.0178c-.433 0-.827-.0816-1.18-.2449-.353-.1662-.634-.4052-.841-.7168-.208-.3147-.312-.6946-.312-1.1399 0-.3918.077-.7094.232-.9528.154-.2463.36-.4393.618-.5788.259-.1395.544-.2434.855-.3117.315-.0712.631-.1276.949-.1692.415-.0534.752-.0935 1.01-.1202.262-.0297.452-.0786.57-.1469.122-.0683.183-.187.183-.3562v-.0356c0-.4393-.12-.7807-.361-1.0241-.237-.2434-.598-.3651-1.082-.3651-.501 0-.895.1098-1.18.3295-.285.2196-.485.4541-.601.7035l-.997-.3562c.178-.4156.415-.7391.712-.9706.3-.2345.627-.3978.98-.4898.356-.095.706-.1425 1.051-.1425.219 0 .472.0267.757.0801.287.0505.565.1559.832.3162.27.1603.494.4022.672.7257.179.3236.268.7569.268 1.3001v4.5059h-1.051v-.9261h-.054c-.071.1484-.19.3072-.356.4764s-.387.3132-.663.4319-.613.1781-1.011.1781zm.16-.9439c.416 0 .766-.0816 1.051-.2449.288-.1633.505-.374.65-.6322.149-.2583.223-.5299.223-.8148v-.9618c-.045.0535-.143.1024-.294.147-.148.0415-.321.0786-.517.1113-.192.0296-.381.0564-.565.0801-.181.0208-.328.0386-.441.0534-.273.0357-.528.0935-.766.1737-.234.0772-.424.1944-.57.3517-.142.1544-.213.3651-.213.6323 0 .3651.135.6411.405.8281.273.1841.619.2761 1.037.2761zm4.893.7836v-6.8389h1.015v1.0329h.071c.125-.3384.35-.6129.677-.8237.326-.2107.694-.3161 1.104-.3161.077 0 .174.0015.289.0044.116.003.204.0075.263.0134v1.0686c-.036-.0089-.117-.0223-.245-.0401-.125-.0208-.257-.0311-.396-.0311-.333 0-.629.0697-.891.2092-.258.1366-.463.3265-.614.5699-.149.2405-.223.515-.223.8237v4.3278zm7.235.1425c-.641 0-1.194-.1514-1.657-.4542-.463-.3027-.819-.7198-1.068-1.2511-.25-.5313-.374-1.1383-.374-1.821 0-.6946.127-1.3076.383-1.8389.258-.5343.617-.9513 1.077-1.2511.463-.3028 1.004-.4542 1.621-.4542.481 0 .914.0891 1.3.2671.386.1781.702.4275.948.7481.247.3205.4.6945.459 1.122h-1.051c-.08-.3117-.258-.5877-.534-.8282-.273-.2434-.641-.3651-1.104-.3651-.41 0-.769.1069-1.078.3206-.305.2107-.544.5091-.717.8949-.169.383-.253.8326-.253 1.3491 0 .5284.083.9885.249 1.3803.169.3918.407.6961.712.9127.309.2167.671.3251 1.087.3251.273 0 .521-.0475.743-.1425.223-.095.411-.2315.566-.4096.154-.1781.264-.3918.329-.6412h1.051c-.059.4037-.206.7673-.441 1.0909-.231.3205-.539.5758-.921.7658-.38.187-.823.2805-1.327.2805zm5.276-4.2565v4.114h-1.051v-9.1186h1.051v3.3482h.089c.16-.3532.401-.6337.721-.8415.324-.2107.754-.3161 1.291-.3161.466 0 .875.0935 1.225.2805.35.184.622.4675.815.8504.196.38.294.8638.294 1.4515v4.3456h-1.051v-4.2743c0-.5432-.141-.9633-.423-1.2601-.279-.2998-.667-.4497-1.162-.4497-.345 0-.653.0727-.926.2182-.271.1454-.484.3577-.642.6367-.154.279-.231.6174-.231 1.0152z" fill="#abb3c2"/><rect height="28.1044" rx="1.34337" stroke="#e9ecf2" stroke-width=".895579" width="176.104" x="78.7769" y="24.6138"/><rect fill="#fff" height="28.4337" rx="1.34337" width="68.5099" x="270.106" y="24.4478"/><path d="m277.927 43.1641v-9.1187h5.468v.9796h-4.363v3.0811h3.953v.9795h-3.953v4.0785zm7.217 0v-6.839h1.051v6.839zm.534-7.9788c-.205 0-.381-.0698-.53-.2093-.145-.1395-.218-.3072-.218-.5031s.073-.3636.218-.5031c.149-.1396.325-.2093.53-.2093s.38.0697.525.2093c.149.1395.223.3072.223.5031s-.074.3636-.223.5031c-.145.1395-.32.2093-.525.2093zm3.492-1.1399v9.1187h-1.051v-9.1187zm4.899 2.2797v.8905h-3.544v-.8905zm-2.511-1.6385h1.05v6.5184c0 .2968.043.5194.129.6679.089.1454.202.2434.339.2938.139.0475.286.0713.441.0713.115 0 .21-.006.285-.0179.074-.0148.133-.0267.178-.0356l.213.9439c-.071.0268-.17.0535-.298.0802-.128.0297-.289.0445-.485.0445-.297 0-.588-.0638-.873-.1914-.282-.1277-.516-.3221-.703-.5833-.184-.2612-.276-.5907-.276-.9885zm6.885 8.6199c-.659 0-1.227-.1454-1.705-.4363-.475-.2939-.842-.7035-1.1-1.2289-.255-.5283-.383-1.1428-.383-1.8433s.128-1.3179.383-1.8522c.258-.5373.618-.9558 1.078-1.2556.463-.3028 1.003-.4542 1.62-.4542.357 0 .708.0594 1.056.1781.347.1188.663.3117.948.5789.285.2641.512.6144.681 1.0507.169.4364.254.9736.254 1.6118v.4453h-5.272v-.9083h4.203c0-.3859-.077-.7302-.231-1.033-.152-.3028-.368-.5417-.65-.7168-.279-.1752-.609-.2627-.989-.2627-.418 0-.78.1039-1.086.3116-.303.2049-.536.472-.699.8015s-.245.6827-.245 1.0597v.6055c0 .5165.089.9543.267 1.3135.181.3562.432.6278.753.8148.32.184.693.276 1.117.276.276 0 .526-.0386.748-.1157.226-.0802.42-.1989.584-.3562.163-.1603.289-.3592.378-.5967l1.015.285c-.107.3443-.286.6471-.539.9083-.252.2582-.564.4601-.935.6055-.371.1425-.788.2137-1.251.2137zm4.43-.1424v-6.839h1.016v1.033h.071c.124-.3384.35-.613.677-.8237.326-.2108.694-.3162 1.104-.3162.077 0 .173.0015.289.0045s.204.0074.263.0133v1.0686c-.036-.0089-.117-.0222-.245-.04-.125-.0208-.257-.0312-.396-.0312-.333 0-.63.0698-.891.2093-.258.1365-.463.3265-.614.5699-.149.2404-.223.515-.223.8237v4.3278z" fill="#2a3140"/><path clip-rule="evenodd" d="m327.421 33.291v1.4956l-4.477 4.2621v4.9893h-3.583v-4.9893l-4.478-4.263v-1.4947zm-7.164 5.3735v4.4779h1.791v-4.4779l4.478-4.263v-.2149h-10.747v.2149z" fill="#000" fill-rule="evenodd"/><rect height="28.4337" rx="1.34337" stroke="#e9ecf2" stroke-width=".895579" width="68.5099" x="270.106" y="24.4478"/><path d="m381.189 25.7912c0-.9893.802-1.7912 1.791-1.7912h113.823c.989 0 1.791.8019 1.791 1.7912v25.7469c0 .9892-.802 1.7912-1.791 1.7912h-113.823c-.989 0-1.791-.802-1.791-1.7912z" fill="#fff"/><path d="m393.355 34.1866 1.532 1.527.259.2642h5.746v7.1646h-10.747v-8.9558zm0-.8956h-3.21c-.238 0-.466.0944-.634.2623-.168.168-.262.3958-.262.6333v8.9558c0 .2375.094.4653.262.6332.168.168.396.2624.634.2624h10.747c.237 0 .465-.0944.633-.2624.168-.1679.262-.3957.262-.6332v-7.1646c0-.2376-.094-.4654-.262-.6333-.168-.168-.396-.2623-.633-.2623h-5.374l-1.527-1.527c-.083-.0838-.182-.1503-.291-.1956-.11-.0454-.227-.0687-.345-.0686z" fill="#2a3140"/><path d="m418.29 36.895h-1.105c-.065-.3176-.179-.5966-.343-.837-.16-.2405-.356-.4423-.587-.6056-.229-.1662-.483-.2909-.762-.374s-.57-.1247-.872-.1247c-.552 0-1.053.1396-1.501.4186-.445.279-.8.6901-1.064 1.2333-.261.5432-.392 1.2096-.392 1.9992 0 .7895.131 1.4559.392 1.9991.264.5432.619.9543 1.064 1.2333.448.2791.949.4186 1.501.4186.302 0 .593-.0416.872-.1247s.533-.2063.762-.3696c.231-.1662.427-.3695.587-.6099.164-.2434.278-.5225.343-.8371h1.105c-.084.466-.235.8831-.455 1.2511-.219.3681-.492.6813-.819.9395-.326.2553-.693.4497-1.1.5833-.403.1335-.835.2003-1.295.2003-.778 0-1.47-.1899-2.075-.5699-.606-.3799-1.082-.9202-1.429-1.6207-.348-.7005-.521-1.5316-.521-2.4933 0-.9618.173-1.7929.521-2.4934.347-.7005.823-1.2408 1.429-1.6207.605-.38 1.297-.5699 2.075-.5699.46 0 .892.0668 1.295.2003.407.1336.774.3295 1.1.5878.327.2552.6.5669.819.935.22.3651.371.7821.455 1.2511zm1.641 6.2691v-6.839h1.016v1.033h.071c.124-.3384.35-.613.677-.8237.326-.2108.694-.3162 1.104-.3162.077 0 .173.0015.289.0045s.203.0074.263.0133v1.0686c-.036-.0089-.117-.0222-.245-.04-.125-.0208-.257-.0312-.396-.0312-.333 0-.63.0698-.891.2093-.258.1365-.463.3265-.614.5699-.149.2404-.223.515-.223.8237v4.3278zm7.325.1424c-.659 0-1.228-.1454-1.706-.4363-.475-.2939-.841-.7035-1.099-1.2289-.256-.5283-.383-1.1428-.383-1.8433s.127-1.3179.383-1.8522c.258-.5373.617-.9558 1.077-1.2556.463-.3028 1.003-.4542 1.621-.4542.356 0 .708.0594 1.055.1781.347.1188.663.3117.948.5789.285.2641.512.6144.682 1.0507.169.4364.253.9736.253 1.6118v.4453h-5.271v-.9083h4.203c0-.3859-.077-.7302-.232-1.033-.151-.3028-.368-.5417-.65-.7168-.279-.1752-.608-.2627-.988-.2627-.419 0-.781.1039-1.087.3116-.302.2049-.535.472-.699.8015-.163.3295-.245.6827-.245 1.0597v.6055c0 .5165.089.9543.268 1.3135.181.3562.431.6278.752.8148.321.184.693.276 1.118.276.276 0 .525-.0386.748-.1157.225-.0802.42-.1989.583-.3562.163-.1603.289-.3592.378-.5967l1.016.285c-.107.3443-.287.6471-.539.9083-.253.2582-.564.4601-.935.6055-.371.1425-.788.2137-1.251.2137zm6.442.0179c-.433 0-.826-.0817-1.18-.2449-.353-.1663-.633-.4052-.841-.7169-.208-.3146-.312-.6946-.312-1.1398 0-.3918.077-.7094.232-.9528.154-.2464.36-.4393.619-.5788.258-.1396.543-.2434.855-.3117.314-.0713.63-.1277.948-.1692.415-.0534.752-.0935 1.011-.1202.261-.0297.451-.0787.57-.147.121-.0682.182-.187.182-.3562v-.0356c0-.4393-.12-.7806-.361-1.024-.237-.2434-.598-.3651-1.082-.3651-.501 0-.894.1098-1.179.3294-.285.2197-.486.4542-.602.7035l-.997-.3562c.178-.4155.416-.7391.713-.9706.299-.2345.626-.3978.979-.4898.356-.095.707-.1425 1.051-.1425.22 0 .472.0268.757.0802.288.0505.565.1558.832.3161.27.1603.495.4022.673.7258.178.3235.267.7569.267 1.3001v4.5059h-1.051v-.9261h-.053c-.072.1484-.19.3072-.357.4764-.166.1692-.387.3131-.663.4319-.276.1187-.613.1781-1.011.1781zm.161-.944c.415 0 .765-.0816 1.05-.2449.288-.1632.505-.374.65-.6322.149-.2582.223-.5298.223-.8148v-.9617c-.044.0534-.142.1024-.294.1469-.148.0416-.32.0787-.516.1113-.193.0297-.382.0564-.566.0802-.181.0207-.328.0385-.441.0534-.273.0356-.528.0935-.765.1736-.235.0772-.425.1945-.57.3518-.143.1543-.214.3651-.214.6322 0 .3651.135.6412.405.8282.273.184.619.276 1.038.276zm7.866-6.0553v.8905h-3.544v-.8905zm-2.511-1.6385h1.051v6.5184c0 .2968.043.5194.129.6679.089.1454.202.2434.338.2938.14.0475.287.0713.441.0713.116 0 .211-.006.285-.0179.074-.0148.133-.0267.178-.0356l.214.9439c-.072.0268-.171.0535-.299.0802-.127.0297-.289.0445-.485.0445-.297 0-.588-.0638-.873-.1914-.282-.1277-.516-.3221-.703-.5833-.184-.2612-.276-.5907-.276-.9885zm6.886 8.6199c-.659 0-1.228-.1454-1.706-.4363-.475-.2939-.841-.7035-1.1-1.2289-.255-.5283-.382-1.1428-.382-1.8433s.127-1.3179.382-1.8522c.259-.5373.618-.9558 1.078-1.2556.463-.3028 1.003-.4542 1.621-.4542.356 0 .708.0594 1.055.1781.347.1188.663.3117.948.5789.285.2641.512.6144.681 1.0507.17.4364.254.9736.254 1.6118v.4453h-5.271v-.9083h4.203c0-.3859-.077-.7302-.232-1.033-.151-.3028-.368-.5417-.65-.7168-.279-.1752-.608-.2627-.988-.2627-.419 0-.781.1039-1.087.3116-.303.2049-.536.472-.699.8015s-.245.6827-.245 1.0597v.6055c0 .5165.089.9543.267 1.3135.182.3562.432.6278.753.8148.321.184.693.276 1.118.276.276 0 .525-.0386.748-.1157.225-.0802.42-.1989.583-.3562.163-.1603.289-.3592.378-.5967l1.015.285c-.106.3443-.286.6471-.538.9083-.253.2582-.564.4601-.935.6055-.371.1425-.788.2137-1.251.2137zm10.717 2.5647c-.508 0-.944-.0654-1.309-.196-.366-.1276-.67-.2968-.913-.5075-.241-.2078-.432-.4304-.575-.6679l.837-.5877c.095.1246.216.2671.361.4274.146.1633.344.3043.597.423.255.1217.589.1825 1.002.1825.552 0 1.007-.1335 1.366-.4007.36-.2671.539-.6857.539-1.2556v-1.3891h-.089c-.077.1246-.187.279-.329.463-.14.1811-.342.3429-.606.4853-.261.1395-.614.2093-1.06.2093-.552 0-1.047-.1306-1.487-.3918-.436-.2612-.782-.6412-1.037-1.1398-.252-.4987-.379-1.1042-.379-1.8166 0-.7006.124-1.3105.37-1.83.246-.5224.589-.9261 1.029-1.2111.439-.2879.946-.4319 1.522-.4319.446 0 .799.0743 1.06.2227.264.1454.466.3116.605.4986.143.1841.253.3355.33.4542h.107v-1.0864h1.015v7.0349c0 .5877-.134 1.0656-.401 1.4337-.264.371-.62.6426-1.068.8148-.446.1751-.941.2627-1.487.2627zm-.036-3.7579c.421 0 .778-.0965 1.069-.2894.29-.193.512-.4705.663-.8326.151-.3622.227-.7955.227-1.3001 0-.4928-.074-.9276-.223-1.3046-.148-.377-.368-.6723-.659-.8861-.29-.2137-.65-.3205-1.077-.3205-.445 0-.816.1128-1.113.3384-.294.2255-.515.5283-.664.9083-.145.3799-.218.8014-.218 1.2645 0 .4749.074.8949.223 1.26.151.3621.374.6471.668.8549.297.2048.665.3072 1.104.3072zm4.915 1.0508v-6.839h1.016v1.033h.071c.125-.3384.35-.613.677-.8237.326-.2108.694-.3162 1.104-.3162.077 0 .173.0015.289.0045s.204.0074.263.0133v1.0686c-.036-.0089-.117-.0222-.245-.04-.125-.0208-.257-.0312-.396-.0312-.333 0-.63.0698-.891.2093-.258.1365-.463.3265-.614.5699-.149.2404-.223.515-.223.8237v4.3278zm7.236.1424c-.618 0-1.159-.1469-1.625-.4408-.464-.2938-.826-.7049-1.087-1.2333-.258-.5283-.387-1.1457-.387-1.8522 0-.7124.129-1.3343.387-1.8656.261-.5313.623-.9439 1.087-1.2378.466-.2938 1.007-.4408 1.625-.4408.617 0 1.157.147 1.62.4408.466.2939.829.7065 1.087 1.2378.261.5313.392 1.1532.392 1.8656 0 .7065-.131 1.3239-.392 1.8522-.258.5284-.621.9395-1.087 1.2333-.463.2939-1.003.4408-1.62.4408zm0-.9439c.469 0 .855-.1202 1.157-.3606.303-.2405.527-.5566.673-.9484.145-.3918.218-.8163.218-1.2734s-.073-.8831-.218-1.2779c-.146-.3947-.37-.7138-.673-.9572-.302-.2434-.688-.3651-1.157-.3651s-.855.1217-1.158.3651-.527.5625-.672.9572c-.146.3948-.218.8208-.218 1.2779s.072.8816.218 1.2734c.145.3918.369.7079.672.9484.303.2404.689.3606 1.158.3606zm9.013-1.9947v-4.0428h1.05v6.839h-1.05v-1.1577h-.072c-.16.3473-.409.6427-.748.8861-.338.2404-.766.3606-1.282.3606-.427 0-.807-.0935-1.14-.2805-.332-.19-.593-.4749-.783-.8549-.19-.3829-.285-.8652-.285-1.447v-4.3456h1.05v4.2744c0 .4986.14.8964.419 1.1932.282.2968.641.4453 1.077.4453.262 0 .527-.0668.797-.2004.273-.1336.502-.3384.686-.6144.187-.2761.281-.6278.281-1.0553zm2.975 5.3608v-9.4036h1.015v1.0864h.125c.077-.1187.184-.2701.32-.4542.14-.187.339-.3532.597-.4986.261-.1484.614-.2227 1.06-.2227.575 0 1.083.144 1.522.4319.44.288.782.6961 1.029 1.2245.246.5283.369 1.1517.369 1.87 0 .7243-.123 1.3521-.369 1.8834-.247.5283-.588.938-1.024 1.2289-.437.2879-.94.4318-1.51.4318-.439 0-.791-.0727-1.055-.2181-.264-.1484-.467-.3162-.61-.5032-.142-.1899-.252-.3472-.329-.4719h-.089v3.6154zm1.033-5.9841c0 .5165.076.9721.227 1.3669.151.3918.372.699.663.9216.291.2197.647.3295 1.069.3295.439 0 .806-.1157 1.1-.3473.297-.2345.519-.5491.668-.9439.151-.3977.227-.84.227-1.3268 0-.4809-.075-.9143-.223-1.3001-.145-.3889-.367-.6961-.663-.9217-.294-.2286-.664-.3428-1.109-.3428-.427 0-.787.1083-1.078.325-.29.2137-.51.5135-.659.8994-.148.3829-.222.8296-.222 1.3402z" fill="#2a3140"/><path d="m382.98 24.8956h113.823v-1.7912h-113.823zm114.719.8956v25.7469h1.791v-25.7469zm-.896 26.6425h-113.823v1.7911h113.823zm-114.718-.8956v-25.7469h-1.792v25.7469zm.895.8956c-.494 0-.895-.401-.895-.8956h-1.792c0 1.4838 1.203 2.6867 2.687 2.6867zm114.719-.8956c0 .4946-.401.8956-.896.8956v1.7911c1.484 0 2.687-1.2029 2.687-2.6867zm-.896-26.6425c.495 0 .896.4009.896.8956h1.791c0-1.4839-1.203-2.6868-2.687-2.6868zm-113.823-1.7912c-1.484 0-2.687 1.2029-2.687 2.6868h1.792c0-.4947.401-.8956.895-.8956z" fill="#e9ecf2"/><path d="m512.594 25.7912c0-.9893.802-1.7912 1.791-1.7912h102.824c.989 0 1.791.8019 1.791 1.7912v25.7469c0 .9892-.802 1.7912-1.791 1.7912h-102.824c-.989 0-1.791-.802-1.791-1.7912z" fill="#4545e5"/><path d="m527.371 33.291h-.896v4.9257h-4.925v.8956h4.925v4.9257h.896v-4.9257h4.926v-.8956h-4.926z" fill="#fff"/><path d="m549.695 36.895h-1.104c-.066-.3176-.18-.5966-.343-.837-.161-.2405-.356-.4423-.588-.6056-.229-.1662-.482-.2909-.761-.374s-.57-.1247-.873-.1247c-.552 0-1.052.1396-1.501.4186-.445.279-.799.6901-1.064 1.2333-.261.5432-.391 1.2096-.391 1.9992 0 .7895.13 1.4559.391 1.9991.265.5432.619.9543 1.064 1.2333.449.2791.949.4186 1.501.4186.303 0 .594-.0416.873-.1247s.532-.2063.761-.3696c.232-.1662.427-.3695.588-.6099.163-.2434.277-.5225.343-.8371h1.104c-.083.466-.235.8831-.454 1.2511-.22.3681-.493.6813-.82.9395-.326.2553-.693.4497-1.099.5833-.404.1335-.836.2003-1.296.2003-.778 0-1.469-.1899-2.075-.5699-.605-.3799-1.082-.9202-1.429-1.6207s-.521-1.5316-.521-2.4933c0-.9618.174-1.7929.521-2.4934s.824-1.2408 1.429-1.6207c.606-.38 1.297-.5699 2.075-.5699.46 0 .892.0668 1.296.2003.406.1336.773.3295 1.099.5878.327.2552.6.5669.82.935.219.3651.371.7821.454 1.2511zm1.642 6.2691v-6.839h1.015v1.033h.071c.125-.3384.35-.613.677-.8237.326-.2108.694-.3162 1.104-.3162.077 0 .174.0015.289.0045.116.003.204.0074.263.0133v1.0686c-.036-.0089-.117-.0222-.245-.04-.124-.0208-.257-.0312-.396-.0312-.333 0-.629.0698-.891.2093-.258.1365-.463.3265-.614.5699-.148.2404-.223.515-.223.8237v4.3278zm7.324.1424c-.659 0-1.227-.1454-1.705-.4363-.475-.2939-.842-.7035-1.1-1.2289-.255-.5283-.383-1.1428-.383-1.8433s.128-1.3179.383-1.8522c.258-.5373.617-.9558 1.077-1.2556.463-.3028 1.004-.4542 1.621-.4542.356 0 .708.0594 1.055.1781.348.1188.664.3117.949.5789.285.2641.512.6144.681 1.0507.169.4364.254.9736.254 1.6118v.4453h-5.272v-.9083h4.203c0-.3859-.077-.7302-.231-1.033-.152-.3028-.369-.5417-.651-.7168-.279-.1752-.608-.2627-.988-.2627-.418 0-.781.1039-1.086.3116-.303.2049-.536.472-.699.8015-.164.3295-.245.6827-.245 1.0597v.6055c0 .5165.089.9543.267 1.3135.181.3562.432.6278.752.8148.321.184.693.276 1.118.276.276 0 .525-.0386.748-.1157.226-.0802.42-.1989.583-.3562.163-.1603.29-.3592.379-.5967l1.015.285c-.107.3443-.287.6471-.539.9083-.252.2582-.564.4601-.935.6055-.371.1425-.788.2137-1.251.2137zm6.443.0179c-.434 0-.827-.0817-1.18-.2449-.354-.1663-.634-.4052-.842-.7169-.208-.3146-.311-.6946-.311-1.1398 0-.3918.077-.7094.231-.9528.154-.2464.361-.4393.619-.5788.258-.1396.543-.2434.855-.3117.314-.0713.631-.1277.948-.1692.416-.0534.753-.0935 1.011-.1202.261-.0297.451-.0787.57-.147.121-.0682.182-.187.182-.3562v-.0356c0-.4393-.12-.7806-.36-1.024-.238-.2434-.598-.3651-1.082-.3651-.502 0-.895.1098-1.18.3294-.285.2197-.485.4542-.601.7035l-.998-.3562c.179-.4155.416-.7391.713-.9706.3-.2345.626-.3978.979-.4898.357-.095.707-.1425 1.051-.1425.22 0 .472.0268.757.0802.288.0505.566.1558.833.3161.27.1603.494.4022.672.7258.178.3235.267.7569.267 1.3001v4.5059h-1.051v-.9261h-.053c-.071.1484-.19.3072-.356.4764-.167.1692-.388.3131-.664.4319-.276.1187-.613.1781-1.01.1781zm.16-.944c.415 0 .766-.0816 1.051-.2449.288-.1632.504-.374.65-.6322.148-.2582.222-.5298.222-.8148v-.9617c-.044.0534-.142.1024-.294.1469-.148.0416-.32.0787-.516.1113-.193.0297-.381.0564-.565.0802-.182.0207-.328.0385-.441.0534-.273.0356-.529.0935-.766.1736-.235.0772-.425.1945-.57.3518-.142.1543-.214.3651-.214.6322 0 .3651.135.6412.405.8282.274.184.619.276 1.038.276zm7.866-6.0553v.8905h-3.544v-.8905zm-2.511-1.6385h1.051v6.5184c0 .2968.043.5194.129.6679.089.1454.202.2434.338.2938.14.0475.287.0713.441.0713.116 0 .211-.006.285-.0179.074-.0148.134-.0267.178-.0356l.214.9439c-.071.0268-.171.0535-.298.0802-.128.0297-.29.0445-.486.0445-.297 0-.587-.0638-.872-.1914-.282-.1277-.517-.3221-.704-.5833-.184-.2612-.276-.5907-.276-.9885zm6.886 8.6199c-.659 0-1.228-.1454-1.706-.4363-.474-.2939-.841-.7035-1.099-1.2289-.256-.5283-.383-1.1428-.383-1.8433s.127-1.3179.383-1.8522c.258-.5373.617-.9558 1.077-1.2556.463-.3028 1.004-.4542 1.621-.4542.356 0 .708.0594 1.055.1781.347.1188.664.3117.949.5789.284.2641.512.6144.681 1.0507.169.4364.254.9736.254 1.6118v.4453h-5.272v-.9083h4.203c0-.3859-.077-.7302-.232-1.033-.151-.3028-.368-.5417-.65-.7168-.279-.1752-.608-.2627-.988-.2627-.419 0-.781.1039-1.086.3116-.303.2049-.536.472-.7.8015-.163.3295-.244.6827-.244 1.0597v.6055c0 .5165.089.9543.267 1.3135.181.3562.432.6278.752.8148.321.184.693.276 1.118.276.276 0 .525-.0386.748-.1157.225-.0802.42-.1989.583-.3562.163-.1603.289-.3592.379-.5967l1.015.285c-.107.3443-.287.6471-.539.9083-.252.2582-.564.4601-.935.6055-.371.1425-.788.2137-1.251.2137zm10.931-6.9814v.8905h-3.545v-.8905zm-2.512-1.6385h1.051v6.5184c0 .2968.043.5194.129.6679.089.1454.202.2434.339.2938.139.0475.286.0713.44.0713.116 0 .211-.006.285-.0179.075-.0148.134-.0267.178-.0356l.214.9439c-.071.0268-.17.0535-.298.0802-.128.0297-.29.0445-.485.0445-.297 0-.588-.0638-.873-.1914-.282-.1277-.517-.3221-.704-.5833-.184-.2612-.276-.5907-.276-.9885zm6.886 8.6199c-.659 0-1.227-.1454-1.705-.4363-.475-.2939-.842-.7035-1.1-1.2289-.255-.5283-.383-1.1428-.383-1.8433s.128-1.3179.383-1.8522c.258-.5373.617-.9558 1.078-1.2556.463-.3028 1.003-.4542 1.62-.4542.356 0 .708.0594 1.055.1781.348.1188.664.3117.949.5789.285.2641.512.6144.681 1.0507.169.4364.254.9736.254 1.6118v.4453h-5.272v-.9083h4.203c0-.3859-.077-.7302-.231-1.033-.152-.3028-.368-.5417-.65-.7168-.279-.1752-.609-.2627-.989-.2627-.418 0-.78.1039-1.086.3116-.303.2049-.536.472-.699.8015s-.245.6827-.245 1.0597v.6055c0 .5165.089.9543.267 1.3135.181.3562.432.6278.753.8148.32.184.693.276 1.117.276.276 0 .525-.0386.748-.1157.226-.0802.42-.1989.583-.3562.164-.1603.29-.3592.379-.5967l1.015.285c-.107.3443-.286.6471-.539.9083-.252.2582-.564.4601-.935.6055-.371.1425-.788.2137-1.251.2137zm9.275-5.4498-.944.2672c-.06-.1573-.147-.3102-.263-.4586-.113-.1514-.267-.2761-.463-.374-.196-.098-.447-.147-.753-.147-.418 0-.767.0965-1.046.2895-.276.1899-.414.4318-.414.7257 0 .2612.095.4675.285.6189s.487.2775.89.3785l1.016.2493c.611.1484 1.067.3755 1.367.6812.299.3028.449.6931.449 1.171 0 .3918-.113.7421-.338 1.0508-.223.3087-.534.5521-.935.7302s-.867.2671-1.398.2671c-.698 0-1.275-.1513-1.732-.4541s-.747-.7451-.868-1.3268l.997-.2494c.095.3681.274.6441.539.8282.267.184.616.276 1.046.276.49 0 .879-.1039 1.166-.3116.291-.2108.437-.4631.437-.757 0-.2374-.083-.4363-.25-.5966-.166-.1632-.421-.2849-.765-.3651l-1.14-.2671c-.626-.1484-1.087-.3785-1.38-.6902-.291-.3146-.437-.7079-.437-1.1799 0-.3858.109-.7272.325-1.024.22-.2969.518-.5299.895-.6991.38-.1692.811-.2538 1.291-.2538.677 0 1.208.1485 1.594.4453.389.2968.665.6886.829 1.1754zm4.68-1.5316v.8905h-3.544v-.8905zm-2.511-1.6385h1.051v6.5184c0 .2968.043.5194.129.6679.089.1454.202.2434.338.2938.14.0475.287.0713.441.0713.116 0 .211-.006.285-.0179.074-.0148.134-.0267.178-.0356l.214.9439c-.071.0268-.171.0535-.298.0802-.128.0297-.29.0445-.486.0445-.297 0-.588-.0638-.872-.1914-.282-.1277-.517-.3221-.704-.5833-.184-.2612-.276-.5907-.276-.9885z" fill="#fff"/><path d="m0 77.3301h640v.895579h-640z" fill="#e9ecf2"/><g filter="url(#a)"><path d="m0 0h640v57.9878h-640z" fill="#fafbfc" transform="translate(0 78.2246)"/><g clip-path="url(#g)"><rect fill="#fff" height="11.6425" rx="1.34337" stroke="#c9d0db" stroke-width=".895579" width="11.6425" x="22.8369" y="101.399"/></g><rect fill="#f3f4f7" height="17.9116" rx="1.79116" width="17.9116" x="51.9438" y="98.0098"/><path d="m56.4214 104.845.5277-.566 3.9502 4.24 3.9502-4.24.5277.566-4.4779 4.807z" fill="#2a3140"/><path d="m81.1772 112.219h-2.0151l3.6689-10.422h2.3305l3.6739 10.422h-2.015l-2.7835-8.284h-.0814zm.0661-4.086h5.4956v1.516h-5.4956zm12.0547 4.238c-.7802 0-1.4502-.171-2.0099-.514-.5564-.342-.9855-.815-1.2874-1.419-.2985-.607-.4478-1.306-.4478-2.097 0-.794.1526-1.494.458-2.101.3053-.611.7361-1.086 1.2924-1.425.5598-.343 1.2213-.514 1.9846-.514.6343 0 1.1958.117 1.6843.351.4918.231.8837.558 1.1754.982.2917.421.458.913.4987 1.476h-1.7606c-.0713-.377-.2409-.69-.5089-.941-.2646-.255-.6191-.382-1.0635-.382-.3765 0-.7073.102-.9923.305-.2849.2-.5071.489-.6666.865-.156.377-.234.828-.234 1.354 0 .532.078.99.234 1.374.1561.38.3749.673.6565.88.2849.204.6191.305 1.0024.305.2714 0 .5139-.051.7277-.152.2171-.106.3986-.256.5444-.453.1459-.197.246-.436.3003-.718h1.7606c-.0441.553-.207 1.043-.4885 1.471-.2816.424-.6649.756-1.15.997-.4851.238-1.055.356-1.7098.356zm8.27 0c-.78 0-1.45-.171-2.0098-.514-.5564-.342-.9855-.815-1.2874-1.419-.2985-.607-.4478-1.306-.4478-2.097 0-.794.1527-1.494.458-2.101.3053-.611.7361-1.086 1.2924-1.425.5596-.343 1.2216-.514 1.9846-.514.634 0 1.196.117 1.684.351.492.231.884.558 1.176.982.291.421.458.913.498 1.476h-1.76c-.071-.377-.241-.69-.509-.941-.265-.255-.619-.382-1.064-.382-.376 0-.707.102-.992.305-.285.2-.507.489-.6664.865-.1561.377-.2341.828-.2341 1.354 0 .532.078.99.2341 1.374.1564.38.3744.673.6564.88.285.204.619.305 1.002.305.272 0 .514-.051.728-.152.217-.106.399-.256.545-.453.145-.197.245-.436.3-.718h1.76c-.044.553-.207 1.043-.488 1.471-.282.424-.665.756-1.15.997-.485.238-1.055.356-1.71.356zm8.27 0c-.763 0-1.425-.168-1.984-.503-.56-.336-.994-.806-1.303-1.41-.305-.604-.458-1.309-.458-2.117 0-.807.153-1.514.458-2.122.309-.607.743-1.078 1.303-1.414.559-.336 1.221-.504 1.984-.504.764 0 1.425.168 1.985.504s.992.807 1.297 1.414c.309.608.463 1.315.463 2.122 0 .808-.154 1.513-.463 2.117-.305.604-.737 1.074-1.297 1.41-.56.335-1.221.503-1.985.503zm.01-1.475c.414 0 .76-.114 1.038-.341.279-.231.486-.54.621-.926.139-.387.209-.818.209-1.293 0-.478-.07-.911-.209-1.297-.135-.39-.342-.701-.621-.932-.278-.23-.624-.346-1.038-.346-.424 0-.776.116-1.058.346-.278.231-.487.542-.626.932-.136.386-.203.819-.203 1.297 0 .475.067.906.203 1.293.139.386.348.695.626.926.282.227.634.341 1.058.341zm10.281-1.964v-4.529h1.842v7.816h-1.787v-1.389h-.081c-.176.437-.466.795-.87 1.073-.4.278-.894.418-1.481.418-.512 0-.965-.114-1.358-.341-.391-.231-.696-.565-.916-1.003-.221-.441-.331-.973-.331-1.598v-4.976h1.842v4.691c0 .496.136.889.407 1.181s.628.438 1.069.438c.271 0 .534-.067.788-.199.255-.132.463-.329.626-.59.166-.265.25-.596.25-.992zm5.578-1.293v4.58h-1.842v-7.816h1.76v1.328h.092c.18-.438.466-.785.86-1.043.397-.258.887-.387 1.471-.387.539 0 1.009.115 1.409.346.404.231.716.565.936 1.002.224.438.334.969.331 1.593v4.977h-1.842v-4.692c0-.522-.136-.931-.407-1.226-.268-.295-.64-.443-1.114-.443-.323 0-.609.071-.86.214-.248.139-.443.341-.586.605-.139.265-.208.586-.208.962zm10.793-3.236v1.425h-4.494v-1.425zm-3.384-1.873h1.842v7.338c0 .247.037.437.112.57.078.129.179.217.305.264.125.048.265.072.417.072.116 0 .221-.009.316-.026.098-.017.173-.032.224-.046l.31 1.44c-.098.034-.239.072-.422.112-.18.041-.401.065-.662.072-.461.013-.877-.056-1.247-.209-.369-.156-.663-.397-.88-.723-.214-.325-.319-.732-.315-1.221z" fill="#404857"/></g><g filter="url(#b)"><path d="m0 0h701.238v83.4143h-701.238z" fill="#fff" transform="translate(0 136.213)"/><rect fill="#fff" height="10.4268" rx="1.20309" stroke="#c9d0db" stroke-width=".802061" width="10.4268" x="20.4528" y="172.708"/><rect fill="#f2f4f7" height="57.7484" rx="1.60412" width="91.435" x="44.9155" y="149.045"/><path d="m155.137 173.253h1.479v5.336c0 .585-.138 1.099-.414 1.543-.274.444-.66.791-1.157 1.041-.497.247-1.078.371-1.742.371-.668 0-1.25-.124-1.747-.371-.497-.25-.882-.597-1.156-1.041s-.411-.958-.411-1.543v-5.336h1.479v5.212c0 .34.075.643.224.909.151.266.364.475.638.626.274.149.598.224.973.224s.699-.075.973-.224c.276-.151.489-.36.638-.626s.223-.569.223-.909zm3.023 10.464v-8.422h1.42v1.013h.084c.074-.149.179-.307.315-.475.135-.17.319-.315.55-.434.231-.123.526-.184.885-.184.473 0 .9.121 1.28.363.383.239.686.594.909 1.065.226.468.339 1.042.339 1.722 0 .673-.11 1.245-.331 1.715-.22.471-.521.83-.901 1.077s-.811.371-1.292.371c-.351 0-.642-.059-.873-.176s-.417-.258-.558-.423c-.138-.167-.246-.325-.323-.474h-.06v3.262zm1.416-5.359c0 .396.056.743.168 1.04.114.298.277.531.49.698.215.165.476.247.782.247.319 0 .586-.085.801-.255.215-.173.378-.408.487-.706.111-.3.167-.642.167-1.024 0-.381-.054-.718-.163-1.013s-.272-.527-.487-.694c-.215-.168-.484-.251-.805-.251-.309 0-.571.081-.786.243s-.379.389-.49.682c-.109.292-.164.636-.164 1.033zm7.875 3.17c-.481 0-.911-.124-1.292-.371-.38-.247-.68-.606-.901-1.077-.22-.47-.331-1.042-.331-1.715 0-.68.112-1.254.335-1.722.226-.471.531-.826.913-1.065.383-.242.81-.363 1.28-.363.359 0 .654.061.886.184.231.119.414.264.55.434.135.168.24.326.315.475h.06v-3.055h1.447v8.167h-1.419v-.965h-.088c-.075.149-.182.307-.323.474-.141.165-.327.306-.558.423-.232.117-.523.176-.874.176zm.403-1.185c.306 0 .566-.082.782-.247.215-.167.379-.4.49-.698.112-.297.168-.644.168-1.04 0-.397-.056-.741-.168-1.033-.109-.293-.271-.52-.486-.682-.213-.162-.475-.243-.786-.243-.322 0-.59.083-.805.251-.216.167-.378.399-.487.694s-.163.632-.163 1.013c0 .382.054.724.163 1.024.112.298.275.533.491.706.218.17.485.255.801.255zm6.16 1.201c-.388 0-.738-.07-1.049-.208-.308-.141-.553-.348-.734-.622-.178-.274-.267-.611-.267-1.013 0-.345.064-.631.192-.857.127-.226.301-.407.522-.542.221-.136.469-.238.746-.307.279-.072.567-.124.865-.156.359-.037.65-.07.873-.1.224-.031.386-.079.487-.143.103-.067.155-.169.155-.307v-.024c0-.3-.089-.533-.267-.698s-.435-.247-.769-.247c-.354 0-.634.077-.842.231-.205.154-.343.336-.415.546l-1.347-.191c.106-.372.281-.683.526-.933.245-.253.544-.441.897-.566.354-.128.745-.192 1.173-.192.295 0 .588.035.881.104.292.069.559.183.801.343.242.157.436.371.582.642.149.271.224.61.224 1.017v4.099h-1.388v-.841h-.048c-.087.17-.211.329-.371.478-.156.146-.354.265-.594.355-.236.088-.514.132-.833.132zm.375-1.061c.289 0 .541-.057.753-.172.213-.117.377-.271.491-.462.117-.192.175-.4.175-.626v-.722c-.045.037-.122.072-.231.104-.106.032-.226.06-.359.083-.133.024-.264.046-.395.064-.13.019-.243.035-.339.048-.215.029-.408.077-.578.144-.17.066-.304.159-.403.279-.098.117-.147.268-.147.454 0 .266.097.467.291.602.194.136.441.204.742.204zm7.369-5.188v1.117h-3.521v-1.117zm-2.652-1.467h1.443v5.75c0 .194.03.343.088.446.061.101.141.17.239.208.099.037.208.055.327.055.091 0 .173-.006.248-.019.077-.014.135-.026.175-.036l.243 1.128c-.077.027-.187.056-.331.088-.141.032-.313.05-.518.056-.362.01-.687-.044-.977-.164-.29-.122-.52-.311-.69-.566-.167-.255-.25-.574-.247-.957zm6.505 7.712c-.614 0-1.145-.128-1.591-.383-.444-.258-.786-.622-1.025-1.093-.239-.473-.359-1.03-.359-1.671 0-.63.12-1.183.359-1.658.242-.479.579-.851 1.013-1.117.433-.268.942-.403 1.527-.403.377 0 .734.061 1.068.184.338.119.636.305.894.558.26.253.465.574.614.965.149.388.223.851.223 1.388v.442h-5.02v-.973h3.636c-.002-.276-.062-.522-.179-.737-.117-.218-.281-.39-.491-.515-.207-.125-.449-.187-.725-.187-.295 0-.555.072-.778.215-.223.141-.397.327-.522.558-.122.229-.185.48-.188.754v.849c0 .357.066.662.196.918.13.252.312.446.546.582.234.133.508.199.822.199.21 0 .4-.029.57-.088.17-.061.317-.15.442-.267s.22-.262.283-.434l1.348.151c-.085.356-.247.667-.486.933-.237.263-.54.468-.909.614-.37.144-.793.216-1.268.216zm6.793-.12v-8.167h5.312v1.241h-3.832v2.217h3.557v1.24h-3.557v2.229h3.864v1.24zm6.757 0v-6.125h1.38v1.041h.072c.127-.351.339-.625.634-.822.295-.199.647-.299 1.056-.299.415 0 .765.101 1.049.303.287.2.489.472.606.818h.064c.136-.34.364-.612.686-.814.324-.204.708-.307 1.152-.307.564 0 1.024.178 1.38.535.356.356.534.876.534 1.559v4.111h-1.447v-3.888c0-.38-.101-.658-.303-.833-.202-.178-.45-.267-.742-.267-.348 0-.621.109-.817.327-.194.215-.292.495-.292.841v3.82h-1.415v-3.948c0-.316-.096-.569-.287-.757-.189-.189-.436-.283-.742-.283-.207 0-.396.053-.566.159-.17.104-.306.251-.407.443-.101.188-.151.409-.151.662v3.724zm11.84.124c-.388 0-.738-.07-1.049-.208-.308-.141-.553-.348-.733-.622-.178-.274-.267-.611-.267-1.013 0-.345.063-.631.191-.857s.302-.407.522-.542c.221-.136.469-.238.746-.307.279-.072.568-.124.865-.156.359-.037.65-.07.874-.1.223-.031.385-.079.486-.143.104-.067.156-.169.156-.307v-.024c0-.3-.09-.533-.268-.698s-.434-.247-.769-.247c-.354 0-.634.077-.842.231-.204.154-.343.336-.414.546l-1.348-.191c.106-.372.282-.683.526-.933.245-.253.544-.441.897-.566.354-.128.745-.192 1.173-.192.295 0 .589.035.881.104s.56.183.802.343c.241.157.435.371.582.642.149.271.223.61.223 1.017v4.099h-1.388v-.841h-.048c-.087.17-.211.329-.37.478-.157.146-.355.265-.595.355-.236.088-.514.132-.833.132zm.375-1.061c.29 0 .541-.057.754-.172.212-.117.376-.271.49-.462.117-.192.175-.4.175-.626v-.722c-.045.037-.122.072-.231.104-.106.032-.226.06-.359.083-.133.024-.264.046-.394.064-.131.019-.244.035-.339.048-.216.029-.408.077-.579.144-.17.066-.304.159-.402.279-.099.117-.148.268-.148.454 0 .266.097.467.291.602.194.136.442.204.742.204zm4.31.937v-6.125h1.444v6.125zm.726-6.994c-.228 0-.425-.076-.59-.227-.165-.155-.247-.339-.247-.555 0-.218.082-.402.247-.554.165-.154.362-.231.59-.231.231 0 .428.077.59.231.165.152.248.336.248.554 0 .216-.083.4-.248.555-.162.151-.359.227-.59.227zm3.646-1.173v8.167h-1.444v-8.167zm5.382 8.167h-1.579l2.875-8.167h1.826l2.879 8.167h-1.579l-2.181-6.492h-.064zm.052-3.202h4.306v1.188h-4.306zm9.047 3.31c-.481 0-.911-.124-1.292-.371-.38-.247-.68-.606-.901-1.077-.22-.47-.331-1.042-.331-1.715 0-.68.112-1.254.335-1.722.226-.471.531-.826.913-1.065.383-.242.81-.363 1.28-.363.359 0 .654.061.886.184.231.119.414.264.55.434.136.168.241.326.315.475h.06v-3.055h1.447v8.167h-1.419v-.965h-.088c-.074.149-.182.307-.323.474-.141.165-.327.306-.558.423-.232.117-.523.176-.874.176zm.403-1.185c.306 0 .566-.082.782-.247.215-.167.379-.4.49-.698.112-.297.168-.644.168-1.04 0-.397-.056-.741-.168-1.033-.109-.293-.271-.52-.486-.682-.213-.162-.475-.243-.786-.243-.321 0-.59.083-.805.251-.216.167-.378.399-.487.694s-.163.632-.163 1.013c0 .382.054.724.163 1.024.112.298.275.533.491.706.218.17.485.255.801.255zm6.67 1.185c-.481 0-.912-.124-1.292-.371s-.68-.606-.901-1.077c-.22-.47-.331-1.042-.331-1.715 0-.68.112-1.254.335-1.722.226-.471.53-.826.913-1.065.383-.242.81-.363 1.28-.363.359 0 .654.061.886.184.231.119.414.264.55.434.135.168.24.326.315.475h.06v-3.055h1.447v8.167h-1.419v-.965h-.088c-.075.149-.182.307-.323.474-.141.165-.327.306-.558.423-.232.117-.523.176-.874.176zm.403-1.185c.306 0 .566-.082.782-.247.215-.167.378-.4.49-.698.112-.297.168-.644.168-1.04 0-.397-.056-.741-.168-1.033-.109-.293-.271-.52-.486-.682-.213-.162-.475-.243-.786-.243-.322 0-.59.083-.805.251-.216.167-.378.399-.487.694s-.163.632-.163 1.013c0 .382.054.724.163 1.024.112.298.275.533.491.706.218.17.485.255.801.255zm4.397 1.077v-6.125h1.4v1.021h.064c.111-.354.303-.626.574-.818.274-.194.586-.291.937-.291.08 0 .169.004.267.012.101.006.185.015.251.028v1.328c-.061-.021-.158-.04-.291-.056-.13-.018-.256-.028-.379-.028-.263 0-.499.058-.709.172-.208.111-.371.267-.491.466-.119.2-.179.43-.179.69v3.601zm6.912.12c-.614 0-1.145-.128-1.591-.383-.444-.258-.786-.622-1.025-1.093-.239-.473-.359-1.03-.359-1.671 0-.63.12-1.183.359-1.658.242-.479.579-.851 1.013-1.117.433-.268.942-.403 1.527-.403.377 0 .734.061 1.069.184.337.119.635.305.893.558.26.253.465.574.614.965.149.388.223.851.223 1.388v.442h-5.02v-.973h3.636c-.002-.276-.062-.522-.179-.737-.117-.218-.28-.39-.49-.515-.208-.125-.45-.187-.726-.187-.295 0-.554.072-.778.215-.223.141-.397.327-.522.558-.122.229-.185.48-.188.754v.849c0 .357.066.662.196.918.13.252.312.446.546.582.234.133.508.199.822.199.21 0 .4-.029.57-.088.17-.061.317-.15.442-.267s.22-.262.284-.434l1.347.151c-.085.356-.247.667-.486.933-.237.263-.54.468-.909.614-.37.144-.793.216-1.268.216zm8.785-4.626-1.316.144c-.037-.133-.102-.258-.195-.375-.091-.117-.213-.212-.367-.283-.154-.072-.343-.108-.566-.108-.301 0-.553.065-.758.195-.202.131-.302.299-.299.507-.003.178.063.323.195.434.136.112.359.204.67.276l1.045.223c.58.125 1.01.323 1.292.594.285.271.428.626.431 1.065-.003.385-.116.725-.339 1.02-.221.293-.528.522-.921.686-.394.165-.846.248-1.356.248-.75 0-1.353-.157-1.81-.471-.458-.316-.73-.756-.818-1.32l1.408-.135c.064.276.199.485.406.626.208.141.478.211.81.211.343 0 .618-.07.825-.211.21-.141.315-.315.315-.523 0-.175-.067-.32-.203-.434-.133-.115-.34-.202-.622-.264l-1.045-.219c-.587-.122-1.022-.328-1.304-.618-.281-.292-.421-.662-.418-1.108-.003-.378.099-.705.307-.981.21-.28.501-.495.873-.646.375-.155.807-.232 1.296-.232.718 0 1.283.153 1.695.459.414.306.671.719.769 1.24zm6.163 0-1.316.144c-.037-.133-.102-.258-.195-.375-.091-.117-.213-.212-.367-.283-.154-.072-.343-.108-.566-.108-.301 0-.553.065-.758.195-.202.131-.302.299-.299.507-.003.178.062.323.195.434.136.112.359.204.67.276l1.045.223c.579.125 1.01.323 1.292.594.284.271.428.626.43 1.065-.002.385-.115.725-.339 1.02-.22.293-.527.522-.921.686-.393.165-.845.248-1.355.248-.75 0-1.353-.157-1.811-.471-.457-.316-.729-.756-.817-1.32l1.407-.135c.064.276.2.485.407.626.208.141.477.211.81.211.343 0 .618-.07.825-.211.21-.141.315-.315.315-.523 0-.175-.068-.32-.203-.434-.133-.115-.341-.202-.622-.264l-1.045-.219c-.588-.122-1.022-.328-1.304-.618-.282-.292-.421-.662-.419-1.108-.002-.378.1-.705.307-.981.21-.28.501-.495.874-.646.374-.155.806-.232 1.296-.232.717 0 1.282.153 1.694.459.415.306.671.719.77 1.24z" fill="#2a3140"/><path d="m275.6 177.92c0-7.419 6.015-13.434 13.434-13.434h45.329c7.419 0 13.434 6.015 13.434 13.434s-6.015 13.434-13.434 13.434h-45.329c-7.419 0-13.434-6.015-13.434-13.434z" fill="#f8f8f8"/><path d="m295.213 171.65c.346 0 .627.281.627.627v2.356l-1.254 1.253v-2.982h-8.777v10.031h8.777v-1.729l1.254-1.254v3.61c0 .346-.281.626-.627.626h-10.03c-.346 0-.627-.28-.627-.626v-11.285c0-.346.281-.627.627-.627zm1.115 4.268.886.887-4.876 4.876-.888-.001.002-.886zm-5.503 2.001v1.254h-3.135v-1.254zm1.88-2.507v1.254h-5.015v-1.254z" fill="#8992a3"/><path d="m310.388 182.42h-2.952v-9.119h3.046c.893 0 1.66.183 2.301.548.642.362 1.133.883 1.474 1.563.345.677.517 1.488.517 2.435 0 .95-.174 1.766-.521 2.449-.345.683-.843 1.208-1.496 1.576-.653.365-1.443.548-2.369.548zm-1.576-1.202h1.5c.695 0 1.272-.131 1.732-.392.46-.264.805-.646 1.033-1.144.229-.502.343-1.113.343-1.835 0-.715-.114-1.322-.343-1.821-.225-.498-.562-.877-1.01-1.135-.449-.258-1.005-.388-1.67-.388h-1.585zm7.566 1.202v-6.839h1.286v1.086h.072c.124-.368.344-.657.659-.868.317-.214.676-.32 1.077-.32.083 0 .181.003.294.008.116.006.206.014.272.023v1.273c-.054-.015-.149-.031-.285-.049-.137-.021-.273-.031-.41-.031-.315 0-.595.067-.841.2-.244.131-.437.313-.579.548-.143.232-.214.496-.214.793v4.176zm6.741.151c-.434 0-.825-.08-1.176-.24-.35-.163-.628-.399-.832-.708-.202-.309-.303-.687-.303-1.135 0-.386.074-.704.223-.953.148-.25.348-.447.601-.592.252-.146.534-.256.846-.33.311-.074.629-.131.952-.169.41-.048.742-.086.998-.116.255-.033.441-.084.556-.156.116-.071.174-.187.174-.347v-.031c0-.389-.11-.69-.33-.904-.216-.214-.54-.321-.97-.321-.448 0-.802.1-1.06.299-.255.196-.432.414-.53.654l-1.251-.285c.149-.415.365-.751.65-1.006.288-.258.619-.445.993-.561.374-.119.767-.178 1.18-.178.273 0 .563.033.868.098.309.062.597.178.864.347.27.169.491.411.663.726.173.312.259.717.259 1.215v4.542h-1.3v-.935h-.054c-.086.172-.215.341-.387.507-.172.167-.394.305-.664.415-.27.109-.593.164-.97.164zm.289-1.068c.368 0 .683-.073.944-.218.264-.146.465-.336.601-.57.14-.238.209-.492.209-.762v-.881c-.047.047-.139.092-.276.133-.133.039-.286.073-.458.103-.172.026-.34.052-.503.075-.164.021-.3.039-.41.054-.258.032-.494.087-.708.165-.211.077-.38.188-.508.333-.124.143-.187.333-.187.57 0 .33.122.579.366.748.243.167.553.25.93.25zm8.114-5.922v1.069h-3.865v-1.069zm-2.805 6.839v-7.632c0-.427.093-.782.28-1.064.187-.285.435-.497.744-.636.308-.143.644-.214 1.006-.214.267 0 .496.022.686.067.19.041.331.08.423.115l-.312 1.078c-.062-.018-.143-.039-.241-.062-.097-.027-.216-.04-.356-.04-.323 0-.555.08-.694.24-.137.16-.205.392-.205.695v7.453zm7.371-6.839v1.069h-3.736v-1.069zm-2.734-1.639h1.331v6.47c0 .258.039.453.116.583.077.128.176.215.298.263.125.044.26.067.405.067.107 0 .201-.008.281-.023.08-.014.142-.026.187-.035l.24 1.099c-.077.03-.187.06-.329.09-.143.032-.321.05-.534.053-.351.006-.677-.056-.98-.187s-.548-.332-.735-.606c-.187-.273-.28-.615-.28-1.028z" fill="#2a3140"/></g><g filter="url(#c)"><path d="m0 0h701.238v83.4143h-701.238z" fill="#fff" transform="translate(0 219.627)"/><rect fill="#fff" height="10.4268" rx="1.20309" stroke="#c9d0db" stroke-width=".802061" width="10.4268" x="20.4528" y="256.122"/><rect fill="#f2f4f7" height="57.7484" rx="1.60412" width="91.435" x="44.9155" y="232.459"/><path d="m155.137 256.668h1.479v5.335c0 .585-.138 1.099-.414 1.543-.274.444-.66.791-1.157 1.041-.497.247-1.078.371-1.742.371-.668 0-1.25-.124-1.747-.371-.497-.25-.882-.597-1.156-1.041s-.411-.958-.411-1.543v-5.335h1.479v5.211c0 .341.075.644.224.909.151.266.364.475.638.626.274.149.598.224.973.224s.699-.075.973-.224c.276-.151.489-.36.638-.626.149-.265.223-.568.223-.909zm3.023 10.463v-8.422h1.42v1.013h.084c.074-.149.179-.307.315-.475.135-.17.319-.315.55-.434.231-.122.526-.184.885-.184.473 0 .9.121 1.28.363.383.24.686.594.909 1.065.226.468.339 1.042.339 1.723 0 .672-.11 1.244-.331 1.714-.22.471-.521.83-.901 1.077s-.811.371-1.292.371c-.351 0-.642-.059-.873-.176s-.417-.258-.558-.422c-.138-.168-.246-.326-.323-.475h-.06v3.262zm1.416-5.359c0 .396.056.743.168 1.04.114.298.277.531.49.698.215.165.476.247.782.247.319 0 .586-.085.801-.255.215-.173.378-.408.487-.706.111-.3.167-.642.167-1.024 0-.381-.054-.718-.163-1.013s-.272-.527-.487-.694c-.215-.168-.484-.251-.805-.251-.309 0-.571.081-.786.243s-.379.389-.49.682c-.109.292-.164.636-.164 1.033zm7.875 3.17c-.481 0-.911-.124-1.292-.371-.38-.247-.68-.606-.901-1.077-.22-.47-.331-1.042-.331-1.714 0-.681.112-1.255.335-1.723.226-.471.531-.825.913-1.065.383-.242.81-.363 1.28-.363.359 0 .654.062.886.184.231.119.414.264.55.434.135.168.24.326.315.475h.06v-3.054h1.447v8.166h-1.419v-.965h-.088c-.075.149-.182.307-.323.475-.141.164-.327.305-.558.422-.232.117-.523.176-.874.176zm.403-1.185c.306 0 .566-.082.782-.247.215-.167.379-.4.49-.698.112-.297.168-.644.168-1.04 0-.397-.056-.741-.168-1.033-.109-.293-.271-.52-.486-.682-.213-.162-.475-.243-.786-.243-.322 0-.59.083-.805.251-.216.167-.378.399-.487.694s-.163.632-.163 1.013c0 .382.054.724.163 1.024.112.298.275.533.491.706.218.17.485.255.801.255zm6.16 1.201c-.388 0-.738-.07-1.049-.208-.308-.141-.553-.348-.734-.622-.178-.274-.267-.611-.267-1.013 0-.345.064-.631.192-.857.127-.226.301-.407.522-.542.221-.136.469-.238.746-.307.279-.072.567-.124.865-.156.359-.037.65-.07.873-.099.224-.032.386-.08.487-.144.103-.067.155-.169.155-.307v-.024c0-.3-.089-.533-.267-.698s-.435-.247-.769-.247c-.354 0-.634.077-.842.231-.205.154-.343.337-.415.547l-1.347-.192c.106-.372.281-.683.526-.933.245-.253.544-.441.897-.566.354-.128.745-.192 1.173-.192.295 0 .588.035.881.104.292.069.559.184.801.343.242.157.436.371.582.642.149.271.224.61.224 1.017v4.099h-1.388v-.841h-.048c-.087.17-.211.329-.371.478-.156.146-.354.265-.594.355-.236.088-.514.132-.833.132zm.375-1.061c.289 0 .541-.057.753-.172.213-.117.377-.271.491-.462.117-.191.175-.4.175-.626v-.722c-.045.037-.122.072-.231.104-.106.032-.226.06-.359.084-.133.023-.264.045-.395.063-.13.019-.243.035-.339.048-.215.029-.408.077-.578.144-.17.066-.304.159-.403.279-.098.117-.147.268-.147.454 0 .266.097.467.291.603.194.135.441.203.742.203zm7.369-5.188v1.117h-3.521v-1.117zm-2.652-1.467h1.443v5.75c0 .194.03.343.088.446.061.101.141.17.239.208.099.037.208.056.327.056.091 0 .173-.007.248-.02.077-.014.135-.026.175-.036l.243 1.128c-.077.027-.187.056-.331.088-.141.032-.313.05-.518.056-.362.01-.687-.044-.977-.164-.29-.122-.52-.311-.69-.566-.167-.255-.25-.574-.247-.957zm6.505 7.712c-.614 0-1.145-.128-1.591-.383-.444-.258-.786-.622-1.025-1.093-.239-.473-.359-1.03-.359-1.671 0-.63.12-1.183.359-1.658.242-.479.579-.851 1.013-1.117.433-.268.942-.403 1.527-.403.377 0 .734.062 1.068.184.338.119.636.306.894.558.26.253.465.574.614.965.149.388.223.851.223 1.388v.442h-5.02v-.973h3.636c-.002-.276-.062-.522-.179-.737-.117-.218-.281-.39-.491-.515-.207-.125-.449-.187-.725-.187-.295 0-.555.072-.778.215-.223.141-.397.327-.522.558-.122.229-.185.48-.188.754v.849c0 .357.066.662.196.918.13.252.312.446.546.582.234.133.508.199.822.199.21 0 .4-.029.57-.088.17-.061.317-.15.442-.267s.22-.262.283-.434l1.348.151c-.085.356-.247.667-.486.933-.237.263-.54.468-.909.614-.37.144-.793.216-1.268.216zm6.434-7.046v-1.24h6.516v1.24h-2.524v6.926h-1.467v-6.926zm9.532 7.046c-.614 0-1.145-.128-1.591-.383-.444-.258-.786-.622-1.025-1.093-.239-.473-.359-1.03-.359-1.671 0-.63.12-1.183.359-1.658.242-.479.579-.851 1.013-1.117.433-.268.942-.403 1.527-.403.377 0 .734.062 1.068.184.338.119.636.306.894.558.26.253.465.574.614.965.149.388.223.851.223 1.388v.442h-5.02v-.973h3.636c-.002-.276-.062-.522-.179-.737-.117-.218-.28-.39-.49-.515-.208-.125-.45-.187-.726-.187-.295 0-.554.072-.778.215-.223.141-.397.327-.522.558-.122.229-.185.48-.188.754v.849c0 .357.066.662.196.918.13.252.312.446.546.582.234.133.508.199.822.199.21 0 .4-.029.57-.088.17-.061.317-.15.442-.267s.22-.262.283-.434l1.348.151c-.085.356-.247.667-.486.933-.237.263-.54.468-.909.614-.37.144-.793.216-1.268.216zm5.707.004c-.388 0-.738-.07-1.049-.208-.308-.141-.553-.348-.734-.622-.178-.274-.267-.611-.267-1.013 0-.345.064-.631.192-.857.127-.226.301-.407.522-.542.221-.136.469-.238.746-.307.279-.072.567-.124.865-.156.359-.037.65-.07.873-.099.223-.032.386-.08.487-.144.103-.067.155-.169.155-.307v-.024c0-.3-.089-.533-.267-.698s-.435-.247-.77-.247c-.353 0-.634.077-.841.231-.205.154-.343.337-.415.547l-1.347-.192c.106-.372.281-.683.526-.933.244-.253.544-.441.897-.566.354-.128.744-.192 1.172-.192.295 0 .589.035.882.104.292.069.559.184.801.343.242.157.436.371.582.642.149.271.224.61.224 1.017v4.099h-1.388v-.841h-.048c-.088.17-.211.329-.371.478-.157.146-.355.265-.594.355-.236.088-.514.132-.833.132zm.375-1.061c.289 0 .541-.057.753-.172.213-.117.376-.271.491-.462.117-.191.175-.4.175-.626v-.722c-.045.037-.122.072-.231.104-.106.032-.226.06-.359.084-.133.023-.265.045-.395.063-.13.019-.243.035-.339.048-.215.029-.408.077-.578.144-.17.066-.304.159-.403.279-.098.117-.147.268-.147.454 0 .266.097.467.291.603.194.135.441.203.742.203zm4.31.937v-6.125h1.38v1.041h.072c.127-.351.338-.625.634-.822.295-.199.647-.299 1.056-.299.415 0 .765.101 1.049.303.287.2.489.472.606.818h.064c.135-.34.364-.612.686-.814.324-.204.708-.307 1.152-.307.564 0 1.024.179 1.38.535s.534.876.534 1.559v4.111h-1.447v-3.888c0-.38-.101-.658-.303-.833-.202-.178-.45-.267-.742-.267-.348 0-.621.109-.818.327-.194.215-.291.495-.291.841v3.82h-1.415v-3.948c0-.316-.096-.569-.287-.757-.189-.189-.436-.283-.742-.283-.207 0-.396.053-.566.159-.17.104-.306.251-.407.443-.101.188-.151.409-.151.662v3.724zm19.638-8.166v8.166h-1.316l-3.848-5.563h-.068v5.563h-1.479v-8.166h1.323l3.844 5.566h.072v-5.566zm3.31 8.29c-.388 0-.737-.07-1.048-.208-.309-.141-.553-.348-.734-.622-.178-.274-.267-.611-.267-1.013 0-.345.063-.631.191-.857s.302-.407.522-.542c.221-.136.47-.238.746-.307.279-.072.568-.124.865-.156.359-.037.65-.07.874-.099.223-.032.385-.08.486-.144.104-.067.156-.169.156-.307v-.024c0-.3-.089-.533-.268-.698-.178-.165-.434-.247-.769-.247-.354 0-.634.077-.841.231-.205.154-.343.337-.415.547l-1.348-.192c.106-.372.282-.683.526-.933.245-.253.544-.441.898-.566.353-.128.744-.192 1.172-.192.295 0 .589.035.881.104.293.069.56.184.802.343.242.157.436.371.582.642.149.271.223.61.223 1.017v4.099h-1.388v-.841h-.047c-.088.17-.212.329-.371.478-.157.146-.355.265-.594.355-.237.088-.515.132-.834.132zm.375-1.061c.29 0 .541-.057.754-.172.212-.117.376-.271.49-.462.117-.191.176-.4.176-.626v-.722c-.046.037-.123.072-.232.104-.106.032-.226.06-.359.084-.132.023-.264.045-.394.063-.131.019-.244.035-.339.048-.216.029-.408.077-.578.144-.171.066-.305.159-.403.279-.099.117-.148.268-.148.454 0 .266.097.467.291.603.194.135.442.203.742.203zm4.311.937v-6.125h1.379v1.041h.072c.128-.351.339-.625.634-.822.295-.199.647-.299 1.057-.299.414 0 .764.101 1.048.303.288.2.49.472.607.818h.063c.136-.34.365-.612.686-.814.325-.204.709-.307 1.153-.307.563 0 1.023.179 1.379.535.357.356.535.876.535 1.559v4.111h-1.448v-3.888c0-.38-.101-.658-.303-.833-.202-.178-.449-.267-.742-.267-.348 0-.62.109-.817.327-.194.215-.291.495-.291.841v3.82h-1.416v-3.948c0-.316-.095-.569-.287-.757-.189-.189-.436-.283-.741-.283-.208 0-.397.053-.567.159-.17.104-.305.251-.406.443-.101.188-.152.409-.152.662v3.724zm12.789.12c-.615 0-1.145-.128-1.591-.383-.444-.258-.786-.622-1.025-1.093-.24-.473-.359-1.03-.359-1.671 0-.63.119-1.183.359-1.658.242-.479.579-.851 1.013-1.117.433-.268.942-.403 1.527-.403.377 0 .734.062 1.068.184.338.119.636.306.894.558.26.253.465.574.614.965.149.388.223.851.223 1.388v.442h-5.02v-.973h3.636c-.002-.276-.062-.522-.179-.737-.117-.218-.281-.39-.491-.515-.207-.125-.449-.187-.725-.187-.295 0-.555.072-.778.215-.223.141-.397.327-.522.558-.122.229-.185.48-.188.754v.849c0 .357.066.662.196.918.13.252.312.446.546.582.234.133.508.199.821.199.211 0 .401-.029.571-.088.17-.061.317-.15.442-.267s.22-.262.283-.434l1.348.151c-.085.356-.247.667-.486.933-.237.263-.54.468-.909.614-.37.144-.793.216-1.268.216z" fill="#2a3140"/><path d="m262.6 261.334c0-7.419 6.015-13.434 13.434-13.434h45.329c7.419 0 13.434 6.015 13.434 13.434s-6.015 13.434-13.434 13.434h-45.329c-7.419 0-13.434-6.015-13.434-13.434z" fill="#f8f8f8"/><path d="m282.213 255.064c.346 0 .627.281.627.627v2.356l-1.254 1.253v-2.982h-8.777v10.031h8.777v-1.729l1.254-1.254v3.61c0 .346-.281.627-.627.627h-10.03c-.346 0-.627-.281-.627-.627v-11.285c0-.346.281-.627.627-.627zm1.115 4.268.886.887-4.876 4.876-.888-.001.002-.886zm-5.503 2.002v1.253h-3.135v-1.253zm1.88-2.508v1.254h-5.015v-1.254z" fill="#8992a3"/><path d="m297.388 265.834h-2.952v-9.119h3.046c.893 0 1.66.183 2.301.548.642.362 1.133.883 1.474 1.563.345.677.517 1.488.517 2.435 0 .95-.174 1.766-.521 2.449-.345.683-.843 1.208-1.496 1.576-.653.365-1.443.548-2.369.548zm-1.576-1.202h1.5c.695 0 1.272-.131 1.732-.392.46-.264.805-.646 1.033-1.144.229-.502.343-1.113.343-1.835 0-.715-.114-1.322-.343-1.821-.225-.498-.562-.877-1.01-1.135-.449-.258-1.005-.387-1.67-.387h-1.585zm7.566 1.202v-6.839h1.286v1.086h.072c.124-.368.344-.657.659-.868.317-.214.676-.32 1.077-.32.083 0 .181.003.294.009.116.005.206.013.272.022v1.273c-.054-.015-.149-.031-.285-.049-.137-.021-.273-.031-.41-.031-.315 0-.595.067-.841.2-.244.131-.437.314-.579.548-.143.232-.214.496-.214.793v4.176zm6.741.151c-.434 0-.825-.08-1.176-.24-.35-.163-.628-.399-.832-.708-.202-.309-.303-.687-.303-1.135 0-.386.074-.704.223-.953.148-.25.348-.447.601-.592.252-.146.534-.256.846-.33.311-.074.629-.13.952-.169.41-.048.742-.086.998-.116.255-.032.441-.084.556-.156.116-.071.174-.187.174-.347v-.031c0-.389-.11-.69-.33-.904-.216-.214-.54-.321-.97-.321-.448 0-.802.1-1.06.299-.255.196-.432.414-.53.654l-1.251-.285c.149-.415.365-.751.65-1.006.288-.258.619-.445.993-.561.374-.119.767-.178 1.18-.178.273 0 .563.033.868.098.309.062.597.178.864.347.27.169.491.411.663.726.173.312.259.717.259 1.215v4.542h-1.3v-.935h-.054c-.086.172-.215.341-.387.508-.172.166-.394.304-.664.414-.27.109-.593.164-.97.164zm.289-1.068c.368 0 .683-.073.944-.218.264-.146.465-.336.601-.57.14-.238.209-.492.209-.762v-.881c-.047.047-.139.092-.276.133-.133.039-.286.073-.458.103-.172.026-.34.052-.503.075-.164.021-.3.039-.41.054-.258.032-.494.087-.708.165-.211.077-.38.188-.508.334-.124.142-.187.332-.187.569 0 .33.122.579.366.748.243.167.553.25.93.25zm8.114-5.922v1.069h-3.865v-1.069zm-2.805 6.839v-7.632c0-.427.093-.782.28-1.064.187-.285.435-.497.744-.636.308-.143.644-.214 1.006-.214.267 0 .496.022.686.067.19.041.331.08.423.115l-.312 1.078c-.062-.018-.143-.039-.241-.062-.097-.027-.216-.04-.356-.04-.323 0-.555.08-.694.24-.137.16-.205.392-.205.695v7.453zm7.371-6.839v1.069h-3.736v-1.069zm-2.734-1.638h1.331v6.469c0 .258.039.453.116.583.077.128.176.215.298.263.125.044.26.067.405.067.107 0 .201-.008.281-.023.08-.014.142-.026.187-.035l.24 1.1c-.077.029-.187.059-.329.089-.143.032-.321.05-.534.053-.351.006-.677-.056-.98-.187s-.548-.332-.735-.606c-.187-.273-.28-.615-.28-1.028z" fill="#2a3140"/></g><g filter="url(#d)"><path d="m0 0h640v57.9878h-640z" fill="#fafbfc" transform="translate(0 303.041)"/><rect fill="#fff" height="11.6425" rx="1.34337" stroke="#c9d0db" stroke-width=".895579" width="11.6425" x="22.8369" y="326.215"/><rect fill="#f3f4f7" height="17.9116" rx="1.79116" width="17.9116" x="51.9438" y="322.826"/><path d="m56.4214 329.662.5277-.567 3.9502 4.241 3.9502-4.241.5277.567-4.4779 4.807z" fill="#2a3140"/><path d="m79.8389 337.035v-10.421h3.908c.8006 0 1.4723.139 2.015.417.5462.278.9584.668 1.2366 1.17.2815.499.4223 1.081.4223 1.746 0 .668-.1425 1.248-.4274 1.74-.2816.489-.6972.867-1.2467 1.135-.5496.264-1.2247.397-2.0252.397h-2.7835v-1.567h2.529c.4682 0 .8515-.065 1.15-.194.2986-.132.5191-.324.6615-.575.1459-.254.2188-.566.2188-.936s-.0729-.685-.2188-.947c-.1458-.264-.368-.464-.6666-.6-.2985-.139-.6835-.209-1.1551-.209h-1.73v8.844zm5.3837-4.722 2.5798 4.722h-2.1066l-2.5341-4.722zm8.8362 1.435v-4.529h1.842v7.816h-1.7861v-1.389h-.0814c-.1764.438-.4664.795-.8701 1.074-.4003.278-.8939.417-1.4808.417-.5122 0-.9651-.114-1.3586-.341-.3901-.231-.6954-.565-.9159-1.002-.2205-.441-.3308-.974-.3308-1.598v-4.977h1.8421v4.692c0 .495.1356.889.407 1.18.2714.292.6276.438 1.0686.438.2714 0 .5343-.066.7887-.198.2545-.133.4631-.33.6259-.591.1663-.264.2494-.595.2494-.992zm5.5783-1.293v4.58h-1.8421v-7.816h1.7606v1.328h.0916c.1798-.437.4668-.785.8598-1.043.397-.258.887-.387 1.471-.387.539 0 1.009.116 1.409.346.404.231.716.565.937 1.003.223.437.334.968.33 1.593v4.976h-1.842v-4.691c0-.523-.135-.932-.407-1.227-.268-.295-.639-.442-1.114-.442-.322 0-.609.071-.86.213-.248.139-.4428.341-.5853.606-.1391.264-.2086.585-.2086.961zm10.5259 4.58v-10.421h1.887v4.412h4.829v-4.412h1.893v10.421h-1.893v-4.427h-4.829v4.427zm10.581 0v-7.816h1.842v7.816zm.926-8.925c-.291 0-.542-.097-.753-.29-.21-.197-.315-.433-.315-.707 0-.279.105-.514.315-.708.211-.197.462-.295.753-.295.295 0 .546.098.753.295.211.194.316.429.316.708 0 .274-.105.51-.316.707-.207.193-.458.29-.753.29zm8.988 3.175-1.679.183c-.048-.169-.131-.329-.25-.478-.115-.149-.271-.27-.468-.361-.197-.092-.437-.138-.722-.138-.384 0-.706.083-.967.25-.258.166-.385.381-.382.646-.003.227.08.412.25.555.173.142.457.259.854.351l1.334.285c.739.159 1.289.412 1.648.758.363.346.546.799.55 1.358-.004.492-.148.927-.433 1.303-.281.373-.673.665-1.175.875-.502.211-1.079.316-1.73.316-.957 0-1.727-.2-2.31-.601-.584-.403-.932-.965-1.044-1.684l1.797-.173c.081.353.254.619.519.799.264.18.609.27 1.033.27.437 0 .788-.09 1.053-.27.268-.18.402-.402.402-.667 0-.224-.087-.408-.26-.554-.169-.146-.434-.258-.793-.336l-1.334-.28c-.749-.156-1.304-.419-1.663-.789-.36-.373-.538-.844-.535-1.414-.003-.482.127-.899.392-1.252.268-.356.64-.631 1.114-.824.479-.197 1.03-.296 1.654-.296.916 0 1.637.195 2.163.586.529.39.856.917.982 1.582zm5.59-2.066v1.425h-4.494v-1.425zm-3.384-1.872h1.842v7.337c0 .248.037.438.112.57.078.129.18.217.305.265.126.047.265.071.417.071.116 0 .221-.008.316-.025.098-.017.173-.033.224-.046l.31 1.44c-.098.034-.239.071-.422.112-.18.04-.401.064-.662.071-.461.014-.877-.056-1.246-.209-.37-.156-.664-.397-.881-.722-.213-.326-.319-.733-.315-1.221zm8.25 9.841c-.764 0-1.425-.168-1.985-.504s-.994-.806-1.303-1.409c-.305-.604-.458-1.31-.458-2.117 0-.808.153-1.515.458-2.122.309-.607.743-1.079 1.303-1.415s1.221-.504 1.985-.504c.763 0 1.424.168 1.984.504s.992.808 1.298 1.415c.308.607.463 1.314.463 2.122 0 .807-.155 1.513-.463 2.117-.306.603-.738 1.073-1.298 1.409s-1.221.504-1.984.504zm.01-1.476c.414 0 .76-.114 1.038-.341.278-.23.485-.539.621-.926.139-.387.208-.817.208-1.292 0-.479-.069-.911-.208-1.298-.136-.39-.343-.7-.621-.931s-.624-.346-1.038-.346c-.424 0-.777.115-1.059.346-.278.231-.487.541-.626.931-.135.387-.203.819-.203 1.298 0 .475.068.905.203 1.292.139.387.348.696.626.926.282.227.635.341 1.059.341zm5.298 1.323v-7.816h1.786v1.303h.082c.142-.451.386-.799.732-1.043.35-.248.748-.372 1.196-.372.102 0 .216.005.341.016.129.006.236.018.321.035v1.695c-.078-.028-.202-.051-.372-.072-.166-.023-.327-.035-.483-.035-.336 0-.638.073-.906.219-.265.142-.473.34-.626.595-.153.254-.229.548-.229.88v4.595zm7.064 2.931c-.251 0-.483-.02-.697-.061-.21-.037-.378-.081-.504-.132l.428-1.435c.268.078.507.115.717.112.211-.004.395-.07.555-.199.163-.125.3-.336.412-.631l.158-.422-2.834-7.979h1.954l1.801 5.903h.081l1.807-5.903h1.959l-3.13 8.763c-.146.413-.339.768-.58 1.063-.241.299-.536.526-.885.682-.346.159-.76.239-1.242.239z" fill="#404857"/></g><g filter="url(#e)"><path d="m0 0h701.238v83.4143h-701.238z" fill="#fff" transform="translate(0 361.029)"/><rect fill="#fff" height="10.4268" rx="1.20309" stroke="#c9d0db" stroke-width=".802061" width="10.4268" x="20.4528" y="397.524"/><rect fill="#f2f4f7" height="57.7484" rx="1.60412" width="91.435" x="44.9155" y="373.861"/><path d="m149.989 406.236v-8.166h5.232v1.24h-3.753v2.217h3.394v1.24h-3.394v3.469zm6.516 0v-6.125h1.443v6.125zm.725-6.994c-.228 0-.425-.076-.59-.227-.165-.154-.247-.339-.247-.554 0-.218.082-.403.247-.555.165-.154.362-.231.59-.231.232 0 .428.077.591.231.164.152.247.337.247.555 0 .215-.083.4-.247.554-.163.151-.359.227-.591.227zm3.646-1.172v8.166h-1.443v-8.166zm4.543 2.041v1.117h-3.521v-1.117zm-2.652-1.467h1.444v5.75c0 .194.029.343.087.447.061.101.141.17.24.207.098.037.207.056.327.056.09 0 .172-.007.247-.02.077-.013.135-.025.175-.036l.243 1.129c-.077.026-.187.055-.331.087-.14.032-.313.051-.518.056-.361.011-.687-.044-.977-.163-.29-.123-.52-.311-.69-.567-.167-.255-.25-.574-.247-.957zm6.505 7.712c-.614 0-1.145-.128-1.591-.383-.444-.258-.786-.622-1.025-1.092-.239-.474-.359-1.031-.359-1.671 0-.63.12-1.183.359-1.659.242-.479.579-.851 1.013-1.117.433-.268.942-.402 1.527-.402.377 0 .734.061 1.069.183.337.12.635.306.893.558.26.253.465.575.614.965.149.389.223.851.223 1.388v.443h-5.02v-.973h3.637c-.003-.277-.063-.523-.18-.738-.117-.218-.28-.389-.49-.514-.208-.125-.45-.188-.726-.188-.295 0-.554.072-.778.216-.223.14-.397.327-.522.558-.122.228-.185.48-.187.753v.85c0 .356.065.662.195.917.13.252.312.447.546.582.234.133.508.199.822.199.21 0 .4-.029.57-.087.17-.061.318-.15.442-.267.125-.117.22-.262.284-.435l1.347.151c-.085.357-.247.668-.486.934-.237.263-.54.467-.909.614-.37.143-.792.215-1.268.215zm3.944-.12v-6.125h1.4v1.021h.064c.111-.353.303-.626.574-.817.274-.194.586-.291.937-.291.08 0 .169.004.267.012.101.005.185.014.251.028v1.327c-.061-.021-.158-.039-.291-.055-.13-.019-.256-.028-.378-.028-.264 0-.5.057-.71.171-.208.112-.371.267-.491.467-.119.199-.179.429-.179.69v3.6zm7.302 0v-8.166h1.443v3.054h.06c.074-.149.179-.307.315-.474.135-.17.319-.315.55-.435.231-.122.526-.183.885-.183.474 0 .9.121 1.28.363.383.239.686.594.909 1.064.226.468.339 1.042.339 1.723 0 .672-.11 1.244-.331 1.715-.22.47-.521.829-.901 1.076s-.811.371-1.292.371c-.351 0-.642-.058-.873-.175s-.417-.258-.558-.423c-.138-.168-.246-.326-.323-.475h-.084v.965zm1.415-3.062c0 .396.056.743.168 1.041.114.297.277.53.49.697.215.165.476.248.782.248.319 0 .586-.085.801-.256.215-.172.378-.408.487-.705.111-.301.167-.642.167-1.025 0-.38-.054-.718-.163-1.013s-.272-.526-.487-.694c-.215-.167-.484-.251-.805-.251-.309 0-.571.081-.786.243s-.379.39-.49.682c-.109.293-.164.637-.164 1.033zm6.282 5.359c-.196 0-.378-.016-.546-.048-.165-.029-.296-.064-.395-.103l.335-1.125c.21.061.398.091.563.088.164-.003.309-.055.434-.156.128-.098.235-.263.323-.494l.124-.331-2.221-6.253h1.531l1.412 4.626h.063l1.416-4.626h1.535l-2.452 6.867c-.115.324-.266.602-.455.833-.189.234-.42.412-.694.535-.271.125-.595.187-.973.187zm8.063-9.223v-1.24h6.516v1.24h-2.524v6.926h-1.468v-6.926zm9.531 7.046c-.614 0-1.144-.128-1.591-.383-.444-.258-.785-.622-1.024-1.092-.24-.474-.359-1.031-.359-1.671 0-.63.119-1.183.359-1.659.241-.479.579-.851 1.012-1.117.434-.268.943-.402 1.528-.402.377 0 .733.061 1.068.183.338.12.636.306.893.558.261.253.466.575.615.965.148.389.223.851.223 1.388v.443h-5.02v-.973h3.636c-.002-.277-.062-.523-.179-.738-.117-.218-.281-.389-.491-.514-.207-.125-.449-.188-.725-.188-.296 0-.555.072-.778.216-.223.14-.397.327-.522.558-.123.228-.185.48-.188.753v.85c0 .356.065.662.196.917.13.252.312.447.546.582.234.133.508.199.821.199.21 0 .4-.029.571-.087.17-.061.317-.15.442-.267s.219-.262.283-.435l1.348.151c-.085.357-.247.668-.486.934-.237.263-.54.467-.91.614-.369.143-.792.215-1.268.215zm8.786-4.626-1.316.144c-.037-.133-.102-.258-.195-.375-.091-.117-.213-.211-.367-.283s-.343-.108-.566-.108c-.301 0-.553.066-.758.196-.202.13-.302.299-.299.506-.003.178.062.323.195.435.136.111.359.203.67.275l1.045.223c.579.125 1.01.323 1.292.594.284.272.428.626.43 1.065-.002.386-.115.726-.338 1.021-.221.292-.528.521-.922.686-.393.165-.845.247-1.355.247-.75 0-1.353-.157-1.811-.471-.457-.316-.729-.756-.817-1.319l1.407-.136c.064.276.2.485.407.626.208.141.477.211.81.211.343 0 .618-.07.825-.211.21-.141.315-.315.315-.522 0-.176-.068-.321-.203-.435-.133-.114-.341-.202-.622-.263l-1.045-.219c-.588-.123-1.022-.329-1.304-.619-.282-.292-.421-.661-.419-1.108-.002-.378.1-.705.307-.981.21-.279.501-.494.874-.646.374-.154.806-.231 1.296-.231.717 0 1.282.153 1.694.458.415.306.672.719.77 1.24zm4.38-1.619v1.117h-3.521v-1.117zm-2.652-1.467h1.444v5.75c0 .194.029.343.088.447.061.101.141.17.239.207s.207.056.327.056c.09 0 .173-.007.247-.02.077-.013.136-.025.176-.036l.243 1.129c-.077.026-.188.055-.331.087-.141.032-.314.051-.519.056-.361.011-.687-.044-.976-.163-.29-.123-.52-.311-.69-.567-.168-.255-.25-.574-.248-.957zm11.147 1.671c-.038-.348-.194-.62-.471-.814-.274-.194-.63-.291-1.069-.291-.308 0-.572.047-.793.14s-.39.219-.507.379c-.117.159-.176.341-.179.546 0 .17.039.318.116.443.079.125.187.231.323.319.135.085.285.156.45.215.165.058.331.108.499.147l.765.192c.309.072.605.169.889.291.288.122.544.276.77.463.229.186.409.41.542.673.133.264.2.572.2.926 0 .478-.123.899-.367 1.264-.245.361-.598.644-1.061.849-.46.202-1.017.303-1.671.303-.635 0-1.186-.098-1.654-.295-.466-.197-.83-.484-1.093-.861-.26-.378-.401-.838-.423-1.38h1.456c.021.284.109.521.263.71.154.188.355.329.602.422.25.093.529.14.837.14.322 0 .604-.048.846-.144.244-.098.436-.234.574-.406.138-.176.209-.381.211-.614-.002-.213-.065-.389-.187-.527-.122-.141-.294-.258-.514-.351-.218-.095-.474-.18-.766-.255l-.929-.239c-.673-.173-1.204-.435-1.595-.786-.388-.353-.582-.822-.582-1.407 0-.481.13-.903.39-1.264.264-.362.621-.642 1.073-.842.452-.202.964-.303 1.535-.303.58 0 1.088.101 1.524.303.438.2.782.477 1.032.834.25.353.379.76.387 1.22zm5.848-.204v1.117h-3.521v-1.117zm-2.651-1.467h1.443v5.75c0 .194.029.343.088.447.061.101.141.17.239.207s.207.056.327.056c.09 0 .173-.007.247-.02.077-.013.136-.025.176-.036l.243 1.129c-.077.026-.188.055-.331.087-.141.032-.314.051-.518.056-.362.011-.688-.044-.977-.163-.29-.123-.52-.311-.69-.567-.168-.255-.25-.574-.247-.957zm5.621 7.716c-.388 0-.738-.069-1.049-.207-.308-.141-.553-.349-.733-.622-.179-.274-.268-.612-.268-1.013 0-.346.064-.632.192-.858.127-.226.301-.406.522-.542.221-.135.469-.238.746-.307.279-.072.567-.124.865-.155.359-.038.65-.071.873-.1.224-.032.386-.08.487-.144.104-.066.155-.169.155-.307v-.024c0-.3-.089-.533-.267-.697-.178-.165-.434-.248-.769-.248-.354 0-.634.077-.842.232-.204.154-.343.336-.414.546l-1.348-.192c.106-.372.282-.683.526-.933.245-.252.544-.441.897-.566.354-.127.745-.191 1.173-.191.295 0 .588.034.881.103.292.07.559.184.801.343.242.157.436.371.583.642.148.271.223.61.223 1.017v4.099h-1.388v-.841h-.048c-.087.17-.211.33-.371.478-.156.147-.354.265-.594.355-.236.088-.514.132-.833.132zm.375-1.061c.29 0 .541-.057.753-.171.213-.117.377-.271.491-.463.117-.191.175-.4.175-.626v-.722c-.045.038-.122.072-.231.104-.106.032-.226.06-.359.084s-.264.045-.395.064c-.13.018-.243.034-.339.048-.215.029-.408.077-.578.143-.17.067-.304.16-.402.279-.099.117-.148.269-.148.455 0 .266.097.466.291.602.194.135.441.203.742.203zm7.369-5.188v1.117h-3.521v-1.117zm-2.652-1.467h1.444v5.75c0 .194.029.343.087.447.061.101.141.17.239.207.099.037.208.056.327.056.091 0 .173-.007.248-.02.077-.013.135-.025.175-.036l.243 1.129c-.077.026-.187.055-.331.087-.14.032-.313.051-.518.056-.361.011-.687-.044-.977-.163-.29-.123-.52-.311-.69-.567-.167-.255-.25-.574-.247-.957zm7.763 5.016v-3.549h1.443v6.125h-1.399v-1.088h-.064c-.138.343-.366.623-.682.841-.314.218-.701.327-1.16.327-.402 0-.757-.089-1.065-.267-.306-.181-.545-.443-.718-.786-.173-.345-.259-.763-.259-1.252v-3.9h1.443v3.677c0 .388.107.696.319.925.213.229.492.343.838.343.212 0 .418-.052.618-.155.199-.104.363-.258.49-.463.131-.207.196-.467.196-.778zm7.768-1.93-1.315.144c-.038-.133-.103-.258-.196-.375-.09-.117-.213-.211-.367-.283s-.343-.108-.566-.108c-.3 0-.553.066-.758.196-.202.13-.301.299-.299.506-.002.178.063.323.196.435.135.111.359.203.67.275l1.044.223c.58.125 1.011.323 1.292.594.285.272.428.626.431 1.065-.003.386-.116.726-.339 1.021-.221.292-.528.521-.921.686s-.845.247-1.356.247c-.749 0-1.353-.157-1.81-.471-.457-.316-.73-.756-.818-1.319l1.408-.136c.064.276.199.485.407.626.207.141.477.211.809.211.343 0 .618-.07.826-.211.21-.141.315-.315.315-.522 0-.176-.068-.321-.204-.435-.133-.114-.34-.202-.622-.263l-1.045-.219c-.587-.123-1.022-.329-1.303-.619-.282-.292-.422-.661-.419-1.108-.003-.378.1-.705.307-.981.21-.279.501-.494.873-.646.375-.154.807-.231 1.296-.231.718 0 1.283.153 1.695.458.415.306.671.719.769 1.24z" fill="#2a3140"/><path d="m264.6 402.736c0-7.419 6.015-13.433 13.434-13.433h45.329c7.419 0 13.434 6.014 13.434 13.433 0 7.42-6.015 13.434-13.434 13.434h-45.329c-7.419 0-13.434-6.014-13.434-13.434z" fill="#f8f8f8"/><path d="m284.213 396.467c.346 0 .627.281.627.627v2.355l-1.254 1.254v-2.982h-8.777v10.03h8.777v-1.729l1.254-1.254v3.61c0 .346-.281.627-.627.627h-10.03c-.346 0-.627-.281-.627-.627v-11.284c0-.346.281-.627.627-.627zm1.115 4.268.886.886-4.876 4.876-.888-.001.002-.885zm-5.503 2.001v1.254h-3.135v-1.254zm1.88-2.508v1.254h-5.015v-1.254z" fill="#8992a3"/><path d="m299.388 407.236h-2.952v-9.118h3.046c.893 0 1.66.182 2.301.547.642.362 1.133.883 1.474 1.563.345.677.517 1.489.517 2.436 0 .95-.174 1.766-.521 2.449-.345.682-.843 1.208-1.496 1.576-.653.365-1.443.547-2.369.547zm-1.576-1.202h1.5c.695 0 1.272-.13 1.732-.392.46-.264.805-.645 1.033-1.144.229-.502.343-1.113.343-1.834 0-.716-.114-1.323-.343-1.821-.225-.499-.562-.878-1.01-1.136-.449-.258-1.005-.387-1.67-.387h-1.585zm7.566 1.202v-6.839h1.286v1.087h.072c.124-.368.344-.658.659-.868.317-.214.676-.321 1.077-.321.083 0 .181.003.294.009.116.006.206.013.272.022v1.274c-.054-.015-.149-.032-.285-.049-.137-.021-.273-.032-.41-.032-.315 0-.595.067-.841.201-.244.13-.437.313-.579.547-.143.232-.214.496-.214.793v4.176zm6.741.152c-.434 0-.825-.08-1.176-.241-.35-.163-.628-.399-.832-.708-.202-.308-.303-.687-.303-1.135 0-.386.074-.704.223-.953.148-.249.348-.447.601-.592.252-.145.534-.255.846-.33.311-.074.629-.13.952-.169.41-.047.742-.086.998-.115.255-.033.441-.085.556-.156.116-.072.174-.187.174-.348v-.031c0-.389-.11-.69-.33-.904-.216-.213-.54-.32-.97-.32-.448 0-.802.099-1.06.298-.255.196-.432.414-.53.655l-1.251-.285c.149-.416.365-.751.65-1.007.288-.258.619-.445.993-.561.374-.118.767-.178 1.18-.178.273 0 .563.033.868.098.309.063.597.178.864.348.27.169.491.411.663.725.173.312.259.717.259 1.216v4.541h-1.3v-.935h-.054c-.086.172-.215.342-.387.508s-.394.304-.664.414-.593.165-.97.165zm.289-1.069c.368 0 .683-.073.944-.218.264-.145.465-.335.601-.57.14-.237.209-.491.209-.761v-.882c-.047.048-.139.092-.276.134-.133.038-.286.072-.458.102-.172.027-.34.052-.503.076-.164.021-.3.038-.41.053-.258.033-.494.088-.708.165-.211.077-.38.188-.508.334-.124.142-.187.332-.187.57 0 .329.122.579.366.748.243.166.553.249.93.249zm8.114-5.922v1.069h-3.865v-1.069zm-2.805 6.839v-7.631c0-.428.093-.782.28-1.064.187-.285.435-.497.744-.637.308-.142.644-.214 1.006-.214.267 0 .496.023.686.067.19.042.331.08.423.116l-.312 1.077c-.062-.017-.143-.038-.241-.062-.097-.027-.216-.04-.356-.04-.323 0-.555.08-.694.24-.137.161-.205.392-.205.695v7.453zm7.371-6.839v1.069h-3.736v-1.069zm-2.734-1.638h1.331v6.469c0 .259.039.453.116.584.077.127.176.215.298.262.125.045.26.067.405.067.107 0 .201-.007.281-.022s.142-.027.187-.036l.24 1.1c-.077.03-.187.059-.329.089-.143.033-.321.05-.534.053-.351.006-.677-.056-.98-.187-.303-.13-.548-.332-.735-.605s-.28-.616-.28-1.029z" fill="#2a3140"/></g></g></svg>